<svg width="16" height="16" viewBox="0 0 16 16" fill="none" xmlns="http://www.w3.org/2000/svg">
<path d="M14.775 13.055L13.25 13.815L11.83 10.5H7.49999C7.23477 10.5 6.98042 10.3946 6.79288 10.2071C6.60535 10.0196 6.49999 9.76522 6.49999 9.5V6.5C6.49999 6.23479 6.60535 5.98043 6.79288 5.79289C6.98042 5.60536 7.23477 5.5 7.49999 5.5C7.76521 5.5 8.01956 5.60536 8.2071 5.79289C8.39463 5.98043 8.49999 6.23479 8.49999 6.5V8.5H12V7.5H9.49999V6.5C9.49999 5.96957 9.28928 5.46086 8.9142 5.08579C8.53913 4.71071 8.03042 4.5 7.49999 4.5C6.96956 4.5 6.46085 4.71071 6.08578 5.08579C5.7107 5.46086 5.49999 5.96957 5.49999 6.5V7C4.65277 6.99953 3.82262 7.23825 3.10506 7.68868C2.38749 8.13911 1.81166 8.78296 1.44381 9.54616C1.07595 10.3094 0.931022 11.1609 1.02569 12.0028C1.12035 12.8447 1.45077 13.6428 1.97892 14.3053C2.50708 14.9677 3.21151 15.4676 4.01119 15.7475C4.81086 16.0273 5.67329 16.0757 6.49925 15.8871C7.32522 15.6985 8.08116 15.2805 8.68012 14.6813C9.27908 14.0822 9.69672 13.326 9.88499 12.5H8.85499C8.66954 13.122 8.31478 13.6802 7.83036 14.1122C7.34593 14.5442 6.75092 14.833 6.11181 14.9463C5.47271 15.0596 4.81469 14.9929 4.21129 14.7538C3.60789 14.5146 3.08287 14.1124 2.69491 13.592C2.30695 13.0717 2.07134 12.4537 2.01439 11.8071C1.95744 11.1605 2.0814 10.5109 2.37243 9.9307C2.66345 9.35053 3.11007 8.86272 3.66238 8.52177C4.21469 8.18082 4.85092 8.00017 5.49999 8V9.5C5.49999 10.0304 5.7107 10.5391 6.08578 10.9142C6.46085 11.2893 6.96956 11.5 7.49999 11.5H11.17L12.75 15.185L15.225 13.945L14.775 13.055Z" fill="#161616"/>
<path d="M7.74999 4C7.40387 4 7.06553 3.89737 6.77774 3.70507C6.48996 3.51278 6.26565 3.23947 6.1332 2.9197C6.00075 2.59993 5.96609 2.24806 6.03362 1.90859C6.10114 1.56913 6.26781 1.25731 6.51255 1.01256C6.75729 0.767822 7.06911 0.601151 7.40858 0.533627C7.74805 0.466102 8.09991 0.500758 8.41969 0.633212C8.73946 0.765665 9.01277 0.989967 9.20506 1.27775C9.39735 1.56554 9.49999 1.90388 9.49999 2.25C9.49999 2.71413 9.31562 3.15925 8.98743 3.48744C8.65924 3.81563 8.21412 4 7.74999 4ZM7.74999 1.5C7.60165 1.5 7.45665 1.54399 7.33331 1.6264C7.20998 1.70881 7.11385 1.82594 7.05708 1.96299C7.00031 2.10003 6.98546 2.25083 7.0144 2.39632C7.04334 2.5418 7.11477 2.67544 7.21966 2.78033C7.32455 2.88522 7.45819 2.95665 7.60367 2.98559C7.74916 3.01453 7.89996 2.99968 8.037 2.94291C8.17405 2.88614 8.29118 2.79002 8.37359 2.66668C8.456 2.54334 8.49999 2.39834 8.49999 2.25C8.49999 2.05109 8.42097 1.86032 8.28032 1.71967C8.13967 1.57902 7.9489 1.5 7.74999 1.5Z" fill="#161616"/>
</svg>
