<svg width="16" height="16" viewBox="0 0 16 16" fill="none" xmlns="http://www.w3.org/2000/svg">
<path d="M8 13.9999C6.9122 13.9999 5.84883 13.6773 4.94436 13.073C4.03989 12.4686 3.33494 11.6096 2.91866 10.6046C2.50238 9.59965 2.39346 8.49378 2.60568 7.42689C2.8179 6.35999 3.34172 5.37998 4.11091 4.61079C4.8801 3.84161 5.86011 3.31778 6.927 3.10556C7.9939 2.89334 9.09977 3.00226 10.1048 3.41854C11.1098 3.83483 11.9687 4.53977 12.5731 5.44425C13.1774 6.34872 13.5 7.41208 13.5 8.49988C13.5 9.95857 12.9205 11.3575 11.8891 12.389C10.8576 13.4204 9.45869 13.9999 8 13.9999ZM8 3.99988C7.10998 3.99988 6.23995 4.2638 5.49993 4.75827C4.75991 5.25274 4.18314 5.95554 3.84254 6.77781C3.50195 7.60007 3.41283 8.50487 3.58647 9.37779C3.7601 10.2507 4.18868 11.0525 4.81802 11.6819C5.44736 12.3112 6.24918 12.7398 7.12209 12.9134C7.99501 13.0871 8.89981 12.9979 9.72208 12.6573C10.5443 12.3167 11.2471 11.74 11.7416 10.9999C12.2361 10.2599 12.5 9.3899 12.5 8.49988C12.5 7.30641 12.0259 6.16181 11.182 5.3179C10.3381 4.47399 9.19347 3.99988 8 3.99988Z" fill="#161616"/>
<path d="M3.79082 2.00146L2.00018 3.79585L2.70803 4.50222L4.49867 2.70783L3.79082 2.00146Z" fill="#161616"/>
<path d="M12.2076 1.99707L11.4997 2.70344L13.2904 4.49783L13.9982 3.79146L12.2076 1.99707Z" fill="#161616"/>
<path d="M10.5 7.99988H5.5V8.99988H10.5V7.99988Z" fill="#161616"/>
</svg>
