<svg width="16" height="16" viewBox="0 0 16 16" fill="none" xmlns="http://www.w3.org/2000/svg">
<path d="M10.5 9.50002H8.49999V11.5H10.5V9.50002Z" fill="#161616"/>
<path d="M7.49999 9.50002H5.49999V11.5H7.49999V9.50002Z" fill="#161616"/>
<path d="M10.5 12.5H8.49999V14.5H10.5V12.5Z" fill="#161616"/>
<path d="M7.49999 12.5H5.49999V14.5H7.49999V12.5Z" fill="#161616"/>
<path d="M12.25 12.5H12V11.5H12.25C12.9628 11.5005 13.6479 11.224 14.1607 10.7288C14.6734 10.2337 14.9738 9.55866 14.9982 8.84627C15.0227 8.13388 14.7694 7.43986 14.2918 6.91071C13.8142 6.38156 13.1497 6.05869 12.4385 6.01027L12.0202 5.98197L11.9752 5.56497C11.8683 4.58531 11.4035 3.67962 10.6698 3.02167C9.93614 2.36371 8.98536 1.99983 7.99989 1.99983C7.01441 1.99983 6.06364 2.36371 5.32998 3.02167C4.59632 3.67962 4.13145 4.58531 4.02454 5.56497L3.97954 5.98197L3.56129 6.01027C2.85011 6.0587 2.18557 6.38158 1.70797 6.91075C1.23037 7.43991 0.977072 8.13396 1.00156 8.84637C1.02605 9.55878 1.3264 10.2338 1.83921 10.7289C2.35202 11.224 3.03716 11.5005 3.74999 11.5H3.99999V12.5H3.74999C2.81302 12.5005 1.90985 12.15 1.21846 11.5176C0.527072 10.8852 0.0975986 10.0168 0.0146712 9.08356C-0.0682563 8.15026 0.201376 7.21975 0.770437 6.47538C1.3395 5.73101 2.16672 5.22677 3.08909 5.06202C3.30724 3.91936 3.91703 2.88854 4.81342 2.1471C5.70981 1.40565 6.83669 1 7.99999 1C9.16328 1 10.2902 1.40565 11.1866 2.1471C12.083 2.88854 12.6927 3.91936 12.9109 5.06202C13.8333 5.22677 14.6605 5.73101 15.2295 6.47538C15.7986 7.21975 16.0682 8.15026 15.9853 9.08356C15.9024 10.0168 15.4729 10.8852 14.7815 11.5176C14.0901 12.15 13.187 12.5005 12.25 12.5Z" fill="#161616"/>
</svg>
