<svg width="16" height="16" viewBox="0 0 16 16" fill="none" xmlns="http://www.w3.org/2000/svg">
<path d="M15 2.99993C15.001 2.47968 14.7987 1.97963 14.4364 1.60631C14.0741 1.23298 13.5803 1.01589 13.0603 1.00128C12.5402 0.986667 12.035 1.1757 11.6523 1.52809C11.2696 1.88049 11.0396 2.3684 11.0114 2.88788L4.79321 4.13128C4.6478 3.82912 4.42857 3.56849 4.15578 3.37347C3.88299 3.17846 3.56545 3.05535 3.2325 3.01552C2.89955 2.97569 2.56193 3.02043 2.25084 3.14561C1.93975 3.27078 1.66523 3.47235 1.45266 3.73169C1.24008 3.99102 1.0963 4.29975 1.0346 4.62936C0.972911 4.95896 0.995293 5.2988 1.09968 5.61746C1.20407 5.93612 1.3871 6.22333 1.63186 6.45255C1.87661 6.68176 2.17519 6.84558 2.50001 6.92888V11.071C2.1589 11.1585 1.84701 11.3346 1.596 11.5816C1.34499 11.8286 1.1638 12.1376 1.07083 12.4773C0.977855 12.8169 0.976408 13.1751 1.06664 13.5155C1.15686 13.8559 1.33555 14.1664 1.58456 14.4154C1.83356 14.6644 2.14402 14.8431 2.48442 14.9333C2.82481 15.0235 3.18302 15.0221 3.52267 14.9291C3.86233 14.8361 4.17133 14.6549 4.41832 14.4039C4.66531 14.1529 4.84149 13.841 4.92896 13.4999H9.07106C9.15419 13.825 9.31794 14.1239 9.54718 14.3689C9.77642 14.6139 10.0637 14.7972 10.3826 14.9018C10.7014 15.0063 11.0415 15.0288 11.3713 14.9671C11.7011 14.9055 12.0101 14.7616 12.2696 14.5489C12.5291 14.3362 12.7307 14.0614 12.8559 13.7501C12.9811 13.4388 13.0258 13.101 12.9858 12.7678C12.9459 12.4346 12.8225 12.117 12.6272 11.8441C12.432 11.5712 12.171 11.352 11.8686 11.2067L13.1121 4.98868C13.6211 4.96078 14.1003 4.73926 14.4513 4.3695C14.8023 3.99975 14.9986 3.50976 15 2.99993ZM13 1.99993C13.1978 1.99993 13.3911 2.05858 13.5556 2.16846C13.72 2.27834 13.8482 2.43452 13.9239 2.61724C13.9996 2.79997 14.0194 3.00104 13.9808 3.19502C13.9422 3.389 13.847 3.56718 13.7071 3.70703C13.5673 3.84689 13.3891 3.94213 13.1951 3.98071C13.0011 4.0193 12.8001 3.99949 12.6173 3.92381C12.4346 3.84812 12.2784 3.71995 12.1685 3.5555C12.0587 3.39105 12 3.19771 12 2.99993C12.0003 2.7348 12.1058 2.48063 12.2932 2.29316C12.4807 2.10569 12.7349 2.00023 13 1.99993ZM2.00001 4.99993C2.00001 4.80215 2.05866 4.60881 2.16854 4.44436C2.27842 4.27991 2.4346 4.15173 2.61733 4.07605C2.80005 4.00036 3.00112 3.98056 3.1951 4.01914C3.38908 4.05773 3.56727 4.15297 3.70712 4.29282C3.84697 4.43267 3.94221 4.61086 3.9808 4.80484C4.01938 4.99882 3.99958 5.19988 3.92389 5.38261C3.8482 5.56534 3.72003 5.72151 3.55558 5.8314C3.39113 5.94128 3.19779 5.99993 3.00001 5.99993C2.73489 5.99962 2.48071 5.89417 2.29324 5.7067C2.10577 5.51923 2.00032 5.26505 2.00001 4.99993ZM3.00001 13.9999C2.80223 13.9999 2.60889 13.9413 2.44444 13.8314C2.27999 13.7215 2.15182 13.5653 2.07613 13.3826C2.00044 13.1999 1.98064 12.9988 2.01923 12.8048C2.05781 12.6109 2.15305 12.4327 2.2929 12.2928C2.43276 12.153 2.61094 12.0577 2.80492 12.0191C2.9989 11.9806 3.19997 12.0004 3.38269 12.076C3.56542 12.1517 3.7216 12.2799 3.83148 12.4444C3.94136 12.6088 4.00001 12.8021 4.00001 12.9999C3.99971 13.265 3.89425 13.5192 3.70678 13.7067C3.51931 13.8942 3.26513 13.9996 3.00001 13.9999ZM9.07106 12.4999H4.92896C4.83938 12.1562 4.65974 11.8426 4.40856 11.5914C4.15738 11.3402 3.84375 11.1606 3.50001 11.071V6.92888C3.90854 6.82264 4.27281 6.58947 4.54034 6.26295C4.80787 5.93643 4.96484 5.53342 4.98866 5.11198L11.2068 3.86858C11.4029 4.27153 11.7285 4.59708 12.1315 4.79313L10.888 11.0112C10.4665 11.035 10.0635 11.192 9.73699 11.4596C9.41047 11.7271 9.1773 12.0914 9.07106 12.4999ZM11 13.9999C10.8022 13.9999 10.6089 13.9413 10.4444 13.8314C10.28 13.7215 10.1518 13.5653 10.0761 13.3826C10.0004 13.1999 9.98064 12.9988 10.0192 12.8048C10.0578 12.6109 10.1531 12.4327 10.2929 12.2928C10.4328 12.153 10.6109 12.0577 10.8049 12.0191C10.9989 11.9806 11.2 12.0004 11.3827 12.076C11.5654 12.1517 11.7216 12.2799 11.8315 12.4444C11.9414 12.6088 12 12.8021 12 12.9999C11.9997 13.265 11.8943 13.5192 11.7068 13.7067C11.5193 13.8942 11.2651 13.9996 11 13.9999Z" fill="#161616"/>
</svg>
