<svg width="16" height="16" viewBox="0 0 16 16" fill="none" xmlns="http://www.w3.org/2000/svg">
<path d="M15 13.9998H1V14.9998H15V13.9998Z" fill="#161616"/>
<path d="M8.605 2.61481L9.3 2.80481L9.8 8.44981L12.735 9.23481C12.9713 9.29061 13.1792 9.43045 13.3199 9.62825C13.4607 9.82605 13.5247 10.0683 13.5 10.3098C13.4714 10.4891 13.3915 10.6563 13.27 10.7912C13.1484 10.926 12.9904 11.0228 12.815 11.0698C12.651 11.1122 12.479 11.1122 12.315 11.0698L2.965 8.56981C2.72514 8.50418 2.52082 8.34665 2.39634 8.13138C2.27185 7.91611 2.23724 7.66044 2.3 7.41981L3.175 4.16981L3.895 4.35981L4.2 6.94981L7.2 7.75981L8.605 2.61481ZM8.105 1.51481C8.02374 1.5388 7.94991 1.58305 7.89043 1.64339C7.83096 1.70374 7.7878 1.77821 7.765 1.85981L6.5 6.53481L5.095 6.15981L4.845 3.89481C4.82971 3.80348 4.78936 3.71819 4.72845 3.64845C4.66753 3.57871 4.58844 3.52725 4.5 3.49981L2.935 3.06981C2.85319 3.04725 2.76681 3.04725 2.685 3.06981C2.60432 3.09335 2.53087 3.13683 2.47145 3.19626C2.41202 3.25569 2.36853 3.32913 2.345 3.40981L1.345 7.15481C1.27924 7.40039 1.26253 7.65651 1.2958 7.90855C1.32907 8.16059 1.41168 8.4036 1.53891 8.62369C1.66614 8.84379 1.83549 9.03666 2.03729 9.19128C2.23909 9.3459 2.46938 9.45923 2.715 9.52481L12.07 12.0248C12.3302 12.0981 12.6028 12.1161 12.8703 12.0776C13.1378 12.0391 13.3943 11.945 13.6232 11.8013C13.8522 11.6576 14.0485 11.4676 14.1995 11.2434C14.3505 11.0193 14.4529 10.766 14.5 10.4998C14.5663 10.0113 14.4498 9.51559 14.173 9.10772C13.8961 8.69984 13.4784 8.40858 13 8.28981L10.74 7.68481L10.265 2.35481C10.2539 2.25626 10.2138 2.16322 10.1497 2.08755C10.0856 2.01187 10.0004 1.95696 9.905 1.92981L8.365 1.49981C8.28286 1.47988 8.19714 1.47988 8.115 1.49981L8.105 1.51481Z" fill="#161616"/>
</svg>
