<svg width="16" height="16" viewBox="0 0 16 16" fill="none" xmlns="http://www.w3.org/2000/svg">
<path d="M10.5 13.5902L9.20501 12.2952L8.50001 13.0002L10.5 15.0002L14 11.5002L13.295 10.7952L10.5 13.5902Z" fill="#161616"/>
<path d="M6.00001 12.0001C5.60445 12.0001 5.21777 11.8828 4.88887 11.663C4.55997 11.4433 4.30363 11.1309 4.15225 10.7655C4.00088 10.4 3.96127 9.99788 4.03844 9.60991C4.11561 9.22195 4.30609 8.86559 4.5858 8.58588C4.8655 8.30618 5.22187 8.11569 5.60983 8.03852C5.99779 7.96135 6.39993 8.00096 6.76538 8.15233C7.13083 8.30371 7.44319 8.56005 7.66295 8.88895C7.88272 9.21785 8.00001 9.60453 8.00001 10.0001C7.99946 10.5304 7.78857 11.0387 7.41361 11.4137C7.03866 11.7886 6.53028 11.9995 6.00001 12.0001ZM6.00001 9.00009C5.80223 9.00009 5.60889 9.05874 5.44444 9.16862C5.27999 9.27851 5.15182 9.43468 5.07613 9.61741C5.00045 9.80014 4.98064 10.0012 5.01923 10.1952C5.05781 10.3892 5.15305 10.5673 5.29291 10.7072C5.43276 10.8471 5.61094 10.9423 5.80492 10.9809C5.9989 11.0195 6.19997 10.9997 6.3827 10.924C6.56542 10.8483 6.7216 10.7201 6.83148 10.5557C6.94136 10.3912 7.00001 10.1979 7.00001 10.0001C6.99971 9.73497 6.89425 9.48079 6.70678 9.29332C6.51931 9.10585 6.26514 9.0004 6.00001 9.00009Z" fill="#161616"/>
<path d="M13 1.00005C12.6764 1.00124 12.3583 1.08377 12.075 1.24005L3.88001 5.48005C2.85007 5.96151 2.01519 6.77992 1.51331 7.80007C1.01143 8.82021 0.872583 9.98105 1.11971 11.0908C1.36683 12.2005 1.98514 13.1927 2.87248 13.9035C3.75982 14.6143 4.86309 15.0011 6.00001 15C6.33615 15.0011 6.67142 14.9659 7.00001 14.895V13.875C6.67306 13.9575 6.3372 13.9995 6.00001 14C5.20888 14 4.43552 13.7655 3.77773 13.3259C3.11993 12.8864 2.60724 12.2617 2.30449 11.5308C2.00174 10.7999 1.92253 9.99561 2.07687 9.21969C2.23121 8.44376 2.61217 7.73103 3.17158 7.17162C3.73099 6.61221 4.44372 6.23125 5.21965 6.07691C5.99557 5.92257 6.79984 6.00178 7.53074 6.30453C8.26165 6.60728 8.88636 7.11997 9.32589 7.77777C9.76541 8.43556 10 9.20892 10 10C10.0001 10.1672 9.99011 10.3341 9.97001 10.5H11.36L14.78 3.89505C14.9363 3.59122 15.0116 3.2522 14.9986 2.91077C14.9856 2.56933 14.8848 2.23703 14.7058 1.94596C14.5268 1.6549 14.2758 1.41492 13.977 1.24922C13.6782 1.08351 13.3417 0.997693 13 1.00005ZM10.93 9.17005C10.7545 8.14539 10.2646 7.20071 9.5282 6.46697C8.79177 5.73322 7.8453 5.24677 6.82001 5.07505L11.01 2.90505C11.01 2.93505 11 2.96505 11 3.00005C10.9999 3.26271 11.0516 3.52282 11.1521 3.7655C11.2526 4.00818 11.3999 4.22869 11.5856 4.41442C11.7714 4.60015 11.9919 4.74747 12.2346 4.84795C12.4772 4.94844 12.7373 5.00012 13 5.00005C13.03 5.00005 13.06 4.99005 13.095 4.99005L10.93 9.17005ZM13 4.00005C12.8022 4.00005 12.6089 3.9414 12.4444 3.83152C12.28 3.72164 12.1518 3.56546 12.0761 3.38273C12.0004 3.2 11.9806 2.99894 12.0192 2.80496C12.0578 2.61098 12.153 2.43279 12.2929 2.29294C12.4328 2.15309 12.6109 2.05785 12.8049 2.01926C12.9989 1.98068 13.2 2.00048 13.3827 2.07617C13.5654 2.15186 13.7216 2.28003 13.8315 2.44448C13.9414 2.60893 14 2.80227 14 3.00005C13.9992 3.26503 13.8936 3.51894 13.7063 3.70631C13.5189 3.89368 13.265 3.99928 13 4.00005Z" fill="#161616"/>
</svg>
