<svg width="16" height="16" viewBox="0 0 16 16" fill="none" xmlns="http://www.w3.org/2000/svg">
<path d="M12.5 4.50005C13.0523 4.50005 13.5 4.05234 13.5 3.50005C13.5 2.94777 13.0523 2.50005 12.5 2.50005C11.9477 2.50005 11.5 2.94777 11.5 3.50005C11.5 4.05234 11.9477 4.50005 12.5 4.50005Z" fill="#161616"/>
<path d="M6 11.5C5.70333 11.5 5.41332 11.4121 5.16665 11.2473C4.91998 11.0824 4.72772 10.8482 4.61418 10.5741C4.50065 10.3 4.47095 9.99838 4.52883 9.70741C4.5867 9.41644 4.72957 9.14917 4.93934 8.93939C5.14912 8.72961 5.4164 8.58675 5.70737 8.52887C5.99834 8.47099 6.29994 8.5007 6.57403 8.61423C6.84812 8.72776 7.08239 8.92002 7.24721 9.16669C7.41203 9.41337 7.5 9.70338 7.5 10C7.49957 10.3977 7.34139 10.779 7.06018 11.0602C6.77897 11.3414 6.3977 11.4996 6 11.5ZM6 9.50005C5.90111 9.50005 5.80444 9.52937 5.72222 9.58431C5.63999 9.63925 5.57591 9.71734 5.53806 9.80871C5.50022 9.90007 5.49032 10.0006 5.50961 10.0976C5.5289 10.1946 5.57652 10.2837 5.64645 10.3536C5.71638 10.4235 5.80547 10.4711 5.90246 10.4904C5.99945 10.5097 6.09998 10.4998 6.19135 10.462C6.28271 10.4241 6.3608 10.3601 6.41574 10.2778C6.47068 10.1956 6.5 10.0989 6.5 10C6.49987 9.86748 6.44715 9.74038 6.35341 9.64664C6.25967 9.5529 6.13257 9.50018 6 9.50005Z" fill="#161616"/>
<path d="M6.00001 7.50005C6.27615 7.50005 6.50001 7.27619 6.50001 7.00005C6.50001 6.72391 6.27615 6.50005 6.00001 6.50005C5.72386 6.50005 5.50001 6.72391 5.50001 7.00005C5.50001 7.27619 5.72386 7.50005 6.00001 7.50005Z" fill="#161616"/>
<path d="M8.9544 3.35236C9.23054 3.35236 9.4544 3.1285 9.4544 2.85236C9.4544 2.57621 9.23054 2.35236 8.9544 2.35236C8.67826 2.35236 8.4544 2.57621 8.4544 2.85236C8.4544 3.1285 8.67826 3.35236 8.9544 3.35236Z" fill="#161616"/>
<path d="M4.89375 5.45348C5.1699 5.45348 5.39375 5.22962 5.39375 4.95348C5.39375 4.67734 5.1699 4.45348 4.89375 4.45348C4.61761 4.45348 4.39375 4.67734 4.39375 4.95348C4.39375 5.22962 4.61761 5.45348 4.89375 5.45348Z" fill="#161616"/>
<path d="M6.24736 4.75322C6.5235 4.75322 6.74736 4.52936 6.74736 4.25322C6.74736 3.97708 6.5235 3.75322 6.24736 3.75322C5.97122 3.75322 5.74736 3.97708 5.74736 4.25322C5.74736 4.52936 5.97122 4.75322 6.24736 4.75322Z" fill="#161616"/>
<path d="M7.60071 4.05266C7.87686 4.05266 8.10071 3.8288 8.10071 3.55266C8.10071 3.27652 7.87686 3.05266 7.60071 3.05266C7.32457 3.05266 7.10071 3.27652 7.10071 3.55266C7.10071 3.8288 7.32457 4.05266 7.60071 4.05266Z" fill="#161616"/>
<path d="M2.34811 7.09365C2.62425 7.09365 2.84811 6.86979 2.84811 6.59365C2.84811 6.3175 2.62425 6.09365 2.34811 6.09365C2.07196 6.09365 1.84811 6.3175 1.84811 6.59365C1.84811 6.86979 2.07196 7.09365 2.34811 7.09365Z" fill="#161616"/>
<path d="M1.06636 11.3156C1.3425 11.3156 1.56636 11.0918 1.56636 10.8156C1.56636 10.5395 1.3425 10.3156 1.06636 10.3156C0.790218 10.3156 0.56636 10.5395 0.56636 10.8156C0.56636 11.0918 0.790218 11.3156 1.06636 11.3156Z" fill="#161616"/>
<path d="M1.53935 12.7579C1.8155 12.7579 2.03935 12.534 2.03935 12.2579C2.03935 11.9818 1.8155 11.7579 1.53935 11.7579C1.26321 11.7579 1.03935 11.9818 1.03935 12.2579C1.03935 12.534 1.26321 12.7579 1.53935 12.7579Z" fill="#161616"/>
<path d="M2.42425 13.9912C2.70039 13.9912 2.92425 13.7674 2.92425 13.4912C2.92425 13.2151 2.70039 12.9912 2.42425 12.9912C2.14811 12.9912 1.92425 13.2151 1.92425 13.4912C1.92425 13.7674 2.14811 13.9912 2.42425 13.9912Z" fill="#161616"/>
<path d="M3.63611 14.9051C3.91225 14.9051 4.13611 14.6812 4.13611 14.4051C4.13611 14.1289 3.91225 13.9051 3.63611 13.9051C3.35997 13.9051 3.13611 14.1289 3.13611 14.4051C3.13611 14.6812 3.35997 14.9051 3.63611 14.9051Z" fill="#161616"/>
<path d="M1.0491 9.79816C1.32525 9.79816 1.5491 9.5743 1.5491 9.29816C1.5491 9.02201 1.32525 8.79816 1.0491 8.79816C0.77296 8.79816 0.549103 9.02201 0.549103 9.29816C0.549103 9.5743 0.77296 9.79816 1.0491 9.79816Z" fill="#161616"/>
<path d="M1.48971 8.34559C1.76585 8.34559 1.98971 8.12173 1.98971 7.84559C1.98971 7.56945 1.76585 7.34559 1.48971 7.34559C1.21356 7.34559 0.989705 7.56945 0.989705 7.84559C0.989705 8.12173 1.21356 8.34559 1.48971 8.34559Z" fill="#161616"/>
<path d="M3.54051 6.1541C3.81665 6.1541 4.04051 5.93024 4.04051 5.6541C4.04051 5.37795 3.81665 5.1541 3.54051 5.1541C3.26437 5.1541 3.04051 5.37795 3.04051 5.6541C3.04051 5.93024 3.26437 6.1541 3.54051 6.1541Z" fill="#161616"/>
<path d="M10.3081 2.652C10.5842 2.652 10.8081 2.42814 10.8081 2.152C10.8081 1.87585 10.5842 1.652 10.3081 1.652C10.032 1.652 9.8081 1.87585 9.8081 2.152C9.8081 2.42814 10.032 2.652 10.3081 2.652Z" fill="#161616"/>
<path d="M11.6616 1.95133C11.9377 1.95133 12.1616 1.72748 12.1616 1.45133C12.1616 1.17519 11.9377 0.951334 11.6616 0.951334C11.3855 0.951334 11.1616 1.17519 11.1616 1.45133C11.1616 1.72748 11.3855 1.95133 11.6616 1.95133Z" fill="#161616"/>
<path d="M14.4941 4.94503C14.7703 4.94503 14.9941 4.72117 14.9941 4.44503C14.9941 4.16888 14.7703 3.94503 14.4941 3.94503C14.218 3.94503 13.9941 4.16888 13.9941 4.44503C13.9941 4.72117 14.218 4.94503 14.4941 4.94503Z" fill="#161616"/>
<path d="M13.7934 6.29825C14.0696 6.29825 14.2934 6.0744 14.2934 5.79825C14.2934 5.52211 14.0696 5.29825 13.7934 5.29825C13.5173 5.29825 13.2934 5.52211 13.2934 5.79825C13.2934 6.0744 13.5173 6.29825 13.7934 6.29825Z" fill="#161616"/>
<path d="M13.0928 7.65154C13.3689 7.65154 13.5928 7.42768 13.5928 7.15154C13.5928 6.8754 13.3689 6.65154 13.0928 6.65154C12.8167 6.65154 12.5928 6.8754 12.5928 7.15154C12.5928 7.42768 12.8167 7.65154 13.0928 7.65154Z" fill="#161616"/>
<path d="M12.3921 9.00502C12.6682 9.00502 12.8921 8.78117 12.8921 8.50502C12.8921 8.22888 12.6682 8.00502 12.3921 8.00502C12.116 8.00502 11.8921 8.22888 11.8921 8.50502C11.8921 8.78117 12.116 9.00502 12.3921 9.00502Z" fill="#161616"/>
<path d="M11.6915 10.3583C11.9676 10.3583 12.1915 10.1344 12.1915 9.85825C12.1915 9.58211 11.9676 9.35825 11.6915 9.35825C11.4154 9.35825 11.1915 9.58211 11.1915 9.85825C11.1915 10.1344 11.4154 10.3583 11.6915 10.3583Z" fill="#161616"/>
<path d="M10.991 11.712C11.2672 11.712 11.491 11.4882 11.491 11.212C11.491 10.9359 11.2672 10.712 10.991 10.712C10.7149 10.712 10.491 10.9359 10.491 11.212C10.491 11.4882 10.7149 11.712 10.991 11.712Z" fill="#161616"/>
<path d="M9.31825 14.2322C9.59439 14.2322 9.81825 14.0083 9.81825 13.7322C9.81825 13.456 9.59439 13.2322 9.31825 13.2322C9.04211 13.2322 8.81825 13.456 8.81825 13.7322C8.81825 14.0083 9.04211 14.2322 9.31825 14.2322Z" fill="#161616"/>
<path d="M8.04596 15.0608C8.3221 15.0608 8.54596 14.8369 8.54596 14.5608C8.54596 14.2846 8.3221 14.0608 8.04596 14.0608C7.76982 14.0608 7.54596 14.2846 7.54596 14.5608C7.54596 14.8369 7.76982 15.0608 8.04596 15.0608Z" fill="#161616"/>
<path d="M6.58305 15.4662C6.85919 15.4662 7.08305 15.2423 7.08305 14.9662C7.08305 14.69 6.85919 14.4662 6.58305 14.4662C6.30691 14.4662 6.08305 14.69 6.08305 14.9662C6.08305 15.2423 6.30691 15.4662 6.58305 15.4662Z" fill="#161616"/>
<path d="M5.06636 15.4126C5.3425 15.4126 5.56636 15.1887 5.56636 14.9126C5.56636 14.6365 5.3425 14.4126 5.06636 14.4126C4.79022 14.4126 4.56636 14.6365 4.56636 14.9126C4.56636 15.1887 4.79022 15.4126 5.06636 15.4126Z" fill="#161616"/>
<path d="M10.2858 13.0626C10.5619 13.0626 10.7858 12.8387 10.7858 12.5626C10.7858 12.2864 10.5619 12.0626 10.2858 12.0626C10.0096 12.0626 9.78576 12.2864 9.78576 12.5626C9.78576 12.8387 10.0096 13.0626 10.2858 13.0626Z" fill="#161616"/>
<path d="M14.4464 2.12003C14.7225 2.12003 14.9464 1.89618 14.9464 1.62003C14.9464 1.34389 14.7225 1.12003 14.4464 1.12003C14.1702 1.12003 13.9464 1.34389 13.9464 1.62003C13.9464 1.89618 14.1702 2.12003 14.4464 2.12003Z" fill="#161616"/>
<path d="M13.0941 1.5022C13.3702 1.5022 13.5941 1.27834 13.5941 1.0022C13.5941 0.726055 13.3702 0.502197 13.0941 0.502197C12.818 0.502197 12.5941 0.726055 12.5941 1.0022C12.5941 1.27834 12.818 1.5022 13.0941 1.5022Z" fill="#161616"/>
<path d="M6.00001 13.5001C6.27615 13.5001 6.50001 13.2762 6.50001 13.0001C6.50001 12.7239 6.27615 12.5001 6.00001 12.5001C5.72386 12.5001 5.50001 12.7239 5.50001 13.0001C5.50001 13.2762 5.72386 13.5001 6.00001 13.5001Z" fill="#161616"/>
<path d="M3.00001 10.5001C3.27615 10.5001 3.50001 10.2762 3.50001 10.0001C3.50001 9.72391 3.27615 9.50005 3.00001 9.50005C2.72386 9.50005 2.50001 9.72391 2.50001 10.0001C2.50001 10.2762 2.72386 10.5001 3.00001 10.5001Z" fill="#161616"/>
<path d="M9.00001 10.5001C9.27615 10.5001 9.50001 10.2762 9.50001 10.0001C9.50001 9.72391 9.27615 9.50005 9.00001 9.50005C8.72386 9.50005 8.50001 9.72391 8.50001 10.0001C8.50001 10.2762 8.72386 10.5001 9.00001 10.5001Z" fill="#161616"/>
<path d="M3.4019 9.00005C3.67805 9.00005 3.9019 8.77619 3.9019 8.50005C3.9019 8.22391 3.67805 8.00005 3.4019 8.00005C3.12576 8.00005 2.9019 8.22391 2.9019 8.50005C2.9019 8.77619 3.12576 9.00005 3.4019 9.00005Z" fill="#161616"/>
<path d="M8.59811 12.0001C8.87425 12.0001 9.09811 11.7762 9.09811 11.5001C9.09811 11.2239 8.87425 11.0001 8.59811 11.0001C8.32196 11.0001 8.09811 11.2239 8.09811 11.5001C8.09811 11.7762 8.32196 12.0001 8.59811 12.0001Z" fill="#161616"/>
<path d="M4.50001 13.0981C4.77615 13.0981 5.00001 12.8742 5.00001 12.5981C5.00001 12.322 4.77615 12.0981 4.50001 12.0981C4.22386 12.0981 4.00001 12.322 4.00001 12.5981C4.00001 12.8742 4.22386 13.0981 4.50001 13.0981Z" fill="#161616"/>
<path d="M7.50001 7.90199C7.77615 7.90199 8.00001 7.67814 8.00001 7.40199C8.00001 7.12585 7.77615 6.90199 7.50001 6.90199C7.22386 6.90199 7.00001 7.12585 7.00001 7.40199C7.00001 7.67814 7.22386 7.90199 7.50001 7.90199Z" fill="#161616"/>
<path d="M4.50001 7.90199C4.77615 7.90199 5.00001 7.67814 5.00001 7.40199C5.00001 7.12585 4.77615 6.90199 4.50001 6.90199C4.22386 6.90199 4.00001 7.12585 4.00001 7.40199C4.00001 7.67814 4.22386 7.90199 4.50001 7.90199Z" fill="#161616"/>
<path d="M7.50001 13.0981C7.77615 13.0981 8.00001 12.8742 8.00001 12.5981C8.00001 12.322 7.77615 12.0981 7.50001 12.0981C7.22386 12.0981 7.00001 12.322 7.00001 12.5981C7.00001 12.8742 7.22386 13.0981 7.50001 13.0981Z" fill="#161616"/>
<path d="M3.4019 12.0001C3.67805 12.0001 3.9019 11.7762 3.9019 11.5001C3.9019 11.2239 3.67805 11.0001 3.4019 11.0001C3.12576 11.0001 2.9019 11.2239 2.9019 11.5001C2.9019 11.7762 3.12576 12.0001 3.4019 12.0001Z" fill="#161616"/>
<path d="M8.59811 9.00005C8.87425 9.00005 9.09811 8.77619 9.09811 8.50005C9.09811 8.22391 8.87425 8.00005 8.59811 8.00005C8.32196 8.00005 8.09811 8.22391 8.09811 8.50005C8.09811 8.77619 8.32196 9.00005 8.59811 9.00005Z" fill="#161616"/>
<path d="M15.0001 3.51296C15.2762 3.51296 15.5001 3.2891 15.5001 3.01296C15.5001 2.73681 15.2762 2.51296 15.0001 2.51296C14.724 2.51296 14.5001 2.73681 14.5001 3.01296C14.5001 3.2891 14.724 3.51296 15.0001 3.51296Z" fill="#161616"/>
</svg>
