<svg width="16" height="16" viewBox="0 0 16 16" fill="none" xmlns="http://www.w3.org/2000/svg">
<path d="M11 13.0001C11.5523 13.0001 12 12.5524 12 12.0001C12 11.4478 11.5523 11.0001 11 11.0001C10.4477 11.0001 10 11.4478 10 12.0001C10 12.5524 10.4477 13.0001 11 13.0001Z" fill="#161616"/>
<path d="M14.8885 11.7393C14.5795 10.9523 14.0464 10.2733 13.3552 9.78638C12.664 9.29947 11.8451 9.02608 11 9.00009C10.1549 9.02608 9.33605 9.29947 8.64485 9.78638C7.95366 10.2733 7.42054 10.9523 7.11156 11.7393L7.00001 12.0001L7.11156 12.2608C7.42054 13.0478 7.95366 13.7269 8.64485 14.2138C9.33605 14.7007 10.1549 14.9741 11 15.0001C11.8451 14.9741 12.664 14.7007 13.3552 14.2138C14.0464 13.7269 14.5795 13.0478 14.8885 12.2608L15 12.0001L14.8885 11.7393ZM11 14.0001C10.6045 14.0001 10.2178 13.8828 9.88887 13.663C9.55998 13.4433 9.30363 13.1309 9.15226 12.7655C9.00088 12.4 8.96127 11.9979 9.03844 11.6099C9.11561 11.222 9.3061 10.8656 9.5858 10.5859C9.86551 10.3062 10.2219 10.1157 10.6098 10.0385C10.9978 9.96135 11.3999 10.001 11.7654 10.1523C12.1308 10.3037 12.4432 10.5601 12.663 10.889C12.8827 11.2179 13 11.6045 13 12.0001C12.9994 12.5303 12.7885 13.0387 12.4136 13.4137C12.0386 13.7886 11.5303 13.9995 11 14.0001Z" fill="#161616"/>
<path d="M6.00001 12.0001C5.66641 12.0001 5.3381 11.9167 5.04498 11.7574C4.75186 11.5981 4.50324 11.368 4.32176 11.0881C4.14029 10.8081 4.03171 10.4873 4.00593 10.1547C3.98015 9.82205 4.03798 9.48828 4.17415 9.18373C4.31032 8.87918 4.52051 8.61353 4.78558 8.41097C5.05065 8.20841 5.36218 8.07537 5.6918 8.02397C6.02143 7.97258 6.35867 8.00445 6.67283 8.11668C6.98699 8.22892 7.26808 8.41796 7.49051 8.66659L6.74551 9.33359C6.63433 9.20923 6.4938 9.11466 6.33673 9.05849C6.17965 9.00232 6.01102 8.98634 5.84619 9.01199C5.68136 9.03765 5.52557 9.10414 5.393 9.2054C5.26043 9.30666 5.1553 9.43947 5.08718 9.59175C5.01906 9.74402 4.99012 9.91092 5.00299 10.0772C5.01586 10.2436 5.07013 10.404 5.16086 10.544C5.25159 10.684 5.3759 10.799 5.52246 10.8787C5.66903 10.9584 5.8332 11.0001 6.00001 11.0001V12.0001Z" fill="#161616"/>
<path d="M13 1.00005C12.6764 1.00124 12.3583 1.08377 12.075 1.24005L3.88001 5.48005C2.85007 5.96151 2.01519 6.77992 1.51331 7.80007C1.01143 8.82021 0.872583 9.98105 1.11971 11.0908C1.36683 12.2005 1.98514 13.1927 2.87248 13.9035C3.75982 14.6143 4.86309 15.0011 6.00001 15V14C5.34282 14.0003 4.69568 13.8387 4.11582 13.5294C3.53595 13.2202 3.04121 12.7728 2.67536 12.2269C2.3095 11.6809 2.08379 11.0533 2.01818 10.3994C1.95258 9.74545 2.0491 9.08546 2.29921 8.47773C2.54932 7.87 2.94532 7.33325 3.45219 6.91495C3.95906 6.49665 4.56119 6.20968 5.20534 6.07941C5.84948 5.94915 6.5158 5.9796 7.14538 6.16808C7.77496 6.35656 8.3484 6.69726 8.81501 7.16005L9.51501 6.46005C8.78144 5.7309 7.83991 5.24703 6.82001 5.07505L11.01 2.90505C11.01 2.93505 11 2.96505 11 3.00005C10.9999 3.26271 11.0516 3.52282 11.1521 3.7655C11.2526 4.00818 11.3999 4.22869 11.5856 4.41442C11.7714 4.60015 11.9919 4.74747 12.2346 4.84795C12.4772 4.94844 12.7373 5.00012 13 5.00005C13.03 5.00005 13.06 4.99005 13.095 4.99005L11.535 8.00005H12.655L14.78 3.89505C14.9363 3.59122 15.0116 3.2522 14.9986 2.91077C14.9856 2.56933 14.8848 2.23703 14.7058 1.94596C14.5268 1.6549 14.2758 1.41492 13.977 1.24922C13.6782 1.08351 13.3417 0.997693 13 1.00005ZM13 4.00005C12.8022 4.00005 12.6089 3.9414 12.4444 3.83152C12.28 3.72164 12.1518 3.56546 12.0761 3.38273C12.0004 3.2 11.9806 2.99894 12.0192 2.80496C12.0578 2.61098 12.153 2.43279 12.2929 2.29294C12.4328 2.15309 12.6109 2.05785 12.8049 2.01926C12.9989 1.98068 13.2 2.00048 13.3827 2.07617C13.5654 2.15186 13.7216 2.28003 13.8315 2.44448C13.9414 2.60893 14 2.80227 14 3.00005C13.9992 3.26503 13.8936 3.51894 13.7063 3.70631C13.5189 3.89368 13.265 3.99928 13 4.00005Z" fill="#161616"/>
</svg>
