<svg width="16" height="16" viewBox="0 0 16 16" fill="none" xmlns="http://www.w3.org/2000/svg">
<path d="M14.05 9.44997L6.54998 1.94997C5.29998 0.64997 3.24998 0.64997 1.94998 1.89997C0.649976 3.14997 0.649976 5.24997 1.94998 6.49997L1.99998 6.54997L3.39998 7.99997L4.09998 7.29997L2.64998 5.84997C1.79998 4.99997 1.79998 3.54997 2.64998 2.69997C3.49998 1.84997 4.94998 1.79997 5.79998 2.64997C5.79998 2.64997 5.79998 2.64997 5.84998 2.69997L13.3 10.15C14.2 11 14.2 12.45 13.35 13.3C12.5 14.2 11.05 14.2 10.2 13.35C10.2 13.35 10.2 13.35 10.15 13.3L6.44998 9.59997C5.94998 9.09997 5.99998 8.29997 6.44998 7.84997C6.94998 7.39997 7.69998 7.39997 8.19998 7.84997L10.25 9.89997L10.95 9.19997L8.84998 7.09997C7.94998 6.24997 6.54998 6.29997 5.69998 7.19997C4.89998 8.04997 4.89998 9.39997 5.69998 10.3L9.44998 14.05C10.7 15.35 12.75 15.35 14.05 14.1C15.35 12.85 15.35 10.75 14.05 9.44997C14.05 9.49997 14.05 9.44997 14.05 9.44997Z" fill="#161616"/>
</svg>
