<svg width="16" height="16" viewBox="0 0 16 16" fill="none" xmlns="http://www.w3.org/2000/svg">
<path d="M12.5 5.5H7.49997C7.36736 5.5 7.24019 5.55268 7.14642 5.64645C7.05265 5.74021 6.99997 5.86739 6.99997 6V8C7.00115 8.70831 7.25272 9.3934 7.71021 9.93415C8.1677 10.4749 8.80164 10.8365 9.49997 10.955V14H7.99997V15H12V14H10.5V10.955C11.1983 10.8365 11.8323 10.4749 12.2897 9.93415C12.7472 9.3934 12.9988 8.70831 13 8V6C13 5.86739 12.9473 5.74021 12.8535 5.64645C12.7598 5.55268 12.6326 5.5 12.5 5.5ZM12 8C12 8.53043 11.7893 9.03914 11.4142 9.41421C11.0391 9.78929 10.5304 10 9.99997 10C9.46954 10 8.96083 9.78929 8.58576 9.41421C8.21069 9.03914 7.99997 8.53043 7.99997 8V6.5H12V8Z" fill="#161616"/>
<path d="M7.49997 0.5H4.99997C4.86737 0.5 4.74019 0.552678 4.64642 0.646447C4.55265 0.740215 4.49997 0.867392 4.49997 1V4.6853C4.01416 4.96992 3.61677 5.38366 3.35197 5.88055C3.08717 6.37744 2.96533 6.93802 2.99997 7.5V14.5C2.99997 14.6326 3.05265 14.7598 3.14642 14.8536C3.24019 14.9473 3.36737 15 3.49997 15H5.99997V14H3.99997V7.5C3.99997 5.90625 5.11547 5.49 5.15817 5.47435L5.49997 5.36035V1.5H6.99997V4H7.99997V1C7.99997 0.867392 7.9473 0.740215 7.85353 0.646447C7.75976 0.552678 7.63258 0.5 7.49997 0.5Z" fill="#161616"/>
</svg>
