<svg width="16" height="16" viewBox="0 0 16 16" fill="none" xmlns="http://www.w3.org/2000/svg">
<path d="M13.7636 1.3545C13.6699 1.24333 13.553 1.15399 13.421 1.09276C13.2891 1.03152 13.1454 0.999864 13 1H11.6545C11.5152 0.999987 11.3787 1.03878 11.2601 1.11203C11.1416 1.18527 11.0459 1.29008 10.9836 1.4147L10.6909 2H9.99999V1.75C9.99999 1.55109 9.92097 1.36032 9.78032 1.21967C9.63967 1.07902 9.4489 1 9.24999 1H6.74999C6.55108 1 6.36031 1.07902 6.21966 1.21967C6.07901 1.36032 5.99999 1.55109 5.99999 1.75V2H5.30909L5.01659 1.415C4.95422 1.29029 4.85836 1.18541 4.73974 1.11211C4.62112 1.03881 4.48443 0.999991 4.34499 1H2.99999C2.8546 1.00003 2.71095 1.03176 2.57908 1.09299C2.4472 1.15422 2.33026 1.24346 2.23641 1.35451C2.14256 1.46556 2.07406 1.59574 2.03567 1.73598C1.99728 1.87621 1.98993 2.02313 2.01414 2.1665L2.36619 4.25C2.42527 4.59949 2.60619 4.91676 2.87688 5.14557C3.14758 5.37439 3.49055 5.49995 3.84499 5.5H3.99999V11.5C3.6023 11.5004 3.22102 11.6586 2.93981 11.9398C2.6586 12.221 2.50043 12.6023 2.49999 13V15H13.5V13C13.4996 12.6023 13.3414 12.221 13.0602 11.9398C12.779 11.6586 12.3977 11.5004 12 11.5V5.5H12.155C12.5095 5.49998 12.8525 5.37444 13.1232 5.14562C13.3939 4.91681 13.5749 4.59951 13.6339 4.25L13.986 2.1665C14.0104 2.02313 14.0031 1.87615 13.9647 1.73588C13.9263 1.59561 13.8577 1.46544 13.7636 1.3545ZM12.5 13V14H3.49999V13C3.50011 12.8674 3.55283 12.7403 3.64657 12.6466C3.74031 12.5528 3.86742 12.5001 3.99999 12.5H12C12.1326 12.5001 12.2597 12.5528 12.3534 12.6466C12.4472 12.7403 12.4999 12.8674 12.5 13ZM11 11.5H4.99999V5.5H11V11.5ZM12.6479 4.0835C12.6284 4.20007 12.5682 4.30593 12.4779 4.38221C12.3876 4.45849 12.2732 4.50023 12.155 4.5H3.84499C3.72673 4.50027 3.61222 4.45852 3.52189 4.38218C3.43156 4.30585 3.3713 4.1999 3.35184 4.08325L2.99999 2H4.19089L4.69089 3H6.99999V2H8.99999V3H11.3086L11.8091 2H13L12.6479 4.0835Z" fill="#161616"/>
</svg>
