<svg width="16" height="16" viewBox="0 0 16 16" fill="none" xmlns="http://www.w3.org/2000/svg">
<path d="M6.50001 5C7.0523 5 7.50001 4.55228 7.50001 4C7.50001 3.44772 7.0523 3 6.50001 3C5.94773 3 5.50001 3.44772 5.50001 4C5.50001 4.55228 5.94773 5 6.50001 5Z" fill="#161616"/>
<path d="M9.50001 5C10.0523 5 10.5 4.55228 10.5 4C10.5 3.44772 10.0523 3 9.50001 3C8.94773 3 8.50001 3.44772 8.50001 4C8.50001 4.55228 8.94773 5 9.50001 5Z" fill="#161616"/>
<path d="M15.9042 4.3325C15.8711 4.25256 15.815 4.18423 15.7431 4.13617C15.6711 4.08811 15.5865 4.06247 15.5 4.0625H14.5C12.395 4.0625 10.6395 5.0635 9.91761 6.5132C9.69284 6.21773 9.40282 5.97821 9.0702 5.81332C8.73758 5.64843 8.37136 5.56264 8.00011 5.56264C7.62886 5.56264 7.26264 5.64843 6.93002 5.81332C6.5974 5.97821 6.30739 6.21773 6.08261 6.5132C5.36051 5.0635 3.60501 4.0625 1.50001 4.0625H0.500011C0.413446 4.06247 0.328817 4.08812 0.256838 4.13621C0.18486 4.1843 0.128767 4.25267 0.095662 4.33265C0.0625565 4.41264 0.0539263 4.50065 0.0708639 4.58554C0.0878015 4.67043 0.129545 4.74839 0.190811 4.80955L0.241711 4.86C0.678146 5.21269 0.993574 5.69284 1.14397 6.23344C1.29436 6.77403 1.27221 7.3481 1.08061 7.8755C1.06124 7.94078 1.05738 8.00968 1.06933 8.07671C1.08127 8.14375 1.1087 8.20707 1.14942 8.26164C1.19015 8.31621 1.24304 8.36052 1.30391 8.39105C1.36477 8.42158 1.43192 8.43749 1.50001 8.4375C1.69513 8.42198 1.89138 8.44616 2.07689 8.50861C2.26241 8.57105 2.43334 8.67045 2.57936 8.8008C3.06851 9.2915 3.06506 10.2444 3.06276 10.8748V10.9998C3.06273 11.0572 3.07401 11.1141 3.09597 11.1672C3.11792 11.2203 3.15012 11.2685 3.19073 11.3092C3.23133 11.3498 3.27954 11.3821 3.33261 11.4041C3.38567 11.4261 3.44256 11.4375 3.50001 11.4375H5.56251V11.5C5.56251 12.1465 5.81932 12.7665 6.27644 13.2236C6.73356 13.6807 7.35355 13.9375 8.00001 13.9375C8.64648 13.9375 9.26646 13.6807 9.72358 13.2236C10.1807 12.7665 10.4375 12.1465 10.4375 11.5V11.4375H12.5C12.616 11.4375 12.7273 11.3914 12.8094 11.3094C12.8914 11.2273 12.9375 11.116 12.9375 11V10.875C12.9352 10.2446 12.9318 9.29175 13.4209 8.80105C13.5669 8.67069 13.7378 8.57126 13.9232 8.50877C14.1087 8.44629 14.3049 8.42204 14.5 8.4375C14.5681 8.43749 14.6353 8.42158 14.6961 8.39105C14.757 8.36052 14.8099 8.31621 14.8506 8.26164C14.8913 8.20707 14.9188 8.14375 14.9307 8.07671C14.9426 8.00968 14.9388 7.94078 14.9194 7.8755C14.7279 7.34828 14.7058 6.77443 14.856 6.23401C15.0063 5.69359 15.3215 5.21355 15.7577 4.86085L15.8093 4.80935C15.8705 4.74816 15.9122 4.67019 15.9291 4.58531C15.946 4.50043 15.9373 4.41245 15.9042 4.3325ZM8.00001 6.4375C8.41427 6.43798 8.81142 6.60275 9.10434 6.89567C9.39726 7.18859 9.56203 7.58575 9.56251 8V8.0625H6.43751V8C6.43799 7.58575 6.60276 7.18859 6.89568 6.89567C7.18861 6.60275 7.58576 6.43798 8.00001 6.4375ZM6.43751 8.9375H9.56251V10.5625H6.43751V8.9375ZM3.93716 10.5625C3.92826 9.833 3.84521 8.83155 3.19911 8.1831C2.88436 7.87431 2.48015 7.67276 2.04411 7.6072C2.14351 7.14734 2.14428 6.67164 2.04639 6.21146C1.94851 5.75128 1.75417 5.31708 1.47621 4.9375H1.50001C3.77811 4.9375 5.56251 6.2825 5.56251 8V10.5625H3.93716ZM9.56251 11.5C9.56251 11.9144 9.39789 12.3118 9.10487 12.6049C8.81184 12.8979 8.41441 13.0625 8.00001 13.0625C7.58561 13.0625 7.18818 12.8979 6.89516 12.6049C6.60213 12.3118 6.43751 11.9144 6.43751 11.5V11.4375H9.56251V11.5ZM13.9559 7.6072C13.5199 7.67276 13.1157 7.87431 12.8009 8.1831C12.1548 8.83155 12.0718 9.8331 12.0629 10.5625H10.4375V8C10.4375 6.2827 12.2219 4.9375 14.5 4.9375H14.5241C14.246 5.31705 14.0516 5.75124 13.9537 6.21143C13.8558 6.67161 13.8565 7.14733 13.9559 7.6072Z" fill="#161616"/>
</svg>
