<svg width="16" height="16" viewBox="0 0 16 16" fill="none" xmlns="http://www.w3.org/2000/svg">
<path d="M10.3584 6.88525C10.7207 6.60345 11.0124 6.24124 11.2105 5.82726C11.4086 5.41328 11.5078 4.95889 11.5 4.5C11.5 2.73365 10.0608 1.5 8 1.5C7.53329 1.4729 7.06612 1.54487 6.62921 1.71118C6.19229 1.87748 5.7955 2.13436 5.46493 2.46493C5.13436 2.7955 4.87748 3.19229 4.71118 3.62921C4.54487 4.06612 4.4729 4.53329 4.5 5V15.5H5.5V12.5603C5.88797 12.9621 6.35461 13.2796 6.87079 13.4929C7.38696 13.7063 7.94158 13.8109 8.5 13.8003C9.0053 13.819 9.50904 13.7337 9.98001 13.5496C10.451 13.3656 10.8791 13.0868 11.2379 12.7305C11.5966 12.3742 11.8784 11.9479 12.0656 11.4783C12.2529 11.0086 12.3416 10.5054 12.3264 10C12.3428 9.34446 12.1647 8.69875 11.8144 8.14439C11.4642 7.59003 10.9575 7.15187 10.3584 6.88525ZM8.5 12.8C8.11712 12.8218 7.7338 12.7657 7.37317 12.6353C7.01253 12.5049 6.68207 12.3027 6.40171 12.041C6.12135 11.7794 5.89691 11.4636 5.74193 11.1128C5.58696 10.762 5.50466 10.3835 5.5 10V5C5.47671 4.6657 5.5254 4.33029 5.6428 4.01641C5.76019 3.70253 5.94356 3.41749 6.18052 3.18052C6.41749 2.94356 6.70253 2.76019 7.01641 2.6428C7.33029 2.5254 7.6657 2.47671 8 2.5C9.5187 2.5 10.5 3.285 10.5 4.5C10.5088 4.76503 10.4631 5.02905 10.3658 5.27569C10.2684 5.52234 10.1214 5.74635 9.93386 5.93386C9.74635 6.12137 9.52234 6.26837 9.27569 6.36575C9.02905 6.46314 8.76503 6.50883 8.5 6.5V7.5C10.2171 7.5 11.3264 8.48145 11.3264 10C11.3414 10.374 11.2783 10.747 11.1412 11.0952C11.0042 11.4435 10.796 11.7594 10.5302 12.0228C10.2643 12.2862 9.94644 12.4913 9.59691 12.6251C9.24738 12.7589 8.87381 12.8185 8.5 12.8Z" fill="#161616"/>
</svg>
