<svg width="17" height="16" viewBox="0 0 17 16" fill="none" xmlns="http://www.w3.org/2000/svg">
<path d="M14 8C13.956 8 13.9134 8.00465 13.87 8.0066L13.1184 4.5H15V3.5H12.5C12.4254 3.49998 12.3517 3.51664 12.2844 3.54877C12.2171 3.58091 12.1579 3.62769 12.111 3.6857C12.0641 3.7437 12.0308 3.81147 12.0135 3.88402C11.9962 3.95657 11.9953 4.03208 12.011 4.105L12.31 5.5H7.19358L6.69358 4H7.99998V3H4.49998V4H5.63998L6.16053 5.5615L4.87553 8.1311C4.29236 7.95249 3.6686 7.95588 3.0874 8.14081C2.5062 8.32574 1.99517 8.68342 1.62243 9.16618C1.24969 9.64894 1.03295 10.2338 1.0011 10.8429C0.969254 11.452 1.12381 12.0563 1.44416 12.5753C1.76452 13.0943 2.23545 13.5034 2.7942 13.7479C3.35294 13.9924 3.97294 14.0609 4.57157 13.9441C5.17019 13.8272 5.71899 13.5307 6.14481 13.0941C6.57063 12.6574 6.85324 12.1014 6.95498 11.5H8.25998C8.40997 11.5004 8.5581 11.4668 8.6933 11.4019C8.82851 11.3369 8.94729 11.2423 9.04078 11.125L12.57 6.7129L12.8918 8.21485C12.2001 8.492 11.6366 9.01707 11.3114 9.68747C10.9861 10.3579 10.9225 11.1254 11.133 11.8402C11.3434 12.555 11.8128 13.1657 12.4494 13.5529C13.086 13.9402 13.8441 14.0762 14.5756 13.9344C15.3071 13.7925 15.9594 13.3831 16.4052 12.786C16.851 12.1889 17.0581 11.4471 16.9862 10.7055C16.9142 9.96381 16.5684 9.27562 16.0162 8.77533C15.464 8.27504 14.7451 7.9986 14 8ZM3.99998 13C3.71913 13.0008 3.44127 12.9424 3.18449 12.8286C2.92771 12.7149 2.69776 12.5483 2.50961 12.3398C2.32147 12.1313 2.17935 11.8855 2.09251 11.6184C2.00567 11.3513 1.97605 11.069 2.00558 10.7897C2.03512 10.5104 2.12315 10.2404 2.26393 9.99744C2.40471 9.75443 2.5951 9.54379 2.8227 9.37924C3.05029 9.21469 3.30999 9.09992 3.58489 9.0424C3.85978 8.98488 4.14371 8.9859 4.41818 9.0454L3.55273 10.7764L3.55723 10.7786C3.521 10.8468 3.50139 10.9227 3.49998 11C3.49921 11.1125 3.53669 11.222 3.60627 11.3104C3.67585 11.3989 3.77341 11.4611 3.88296 11.4868C3.99251 11.5125 4.10755 11.5003 4.20924 11.4521C4.31092 11.4039 4.39321 11.3226 4.44263 11.2214L4.44723 11.2236L5.30908 9.5C5.61739 9.76591 5.83681 10.1199 5.93777 10.5144C6.03874 10.9088 6.0164 11.3247 5.87376 11.706C5.73113 12.0874 5.47505 12.4158 5.14003 12.6472C4.805 12.8786 4.40712 13.0017 3.99998 13ZM6.95498 10.5C6.82408 9.73056 6.3984 9.04245 5.76833 8.5818L6.60768 6.9031L7.80648 10.5H6.95498ZM8.68383 9.97L7.52698 6.5H11.4597L8.68383 9.97ZM14 13C13.5498 13.0013 13.1125 12.8503 12.759 12.5715C12.4056 12.2927 12.1569 11.9025 12.0535 11.4644C11.95 11.0263 11.9977 10.566 12.189 10.1585C12.3803 9.75104 12.7039 9.42026 13.107 9.22L13.511 11.105L13.521 11.1028C13.543 11.214 13.6026 11.3142 13.6899 11.3865C13.7771 11.4589 13.8866 11.499 14 11.5C14.1326 11.5 14.2598 11.4473 14.3535 11.3536C14.4473 11.2598 14.5 11.1326 14.5 11C14.4969 10.9651 14.4899 10.9306 14.4792 10.8972L14.4892 10.895L14.0849 9.00855C14.6073 9.02978 15.1006 9.25508 15.4586 9.63604C15.8167 10.017 16.0111 10.5232 16 11.0459C15.9888 11.5687 15.7731 12.0661 15.3992 12.4315C15.0252 12.7969 14.5228 13.001 14 13Z" fill="#161616"/>
</svg>
