<svg width="16" height="16" viewBox="0 0 16 16" fill="none" xmlns="http://www.w3.org/2000/svg">
<path d="M14 13.2951L2.705 2.0001L2 2.7051L7.295 8.0001L3.5 11.7951L4.205 12.5001L7.5 9.2051V14.5001C7.49976 14.5957 7.52696 14.6894 7.57836 14.7701C7.62976 14.8507 7.70321 14.9149 7.79 14.9551C7.8562 14.9843 7.92766 14.9996 8 15.0001C8.11917 15.0001 8.23443 14.9576 8.325 14.8801L11.475 12.1801L13.295 14.0001L14 13.2951ZM8.5 13.4151V9.2051L10.765 11.4701L8.5 13.4151Z" fill="#161616"/>
<path d="M8.5 6.3751V2.5851L10.765 4.5301L8.71 6.5851L9.415 7.2901L11.855 4.8551C11.9013 4.80838 11.938 4.75298 11.9629 4.69206C11.9878 4.63114 12.0004 4.56591 12 4.5001C11.9972 4.43128 11.9802 4.36378 11.9501 4.30183C11.92 4.23988 11.8774 4.18482 11.825 4.1401L8.325 1.1401C8.25237 1.07768 8.16334 1.03742 8.0685 1.02413C7.97366 1.01083 7.87699 1.02506 7.79 1.0651C7.70623 1.10379 7.6348 1.16491 7.58362 1.24168C7.53243 1.31846 7.50349 1.4079 7.5 1.5001V5.3751L8.5 6.3751Z" fill="#161616"/>
</svg>
