<svg width="16" height="16" viewBox="0 0 16 16" fill="none" xmlns="http://www.w3.org/2000/svg">
<path d="M14.414 1.58594C14.0332 1.22209 13.5267 1.01905 13 1.01905C12.4733 1.01905 11.9668 1.22209 11.5859 1.58594L2.02498 11.146C1.699 11.4702 1.44056 11.8559 1.26462 12.2806C1.08868 12.7054 0.998733 13.1608 0.999982 13.6206V15H2.37793C2.83776 15.0013 3.29329 14.9114 3.71814 14.7355C4.14298 14.5595 4.52869 14.301 4.85293 13.975L14.414 4.41429C14.5998 4.2286 14.7472 4.00814 14.8477 3.76549C14.9482 3.52284 15 3.26276 15 3.00011C15 2.73746 14.9482 2.47738 14.8477 2.23473C14.7472 1.99208 14.5998 1.77162 14.414 1.58594ZM5.45498 9.12999L6.86928 10.5443L5.80858 11.605L4.39428 10.1909L5.45498 9.12999ZM4.14573 13.2678C3.91413 13.5007 3.63863 13.6853 3.33519 13.811C3.03174 13.9367 2.70638 14.0009 2.37793 14H1.99998V13.6206C1.9991 13.2922 2.06336 12.9669 2.18904 12.6635C2.31472 12.3601 2.49933 12.0846 2.73218 11.853L3.68718 10.898L5.10148 12.3121L4.14573 13.2678ZM13.707 3.70704L7.57638 9.83739L6.16208 8.42309L12.2929 2.29309C12.4834 2.11117 12.7366 2.00967 13 2.00967C13.2633 2.00967 13.5166 2.11117 13.707 2.29309C13.7999 2.38593 13.8736 2.49615 13.9238 2.61747C13.9741 2.73879 14 2.86882 14 3.00014C14 3.13145 13.9741 3.26149 13.9238 3.3828C13.8736 3.50412 13.7999 3.6142 13.707 3.70704Z" fill="#161616"/>
<path d="M6.99998 0.999987C6.69079 1.00092 6.38946 1.09755 6.13738 1.2766C5.88531 1.45565 5.69484 1.70835 5.59213 1.99999H3.90783C3.82395 1.76132 3.68091 1.54781 3.4921 1.37943C3.30329 1.21105 3.07488 1.0933 2.8282 1.03717C2.58152 0.98104 2.32464 0.988375 2.08156 1.05849C1.83849 1.1286 1.61716 1.2592 1.43827 1.43808C1.25937 1.61696 1.12876 1.83827 1.05863 2.08134C0.988495 2.32441 0.98114 2.58129 1.03725 2.82798C1.09336 3.07466 1.2111 3.30309 1.37946 3.49191C1.54783 3.68073 1.76132 3.82378 1.99998 3.90769V5.59204C1.66638 5.70998 1.38521 5.94207 1.20617 6.24728C1.02713 6.55248 0.961749 6.91116 1.02158 7.2599C1.08142 7.60865 1.26262 7.92502 1.53315 8.15309C1.80369 8.38116 2.14614 8.50625 2.49998 8.50625C2.85383 8.50625 3.19628 8.38116 3.46681 8.15309C3.73735 7.92502 3.91854 7.60865 3.97838 7.2599C4.03822 6.91116 3.97284 6.55248 3.7938 6.24728C3.61476 5.94207 3.33359 5.70998 2.99998 5.59204V3.90794C3.20914 3.83335 3.39911 3.71319 3.55612 3.55616C3.71313 3.39913 3.83327 3.20916 3.90783 2.99999H5.59213C5.68427 3.25852 5.84569 3.48676 6.05877 3.65977C6.27184 3.83277 6.52836 3.94388 6.80031 3.98096C7.07226 4.01804 7.34917 3.97965 7.60078 3.87001C7.85239 3.76036 8.06902 3.58367 8.22701 3.35923C8.38499 3.1348 8.47825 2.87126 8.49659 2.5974C8.51494 2.32355 8.45766 2.04993 8.33102 1.80643C8.20437 1.56293 8.01324 1.35892 7.7785 1.2167C7.54376 1.07448 7.27445 0.999508 6.99998 0.999987ZM2.49998 7.49999C2.40109 7.49999 2.30442 7.47066 2.2222 7.41572C2.13997 7.36078 2.07589 7.28269 2.03804 7.19133C2.0002 7.09997 1.9903 6.99943 2.00959 6.90244C2.02888 6.80545 2.0765 6.71636 2.14643 6.64643C2.21636 6.57651 2.30545 6.52889 2.40244 6.50959C2.49943 6.4903 2.59996 6.5002 2.69132 6.53805C2.78269 6.57589 2.86078 6.63998 2.91572 6.7222C2.97066 6.80443 2.99998 6.9011 2.99998 6.99999C2.99988 7.13256 2.94716 7.25968 2.85342 7.35342C2.75967 7.44717 2.63256 7.49988 2.49998 7.49999ZM2.49998 2.99999C2.40109 2.99999 2.30442 2.97066 2.2222 2.91572C2.13997 2.86078 2.07589 2.78269 2.03804 2.69133C2.0002 2.59997 1.9903 2.49943 2.00959 2.40244C2.02888 2.30545 2.0765 2.21636 2.14643 2.14643C2.21636 2.07651 2.30545 2.02889 2.40244 2.00959C2.49943 1.9903 2.59996 2.0002 2.69132 2.03805C2.78269 2.07589 2.86078 2.13998 2.91572 2.2222C2.97066 2.30443 2.99998 2.4011 2.99998 2.49999C2.99988 2.63256 2.94716 2.75968 2.85342 2.85342C2.75967 2.94717 2.63256 2.99988 2.49998 2.99999ZM6.99998 2.99999C6.90109 2.99999 6.80442 2.97066 6.7222 2.91572C6.63997 2.86078 6.57589 2.78269 6.53804 2.69133C6.5002 2.59997 6.4903 2.49943 6.50959 2.40244C6.52888 2.30545 6.5765 2.21636 6.64643 2.14643C6.71636 2.07651 6.80545 2.02889 6.90244 2.00959C6.99943 1.9903 7.09996 2.0002 7.19132 2.03805C7.28269 2.07589 7.36078 2.13998 7.41572 2.2222C7.47066 2.30443 7.49998 2.4011 7.49998 2.49999C7.49988 2.63256 7.44716 2.75968 7.35342 2.85342C7.25967 2.94717 7.13256 2.99988 6.99998 2.99999Z" fill="#161616"/>
</svg>
