<svg width="16" height="16" viewBox="0 0 16 16" fill="none" xmlns="http://www.w3.org/2000/svg">
<path d="M15 12.5V11.5H10.3838L9.98379 10H13.5V9H9.71739L8.48289 4.37111L7.51709 4.62891L9.41794 11.7573C9.47496 11.9703 9.60063 12.1584 9.77547 12.2927C9.9503 12.427 10.1645 12.4999 10.385 12.5H11V14H4.99999V12.5H7.99999V11.5H3.38379L2.98379 10H6.49999V9H2.71739L1.48289 4.37111L0.51709 4.62891L2.41794 11.7573C2.47496 11.9703 2.60063 12.1584 2.77547 12.2927C2.9503 12.427 3.16454 12.4999 3.38499 12.5H3.99999V14H0.99999V15H15V14H12V12.5H15Z" fill="#161616"/>
<path d="M13.6515 1.00001C13.4736 1 13.2976 1.03566 13.1337 1.10487C12.9699 1.17408 12.8215 1.27544 12.6975 1.40296L12.5 1.60561L12.3024 1.40296C12.1784 1.27544 12.0301 1.17408 11.8663 1.10487C11.7024 1.03566 11.5264 1 11.3485 1C11.1706 1 10.9946 1.03566 10.8307 1.10487C10.6669 1.17408 10.5186 1.27544 10.3946 1.40296C10.1415 1.66406 9.99999 2.01341 9.99999 2.37703C9.99999 2.74066 10.1415 3.09 10.3946 3.35111L12.5 5.50001L14.6054 3.35111C14.8585 3.09 15 2.74066 15 2.37703C15 2.01341 14.8585 1.66406 14.6054 1.40296C14.4814 1.27545 14.3331 1.17409 14.1692 1.10488C14.0054 1.03567 13.8293 1.00001 13.6515 1.00001Z" fill="#161616"/>
</svg>
