<svg width="16" height="16" viewBox="0 0 16 16" fill="none" xmlns="http://www.w3.org/2000/svg">
<path d="M14.415 10.5849L12.5 8.68491L12.835 8.34991C12.9281 8.25623 12.9804 8.1295 12.9804 7.99741C12.9804 7.86531 12.9281 7.73859 12.835 7.64491L9.835 4.64491C9.74131 4.55178 9.61459 4.49951 9.4825 4.49951C9.3504 4.49951 9.22368 4.55178 9.13 4.64491L8.73499 5.03991L5.35499 1.64491C5.26131 1.55178 5.13459 1.49951 5.00249 1.49951C4.8704 1.49951 4.74368 1.55178 4.64999 1.64491L2.64999 3.64491L2.58999 3.71991L0.589994 6.71991C0.525799 6.81573 0.496705 6.93079 0.507639 7.04561C0.518574 7.16042 0.568866 7.26793 0.649994 7.34991L2.14999 8.84991C2.19648 8.89677 2.25178 8.93397 2.31271 8.95935C2.37364 8.98474 2.43899 8.99781 2.50499 8.99781C2.571 8.99781 2.63635 8.98474 2.69728 8.95935C2.75821 8.93397 2.81351 8.89677 2.85999 8.84991L4.99999 6.70491L6.04499 7.74991L3.64499 10.1449C3.55187 10.2386 3.4996 10.3653 3.4996 10.4974C3.4996 10.6295 3.55187 10.7562 3.64499 10.8499L4.64499 11.8499C4.6913 11.8972 4.74652 11.9347 4.80746 11.9605C4.8684 11.9862 4.93384 11.9996 4.99999 11.9999C5.09191 11.9993 5.18187 11.9733 5.25999 11.9249L7.425 10.6249L8.645 11.8499C8.73868 11.943 8.8654 11.9953 8.9975 11.9953C9.12959 11.9953 9.25631 11.943 9.35 11.8499L9.685 11.4999L11.58 13.4149C11.9553 13.7902 12.4643 14.001 12.995 14.001C13.5257 14.001 14.0347 13.7902 14.41 13.4149C14.7853 13.0396 14.9961 12.5306 14.9961 11.9999C14.9961 11.4692 14.7853 10.9602 14.41 10.5849H14.415ZM4.99999 5.28991L2.49999 7.78991L1.64499 6.93491L3.38999 4.31491L4.99999 2.70491L8.045 5.74991L6.75 7.03991L4.99999 5.28991ZM9 10.7899L7.58 9.36991L5.07999 10.8699L4.70999 10.4999L9.5 5.70491L11.795 7.99991L9 10.7899ZM13.71 12.7049C13.6171 12.7979 13.5068 12.8716 13.3854 12.922C13.264 12.9723 13.1339 12.9982 13.0025 12.9982C12.8711 12.9982 12.741 12.9723 12.6196 12.922C12.4982 12.8716 12.3879 12.7979 12.295 12.7049L10.395 10.8099L11.81 9.39491L13.71 11.2899C13.803 11.3828 13.8767 11.4931 13.9271 11.6145C13.9774 11.7359 14.0033 11.866 14.0033 11.9974C14.0033 12.1288 13.9774 12.259 13.9271 12.3803C13.8767 12.5017 13.803 12.612 13.71 12.7049Z" fill="#161616"/>
</svg>
