<svg width="16" height="16" viewBox="0 0 16 16" fill="none" xmlns="http://www.w3.org/2000/svg">
<path d="M2 15.0001V13.0001H7.5V15.0001H8.5V13.0001H14V15.0001H15V13.0001C15 12.7348 14.8946 12.4805 14.7071 12.2929C14.5196 12.1054 14.2652 12.0001 14 12.0001H8.5V9.50005H7.5V12.0001H2C1.73478 12.0001 1.48043 12.1054 1.29289 12.2929C1.10536 12.4805 1 12.7348 1 13.0001V15.0001H2Z" fill="#161616"/>
<path d="M10.3476 6.99295C10.693 6.37962 10.9061 5.70074 10.9732 5.00005H11.5V4.00005H10V4.50005C9.98923 5.06074 9.87672 5.61482 9.66795 6.1353L8.32555 4.44085C8.79991 4.17023 9.17542 3.75516 9.39735 3.25615C9.47966 3.0374 9.51385 2.80348 9.49759 2.57032C9.48132 2.33717 9.41499 2.11026 9.3031 1.90505C9.18872 1.69081 9.02952 1.50373 8.83632 1.35657C8.64312 1.20941 8.42048 1.10561 8.18355 1.05225C7.76293 0.929489 7.31142 0.970482 6.91979 1.16699C6.52815 1.3635 6.22541 1.70096 6.0724 2.11155C5.8202 2.88745 6.2927 3.66945 6.703 4.1654C6.28568 4.40128 5.94998 4.75852 5.74047 5.18968C5.53096 5.62085 5.45755 6.10554 5.53 6.5794C5.60326 7.10812 5.86403 7.59291 6.2648 7.94545C6.66557 8.298 7.17966 8.49482 7.7134 8.50005H7.7163C8.44424 8.52131 9.1534 8.26718 9.70215 7.7884L10.266 8.50005H11.542L10.3476 6.99295ZM7.0235 2.4207C7.07553 2.28532 7.17063 2.17081 7.29415 2.0948C7.41767 2.01879 7.56275 1.9855 7.70705 2.00005C7.79475 2.00022 7.88217 2.00996 7.96775 2.0291C8.06419 2.05208 8.15467 2.09525 8.2332 2.15577C8.31172 2.2163 8.37652 2.29279 8.4233 2.3802C8.46712 2.45904 8.49334 2.54643 8.50017 2.63637C8.50699 2.72631 8.49426 2.81665 8.46285 2.9012C8.2754 3.25007 7.98058 3.52931 7.62205 3.69755C7.29155 3.34085 6.90435 2.78665 7.0235 2.4207ZM7.7158 7.50005H7.71385C7.41811 7.49593 7.13392 7.38465 6.91401 7.18687C6.6941 6.98909 6.55341 6.71825 6.51805 6.4246C6.4752 6.10726 6.54142 5.78477 6.70584 5.50998C6.87026 5.2352 7.12315 5.02441 7.42305 4.91215L9.0788 7.0015C8.70594 7.33753 8.21748 7.51619 7.7158 7.50005Z" fill="#161616"/>
</svg>
