<svg width="16" height="16" viewBox="0 0 16 16" fill="none" xmlns="http://www.w3.org/2000/svg">
<path d="M8 1C6.42411 0.99976 4.89479 1.53437 3.66225 2.51635C3.60871 2.50643 3.55444 2.50097 3.5 2.5C3.23479 2.5 2.98043 2.60536 2.7929 2.7929C2.60536 2.98043 2.5 3.23479 2.5 3.5C2.50096 3.55448 2.50643 3.60878 2.51635 3.66235C1.53609 4.9052 1.00648 6.44385 1.01411 8.02673C1.02175 9.60962 1.56618 11.1431 2.55839 12.3764C3.5506 13.6097 4.93188 14.47 6.4764 14.8164C8.02092 15.1629 9.63729 14.9751 11.0612 14.2838C12.4852 13.5924 13.6325 12.4385 14.3155 11.0105C14.9985 9.58254 15.1769 7.9651 14.8214 6.42262C14.466 4.88015 13.5977 3.5039 12.3586 2.5189C11.1195 1.53389 9.5829 0.998413 8 1ZM8 14C6.88948 14.0021 5.80024 13.6954 4.85399 13.1142C3.90774 12.5329 3.14176 11.7 2.64163 10.7084C2.14151 9.71689 1.92695 8.60582 2.02192 7.49936C2.1169 6.39291 2.51767 5.33465 3.17945 4.44285C3.36441 4.51144 3.56658 4.51846 3.75585 4.46285L4.48755 5.19455C3.82126 6.02473 3.47135 7.06451 3.50019 8.12861C3.52902 9.19272 3.93472 10.212 4.645 11.0049C5.35527 11.7978 6.32398 12.3127 7.37852 12.458C8.43306 12.6032 9.50491 12.3694 10.4031 11.7981C10.5948 11.9432 10.8326 12.0141 11.0725 11.9976C11.3124 11.981 11.5382 11.8783 11.7083 11.7082C11.8783 11.5382 11.9811 11.3124 11.9976 11.0725C12.0141 10.8326 11.9432 10.5948 11.7981 10.4031C12.2565 9.68535 12.5 8.85153 12.5 7.99995C12.5 7.14837 12.2565 6.31456 11.7981 5.59685C11.9432 5.40512 12.0141 5.16735 11.9976 4.92744C11.9811 4.68754 11.8783 4.46171 11.7083 4.29167C11.5382 4.12163 11.3124 4.01886 11.0725 4.00235C10.8326 3.98584 10.5948 4.05671 10.4031 4.20185C9.61419 3.69856 8.68727 3.45542 7.75289 3.50666C6.81851 3.55791 5.92375 3.90096 5.1946 4.4875L4.4629 3.75585C4.51857 3.56659 4.51155 3.3644 4.4429 3.17945C5.2059 2.61625 6.09161 2.24205 7.0273 2.08758C7.96298 1.93311 8.92197 2.00278 9.8255 2.29087C10.729 2.57897 11.5514 3.07726 12.2249 3.74484C12.8985 4.41242 13.4041 5.23024 13.7003 6.13116C13.9965 7.03208 14.0747 7.9904 13.9286 8.92744C13.7826 9.86447 13.4163 10.7535 12.8599 11.5215C12.3036 12.2895 11.573 12.9146 10.7282 13.3455C9.88333 13.7763 8.94835 14.0006 8 14ZM8 7C8.19778 7 8.39112 7.05865 8.55557 7.16853C8.72002 7.27842 8.84819 7.43459 8.92388 7.61732C8.99957 7.80005 9.01937 8.00111 8.98079 8.19509C8.9422 8.38907 8.84696 8.56726 8.70711 8.70711C8.56726 8.84696 8.38907 8.9422 8.19509 8.98079C8.00111 9.01937 7.80004 8.99957 7.61732 8.92388C7.43459 8.8482 7.27841 8.72002 7.16853 8.55557C7.05865 8.39112 7 8.19778 7 8C7.00033 7.73489 7.1058 7.48073 7.29326 7.29326C7.48073 7.1058 7.73489 7.00033 8 7ZM9.71655 6.9905L10.7442 5.9629C10.7814 5.9726 10.8193 5.98018 10.8574 5.9856C11.2754 6.57413 11.5 7.27813 11.5 8C11.5 8.72188 11.2754 9.42588 10.8574 10.0144C10.8193 10.0198 10.7814 10.0274 10.7442 10.0371L9.71655 9.0095C9.90193 8.70541 10 8.35615 10 8C10 7.64386 9.90193 7.29459 9.71655 6.9905ZM10.0144 5.1426C10.0198 5.18076 10.0274 5.21857 10.0371 5.25585L9.0095 6.28345C8.70541 6.09807 8.35614 6.00001 8 6.00001C7.64386 6.00001 7.29459 6.09807 6.9905 6.28345L5.90785 5.2007C6.49743 4.7561 7.21327 4.51079 7.95163 4.50035C8.68998 4.4899 9.41248 4.71485 10.0144 5.1426ZM6.28345 6.9905C6.09976 7.29533 6.00183 7.64411 6 8C6.0006 8.53025 6.2115 9.03862 6.58645 9.41356C6.96139 9.7885 7.46975 9.99941 8 10C8.35589 9.99815 8.70467 9.90022 9.0095 9.71655L10.0371 10.7442C10.0274 10.7814 10.0198 10.8192 10.0144 10.8574C9.33458 11.3392 8.50494 11.5623 7.67516 11.4862C6.84537 11.4102 6.07008 11.0401 5.48914 10.4428C4.90821 9.8454 4.55989 9.06009 4.50701 8.22851C4.45414 7.39693 4.7002 6.57383 5.2008 5.9077L6.28345 6.9905Z" fill="#161616"/>
</svg>
