<svg width="16" height="16" viewBox="0 0 16 16" fill="none" xmlns="http://www.w3.org/2000/svg">
<path d="M15 12.0001C15 11.4068 14.824 10.8267 14.4944 10.3334C14.1648 9.84004 13.6962 9.45552 13.148 9.22846C12.5999 9.0014 11.9967 8.94199 11.4147 9.05774C10.8328 9.1735 10.2982 9.45922 9.87867 9.87878C9.45911 10.2983 9.17339 10.8329 9.05764 11.4148C8.94188 11.9968 9.00129 12.6 9.22835 13.1482C9.45542 13.6963 9.83993 14.1649 10.3333 14.4945C10.8266 14.8242 11.4066 15.0001 12 15.0001C12.7954 14.9992 13.5579 14.6829 14.1203 14.1205C14.6828 13.558 14.9991 12.7955 15 12.0001ZM14 12.0001C13.9981 12.356 13.9002 12.7048 13.7165 13.0096L10.9905 10.2836C11.2953 10.0999 11.6441 10.002 12 10.0001C12.5302 10.0007 13.0386 10.2116 13.4135 10.5865C13.7885 10.9615 13.9994 11.4698 14 12.0001ZM9.99999 12.0001C10.0018 11.6442 10.0998 11.2954 10.2834 10.9906L13.0095 13.7167C12.7046 13.9003 12.3559 13.9982 12 14.0001C11.4697 13.9995 10.9614 13.7886 10.5864 13.4137C10.2115 13.0387 10.0006 12.5304 9.99999 12.0001Z" fill="#161616"/>
<path d="M6.99999 1.0001C6.16684 0.995275 5.34181 1.16402 4.57746 1.49559C3.8131 1.82717 3.12619 2.31429 2.56046 2.92595C1.99473 3.53761 1.56259 4.26038 1.29156 5.04824C1.02054 5.8361 0.916569 6.67176 0.986279 7.50201C1.05599 8.33226 1.29785 9.13889 1.69646 9.87052C2.09506 10.6022 2.64168 11.2428 3.30148 11.7515C3.96128 12.2603 4.71981 12.626 5.52875 12.8255C6.33769 13.025 7.17931 13.0538 7.99999 12.9101V12.0001C7.99999 10.9392 8.42142 9.92182 9.17157 9.17167C9.92171 8.42153 10.9391 8.0001 12 8.0001H12.91C13.0612 7.13945 13.0216 6.2561 12.7939 5.41245C12.5662 4.56881 12.156 3.78547 11.5923 3.11778C11.0285 2.4501 10.3251 1.91436 9.53154 1.54844C8.73802 1.18251 7.87381 0.995322 6.99999 1.0001ZM5.99999 9.2955L3.99999 7.2955L4.79539 6.5001L5.99999 7.7047L8.70459 5.0001L9.49999 5.7955L5.99999 9.2955Z" fill="#161616"/>
</svg>
