<svg width="16" height="16" viewBox="0 0 16 16" fill="none" xmlns="http://www.w3.org/2000/svg">
<path d="M7 1.00009C6.139 0.999003 5.28784 1.18324 4.50436 1.54028C3.72087 1.89732 3.02341 2.4188 2.45934 3.0693C1.89527 3.71981 1.47781 4.48409 1.23531 5.31024C0.992818 6.13639 0.930971 7.00506 1.05397 7.85723C1.17697 8.7094 1.48194 9.52512 1.94816 10.249C2.41438 10.9728 3.03093 11.5879 3.75593 12.0523C4.48093 12.5168 5.29739 12.8197 6.14987 12.9406C7.00234 13.0615 7.87085 12.9976 8.6964 12.753L10.6587 8.82844C10.7827 8.57892 10.974 8.36909 11.211 8.22269C11.4481 8.0763 11.7214 7.99919 12 8.00009H12.91C13.0612 7.13944 13.0216 6.25609 12.7939 5.41244C12.5662 4.5688 12.156 3.78546 11.5923 3.11777C11.0285 2.45008 10.3251 1.91435 9.53155 1.54842C8.73803 1.1825 7.87382 0.99531 7 1.00009ZM6 9.29549L4 7.29549L4.7954 6.50009L6 7.70469L8.7046 5.00009L9.5 5.79549L6 9.29549Z" fill="#161616"/>
<path d="M13.69 14.0001H10.3089L12 10.618L13.69 14.0001ZM12 9.00009C11.9071 9.00006 11.8161 9.0259 11.7371 9.07471C11.6581 9.12352 11.5942 9.19337 11.5527 9.27644L9.05265 14.2764C9.01459 14.3527 8.99665 14.4374 9.00051 14.5225C9.00438 14.6077 9.02993 14.6904 9.07474 14.7629C9.11955 14.8354 9.18213 14.8952 9.25656 14.9367C9.33098 14.9782 9.41478 15 9.5 15.0001H14.5C14.5825 15.0001 14.6638 14.9797 14.7365 14.9407C14.8092 14.9017 14.8712 14.8452 14.9168 14.7765C14.9624 14.7077 14.9903 14.6287 14.998 14.5465C15.0056 14.4643 14.9928 14.3815 14.9607 14.3055L12.4473 9.27644C12.4058 9.19338 12.3419 9.12353 12.2629 9.07472C12.1839 9.02591 12.0929 9.00007 12 9.00009Z" fill="#161616"/>
</svg>
