<svg width="16" height="16" viewBox="0 0 16 16" fill="none" xmlns="http://www.w3.org/2000/svg">
<path d="M15.1668 15H13V14H15V13H14C13.7349 12.9997 13.4807 12.8943 13.2932 12.7068C13.1057 12.5193 13.0003 12.2651 13 12V10.8333C13.0003 10.6123 13.0881 10.4005 13.2443 10.2443C13.4005 10.0881 13.6123 10.0003 13.8333 10H16V11H14V12H15C15.2651 12.0003 15.5193 12.1057 15.7068 12.2932C15.8943 12.4807 15.9997 12.7349 16 13V14.1667C15.9998 14.3877 15.9119 14.5995 15.7557 14.7557C15.5995 14.9119 15.3877 14.9997 15.1668 15Z" fill="#161616"/>
<path d="M11.1668 10H9.83326C9.61226 10 9.40032 10.0878 9.24406 10.2441C9.0878 10.4003 9.00001 10.6123 9.00001 10.8333V15H10V13H11V15H12V10.8333C12 10.6123 11.9122 10.4003 11.756 10.2441C11.5997 10.0878 11.3877 10 11.1668 10ZM10 12V11H11V12H10Z" fill="#161616"/>
<path d="M6.25001 12L5.50001 10H4.50001V15H5.50001V11.5L6.25001 13.5L7.00001 11.5V15H8.00001V10H7.00001L6.25001 12Z" fill="#161616"/>
<path d="M0.500007 11V14.25C0.498154 14.349 0.516287 14.4474 0.553322 14.5392C0.590357 14.631 0.645533 14.7144 0.71555 14.7845C0.785566 14.8545 0.868985 14.9096 0.960817 14.9467C1.05265 14.9837 1.15101 15.0019 1.25001 15H3.50001V14H1.50001V11H3.50001V10H1.50001C1.23503 10.0008 0.981128 10.1064 0.79376 10.2938C0.606392 10.4811 0.500785 10.735 0.500007 11Z" fill="#161616"/>
<path d="M6.50001 4H5.50001V5.5H4.00001V6.5H5.50001V8H6.50001V6.5H8.00001V5.5H6.50001V4Z" fill="#161616"/>
<path d="M3.00001 3H13V9H14V3C13.9992 2.73502 13.8936 2.48112 13.7063 2.29375C13.5189 2.10638 13.265 2.00078 13 2H3.00001C2.73503 2.00078 2.48113 2.10638 2.29376 2.29375C2.10639 2.48112 2.00079 2.73502 2.00001 3V9H3.00001V3Z" fill="#161616"/>
</svg>
