<svg width="16" height="16" viewBox="0 0 16 16" fill="none" xmlns="http://www.w3.org/2000/svg">
<path d="M3.85 2.35009C3.2765 2.79018 2.77106 3.31247 2.35 3.90009L3.15 4.50009C3.51723 3.99081 3.95493 3.53627 4.45 3.15009L3.85 2.35009Z" fill="#161616"/>
<path d="M2.3 6.15009L1.35 5.85009C1.10848 6.54077 0.990021 7.26847 1 8.00009H2C1.99797 7.37116 2.09932 6.74616 2.3 6.15009Z" fill="#161616"/>
<path d="M1.35 10.2001C1.58188 10.8973 1.91912 11.5549 2.35 12.1501L3.15 11.5501C2.78854 11.044 2.50224 10.4882 2.3 9.90009L1.35 10.2001Z" fill="#161616"/>
<path d="M3.9 13.6501C4.49517 14.081 5.15278 14.4182 5.85 14.6501L6.15 13.7001C5.56187 13.4979 5.00611 13.2116 4.5 12.8501L3.9 13.6501Z" fill="#161616"/>
<path d="M5.85 1.35009L6.15 2.30009C6.74607 2.09942 7.37106 1.99806 8 2.00009V1.00009C7.26838 0.990112 6.54068 1.10858 5.85 1.35009Z" fill="#161616"/>
<path d="M12.1 13.6501C12.6889 13.2111 13.2111 12.689 13.65 12.1001L12.85 11.5001C12.4782 12.022 12.0219 12.4783 11.5 12.8501L12.1 13.6501Z" fill="#161616"/>
<path d="M13.7 9.85009L14.65 10.1501C14.8675 9.45352 14.9853 8.72968 15 8.00009H14C14.002 8.62903 13.9007 9.25403 13.7 9.85009Z" fill="#161616"/>
<path d="M14.6 5.80009C14.3681 5.10288 14.0309 4.44526 13.6 3.85009L12.8 4.45009C13.1615 4.9562 13.4478 5.51196 13.65 6.10009L14.6 5.80009Z" fill="#161616"/>
<path d="M12.05 2.30009C11.4548 1.86921 10.7972 1.53197 10.1 1.30009L9.8 2.25009C10.3881 2.45233 10.9439 2.73863 11.45 3.10009L12.05 2.30009Z" fill="#161616"/>
<path d="M10.15 14.6501L9.85 13.7001C9.25394 13.9008 8.62894 14.0021 8 14.0001V15.0001C8.7267 14.9568 9.44709 14.8395 10.15 14.6501Z" fill="#161616"/>
</svg>
