<svg width="16" height="16" viewBox="0 0 16 16" fill="none" xmlns="http://www.w3.org/2000/svg">
<path d="M7.5 10C7.77614 10 8 9.77619 8 9.50005C8 9.22391 7.77614 9.00005 7.5 9.00005C7.22386 9.00005 7 9.22391 7 9.50005C7 9.77619 7.22386 10 7.5 10Z" fill="#161616"/>
<path d="M13.85 4.65005L10.35 1.15005C10.306 1.10121 10.2519 1.06251 10.1915 1.03661C10.131 1.01072 10.0657 0.998242 10 1.00005H5C4.73502 1.00081 4.48111 1.10642 4.29374 1.29379C4.10637 1.48116 4.00077 1.73507 4 2.00005V7.00005H3C2.73488 7.00035 2.4807 7.10581 2.29323 7.29328C2.10576 7.48075 2.0003 7.73493 2 8.00005V11C2.0003 11.2652 2.10576 11.5194 2.29323 11.7068C2.4807 11.8943 2.73488 11.9997 3 12H4V14C4.00077 14.265 4.10637 14.5189 4.29374 14.7063C4.48111 14.8937 4.73502 14.9993 5 15H13C13.265 14.9993 13.5189 14.8937 13.7063 14.7063C13.8936 14.5189 13.9992 14.265 14 14V5.00005C14.0018 4.93433 13.9893 4.86901 13.9634 4.80859C13.9375 4.74816 13.8988 4.69407 13.85 4.65005ZM10 2.20005L12.8 5.00005H10V2.20005ZM3 8.00005H7.7986L9.5 9.50005L7.8037 11H3V8.00005ZM13 14H5V12H7.80445C8.04587 11.9996 8.27903 11.9121 8.4612 11.7537L10.1529 10.2578C10.2614 10.1643 10.3485 10.0485 10.4084 9.91828C10.4683 9.7881 10.4996 9.64657 10.5001 9.50327C10.5005 9.35996 10.4702 9.21823 10.4112 9.08765C10.3522 8.95707 10.2658 8.8407 10.1579 8.7464L8.4562 7.24225C8.275 7.08601 8.04371 7.00005 7.80445 7.00005H5V2.00005H9V5.00005C9.00077 5.26503 9.10637 5.51894 9.29374 5.70631C9.48111 5.89368 9.73502 5.99928 10 6.00005H13V14Z" fill="#161616"/>
</svg>
