<svg width="16" height="16" viewBox="0 0 16 16" fill="none" xmlns="http://www.w3.org/2000/svg">
<path d="M14 8.49988V10.9999H2V2.99988H7.5V1.99988H2C1.73478 1.99988 1.48043 2.10524 1.29289 2.29277C1.10536 2.48031 1 2.73466 1 2.99988V10.9999C1 11.2651 1.10536 11.5195 1.29289 11.707C1.48043 11.8945 1.73478 11.9999 2 11.9999H6V13.9999H4V14.9999H12V13.9999H10V11.9999H14C14.2652 11.9999 14.5196 11.8945 14.7071 11.707C14.8946 11.5195 15 11.2651 15 10.9999V8.49988H14ZM9 13.9999H7V11.9999H9V13.9999Z" fill="#161616"/>
<path d="M14.5 6.99988H8.5C8.41153 6.99987 8.32465 6.97638 8.24822 6.93182C8.17179 6.88725 8.10856 6.82321 8.06497 6.74622C8.02138 6.66923 7.999 6.58206 8.00011 6.4936C8.00123 6.40513 8.02579 6.31855 8.0713 6.24268L11.0713 1.24268C11.1157 1.1686 11.1786 1.10728 11.2537 1.06471C11.3289 1.02213 11.4138 0.999756 11.5002 0.999756C11.5865 0.999756 11.6714 1.02213 11.7466 1.06471C11.8217 1.10728 11.8846 1.1686 11.929 1.24268L14.929 6.24268C14.9745 6.31857 14.9991 6.40518 15.0002 6.49367C15.0013 6.58216 14.9789 6.66936 14.9353 6.74635C14.8916 6.82335 14.8284 6.88739 14.7519 6.93193C14.6754 6.97647 14.5885 6.99992 14.5 6.99988ZM9.38305 5.99988H13.617L11.5 2.47168L9.38305 5.99988Z" fill="#161616"/>
</svg>
