<svg width="16" height="16" viewBox="0 0 16 16" fill="none" xmlns="http://www.w3.org/2000/svg">
<path d="M15 8.99998H14V14H15V8.99998Z" fill="#161616"/>
<path d="M13 6.99998H12V14H13V6.99998Z" fill="#161616"/>
<path d="M11 11H9.99999V14H11V11Z" fill="#161616"/>
<path d="M11.0875 4.99998L11.88 4.36693C11.1431 3.4457 10.1029 2.81622 8.94499 2.59078C8.29973 2.46613 7.63622 2.46988 6.9924 2.60181C6.34859 2.73375 5.73709 2.99127 5.19286 3.35968C4.64863 3.72808 4.18235 4.20013 3.82067 4.74885C3.45898 5.29757 3.209 5.91219 3.08499 6.55758C2.14234 6.72793 1.30052 7.25231 0.732012 8.02328C0.1635 8.79426 -0.0886615 9.75345 0.0271924 10.7043C0.159911 11.6286 0.624656 12.4729 1.33457 13.0794C2.04447 13.6859 2.95096 14.0132 3.88459 14H7.99999V13H3.84724C3.19237 13.0102 2.5544 12.7919 2.04314 12.3825C1.53188 11.9731 1.17931 11.3983 1.04609 10.7571C0.979384 10.4003 0.983886 10.0338 1.05934 9.67877C1.13479 9.32372 1.27971 8.9871 1.48575 8.68827C1.69179 8.38944 1.95489 8.1343 2.25991 7.93753C2.56493 7.74076 2.90584 7.60625 3.26304 7.54173L3.93734 7.41968L4.04429 6.86468C4.19447 6.03071 4.59919 5.26369 5.20284 4.66899C5.80649 4.07429 6.57947 3.68109 7.41559 3.54338C7.91743 3.46889 8.42888 3.49095 8.92244 3.60838C9.78074 3.81403 10.544 4.3046 11.0875 4.99998Z" fill="#161616"/>
</svg>
