<svg width="16" height="16" viewBox="0 0 16 16" fill="none" xmlns="http://www.w3.org/2000/svg">
<path d="M12.9109 5.0621C12.6928 3.91943 12.083 2.88859 11.1866 2.14713C10.2902 1.40567 9.16335 1 8.00004 1C6.83674 1 5.70984 1.40567 4.81345 2.14713C3.91706 2.88859 3.30729 3.91943 3.08917 5.0621C2.1668 5.22686 1.33958 5.73109 0.770521 6.47546C0.20146 7.21982 -0.0681756 8.15033 0.0147453 9.08362C0.0976661 10.0169 0.52713 10.8853 1.21851 11.5177C1.90989 12.15 2.81305 12.5005 3.75002 12.5001H4.00002V11.5001H3.75002C3.03721 11.5006 2.35212 11.224 1.83935 10.7289C1.32659 10.2337 1.02629 9.55872 1.00183 8.84633C0.977379 8.13394 1.23069 7.43993 1.70829 6.91079C2.18589 6.38164 2.85041 6.05878 3.56157 6.01035L3.97977 5.9818L4.02477 5.56505C4.13172 4.58544 4.59662 3.67981 5.33027 3.02191C6.06392 2.364 7.01466 2.00014 8.00009 2.00014C8.98553 2.00014 9.93626 2.364 10.6699 3.02191C11.4036 3.67981 11.8685 4.58544 11.9754 5.56505L12.0204 5.9818L12.4386 6.01035C13.1498 6.05878 13.8143 6.38165 14.2919 6.91081C14.7695 7.43997 15.0228 8.13401 14.9983 8.84641C14.9739 9.55881 14.6735 10.2338 14.1607 10.729C13.648 11.2241 12.9628 11.5006 12.25 11.5001H12V12.5001H12.25C13.187 12.5006 14.0902 12.1501 14.7815 11.5177C15.4729 10.8853 15.9024 10.0169 15.9853 9.08364C16.0683 8.15035 15.7986 7.21984 15.2296 6.47547C14.6605 5.7311 13.8333 5.22686 12.9109 5.0621Z" fill="#161616"/>
<path d="M11.5 11.0001V10.0001H10.4495C10.385 9.68713 10.2607 9.38955 10.0835 9.12365L10.8285 8.37865L10.1215 7.67165L9.37652 8.41665C9.11061 8.23941 8.81301 8.11514 8.50002 8.05065V7.0001H7.50002V8.05065C7.18705 8.11513 6.88946 8.23938 6.62357 8.4166L5.87857 7.6716L5.17157 8.3786L5.91657 9.1236C5.73932 9.38951 5.61505 9.68711 5.55057 10.0001H4.50002V11.0001H5.55057C5.61504 11.3131 5.73929 11.6107 5.91652 11.8766L5.17152 12.6216L5.87852 13.3286L6.62352 12.5836C6.88942 12.7608 7.18703 12.8851 7.50002 12.9496V14.0001H8.50002V12.9496C8.81299 12.8851 9.11057 12.7608 9.37647 12.5836L10.1215 13.3286L10.8285 12.6216L10.0835 11.8766C10.2607 11.6107 10.385 11.3131 10.4495 11.0001H11.5ZM8.00002 12.0001C7.70334 12.0001 7.41333 11.9121 7.16666 11.7473C6.91999 11.5825 6.72773 11.3482 6.6142 11.0741C6.50067 10.8 6.47096 10.4984 6.52884 10.2075C6.58672 9.9165 6.72958 9.64922 6.93936 9.43944C7.14913 9.22966 7.41641 9.0868 7.70738 9.02892C7.99835 8.97105 8.29995 9.00075 8.57404 9.11428C8.84813 9.22781 9.0824 9.42007 9.24722 9.66675C9.41204 9.91342 9.50002 10.2034 9.50002 10.5001C9.49958 10.8978 9.3414 11.2791 9.06019 11.5603C8.77898 11.8415 8.39771 11.9997 8.00002 12.0001Z" fill="#161616"/>
</svg>
