<svg width="16" height="16" viewBox="0 0 16 16" fill="none" xmlns="http://www.w3.org/2000/svg">
<path d="M10 8.50001V7.50001C10 7.23479 9.89464 6.98044 9.70711 6.7929C9.51957 6.60537 9.26522 6.50001 9 6.50001H5C4.73478 6.50001 4.48043 6.60537 4.29289 6.7929C4.10536 6.98044 4 7.23479 4 7.50001V8.50001C4 8.76523 4.10536 9.01958 4.29289 9.20712C4.48043 9.39465 4.73478 9.50001 5 9.50001H9C9.26522 9.50001 9.51957 9.39465 9.70711 9.20712C9.89464 9.01958 10 8.76523 10 8.50001ZM5 7.50001H9V8.50001H5V7.50001Z" fill="#161616"/>
<path d="M11.71 12.24C11.6418 11.9866 11.4768 11.7701 11.2504 11.6372C11.024 11.5044 10.7545 11.4659 10.5 11.53L6.635 12.565C6.37934 12.6331 6.16107 12.7997 6.028 13.0284C5.89492 13.257 5.85789 13.5291 5.925 13.785L6.185 14.75C6.23961 14.9617 6.36207 15.1496 6.53364 15.2851C6.70522 15.4205 6.91644 15.496 7.135 15.5C7.22252 15.496 7.30952 15.4842 7.395 15.465L11.26 14.43C11.5158 14.3609 11.7338 14.1931 11.866 13.9634C11.9982 13.7337 12.0338 13.4609 11.965 13.205L11.71 12.24ZM7.135 14.5L6.88 13.53L10.74 12.5L11 13.46L7.135 14.5Z" fill="#161616"/>
<path d="M6.62 3.43001L10.5 4.46501C10.5834 4.48644 10.6689 4.49818 10.755 4.50001C10.9757 4.50098 11.1905 4.42892 11.3659 4.29507C11.5414 4.16123 11.6676 3.9731 11.725 3.76001L12 2.79001C12.0688 2.53408 12.0332 2.26131 11.901 2.03162C11.7688 1.80193 11.5508 1.6341 11.295 1.56501L7.395 0.53001C7.13907 0.461216 6.8663 0.496826 6.63661 0.629015C6.40692 0.761204 6.23909 0.979163 6.17 1.23501L5.91 2.20001C5.84289 2.45592 5.87993 2.728 6.013 2.95667C6.14607 3.18533 6.36434 3.35194 6.62 3.42001V3.43001ZM7.12 1.50001L11 2.53501L10.74 3.50001L6.88 2.46501L7.12 1.50001Z" fill="#161616"/>
<path d="M8 10.5H7V11.5H8V10.5Z" fill="#161616"/>
<path d="M8 4.50001H7V5.50001H8V4.50001Z" fill="#161616"/>
</svg>
