<svg width="16" height="16" viewBox="0 0 16 16" fill="none" xmlns="http://www.w3.org/2000/svg">
<path d="M5 6.99996C5.55229 6.99996 6 6.55225 6 5.99996C6 5.44768 5.55229 4.99996 5 4.99996C4.44772 4.99996 4 5.44768 4 5.99996C4 6.55225 4.44772 6.99996 5 6.99996Z" fill="#161616"/>
<path d="M8 5.49996C8.55229 5.49996 9 5.05225 9 4.49996C9 3.94768 8.55229 3.49996 8 3.49996C7.44772 3.49996 7 3.94768 7 4.49996C7 5.05225 7.44772 5.49996 8 5.49996Z" fill="#161616"/>
<path d="M11 6.99996C11.5523 6.99996 12 6.55225 12 5.99996C12 5.44768 11.5523 4.99996 11 4.99996C10.4477 4.99996 10 5.44768 10 5.99996C10 6.55225 10.4477 6.99996 11 6.99996Z" fill="#161616"/>
<path d="M11.5 9.99996C12.0523 9.99996 12.5 9.55224 12.5 8.99996C12.5 8.44768 12.0523 7.99996 11.5 7.99996C10.9477 7.99996 10.5 8.44768 10.5 8.99996C10.5 9.55224 10.9477 9.99996 11.5 9.99996Z" fill="#161616"/>
<path d="M9.5 12.5C10.0523 12.5 10.5 12.0522 10.5 11.5C10.5 10.9477 10.0523 10.5 9.5 10.5C8.94772 10.5 8.5 10.9477 8.5 11.5C8.5 12.0522 8.94772 12.5 9.5 12.5Z" fill="#161616"/>
<path d="M8.27 0.99996C7.32828 0.96361 6.38892 1.11779 5.50823 1.45326C4.62754 1.78873 3.82365 2.29859 3.14477 2.95225C2.4659 3.60592 1.926 4.38994 1.55745 5.25731C1.18891 6.12468 0.999301 7.05754 1 7.99996C0.999977 8.37062 1.08545 8.73629 1.24977 9.06854C1.4141 9.40079 1.65285 9.69065 1.94745 9.91559C2.24205 10.1405 2.58457 10.2945 2.94837 10.3655C3.31217 10.4365 3.68744 10.4226 4.045 10.325L4.605 10.17C4.82777 10.1091 5.06158 10.1006 5.2882 10.145C5.51482 10.1893 5.72814 10.2854 5.91153 10.4257C6.09492 10.5661 6.24344 10.7469 6.34551 10.954C6.44759 11.1611 6.50045 11.389 6.5 11.62V13.5C6.5 13.8978 6.65804 14.2793 6.93934 14.5606C7.22065 14.8419 7.60218 15 8 15C8.94242 15.0007 9.87528 14.8111 10.7427 14.4425C11.61 14.074 12.394 13.5341 13.0477 12.8552C13.7014 12.1763 14.2112 11.3724 14.5467 10.4917C14.8822 9.61104 15.0364 8.67168 15 7.72996C14.9275 5.9683 14.1951 4.29833 12.9484 3.05159C11.7016 1.80485 10.0317 1.07251 8.27 0.99996ZM12.325 12.155C11.7667 12.7395 11.0954 13.2044 10.352 13.5216C9.60849 13.8388 8.8083 14.0015 8 14C7.86739 14 7.74022 13.9473 7.64645 13.8535C7.55268 13.7597 7.5 13.6326 7.5 13.5V11.62C7.5 10.9569 7.23661 10.321 6.76777 9.85219C6.29893 9.38335 5.66304 9.11996 5 9.11996C4.77533 9.12036 4.5517 9.15062 4.335 9.20996L3.775 9.36496C3.56584 9.42101 3.34658 9.42814 3.13422 9.38579C2.92186 9.34344 2.72211 9.25274 2.55046 9.12074C2.3788 8.98874 2.23986 8.81897 2.1444 8.62461C2.04894 8.43024 1.99953 8.2165 2 7.99996C1.99938 7.19186 2.16201 6.39196 2.47813 5.64825C2.79424 4.90455 3.25733 4.23236 3.83962 3.67202C4.4219 3.11169 5.11137 2.67475 5.86667 2.38743C6.62196 2.1001 7.42752 1.96831 8.235 1.99996C9.7386 2.07827 11.1599 2.71079 12.2245 3.77544C13.2892 4.84008 13.9217 6.26137 14 7.76496C14.0344 8.57294 13.9036 9.37945 13.6156 10.1351C13.3276 10.8908 12.8884 11.5798 12.325 12.16V12.155Z" fill="#161616"/>
</svg>
