<svg width="16" height="16" viewBox="0 0 16 16" fill="none" xmlns="http://www.w3.org/2000/svg">
<path d="M8.5 6.0001H7.5V15.0001H8.5V6.0001Z" fill="#161616"/>
<path d="M5.665 9.1101C5.29754 8.78179 5.00355 8.37959 4.80227 7.92983C4.60098 7.48006 4.49693 6.99285 4.49693 6.5001C4.49693 6.00734 4.60098 5.52014 4.80227 5.07037C5.00355 4.6206 5.29754 4.2184 5.665 3.8901L6.335 4.6351C6.0723 4.86961 5.8621 5.15698 5.71818 5.47837C5.57426 5.79977 5.49987 6.14795 5.49987 6.5001C5.49987 6.85225 5.57426 7.20042 5.71818 7.52182C5.8621 7.84322 6.0723 8.13058 6.335 8.3651L5.665 9.1101Z" fill="#161616"/>
<path d="M10.335 9.1101L9.665 8.3651C9.9277 8.13058 10.1379 7.84322 10.2818 7.52182C10.4257 7.20042 10.5001 6.85225 10.5001 6.5001C10.5001 6.14795 10.4257 5.79977 10.2818 5.47837C10.1379 5.15698 9.9277 4.86961 9.665 4.6351L10.335 3.8901C10.7025 4.2184 10.9964 4.6206 11.1977 5.07037C11.399 5.52014 11.5031 6.00734 11.5031 6.5001C11.5031 6.99285 11.399 7.48006 11.1977 7.92983C10.9964 8.37959 10.7025 8.78179 10.335 9.1101Z" fill="#161616"/>
<path d="M4.2 10.9001C3.51692 10.3878 2.9625 9.72348 2.58065 8.95977C2.1988 8.19607 2 7.35395 2 6.5001C2 5.64625 2.1988 4.80413 2.58065 4.04042C2.9625 3.27672 3.51692 2.61241 4.2 2.1001L4.8 2.9001C4.24112 3.31926 3.7875 3.86279 3.47508 4.48764C3.16265 5.11249 3 5.80149 3 6.5001C3 7.1987 3.16265 7.88771 3.47508 8.51256C3.7875 9.13741 4.24112 9.68094 4.8 10.1001L4.2 10.9001Z" fill="#161616"/>
<path d="M11.8 10.9001L11.2 10.1001C11.7589 9.68094 12.2125 9.13741 12.5249 8.51256C12.8373 7.88771 13 7.1987 13 6.5001C13 5.80149 12.8373 5.11249 12.5249 4.48764C12.2125 3.86279 11.7589 3.31926 11.2 2.9001L11.8 2.1001C12.4831 2.61241 13.0375 3.27672 13.4193 4.04042C13.8012 4.80413 14 5.64625 14 6.5001C14 7.35395 13.8012 8.19607 13.4193 8.95977C13.0375 9.72348 12.4831 10.3878 11.8 10.9001Z" fill="#161616"/>
</svg>
