<svg width="16" height="16" viewBox="0 0 16 16" fill="none" xmlns="http://www.w3.org/2000/svg">
<path d="M11.5 8.00509C10.7467 8.00581 10.0137 8.24955 9.40999 8.70009L7.29999 6.59009C7.75586 5.99077 8.00185 5.25809 7.99999 4.50509C8.00197 3.71654 7.73759 2.95044 7.24973 2.33092C6.76186 1.71141 6.07908 1.2748 5.31205 1.09185C4.54502 0.908892 3.73868 0.990319 3.02371 1.32293C2.30874 1.65554 1.72703 2.21984 1.37287 2.92438C1.01871 3.62893 0.912843 4.43242 1.07243 5.20466C1.23201 5.97689 1.64769 6.67261 2.25211 7.17906C2.85652 7.68551 3.61425 7.97301 4.4025 7.99498C5.19074 8.01695 5.96331 7.77209 6.59499 7.30009L8.69999 9.41009C8.22812 10.0416 7.98326 10.8139 8.00508 11.602C8.0269 12.39 8.31412 13.1476 8.82021 13.752C9.32631 14.3565 10.0216 14.7723 10.7936 14.9323C11.5655 15.0922 12.3688 14.9869 13.0735 14.6333C13.7781 14.2798 14.3427 13.6987 14.6758 12.9842C15.009 12.2698 15.0912 11.4637 14.9091 10.6967C14.727 9.92968 14.2913 9.24659 13.6726 8.75808C13.0539 8.26957 12.2883 8.00425 11.5 8.00509ZM1.99999 4.50509C1.99999 4.01064 2.14662 3.52729 2.42132 3.11617C2.69602 2.70504 3.08647 2.38461 3.54328 2.19539C4.0001 2.00617 4.50277 1.95667 4.98772 2.05313C5.47267 2.14959 5.91813 2.38769 6.26776 2.73733C6.61739 3.08696 6.85549 3.53241 6.95196 4.01737C7.04842 4.50232 6.99891 5.00499 6.80969 5.4618C6.62047 5.91862 6.30004 6.30906 5.88892 6.58377C5.4778 6.85847 4.99445 7.00509 4.49999 7.00509C3.83695 7.00509 3.20107 6.7417 2.73223 6.27286C2.26339 5.80402 1.99999 5.16813 1.99999 4.50509Z" fill="#161616"/>
</svg>
