<svg width="16" height="16" viewBox="0 0 16 16" fill="none" xmlns="http://www.w3.org/2000/svg">
<path d="M15 1H14V15H15V1Z" fill="#161616"/>
<path d="M9.99998 5L9.29293 5.70705L11.0859 7.5H5.94943C5.82552 6.89298 5.48063 6.35359 4.98163 5.9864C4.48263 5.61921 3.86507 5.45039 3.24867 5.51266C2.63227 5.57493 2.06094 5.86385 1.64546 6.32342C1.22998 6.78299 0.999939 7.38046 0.999939 8C0.999939 8.61954 1.22998 9.21701 1.64546 9.67658C2.06094 10.1361 2.63227 10.4251 3.24867 10.4873C3.86507 10.5496 4.48263 10.3808 4.98163 10.0136C5.48063 9.64641 5.82552 9.10702 5.94943 8.5H11.0859L9.29293 10.2929L9.99998 11L13 8L9.99998 5ZM3.49998 9.5C3.20331 9.5 2.9133 9.41203 2.66662 9.2472C2.41995 9.08238 2.22769 8.84811 2.11416 8.57403C2.00063 8.29994 1.97092 7.99834 2.0288 7.70736C2.08668 7.41639 2.22954 7.14912 2.43932 6.93934C2.6491 6.72956 2.91637 6.5867 3.20734 6.52882C3.49831 6.47094 3.79991 6.50065 4.074 6.61418C4.34809 6.72771 4.58236 6.91997 4.74718 7.16664C4.91201 7.41332 4.99998 7.70333 4.99998 8C4.99954 8.39769 4.84137 8.77897 4.56016 9.06018C4.27895 9.34139 3.89767 9.49956 3.49998 9.5Z" fill="#161616"/>
</svg>
