<svg width="16" height="16" viewBox="0 0 16 16" fill="none" xmlns="http://www.w3.org/2000/svg">
<path d="M3.84997 2.34997C3.27648 2.79008 2.77104 3.31236 2.34997 3.89997L3.14997 4.49997C3.51721 3.9907 3.95491 3.53616 4.44997 3.14997L3.84997 2.34997Z" fill="#161616"/>
<path d="M2.29997 6.14997L1.34997 5.84997C1.10846 6.54065 0.99 7.26835 0.99997 7.99997H1.99997C1.9979 7.37103 2.09925 6.74603 2.29997 6.14997Z" fill="#161616"/>
<path d="M1.34997 10.2C1.58187 10.8972 1.91911 11.5548 2.34997 12.15L3.14997 11.55C2.78849 11.0439 2.50219 10.4881 2.29997 9.89997L1.34997 10.2Z" fill="#161616"/>
<path d="M3.89997 13.65C4.49515 14.0808 5.15276 14.4181 5.84997 14.65L6.14997 13.7C5.56183 13.4978 5.00607 13.2115 4.49997 12.85L3.89997 13.65Z" fill="#161616"/>
<path d="M5.84997 1.34997L6.14997 2.29997C6.74603 2.09925 7.37103 1.9979 7.99997 1.99997V0.99997C7.26835 0.99 6.54065 1.10846 5.84997 1.34997Z" fill="#161616"/>
<path d="M12.1 13.65C12.6889 13.211 13.211 12.6889 13.65 12.1L12.85 11.5C12.4782 12.0219 12.0219 12.4782 11.5 12.85L12.1 13.65Z" fill="#161616"/>
<path d="M13.7 9.84997L14.65 10.15C14.8674 9.45339 14.9853 8.72956 15 7.99997H14C14.002 8.62891 13.9007 9.25391 13.7 9.84997Z" fill="#161616"/>
<path d="M14.6 5.79997C14.3681 5.10276 14.0308 4.44515 13.6 3.84997L12.8 4.44997C13.1615 4.95607 13.4478 5.51183 13.65 6.09997L14.6 5.79997Z" fill="#161616"/>
<path d="M12.05 2.29997C11.4548 1.86911 10.7972 1.53187 10.1 1.29997L9.79997 2.24997C10.3881 2.45219 10.9439 2.73849 11.45 3.09997L12.05 2.29997Z" fill="#161616"/>
<path d="M10.15 14.65L9.84997 13.7C9.25391 13.9007 8.62891 14.002 7.99997 14V15C8.72667 14.9567 9.44706 14.8394 10.15 14.65Z" fill="#161616"/>
<path d="M7.99997 13C7.01106 13 6.04436 12.7067 5.22212 12.1573C4.39987 11.6079 3.75901 10.827 3.38057 9.91339C3.00213 8.99976 2.90312 7.99442 3.09604 7.02452C3.28897 6.05461 3.76517 5.1637 4.46444 4.46444C5.1637 3.76517 6.05461 3.28897 7.02452 3.09604C7.99442 2.90312 8.99976 3.00213 9.91339 3.38057C10.827 3.75901 11.6079 4.39987 12.1573 5.22212C12.7067 6.04436 13 7.01106 13 7.99997C12.9984 9.32559 12.4712 10.5965 11.5338 11.5338C10.5965 12.4712 9.32559 12.9984 7.99997 13ZM7.99997 3.99997C7.20885 3.99997 6.43549 4.23457 5.77769 4.67409C5.11989 5.11362 4.6072 5.73833 4.30445 6.46924C4.0017 7.20014 3.92249 8.00441 4.07683 8.78033C4.23117 9.55626 4.61213 10.269 5.17154 10.8284C5.73095 11.3878 6.44369 11.7688 7.21961 11.9231C7.99553 12.0775 8.7998 11.9982 9.5307 11.6955C10.2616 11.3927 10.8863 10.88 11.3258 10.2223C11.7654 9.56446 12 8.7911 12 7.99997C11.9988 6.93948 11.5769 5.92277 10.8271 5.17289C10.0772 4.42301 9.06046 4.00119 7.99997 3.99997Z" fill="#161616"/>
</svg>
