<svg width="16" height="16" viewBox="0 0 16 16" fill="none" xmlns="http://www.w3.org/2000/svg">
<path d="M3.84997 2.34997C3.27648 2.79007 2.77104 3.31236 2.34997 3.89997L3.14997 4.49997C3.51721 3.99069 3.95491 3.53616 4.44997 3.14997L3.84997 2.34997Z" fill="#161616"/>
<path d="M2.29997 6.14997L1.34997 5.84997C1.10846 6.54065 0.99 7.26834 0.99997 7.99997H1.99997C1.9979 7.37102 2.09925 6.74602 2.29997 6.14997Z" fill="#161616"/>
<path d="M5.84997 1.34997L6.14997 2.29997C6.74602 2.09925 7.37102 1.9979 7.99997 1.99997V0.99997C7.26834 0.99 6.54065 1.10846 5.84997 1.34997Z" fill="#161616"/>
<path d="M12.1 13.6499C12.6889 13.211 13.211 12.6889 13.65 12.0999L12.85 11.4999C12.4782 12.0219 12.0219 12.4781 11.5 12.8499L12.1 13.6499Z" fill="#161616"/>
<path d="M13.7 9.84994L14.65 10.1499C14.8674 9.45336 14.9853 8.72953 15 7.99994H14C14.002 8.62888 13.9007 9.25388 13.7 9.84994Z" fill="#161616"/>
<path d="M14.6 5.79997C14.3681 5.10276 14.0308 4.44514 13.6 3.84997L12.8 4.44997C13.1615 4.95606 13.4478 5.51183 13.65 6.09997L14.6 5.79997Z" fill="#161616"/>
<path d="M12.05 2.29995C11.4548 1.86909 10.7972 1.53186 10.1 1.29995L9.79998 2.24995C10.3881 2.45217 10.9439 2.73847 11.45 3.09995L12.05 2.29995Z" fill="#161616"/>
<path d="M10.15 14.6499L9.84997 13.6999C9.25391 13.9006 8.62891 14.002 7.99997 13.9999V14.9999C8.72667 14.9566 9.44706 14.8394 10.15 14.6499Z" fill="#161616"/>
<path d="M7.70113 12.124C7.50437 11.5263 7.21443 10.9634 6.84203 10.4563L7.64868 9.86495C8.08314 10.457 8.42137 11.1139 8.65088 11.8115L7.70113 12.124Z" fill="#161616"/>
<path d="M5.50998 9.13333C5.0004 8.76442 4.43563 8.47849 3.83663 8.28618L4.14233 7.33403C4.84162 7.55859 5.50098 7.89238 6.09593 8.32303L5.50998 9.13333Z" fill="#161616"/>
</svg>
