<svg width="16" height="16" viewBox="0 0 16 16" fill="none" xmlns="http://www.w3.org/2000/svg">
<path d="M7.99997 14.9999V13.9999C9.42939 13.9997 10.8118 13.4892 11.8983 12.5604C12.9848 11.6316 13.7041 10.3454 13.9267 8.93342C14.1493 7.52144 13.8606 6.07637 13.1125 4.85833C12.3645 3.64028 11.2062 2.72926 9.84617 2.28924L10.1538 1.33759C11.7405 1.85087 13.0919 2.9137 13.9647 4.33475C14.8375 5.7558 15.1744 7.44173 14.9147 9.08907C14.655 10.7364 13.8158 12.2369 12.5481 13.3206C11.2805 14.4042 9.66765 14.9997 7.99997 14.9999Z" fill="#161616"/>
<path d="M3.84997 2.34997C3.27648 2.79007 2.77104 3.31236 2.34997 3.89997L3.14997 4.49997C3.51721 3.99069 3.95491 3.53616 4.44997 3.14997L3.84997 2.34997Z" fill="#161616"/>
<path d="M2.29997 6.14997L1.34997 5.84997C1.10846 6.54065 0.99 7.26834 0.99997 7.99997H1.99997C1.9979 7.37102 2.09925 6.74602 2.29997 6.14997Z" fill="#161616"/>
<path d="M5.84997 1.34997L6.14997 2.29997C6.74602 2.09925 7.37102 1.9979 7.99997 1.99997V0.99997C7.26834 0.99 6.54065 1.10846 5.84997 1.34997Z" fill="#161616"/>
<path d="M7.70113 12.124C7.50437 11.5263 7.21443 10.9634 6.84203 10.4563L7.64868 9.86495C8.08314 10.457 8.42137 11.1139 8.65088 11.8115L7.70113 12.124Z" fill="#161616"/>
<path d="M5.50998 9.13333C5.0004 8.76442 4.43563 8.47849 3.83663 8.28618L4.14233 7.33403C4.84162 7.55859 5.50098 7.89238 6.09593 8.32303L5.50998 9.13333Z" fill="#161616"/>
</svg>
