<svg width="16" height="16" viewBox="0 0 16 16" fill="none" xmlns="http://www.w3.org/2000/svg">
<path d="M9.52498 6.8663L9.02498 6L3.96398 8.92285L3.46558 8.635C3.59821 8.52712 3.71108 8.39702 3.79918 8.2505C3.94753 7.99359 4.01638 7.69846 3.997 7.40243C3.97763 7.1064 3.87091 6.82276 3.69033 6.58738C3.50976 6.35199 3.26344 6.17545 2.98253 6.08005C2.70162 5.98466 2.39873 5.97471 2.11216 6.05145C1.82559 6.1282 1.56822 6.2882 1.37258 6.51122C1.17695 6.73423 1.05183 7.01026 1.01307 7.30438C0.974299 7.5985 1.02362 7.89751 1.15479 8.16361C1.28596 8.4297 1.49308 8.65092 1.74998 8.7993L2.96398 9.50025L1.74998 10.2011C1.46822 10.3597 1.24446 10.604 1.11134 10.8987C0.978213 11.1933 0.942683 11.5227 1.00993 11.8389C1.07717 12.1551 1.24367 12.4416 1.48516 12.6566C1.72664 12.8715 2.03047 13.0037 2.35236 13.0339C2.67424 13.064 2.99733 12.9905 3.27454 12.8242C3.55174 12.6578 3.76855 12.4073 3.89335 12.109C4.01815 11.8108 4.04442 11.4805 3.96832 11.1663C3.89223 10.8521 3.71775 10.5704 3.47033 10.3623L3.96383 10.0777L7.29568 12L7.79568 11.1353L4.96398 9.5003L9.52498 6.8663ZM2.01718 7.63C1.98721 7.51827 1.99691 7.39959 2.04462 7.29421C2.09234 7.18882 2.17513 7.10325 2.27887 7.05206C2.38262 7.00087 2.5009 6.98724 2.61357 7.0135C2.72623 7.03975 2.82631 7.10426 2.89675 7.19603C2.96718 7.2878 3.00362 7.40115 2.99984 7.51678C2.99606 7.6324 2.95231 7.74314 2.87603 7.83011C2.79976 7.91709 2.69569 7.97493 2.58154 7.99378C2.4674 8.01262 2.35026 7.9913 2.25008 7.93345C2.19312 7.90078 2.14321 7.85714 2.10323 7.80506C2.06325 7.75297 2.034 7.69347 2.01718 7.63ZM2.49938 11C2.58718 10.9999 2.67347 11.0229 2.74956 11.0667C2.82566 11.1105 2.88888 11.1735 2.93287 11.2495C2.97686 11.3255 3.00006 11.4117 3.00014 11.4995C3.00023 11.5873 2.97719 11.6736 2.93335 11.7497C2.8895 11.8257 2.8264 11.8889 2.75039 11.9329C2.67438 11.9768 2.58813 12 2.50033 12C2.41253 12 2.32627 11.9769 2.25022 11.9331C2.17418 11.8892 2.11103 11.826 2.06713 11.75C2.02328 11.674 2.00018 11.5879 2.00014 11.5002C2.00011 11.4125 2.02314 11.3263 2.06694 11.2503C2.11073 11.1743 2.17374 11.1112 2.24965 11.0673C2.32555 11.0233 2.41168 11.0001 2.49938 11Z" fill="#161616"/>
<path d="M10.5 13H8.49998V14H10.5V13Z" fill="#161616"/>
<path d="M6.99998 13H4.99998V14H6.99998V13Z" fill="#161616"/>
<path d="M14 14H12V13H14V2H3.49998V4H2.49998V2C2.50028 1.73488 2.60574 1.4807 2.79321 1.29323C2.98068 1.10576 3.23486 1.0003 3.49998 1H14C14.2651 1.0003 14.5193 1.10576 14.7068 1.29323C14.8942 1.4807 14.9997 1.73488 15 2V13C14.9997 13.2651 14.8942 13.5193 14.7068 13.7068C14.5193 13.8942 14.2651 13.9997 14 14Z" fill="#161616"/>
</svg>
