<svg width="16" height="16" viewBox="0 0 16 16" fill="none" xmlns="http://www.w3.org/2000/svg">
<path d="M14 1.49999C13.6907 1.5006 13.3892 1.5971 13.137 1.77619C12.8848 1.95528 12.6943 2.20816 12.5918 2.49999H10.929C10.82 2.0711 10.5711 1.69077 10.2218 1.41912C9.87243 1.14747 9.44252 0.999996 8.99999 0.999996C8.55746 0.999996 8.12755 1.14747 7.7782 1.41912C7.42886 1.69077 7.18001 2.0711 7.07099 2.49999H4.92899C4.84151 2.15887 4.66533 1.84696 4.41834 1.59594C4.17135 1.34493 3.86233 1.16373 3.52267 1.07075C3.183 0.977778 2.82479 0.976331 2.48438 1.06656C2.14398 1.15679 1.83351 1.33548 1.5845 1.5845C1.33548 1.83351 1.15679 2.14398 1.06656 2.48438C0.976331 2.82479 0.977778 3.183 1.07075 3.52267C1.16373 3.86233 1.34493 4.17135 1.59594 4.41834C1.84696 4.66533 2.15886 4.84151 2.49999 4.92899V7.07099C2.0711 7.18001 1.69077 7.42886 1.41912 7.7782C1.14747 8.12755 0.999996 8.55746 0.999996 8.99999C0.999996 9.44252 1.14747 9.87243 1.41912 10.2218C1.69077 10.5711 2.0711 10.82 2.49999 10.929V12.5918C2.16638 12.7098 1.88521 12.9419 1.70617 13.2471C1.52713 13.5523 1.46175 13.911 1.52159 14.2597C1.58142 14.6085 1.76262 14.9248 2.03316 15.1529C2.30369 15.381 2.64614 15.5061 2.99999 15.5061C3.35383 15.5061 3.69628 15.381 3.96682 15.1529C4.23735 14.9248 4.41855 14.6085 4.47838 14.2597C4.53822 13.911 4.47284 13.5523 4.2938 13.2471C4.11476 12.9419 3.83359 12.7098 3.49999 12.5918V10.929C3.81121 10.8482 4.09823 10.6932 4.33644 10.4773L6.01834 11.3182C6.00849 11.3784 6.00236 11.4391 5.99999 11.5C5.99864 11.8474 6.11747 12.1846 6.33634 12.4545C6.55521 12.7243 6.86065 12.9101 7.20089 12.9805C7.54112 13.0508 7.89522 13.0014 8.20316 12.8405C8.51109 12.6796 8.75392 12.4172 8.89048 12.0977C9.02704 11.7782 9.04893 11.4214 8.95243 11.0876C8.85594 10.7538 8.647 10.4637 8.36103 10.2664C8.07507 10.0691 7.72967 9.97671 7.38338 10.005C7.0371 10.0332 6.71124 10.1803 6.46104 10.4214L4.88719 9.63449C4.95927 9.43059 4.99738 9.21624 4.99999 8.99999C4.99865 8.5578 4.85066 8.12854 4.57922 7.77947C4.30778 7.4304 3.92822 7.18123 3.49999 7.07099V4.92899C3.84373 4.83939 4.15737 4.65974 4.40855 4.40855C4.65974 4.15737 4.83939 3.84373 4.92899 3.49999H7.07099C7.1327 3.75196 7.24361 3.98924 7.39734 4.1982C7.55107 4.40715 7.74459 4.58366 7.96677 4.71756C8.18896 4.85147 8.43542 4.94014 8.69199 4.97846C8.94856 5.01679 9.21017 5.00402 9.46179 4.94089L10.3677 6.52614C10.1322 6.79825 10.0007 7.14498 9.99658 7.5048C9.99241 7.86463 10.1158 8.2143 10.3449 8.4918C10.5741 8.76929 10.894 8.95666 11.2482 9.02068C11.6023 9.0847 11.9676 9.02122 12.2794 8.84152C12.5911 8.66181 12.8292 8.37748 12.9513 8.03898C13.0734 7.70047 13.0716 7.32966 12.9463 6.99232C12.821 6.65498 12.5803 6.37293 12.2669 6.19618C11.9534 6.01943 11.5875 5.95942 11.234 6.02679L10.3446 4.47049C10.6292 4.21036 10.8322 3.87322 10.929 3.49999H12.5918C12.6839 3.75857 12.8454 3.98686 13.0584 4.15991C13.2715 4.33296 13.5281 4.44412 13.8 4.48123C14.072 4.51835 14.3489 4.47999 14.6006 4.37036C14.8523 4.26073 15.0689 4.08404 15.227 3.85959C15.385 3.63514 15.4783 3.37158 15.4967 3.0977C15.515 2.82382 15.4578 2.55016 15.3311 2.30662C15.2045 2.06308 15.0133 1.85903 14.7786 1.71678C14.5438 1.57452 14.2745 1.49952 14 1.49999ZM3.99999 8.99999C3.99999 9.19777 3.94134 9.39111 3.83146 9.55556C3.72157 9.72001 3.5654 9.84818 3.38267 9.92387C3.19994 9.99955 2.99888 10.0194 2.8049 9.98077C2.61092 9.94219 2.43273 9.84695 2.29288 9.70709C2.15303 9.56724 2.05779 9.38906 2.0192 9.19508C1.98062 9.0011 2.00042 8.80003 2.07611 8.6173C2.15179 8.43458 2.27997 8.2784 2.44442 8.16852C2.60887 8.05864 2.80221 7.99999 2.99999 7.99999C3.26511 8.00029 3.51929 8.10575 3.70676 8.29322C3.89423 8.48069 3.99968 8.73486 3.99999 8.99999ZM2.99999 3.99999C2.80221 3.99999 2.60887 3.94134 2.44442 3.83146C2.27997 3.72158 2.15179 3.5654 2.07611 3.38267C2.00042 3.19994 1.98062 2.99888 2.0192 2.8049C2.05779 2.61092 2.15303 2.43273 2.29288 2.29288C2.43273 2.15303 2.61092 2.05779 2.8049 2.0192C2.99888 1.98062 3.19994 2.00042 3.38267 2.07611C3.5654 2.15179 3.72157 2.27997 3.83146 2.44442C3.94134 2.60887 3.99999 2.80221 3.99999 2.99999C3.99972 3.26512 3.89428 3.51932 3.7068 3.7068C3.51932 3.89428 3.26512 3.99972 2.99999 3.99999ZM7.99999 2.99999C7.99999 2.80221 8.05864 2.60887 8.16852 2.44442C8.2784 2.27997 8.43458 2.15179 8.6173 2.07611C8.80003 2.00042 9.00109 1.98062 9.19508 2.0192C9.38906 2.05779 9.56724 2.15303 9.70709 2.29288C9.84694 2.43273 9.94219 2.61092 9.98077 2.8049C10.0194 2.99888 9.99955 3.19994 9.92387 3.38267C9.84818 3.5654 9.72001 3.72158 9.55556 3.83146C9.39111 3.94134 9.19777 3.99999 8.99999 3.99999C8.73485 3.99972 8.48065 3.89428 8.29317 3.7068C8.10569 3.51932 8.00025 3.26512 7.99999 2.99999Z" fill="#161616"/>
</svg>
