<svg width="16" height="16" viewBox="0 0 16 16" fill="none" xmlns="http://www.w3.org/2000/svg">
<path d="M14 1H9.99997C9.73485 1.0003 9.48067 1.10576 9.2932 1.29323C9.10573 1.4807 9.00027 1.73488 8.99997 2V14C9.00027 14.2651 9.10573 14.5193 9.2932 14.7068C9.48067 14.8942 9.73485 14.9997 9.99997 15H14C14.2651 14.9997 14.5193 14.8942 14.7067 14.7068C14.8942 14.5193 14.9997 14.2651 15 14V2C14.9997 1.73488 14.8942 1.4807 14.7067 1.29323C14.5193 1.10576 14.2651 1.0003 14 1ZM14 2V5.5H9.99997V2H14ZM14 6.5V9.5H9.99997V6.5H14ZM9.99997 14V10.5H14V14H9.99997Z" fill="#161616"/>
<path d="M5.99997 7.5H4.99997V6.5H3.99997V7.5H2.99997V8.5H3.99997V9.5H4.99997V8.5H5.99997V7.5Z" fill="#161616"/>
<path d="M7.99997 3V2H4.99997C4.73485 2.0003 4.48067 2.10576 4.2932 2.29323C4.10573 2.4807 4.00028 2.73488 3.99997 3V4.54C3.16694 4.65879 2.40474 5.07412 1.85333 5.70973C1.30193 6.34534 0.998352 7.15855 0.998352 8C0.998352 8.84145 1.30193 9.65466 1.85333 10.2903C2.40474 10.9259 3.16694 11.3412 3.99997 11.46V13C4.00028 13.2651 4.10573 13.5193 4.2932 13.7068C4.48067 13.8942 4.73485 13.9997 4.99997 14H7.99997V13H4.99997V11.46C5.833 11.3412 6.5952 10.9259 7.14661 10.2903C7.69801 9.65466 8.00159 8.84145 8.00159 8C8.00159 7.15855 7.69801 6.34534 7.14661 5.70973C6.5952 5.07412 5.833 4.65879 4.99997 4.54V3H7.99997ZM6.99997 8C6.99997 8.49445 6.85335 8.9778 6.57864 9.38893C6.30394 9.80005 5.91349 10.1205 5.45668 10.3097C4.99986 10.4989 4.4972 10.5484 4.01225 10.452C3.52729 10.3555 3.08184 10.1174 2.7322 9.76777C2.38257 9.41814 2.14447 8.97268 2.04801 8.48773C1.95154 8.00277 2.00105 7.50011 2.19027 7.04329C2.37949 6.58648 2.69992 6.19603 3.11105 5.92133C3.52217 5.64662 4.00552 5.5 4.49997 5.5C5.16277 5.50078 5.7982 5.76442 6.26688 6.2331C6.73555 6.70177 6.99919 7.3372 6.99997 8Z" fill="#161616"/>
</svg>
