<svg width="16" height="16" viewBox="0 0 16 16" fill="none" xmlns="http://www.w3.org/2000/svg">
<path d="M14.7409 4.31198L9.74095 1.56198C9.66713 1.52138 9.58425 1.50009 9.5 1.50009C9.41575 1.50009 9.33287 1.52138 9.25905 1.56198L4.25905 4.31198C4.18066 4.35514 4.11528 4.41855 4.06975 4.49559C4.02422 4.57264 4.00021 4.66049 4.00021 4.74998C4.00021 4.83947 4.02422 4.92732 4.06975 5.00436C4.11528 5.0814 4.18066 5.14482 4.25905 5.18798L9 7.79563V13.1543L7.4819 12.3196L7 13.1956L9.25905 14.438C9.33285 14.4786 9.41574 14.5 9.5 14.5C9.58426 14.5 9.66715 14.4786 9.74095 14.438L14.7409 11.688C14.8194 11.6448 14.8848 11.5814 14.9304 11.5044C14.9759 11.4274 15 11.3395 15 11.25V4.74998C15 4.66047 14.9759 4.5726 14.9304 4.49556C14.8848 4.41851 14.8194 4.35511 14.7409 4.31198ZM9.5 2.57078L13.4624 4.74998L9.5 6.92918L5.5376 4.74998L9.5 2.57078ZM14 10.9543L10 13.1543V7.79563L14 5.59563V10.9543Z" fill="#161616"/>
<path d="M1 7.99998H5V6.99998H1V7.99998Z" fill="#161616"/>
<path d="M2 12H6V11H2V12Z" fill="#161616"/>
<path d="M3 9.99998H7V8.99998H3V9.99998Z" fill="#161616"/>
</svg>
