<svg width="16" height="16" viewBox="0 0 16 16" fill="none" xmlns="http://www.w3.org/2000/svg">
<path d="M15 13.9998H0.99998V14.9998H15V13.9998Z" fill="#161616"/>
<path d="M6.73998 2.57481L9.58498 6.64481L9.98498 7.21981L12.92 6.43481C13.1033 6.38486 13.2967 6.38486 13.48 6.43481C13.6235 6.47098 13.7561 6.54123 13.8666 6.63959C13.9772 6.73794 14.0624 6.86152 14.115 6.99981C14.16 7.12034 14.1797 7.24887 14.1727 7.37734C14.1658 7.50582 14.1324 7.63148 14.0747 7.74646C14.017 7.86145 13.9361 7.96328 13.8372 8.04559C13.7383 8.1279 13.6235 8.18891 13.5 8.22481L4.14498 10.7248C3.98174 10.7726 3.80822 10.7726 3.64498 10.7248C3.48896 10.6796 3.34743 10.5944 3.23433 10.4778C3.12123 10.3612 3.04046 10.2171 2.99998 10.0598L2.87498 9.59482L2.49998 8.18981L2.12998 6.81981L2.84998 6.62481L3.99998 8.17481L4.40498 8.71481L7.42998 7.90481L6.03998 2.75981L6.73998 2.57481ZM7.07998 1.49981C6.99784 1.47988 6.91212 1.47988 6.82998 1.49981L5.28498 1.91481C5.16531 1.95198 5.06396 2.03273 5.001 2.14107C4.93803 2.24941 4.91804 2.37744 4.94498 2.49981L6.19498 7.17981L4.78998 7.55481L3.42498 5.74981C3.36007 5.66327 3.26884 5.60011 3.16498 5.56981C3.08284 5.54988 2.99712 5.54988 2.91498 5.56981L1.35998 5.99981C1.23765 6.03287 1.13243 6.11115 1.0656 6.21882C0.99877 6.32649 0.975317 6.45551 0.99998 6.57981L1.87498 9.84982L1.99998 10.3198C2.08777 10.6484 2.26064 10.9481 2.50116 11.1886C2.74169 11.4292 3.04136 11.602 3.36998 11.6898C3.69768 11.7765 4.04228 11.7765 4.36998 11.6898L13.72 9.18981C14.133 9.08407 14.499 8.84388 14.7604 8.50711C15.0219 8.17033 15.1637 7.75614 15.1637 7.32981C15.1637 6.90349 15.0219 6.4893 14.7604 6.15252C14.499 5.81575 14.133 5.57556 13.72 5.46981C13.3659 5.37726 12.994 5.37726 12.64 5.46981L10.385 6.07481L7.34998 1.70481C7.2866 1.60712 7.19111 1.53462 7.07998 1.49981Z" fill="#161616"/>
</svg>
