<svg width="16" height="16" viewBox="0 0 16 16" fill="none" xmlns="http://www.w3.org/2000/svg">
<path d="M3.99999 10H2.36499C2.27835 9.84724 2.15251 9.72035 2.00045 9.63245C1.84839 9.54455 1.67562 9.49884 1.49999 9.50002C1.23477 9.50002 0.980418 9.60538 0.792881 9.79291C0.605345 9.98045 0.499988 10.2348 0.499988 10.5C0.499988 10.7652 0.605345 11.0196 0.792881 11.2071C0.980418 11.3947 1.23477 11.5 1.49999 11.5C1.67562 11.5012 1.84839 11.4555 2.00045 11.3676C2.15251 11.2797 2.27835 11.1528 2.36499 11H3.99999V10Z" fill="#161616"/>
<path d="M14.5 4.50002C14.3244 4.49884 14.1516 4.54455 13.9995 4.63245C13.8475 4.72035 13.7216 4.84724 13.635 5.00002H12V6.00002H13.635C13.7228 6.15188 13.8491 6.27795 14.0011 6.36556C14.1531 6.45317 14.3254 6.49923 14.5009 6.49912C14.6763 6.499 14.8486 6.45272 15.0005 6.36491C15.1524 6.27711 15.2785 6.15088 15.3661 5.9989C15.4538 5.84692 15.4999 5.67456 15.4998 5.49912C15.4997 5.32369 15.4535 5.15136 15.3657 4.99947C15.2779 4.84757 15.1517 4.72145 14.9997 4.63378C14.8478 4.54611 14.6754 4.49998 14.5 4.50002Z" fill="#161616"/>
<path d="M12.707 2.50002L10.5 0.292969L8.29294 2.50002L9.99999 4.20707V9.00002H11V4.20707L12.707 2.50002ZM10.5 1.70707L11.2929 2.50002L10.5 3.29297L9.70704 2.50002L10.5 1.70707Z" fill="#161616"/>
<path d="M5.99999 11.793V7.00002H4.99999V11.793L3.29294 13.5L5.49999 15.7071L7.70704 13.5L5.99999 11.793ZM4.70704 13.5L5.49999 12.7071L6.29294 13.5L5.49999 14.293L4.70704 13.5Z" fill="#161616"/>
<path d="M8.99999 5.00002H4.20704L2.49999 3.29297L0.292938 5.50002L2.49999 7.70707L4.20704 6.00002H8.99999V5.00002ZM2.49999 6.29297L1.70704 5.50002L2.49999 4.70707L3.29294 5.50002L2.49999 6.29297Z" fill="#161616"/>
<path d="M6.49999 1.50002C6.49999 1.2348 6.39463 0.980448 6.20709 0.792912C6.01956 0.605376 5.7652 0.500019 5.49999 0.500019C5.23477 0.500019 4.98042 0.605376 4.79288 0.792912C4.60535 0.980448 4.49999 1.2348 4.49999 1.50002C4.49879 1.67565 4.54451 1.84842 4.6324 2.00049C4.7203 2.15255 4.8472 2.27839 4.99999 2.36502V4.00002H5.99999V2.36502C6.15278 2.27839 6.27967 2.15255 6.36757 2.00049C6.45547 1.84842 6.50118 1.67565 6.49999 1.50002Z" fill="#161616"/>
<path d="M11 13.6353V12H9.99999V13.635C9.80935 13.7451 9.66035 13.915 9.57611 14.1184C9.49187 14.3217 9.47709 14.5472 9.53406 14.7599C9.59104 14.9725 9.71658 15.1604 9.89123 15.2944C10.0659 15.4284 10.2799 15.501 10.5 15.501C10.7201 15.501 10.9341 15.4284 11.1087 15.2944C11.2834 15.1604 11.4089 14.9725 11.4659 14.7599C11.5229 14.5472 11.5081 14.3217 11.4239 14.1184C11.3396 13.915 11.1906 13.7453 11 13.6353Z" fill="#161616"/>
<path d="M15.707 10.5L13.5 8.29297L11.7929 10H6.99999V11H11.7929L13.5 12.7071L15.707 10.5ZM13.5 9.70707L14.2929 10.5L13.5 11.293L12.707 10.5L13.5 9.70707Z" fill="#161616"/>
</svg>
