<svg width="16" height="16" viewBox="0 0 16 16" fill="none" xmlns="http://www.w3.org/2000/svg">
<path d="M11 2L10.293 2.70705L12.586 5H8.45502C8.36351 4.45725 8.12436 3.95016 7.76378 3.53431C7.40321 3.11845 6.93511 2.80988 6.4108 2.6424C5.88649 2.47492 5.3262 2.455 4.79132 2.58482C4.25643 2.71464 3.76761 2.9892 3.37841 3.3784C2.98921 3.76759 2.71466 4.25642 2.58484 4.7913C2.45501 5.32618 2.47493 5.88648 2.64241 6.41079C2.80989 6.9351 3.11847 7.40319 3.53432 7.76377C3.95018 8.12434 4.45727 8.36349 5.00002 8.455V14H6.00002V8.455C6.61306 8.35037 7.17849 8.05799 7.61825 7.61823C8.058 7.17848 8.35038 6.61304 8.45502 6H12.5861L10.2931 8.29295L11 9L14.5 5.5L11 2ZM5.50002 7.5C5.10445 7.5 4.71777 7.3827 4.38888 7.16294C4.05998 6.94318 3.80363 6.63082 3.65226 6.26537C3.50088 5.89991 3.46128 5.49778 3.53845 5.10982C3.61562 4.72186 3.8061 4.36549 4.0858 4.08579C4.36551 3.80608 4.72187 3.6156 5.10984 3.53843C5.4978 3.46126 5.89993 3.50087 6.26538 3.65224C6.63084 3.80362 6.94319 4.05996 7.16295 4.38886C7.38272 4.71776 7.50002 5.10444 7.50002 5.5C7.49942 6.03025 7.28852 6.53861 6.91357 6.91356C6.53863 7.2885 6.03027 7.4994 5.50002 7.5Z" fill="#161616"/>
</svg>
