<svg width="16" height="16" viewBox="0 0 16 16" fill="none" xmlns="http://www.w3.org/2000/svg">
<path d="M4.49995 15.0001C4.91416 15.0001 5.24995 14.6643 5.24995 14.2501C5.24995 13.8358 4.91416 13.5001 4.49995 13.5001C4.08574 13.5001 3.74995 13.8358 3.74995 14.2501C3.74995 14.6643 4.08574 15.0001 4.49995 15.0001Z" fill="#161616"/>
<path d="M5 12.5001H4V10.5001H5C5.26522 10.5001 5.51957 10.3947 5.70711 10.2072C5.89464 10.0196 6 9.76527 6 9.50005C6 9.23483 5.89464 8.98048 5.70711 8.79294C5.51957 8.60541 5.26522 8.50005 5 8.50005H4C3.73488 8.50036 3.4807 8.60581 3.29323 8.79328C3.10576 8.98075 3.0003 9.23493 3 9.50005V9.75005H2V9.50005C2.0006 8.9698 2.2115 8.46144 2.58644 8.08649C2.96139 7.71155 3.46975 7.50065 4 7.50005H5C5.53043 7.50005 6.03914 7.71076 6.41421 8.08584C6.78929 8.46091 7 8.96962 7 9.50005C7 10.0305 6.78929 10.5392 6.41421 10.9143C6.03914 11.2893 5.53043 11.5001 5 11.5001V12.5001Z" fill="#161616"/>
<path d="M13.85 4.65005L10.35 1.15005C10.306 1.10121 10.2519 1.0625 10.1915 1.03661C10.131 1.01071 10.0657 0.998236 10 1.00005H5C4.73502 1.00082 4.48111 1.10642 4.29374 1.29379C4.10637 1.48116 4.00077 1.73507 4 2.00005V6.00005H5V2.00005H9V5.00005C9.00077 5.26503 9.10637 5.51894 9.29374 5.70631C9.48111 5.89368 9.73502 5.99929 10 6.00005H13V14.0001H7V15.0001H13C13.265 14.9993 13.5189 14.8937 13.7063 14.7063C13.8936 14.5189 13.9992 14.265 14 14.0001V5.00005C14.0018 4.93434 13.9893 4.86901 13.9634 4.80859C13.9375 4.74816 13.8988 4.69408 13.85 4.65005ZM10 5.00005V2.20005L12.8 5.00005H10Z" fill="#161616"/>
</svg>
