<svg width="16" height="16" viewBox="0 0 16 16" fill="none" xmlns="http://www.w3.org/2000/svg">
<path d="M15 9.50005L13 11.1V10C12.9997 9.73493 12.8942 9.48075 12.7068 9.29328C12.5193 9.10581 12.2651 9.00035 12 9.00005H8C7.73488 9.00035 7.4807 9.10581 7.29323 9.29328C7.10576 9.48075 7.0003 9.73493 7 10V13C7.0003 13.2652 7.10576 13.5194 7.29323 13.7068C7.4807 13.8943 7.73488 13.9997 8 14H12C12.2651 13.9997 12.5193 13.8943 12.7068 13.7068C12.8942 13.5194 12.9997 13.2652 13 13V11.9L15 13.5V9.50005ZM8 13V10H12L12.0007 13H8Z" fill="#161616"/>
<path d="M6 14H4V2.00005H8V5.00005C8.00077 5.26503 8.10637 5.51894 8.29374 5.70631C8.48111 5.89368 8.73502 5.99928 9 6.00005H12V7.50005H13V5.00005C13.0018 4.93433 12.9893 4.86901 12.9634 4.80859C12.9375 4.74816 12.8988 4.69407 12.85 4.65005L9.35 1.15005C9.30599 1.10121 9.2519 1.06251 9.19147 1.03661C9.13104 1.01072 9.06572 0.998242 9 1.00005H4C3.73502 1.00081 3.48111 1.10642 3.29374 1.29379C3.10637 1.48116 3.00077 1.73507 3 2.00005V14C3.00077 14.265 3.10637 14.5189 3.29374 14.7063C3.48111 14.8937 3.73502 14.9993 4 15H6V14ZM9 2.20005L11.8 5.00005H9V2.20005Z" fill="#161616"/>
</svg>
