<svg width="16" height="16" viewBox="0 0 16 16" fill="none" xmlns="http://www.w3.org/2000/svg">
<path d="M11 13.59L9.705 12.295L9 13L11 15L15 11L14.295 10.295L11 13.59Z" fill="#161616"/>
<path d="M7.5 14H4V2.00005H8V5.00005C8.00077 5.26503 8.10637 5.51894 8.29374 5.70631C8.48111 5.89368 8.73502 5.99928 9 6.00005H12V9.00005H13V5.00005C13.0018 4.93433 12.9893 4.86901 12.9634 4.80859C12.9375 4.74816 12.8988 4.69407 12.85 4.65005L9.35 1.15005C9.30599 1.10121 9.2519 1.06251 9.19147 1.03661C9.13104 1.01072 9.06572 0.998242 9 1.00005H4C3.73502 1.00081 3.48111 1.10642 3.29374 1.29379C3.10637 1.48116 3.00077 1.73507 3 2.00005V14C3.00077 14.265 3.10637 14.5189 3.29374 14.7063C3.48111 14.8937 3.73502 14.9993 4 15H7.5V14ZM9 2.20005L11.8 5.00005H9V2.20005Z" fill="#161616"/>
</svg>
