<svg width="16" height="16" viewBox="0 0 16 16" fill="none" xmlns="http://www.w3.org/2000/svg">
<path d="M11.5 15L10.4306 14.4937C10.0035 14.2901 9.64252 13.97 9.3894 13.5702C9.13627 13.1704 9.00129 12.7072 9 12.2339V9.00005H14V12.2339C13.9988 12.7072 13.8638 13.1705 13.6107 13.5703C13.3575 13.9702 12.9966 14.2904 12.5694 14.4939L11.5 15ZM10 10V12.2339C10.0008 12.5178 10.0818 12.7957 10.2337 13.0355C10.3856 13.2753 10.6021 13.4673 10.8584 13.5894L11.5 13.8931L12.1416 13.5894C12.3979 13.4673 12.6144 13.2753 12.7663 13.0355C12.9182 12.7957 12.9992 12.5178 13 12.2339V10H10Z" fill="#161616"/>
<path d="M8 14H3V2.00005H7V5.00005C7.00077 5.26503 7.10637 5.51894 7.29374 5.70631C7.48111 5.89368 7.73502 5.99928 8 6.00005H11V7.50005H12V5.00005C12.0018 4.93433 11.9893 4.86901 11.9634 4.80859C11.9375 4.74816 11.8988 4.69407 11.85 4.65005L8.35 1.15005C8.30599 1.10121 8.2519 1.06251 8.19147 1.03661C8.13104 1.01072 8.06572 0.998242 8 1.00005H3C2.73502 1.00081 2.48111 1.10642 2.29374 1.29379C2.10637 1.48116 2.00077 1.73507 2 2.00005V14C2.00077 14.265 2.10637 14.5189 2.29374 14.7063C2.48111 14.8937 2.73502 14.9993 3 15H8V14ZM8 2.20005L10.8 5.00005H8V2.20005Z" fill="#161616"/>
</svg>
