<svg width="16" height="16" viewBox="0 0 16 16" fill="none" xmlns="http://www.w3.org/2000/svg">
<path d="M14.5 15.5001C14.3865 15.5001 14.2764 15.4614 14.1877 15.3905L11.8247 13.5001H10C9.86739 13.5001 9.74021 13.4474 9.64645 13.3536C9.55268 13.2598 9.5 13.1327 9.5 13.0001V10.5001C9.5 10.3674 9.55268 10.2403 9.64645 10.1465C9.74021 10.0527 9.86739 10.0001 10 10.0001H11.8247L14.1877 8.10965C14.2613 8.05085 14.3499 8.014 14.4435 8.00336C14.5371 7.99273 14.6317 8.00872 14.7166 8.04951C14.8015 8.0903 14.8731 8.15423 14.9232 8.23394C14.9734 8.31364 15 8.40589 15 8.50005V15.0001C15 15.1327 14.9473 15.2598 14.8536 15.3536C14.7598 15.4474 14.6326 15.5001 14.5 15.5001ZM10.5 12.5001H12C12.1135 12.5001 12.2236 12.5387 12.3123 12.6097L14 13.9598V9.54035L12.3123 10.8904C12.2236 10.9613 12.1135 11 12 11.0001H10.5V12.5001Z" fill="#161616"/>
<path d="M8 14H4V2.00005H8V5.00005C8.00077 5.26503 8.10637 5.51894 8.29374 5.70631C8.48111 5.89368 8.73502 5.99928 9 6.00005H12V7.50005H13V5.00005C13.0018 4.93433 12.9893 4.86901 12.9634 4.80859C12.9375 4.74816 12.8988 4.69407 12.85 4.65005L9.35 1.15005C9.30599 1.10121 9.2519 1.06251 9.19147 1.03661C9.13104 1.01072 9.06572 0.998242 9 1.00005H4C3.73502 1.00081 3.48111 1.10642 3.29374 1.29379C3.10637 1.48116 3.00077 1.73507 3 2.00005V14C3.00077 14.265 3.10637 14.5189 3.29374 14.7063C3.48111 14.8937 3.73502 14.9993 4 15H8V14ZM9 2.20005L11.8 5.00005H9V2.20005Z" fill="#161616"/>
</svg>
