<svg width="16" height="16" viewBox="0 0 16 16" fill="none" xmlns="http://www.w3.org/2000/svg">
<path d="M9.1515 7.99999C8.97364 7.99999 8.79758 8.03565 8.63373 8.10485C8.46988 8.17405 8.32156 8.2754 8.19755 8.40289L8.00095 8.60559L7.80245 8.40289C7.67844 8.2754 7.53013 8.17406 7.36628 8.10486C7.20244 8.03566 7.02638 8 6.84853 8C6.67067 8 6.49461 8.03566 6.33077 8.10486C6.16692 8.17406 6.01861 8.2754 5.8946 8.40289C5.64152 8.664 5.49999 9.01336 5.49999 9.37699C5.49999 9.74063 5.64152 10.09 5.8946 10.3511L8.00095 12.5L10.1054 10.3511C10.3585 10.09 10.5 9.74063 10.5 9.37699C10.5 9.01336 10.3585 8.664 10.1054 8.40289C9.98139 8.2754 9.83308 8.17406 9.66924 8.10486C9.5054 8.03566 9.32935 8 9.1515 7.99999Z" fill="#161616"/>
<path d="M12.85 4.64999L9.35 1.14999C9.30601 1.10113 9.25192 1.06242 9.19149 1.03652C9.13106 1.01062 9.06572 0.998156 9 0.999994H4C3.73502 1.00077 3.48112 1.10638 3.29375 1.29375C3.10638 1.48112 3.00078 1.73502 3 1.99999V14C3.00078 14.265 3.10638 14.5189 3.29375 14.7062C3.48112 14.8936 3.73502 14.9992 4 15H12C12.265 14.9992 12.5189 14.8936 12.7062 14.7062C12.8936 14.5189 12.9992 14.265 13 14V4.99999C13.0018 4.93427 12.9894 4.86894 12.9635 4.8085C12.9376 4.74807 12.8989 4.69399 12.85 4.64999ZM9 2.19999L11.8 4.99999H9V2.19999ZM12 14H4V1.99999H8V4.99999C8.00078 5.26497 8.10638 5.51887 8.29375 5.70624C8.48112 5.89361 8.73502 5.99922 9 5.99999H12V14Z" fill="#161616"/>
</svg>
