<svg width="16" height="16" viewBox="0 0 16 16" fill="none" xmlns="http://www.w3.org/2000/svg">
<path d="M11 13C11.5523 13 12 12.5523 12 12C12 11.4478 11.5523 11 11 11C10.4477 11 10 11.4478 10 12C10 12.5523 10.4477 13 11 13Z" fill="#161616"/>
<path d="M14.8884 11.7393C14.5795 10.9523 14.0464 10.2733 13.3552 9.78634C12.664 9.29942 11.8451 9.02603 11 9.00005C10.1549 9.02603 9.33604 9.29942 8.64484 9.78634C7.95365 10.2733 7.42052 10.9523 7.11155 11.7393L7 12L7.11155 12.2608C7.42052 13.0478 7.95365 13.7268 8.64484 14.2138C9.33604 14.7007 10.1549 14.9741 11 15C11.8451 14.9741 12.664 14.7007 13.3552 14.2138C14.0464 13.7268 14.5795 13.0478 14.8884 12.2608L15 12L14.8884 11.7393ZM11 14C10.6044 14 10.2178 13.8828 9.88886 13.663C9.55996 13.4432 9.30362 13.1309 9.15224 12.7654C9.00087 12.4 8.96126 11.9978 9.03843 11.6099C9.1156 11.2219 9.30608 10.8655 9.58579 10.5858C9.86549 10.3061 10.2219 10.1156 10.6098 10.0385C10.9978 9.96131 11.3999 10.0009 11.7654 10.1523C12.1308 10.3037 12.4432 10.56 12.6629 10.8889C12.8827 11.2178 13 11.6045 13 12C12.9994 12.5303 12.7885 13.0387 12.4136 13.4136C12.0386 13.7885 11.5303 13.9995 11 14Z" fill="#161616"/>
<path d="M6 14H4V2.00005H8V5.00005C8.00077 5.26503 8.10637 5.51894 8.29374 5.70631C8.48111 5.89368 8.73502 5.99928 9 6.00005H12V8.00005H13V5.00005C13.0018 4.93433 12.9893 4.86901 12.9634 4.80859C12.9375 4.74816 12.8988 4.69407 12.85 4.65005L9.35 1.15005C9.30599 1.10121 9.2519 1.06251 9.19147 1.03661C9.13104 1.01072 9.06572 0.998242 9 1.00005H4C3.73502 1.00081 3.48111 1.10642 3.29374 1.29379C3.10637 1.48116 3.00077 1.73507 3 2.00005V14C3.00077 14.265 3.10637 14.5189 3.29374 14.7063C3.48111 14.8937 3.73502 14.9993 4 15H6V14ZM9 2.20005L11.8 5.00005H9V2.20005Z" fill="#161616"/>
</svg>
