<svg width="16" height="16" viewBox="0 0 16 16" fill="none" xmlns="http://www.w3.org/2000/svg">
<path d="M9.57 14.0001C9.23052 14.0014 8.89832 13.9016 8.61571 13.7135C8.33311 13.5254 8.1129 13.2574 7.98313 12.9437C7.85336 12.63 7.8199 12.2848 7.88701 11.952C7.95413 11.6192 8.11878 11.3139 8.36 11.0751L10.93 8.50005C11.0058 8.43688 11.0675 8.35862 11.1113 8.27025C11.1552 8.18189 11.1801 8.08536 11.1846 7.98682C11.189 7.88829 11.1729 7.7899 11.1372 7.69795C11.1015 7.60599 11.0471 7.52248 10.9773 7.45273C10.9076 7.38298 10.8241 7.32853 10.7321 7.29285C10.6401 7.25717 10.5418 7.24105 10.4432 7.2455C10.3447 7.24995 10.2482 7.27489 10.1598 7.31871C10.0714 7.36254 9.99317 7.4243 9.93 7.50005L6.5 10.9251C6.17405 11.2383 5.73954 11.4132 5.2875 11.4132C4.83546 11.4132 4.40095 11.2383 4.075 10.9251C3.75502 10.6036 3.57537 10.1686 3.57537 9.71505C3.57537 9.26152 3.75502 8.82646 4.075 8.50505L8.365 4.21505C8.44075 4.15188 8.50251 4.07362 8.54634 3.98525C8.59017 3.89689 8.6151 3.80036 8.61955 3.70182C8.62401 3.60329 8.60788 3.5049 8.5722 3.41295C8.53652 3.32099 8.48207 3.23748 8.41232 3.16773C8.34258 3.09798 8.25906 3.04353 8.1671 3.00785C8.07515 2.97217 7.97676 2.95605 7.87823 2.9605C7.77969 2.96495 7.68317 2.98989 7.5948 3.03371C7.50644 3.07754 7.42817 3.1393 7.365 3.21505L3.205 7.35005L2.5 6.65005L6.645 2.50005C6.9715 2.20451 7.39918 2.0459 7.83943 2.05707C8.27968 2.06825 8.69877 2.24836 9.00985 2.56008C9.32093 2.87181 9.50018 3.29126 9.51044 3.73154C9.52071 4.17181 9.36121 4.59916 9.065 4.92505L4.78 9.21005C4.6481 9.34303 4.57408 9.52275 4.57408 9.71005C4.57408 9.89736 4.6481 10.0771 4.78 10.2101C4.91481 10.3384 5.09384 10.4101 5.28 10.4101C5.46616 10.4101 5.64519 10.3384 5.78 10.2101L9.21 6.78005C9.36586 6.60787 9.55506 6.46914 9.76614 6.37227C9.97722 6.2754 10.2058 6.22241 10.4379 6.21651C10.6701 6.21062 10.9011 6.25194 11.1168 6.33798C11.3325 6.42402 11.5285 6.55297 11.6929 6.71702C11.8573 6.88108 11.9867 7.07681 12.0731 7.29235C12.1596 7.5079 12.2014 7.73876 12.196 7.97094C12.1906 8.20313 12.1381 8.43179 12.0416 8.64307C11.9452 8.85435 11.8069 9.04384 11.635 9.20005L9.06 11.7751C8.9465 11.9112 8.888 12.0848 8.896 12.2618C8.904 12.4389 8.97792 12.6065 9.10323 12.7318C9.22854 12.8571 9.39619 12.9311 9.57323 12.9391C9.75027 12.9471 9.9239 12.8886 10.06 12.7751L12.28 10.5601L13 11.2801L10.78 13.5001C10.6217 13.6597 10.4332 13.7861 10.2254 13.872C10.0176 13.9578 9.79481 14.0014 9.57 14.0001Z" fill="#161616"/>
</svg>
