<svg width="16" height="16" viewBox="0 0 16 16" fill="none" xmlns="http://www.w3.org/2000/svg">
<path d="M15 7.99992C15.0034 6.45794 14.4987 4.95778 13.5639 3.73144C12.6292 2.50509 11.3164 1.62087 9.82866 1.21551C8.34091 0.810147 6.76106 0.906226 5.33339 1.48889C3.90573 2.07155 2.7098 3.10834 1.93053 4.43892C1.15126 5.76951 0.83207 7.31976 1.02231 8.84997C1.21256 10.3802 1.90164 11.8051 2.983 12.9043C4.06436 14.0036 5.47776 14.716 7.00464 14.9313C8.53151 15.1466 10.0868 14.8529 11.43 14.0956L11.4882 14.1083L11.5007 14.0527C12.5634 13.4391 13.4461 12.5569 14.0602 11.4945C14.6744 10.4322 14.9985 9.22702 15 7.99992ZM2 7.99992C2.00193 7.49356 2.0683 6.98952 2.1975 6.49992H4.3191L6.815 8.57992L5.8604 9.85287C5.71683 10.0458 5.64724 10.2838 5.66426 10.5236C5.68128 10.7635 5.78378 10.9893 5.95315 11.16L7 12.207V13.9096C5.6034 13.6726 4.33556 12.9494 3.42059 11.868C2.50562 10.7866 2.00244 9.41648 2 7.99992ZM6.66 10.453L8.185 8.41992L4.6809 5.49992H2.55275C2.91753 4.69975 3.45428 3.98986 4.12476 3.42083C4.79524 2.85179 5.58295 2.43761 6.43179 2.20779C7.28062 1.97796 8.1697 1.93815 9.03568 2.09119C9.90166 2.24422 10.7232 2.58634 11.4419 3.09317L11.1396 3.99992H8.29295L6.7715 5.52142L11.4482 9.67812L10.624 13.3874C9.80766 13.7895 8.90999 13.999 8 13.9999V11.7929L6.66 10.453ZM11.8175 12.6252L12.4241 9.89517C12.4627 9.7213 12.4541 9.5403 12.3993 9.37086C12.3445 9.20142 12.2455 9.04968 12.1124 8.93132L8.2285 5.47842L8.70705 4.99992H11.1396C11.3496 5.00007 11.5542 4.93408 11.7245 4.81133C11.8949 4.68857 12.0222 4.51528 12.0884 4.31607L12.265 3.78607C12.8513 4.37767 13.3077 5.08507 13.6051 5.86306C13.9026 6.64105 14.0344 7.47252 13.9923 8.30436C13.9502 9.1362 13.7351 9.95011 13.3606 10.6941C12.9862 11.4381 12.4605 12.0958 11.8175 12.6252Z" fill="#161616"/>
</svg>
