<svg width="16" height="16" viewBox="0 0 16 16" fill="none" xmlns="http://www.w3.org/2000/svg">
<path d="M15 13.5H3.50001V14.5H15V13.5Z" fill="#161616"/>
<path d="M13.69 5.255L9.72501 1.295C9.63214 1.20202 9.52185 1.12826 9.40045 1.07794C9.27905 1.02761 9.14893 1.00171 9.01751 1.00171C8.8861 1.00171 8.75597 1.02761 8.63457 1.07794C8.51317 1.12826 8.40288 1.20202 8.31001 1.295L1.31001 8.295C1.21703 8.38787 1.14327 8.49816 1.09295 8.61955C1.04263 8.74095 1.01672 8.87108 1.01672 9.00249C1.01672 9.13391 1.04263 9.26404 1.09295 9.38544C1.14327 9.50683 1.21703 9.61712 1.31001 9.71L3.56501 12H8.36001L13.69 6.67C13.783 6.57712 13.8567 6.46683 13.9071 6.34544C13.9574 6.22404 13.9833 6.09391 13.9833 5.9625C13.9833 5.83108 13.9574 5.70095 13.9071 5.57956C13.8567 5.45816 13.783 5.34787 13.69 5.255ZM7.94501 11H4.00001L2.00001 9L5.15501 5.845L9.12001 9.805L7.94501 11ZM9.82501 9.12L5.86501 5.155L9.00001 2L13 5.965L9.82501 9.12Z" fill="#161616"/>
</svg>
