<svg width="16" height="16" viewBox="0 0 16 16" fill="none" xmlns="http://www.w3.org/2000/svg">
<path d="M5.27775 4.4999L4.50008 5.27758L10.7224 11.4999L11.5001 10.7222L5.27775 4.4999Z" fill="#161616"/>
<path d="M8.00001 0.99989C7.07916 0.994167 6.16634 1.17132 5.31447 1.52108C4.46261 1.87083 3.68866 2.38623 3.03751 3.03738C2.38635 3.68854 1.87095 4.46249 1.5212 5.31435C1.17144 6.16621 0.994289 7.07904 1.00001 7.99989C0.994289 8.92074 1.17144 9.83357 1.5212 10.6854C1.87095 11.5373 2.38635 12.3112 3.03751 12.9624C3.68866 13.6135 4.46261 14.1289 5.31447 14.4787C6.16634 14.8285 7.07916 15.0056 8.00001 14.9999C8.92086 15.0056 9.83369 14.8285 10.6856 14.4787C11.5374 14.1289 12.3114 13.6135 12.9625 12.9624C13.6137 12.3112 14.1291 11.5373 14.4788 10.6854C14.8286 9.83357 15.0057 8.92074 15 7.99989C15.0057 7.07904 14.8286 6.16621 14.4788 5.31435C14.1291 4.46249 13.6137 3.68854 12.9625 3.03738C12.3114 2.38623 11.5374 1.87083 10.6856 1.52108C9.83369 1.17132 8.92086 0.994167 8.00001 0.99989ZM8.00001 13.9999C6.81332 13.9999 5.65329 13.648 4.66659 12.9887C3.6799 12.3294 2.91086 11.3923 2.45674 10.296C2.00261 9.19963 1.88379 7.99323 2.1153 6.82935C2.34681 5.66546 2.91826 4.59636 3.75737 3.75725C4.59649 2.91813 5.66558 2.34669 6.82947 2.11518C7.99336 1.88367 9.19976 2.00249 10.2961 2.45661C11.3925 2.91074 12.3295 3.67977 12.9888 4.66647C13.6481 5.65316 14 6.8132 14 7.99989C13.9954 9.58976 13.3617 11.1132 12.2375 12.2374C11.1133 13.3616 9.58988 13.9952 8.00001 13.9999Z" fill="#161616"/>
</svg>
