<svg width="16" height="16" viewBox="0 0 16 16" fill="none" xmlns="http://www.w3.org/2000/svg">
<path d="M2.5 13.5H1V15H2.5V13.5Z" fill="#161616"/>
<path d="M14.855 3.64503L12.355 1.14503C12.2613 1.0519 12.1346 0.999634 12.0025 0.999634C11.8704 0.999634 11.7437 1.0519 11.65 1.14503L10 2.79503L9.355 2.14503L8.645 2.85503L9.295 3.50003L4.145 8.64503C4.09866 8.69175 4.062 8.74716 4.03711 8.80808C4.01223 8.869 3.99962 8.93423 4 9.00003V9.79503L2.645 11.145C2.55187 11.2387 2.4996 11.3654 2.4996 11.4975C2.4996 11.6296 2.55187 11.7563 2.645 11.85L4.145 13.35C4.23868 13.4432 4.36541 13.4954 4.4975 13.4954C4.62959 13.4954 4.75632 13.4432 4.85 13.35L6.205 12H7C7.0658 12.0004 7.13103 11.9878 7.19195 11.9629C7.25287 11.938 7.30828 11.9014 7.355 11.855L12.5 6.70503L13.145 7.35503L13.855 6.64503L13.205 6.00003L14.855 4.35503C14.9481 4.26135 15.0004 4.13462 15.0004 4.00253C15.0004 3.87044 14.9481 3.74371 14.855 3.65003V3.64503ZM6.795 11H5.795L4.5 12.295L3.705 11.5L5 10.205V9.20503L10 4.20503L11.795 6.00003L6.795 11ZM12.5 5.29503L10.705 3.50003L12 2.20503L13.795 4.00003L12.5 5.29503Z" fill="#161616"/>
</svg>
