<svg width="16" height="16" viewBox="0 0 16 16" fill="none" xmlns="http://www.w3.org/2000/svg">
<path d="M5.75001 5.50013C5.50279 5.50013 5.26111 5.57344 5.05555 5.7108C4.84999 5.84815 4.68977 6.04337 4.59516 6.27178C4.50055 6.50019 4.4758 6.75152 4.52403 6.994C4.57226 7.23647 4.69131 7.4592 4.86613 7.63402C5.04095 7.80883 5.26367 7.92788 5.50615 7.97611C5.74863 8.02435 5.99996 7.99959 6.22837 7.90498C6.45678 7.81037 6.652 7.65016 6.78935 7.4446C6.9267 7.23903 7.00001 6.99736 7.00001 6.75013C7.00001 6.41861 6.86832 6.10067 6.6339 5.86625C6.39948 5.63183 6.08153 5.50013 5.75001 5.50013Z" fill="#161616"/>
<path d="M10.25 5.50013C10.0028 5.50013 9.76111 5.57344 9.55555 5.7108C9.34999 5.84815 9.18977 6.04337 9.09516 6.27178C9.00055 6.50019 8.9758 6.75152 9.02403 6.994C9.07226 7.23647 9.19131 7.4592 9.36613 7.63402C9.54094 7.80883 9.76367 7.92788 10.0061 7.97611C10.2486 8.02435 10.5 7.99959 10.7284 7.90498C10.9568 7.81037 11.152 7.65016 11.2893 7.4446C11.4267 7.23903 11.5 6.99736 11.5 6.75013C11.5 6.41861 11.3683 6.10067 11.1339 5.86625C10.8995 5.63183 10.5815 5.50013 10.25 5.50013Z" fill="#161616"/>
<path d="M15 8.00013C15.0021 6.77334 14.6817 5.56755 14.071 4.50358C13.4603 3.4396 12.5807 2.55481 11.5203 1.93786C10.4599 1.32091 9.25605 0.993468 8.02927 0.988342C6.80249 0.983217 5.5959 1.30059 4.53041 1.90866C3.46493 2.51673 2.57795 3.39414 1.95837 4.45297C1.33878 5.51181 1.00835 6.71488 1.00018 7.94164C0.992005 9.16841 1.30638 10.3758 1.9118 11.4428C2.51722 12.5098 3.39242 13.3989 4.44971 14.0211L4.45751 14.0992C4.48133 14.3463 4.59652 14.5757 4.78054 14.7423C4.96457 14.9089 5.20416 15.0009 5.45241 15.0001H10.5474C10.7956 15.0009 11.0352 14.9091 11.2192 14.7425C11.4032 14.576 11.5185 14.3468 11.5424 14.0997L11.5502 14.0211C12.6001 13.4052 13.4707 12.5256 14.0759 11.4694C14.681 10.4133 14.9996 9.21734 15 8.00013ZM8.00001 2.00013C9.53819 2.00082 11.0173 2.59271 12.1313 3.65338C13.2453 4.71405 13.9089 6.16233 13.985 7.69863L11.3819 9.00013H4.61816L2.01526 7.69863C2.09134 6.16238 2.75498 4.71413 3.86892 3.65347C4.98287 2.59281 6.46187 2.00088 8.00001 2.00013ZM2.06001 8.83898L4.03001 9.82398L4.32066 12.729C3.08986 11.7757 2.27895 10.3803 2.06001 8.83898ZM10.5474 14.0001H5.45266L5.05266 10.0001H10.9477L10.5474 14.0001ZM11.6796 12.7291L11.9701 9.82413L13.9401 8.83913C13.7211 10.3804 12.9103 11.7758 11.6796 12.7291Z" fill="#161616"/>
</svg>
