<svg width="16" height="16" viewBox="0 0 16 16" fill="none" xmlns="http://www.w3.org/2000/svg">
<path d="M8.00001 6.50005L5.50001 9.00005L6.20501 9.70505L7.50001 8.41505V14.0001H3.00001V15.0001H7.50001C7.76523 15.0001 8.01958 14.8947 8.20712 14.7072C8.39465 14.5196 8.50001 14.2653 8.50001 14.0001V8.41505L9.79501 9.70505L10.5 9.00005L8.00001 6.50005Z" fill="#161616"/>
<path d="M11.75 11.0001H11.5V10.0001H11.75C12.3311 10.0003 12.8898 9.77555 13.3089 9.37294C13.7279 8.97034 13.9749 8.42114 13.9979 7.84047C14.0209 7.2598 13.8183 6.69276 13.4325 6.25822C13.0466 5.82367 12.5075 5.55537 11.9282 5.50955L11.5205 5.4776L11.4712 5.0716C11.3674 4.22414 10.9571 3.44395 10.3177 2.87812C9.67835 2.31229 8.85406 1.99993 8.00026 1.99993C7.14646 1.99993 6.32217 2.31229 5.68279 2.87812C5.04341 3.44395 4.63313 4.22414 4.52931 5.0716L4.47976 5.4776L4.07201 5.50955C3.49271 5.55537 2.95364 5.82366 2.5678 6.25818C2.18196 6.6927 1.9793 7.25972 2.00232 7.84037C2.02533 8.42102 2.27223 8.97022 2.69126 9.37284C3.11029 9.77546 3.6689 10.0002 4.25001 10.0001H4.50001V11.0001H4.25001C3.44472 11.0004 2.668 10.7017 2.07051 10.1617C1.47303 9.62183 1.09736 8.87925 1.01639 8.07804C0.935425 7.27683 1.15492 6.47411 1.6323 5.82557C2.10969 5.17704 2.81093 4.72892 3.60001 4.56815C3.81307 3.55901 4.36653 2.65376 5.16762 2.00414C5.96872 1.35452 6.96877 1 8.00016 1C9.03155 1 10.0316 1.35452 10.8327 2.00414C11.6338 2.65376 12.1873 3.55901 12.4003 4.56815C13.1893 4.72903 13.8905 5.17721 14.3678 5.82575C14.845 6.4743 15.0645 7.27699 14.9835 8.07815C14.9025 8.87931 14.5268 9.62183 13.9294 10.1617C13.3319 10.7016 12.5553 11.0004 11.75 11.0001Z" fill="#161616"/>
</svg>
