<svg width="16" height="16" viewBox="0 0 16 16" fill="none" xmlns="http://www.w3.org/2000/svg">
<path d="M3.49999 2.60493C3.42003 2.60391 3.34237 2.57802 3.2778 2.53085C3.21323 2.48368 3.16495 2.41757 3.13966 2.34171C3.11437 2.26584 3.11333 2.18399 3.13669 2.10751C3.16005 2.03103 3.20664 1.96372 3.26999 1.91493C4.6496 0.938899 6.31104 0.44187 7.99999 0.499926C9.32999 0.499926 11.24 0.724926 12.75 1.80993C12.8326 1.86917 12.8884 1.95866 12.9052 2.05888C12.9221 2.1591 12.8986 2.26193 12.84 2.34493C12.7791 2.42705 12.6884 2.48197 12.5874 2.49787C12.4864 2.51377 12.3832 2.48937 12.3 2.42993C11.0177 1.61503 9.51824 1.20877 7.99999 1.26493C6.48424 1.21343 4.99276 1.65561 3.74999 2.52493C3.67924 2.58125 3.5903 2.60971 3.49999 2.60493Z" fill="#161616"/>
<path d="M14.115 6.12993C14.0532 6.12936 13.9924 6.11411 13.9376 6.08542C13.8828 6.05673 13.8357 6.01543 13.8 5.96493C12.935 4.74493 11.39 3.11993 8 3.11993C6.87286 3.09154 5.75554 3.33585 4.74311 3.83205C3.73067 4.32826 2.85308 5.06168 2.18499 5.96993C2.125 6.05171 2.03515 6.10652 1.93497 6.12244C1.8348 6.13835 1.73238 6.11409 1.64999 6.05493C1.60677 6.02485 1.57027 5.98611 1.54282 5.94118C1.51536 5.89625 1.49754 5.8461 1.49048 5.79391C1.48343 5.74173 1.4873 5.68865 1.50185 5.63804C1.5164 5.58743 1.54131 5.5404 1.57499 5.49993C2.31567 4.49935 3.28592 3.69138 4.40404 3.14406C5.52217 2.59675 6.75543 2.32611 8 2.35493C10.805 2.35493 12.905 3.39493 14.42 5.52493C14.4781 5.60854 14.5008 5.71178 14.483 5.81205C14.4652 5.91231 14.4084 6.00145 14.325 6.05993C14.2631 6.1028 14.1902 6.12708 14.115 6.12993Z" fill="#161616"/>
<path d="M6.13999 15.4999C6.06243 15.4995 5.98674 15.476 5.92262 15.4323C5.85849 15.3887 5.80883 15.3269 5.77999 15.2549C5.76 15.2078 5.74986 15.1571 5.7502 15.106C5.75053 15.0548 5.76134 15.0042 5.78194 14.9574C5.80255 14.9105 5.83253 14.8684 5.87003 14.8336C5.90753 14.7988 5.95176 14.772 5.99999 14.7549C8.18499 13.9149 9.5 12.1949 9.5 10.1499C9.51493 9.94912 9.48638 9.74746 9.41628 9.55869C9.34618 9.36992 9.23619 9.1985 9.0938 9.05612C8.95142 8.91374 8.78 8.80374 8.59123 8.73364C8.40247 8.66354 8.2008 8.63499 8 8.64993C7.06999 8.64993 6.61999 9.14993 6.49999 10.3249C6.4442 10.8745 6.17757 11.381 5.75613 11.7381C5.3347 12.0952 4.79126 12.2751 4.23999 12.2399C3.94354 12.2442 3.64944 12.1867 3.37642 12.0711C3.10341 11.9555 2.85747 11.7843 2.65427 11.5684C2.45107 11.3525 2.29506 11.0966 2.19619 10.8171C2.09732 10.5376 2.05774 10.2406 2.07999 9.94493C2.10762 8.39903 2.7456 6.92683 3.85469 5.84958C4.96379 4.77234 6.45395 4.17751 8 4.19493C9.58525 4.1949 11.1061 4.82223 12.2303 5.93989C13.3545 7.05755 13.9907 8.5747 14 10.1599C13.9647 11.2761 13.7293 12.3769 13.305 13.4099C13.2643 13.5021 13.1895 13.5748 13.0963 13.6131C13.0031 13.6513 12.8987 13.6519 12.805 13.6149C12.7585 13.5958 12.7163 13.5676 12.6808 13.532C12.6453 13.4965 12.6172 13.4542 12.5981 13.4077C12.5791 13.3612 12.5694 13.3114 12.5697 13.2611C12.57 13.2109 12.5803 13.1612 12.6 13.1149C12.9839 12.175 13.1989 11.1746 13.235 10.1599C13.2284 8.77677 12.6736 7.45267 11.6923 6.47791C10.711 5.50315 9.38316 4.95726 8 4.95993C7.33071 4.94667 6.66538 5.06557 6.0421 5.30981C5.41883 5.55405 4.84986 5.91884 4.36777 6.38328C3.88567 6.84773 3.49993 7.40271 3.23262 8.01644C2.96532 8.63017 2.8217 9.29061 2.80999 9.95993C2.7895 10.1545 2.81044 10.3511 2.87145 10.537C2.93245 10.7228 3.03213 10.8936 3.16392 11.0382C3.29571 11.1827 3.45662 11.2977 3.63606 11.3756C3.8155 11.4534 4.0094 11.4924 4.20499 11.4899C4.38506 11.5078 4.56688 11.4899 4.73997 11.4371C4.91306 11.3844 5.07398 11.2979 5.21344 11.1826C5.35291 11.0673 5.46815 10.9255 5.55252 10.7654C5.63689 10.6053 5.68871 10.4301 5.70499 10.2499C5.88499 8.69493 6.64999 7.90493 7.985 7.90493C8.28753 7.88963 8.5899 7.9383 8.87236 8.04774C9.15483 8.15718 9.41104 8.32495 9.6243 8.54009C9.83755 8.75523 10.0031 9.01292 10.11 9.29634C10.217 9.57975 10.263 9.88253 10.245 10.1849C10.245 12.5549 8.745 14.5449 6.24499 15.4999C6.21011 15.5039 6.17488 15.5039 6.13999 15.4999Z" fill="#161616"/>
<path d="M9.88499 15.1399C9.78923 15.1384 9.69711 15.103 9.62499 15.0399C9.58932 15.0046 9.561 14.9625 9.54167 14.9162C9.52234 14.8699 9.51239 14.8201 9.51239 14.7699C9.51239 14.7197 9.52234 14.67 9.54167 14.6237C9.561 14.5773 9.58932 14.5353 9.62499 14.4999C10.7499 13.3339 11.3836 11.7801 11.395 10.1599C11.395 9.37993 11.155 6.83493 8.04499 6.83493C7.59183 6.81899 7.14003 6.89346 6.71595 7.05399C6.29187 7.21452 5.90401 7.4579 5.57499 7.76993C5.28061 8.06119 5.04789 8.40874 4.89069 8.79186C4.73348 9.17498 4.65503 9.58584 4.65999 9.99993C4.65868 10.1012 4.61754 10.1978 4.54548 10.2689C4.47342 10.3401 4.37624 10.3799 4.27499 10.3799C4.22467 10.3806 4.17472 10.3712 4.12804 10.3524C4.08136 10.3336 4.03887 10.3058 4.00306 10.2704C3.96724 10.2351 3.9388 10.1929 3.91939 10.1465C3.89998 10.1001 3.88999 10.0503 3.88999 9.99993C3.8822 9.48769 3.97632 8.97902 4.16688 8.50348C4.35744 8.02794 4.64063 7.59503 4.99999 7.22993C5.39835 6.84759 5.86866 6.54817 6.38365 6.34904C6.89864 6.14991 7.44805 6.05504 7.99999 6.06993C11.04 6.06993 12.12 8.26993 12.12 10.1599C12.1135 11.9634 11.4155 13.6957 10.17 14.9999C10.1356 15.0427 10.0923 15.0774 10.043 15.1016C9.9938 15.1258 9.93985 15.1389 9.88499 15.1399Z" fill="#161616"/>
<path d="M4.32999 13.8699C4.06936 13.8693 3.80897 13.8543 3.54999 13.8249C3.50009 13.8193 3.45178 13.804 3.40781 13.7797C3.36384 13.7555 3.32508 13.7228 3.29374 13.6836C3.2624 13.6443 3.2391 13.5993 3.22516 13.5511C3.21122 13.5028 3.20691 13.4523 3.21249 13.4024C3.21808 13.3525 3.23343 13.3042 3.25768 13.2602C3.28194 13.2163 3.31461 13.1775 3.35385 13.1462C3.39308 13.1148 3.4381 13.0915 3.48634 13.0776C3.53458 13.0636 3.58509 13.0593 3.63499 13.0649C4.87999 13.2049 5.85999 12.9849 6.55499 12.4049C6.87536 12.1184 7.13442 11.7701 7.31659 11.3808C7.49876 10.9916 7.60027 10.5695 7.61499 10.1399C7.61747 10.0893 7.63019 10.0397 7.65237 9.99411C7.67456 9.94854 7.70576 9.90793 7.74408 9.87475C7.7824 9.84157 7.82705 9.8165 7.87534 9.80106C7.92362 9.78562 7.97453 9.78013 8.02499 9.78493C8.12579 9.79261 8.21966 9.83914 8.28682 9.91469C8.35398 9.99025 8.38918 10.0889 8.38499 10.1899C8.36393 10.7247 8.23427 11.2496 8.0039 11.7327C7.77353 12.2158 7.44728 12.6469 7.04499 12.9999C6.27321 13.6054 5.30993 13.914 4.32999 13.8699Z" fill="#161616"/>
</svg>
