<svg width="16" height="16" viewBox="0 0 16 16" fill="none" xmlns="http://www.w3.org/2000/svg">
<path d="M15 14.2949L1.705 0.999935L1 1.70493L4.2 4.90993L3.5 7.88493C3.48236 7.95947 3.48207 8.03705 3.49917 8.11171C3.51626 8.18637 3.55028 8.2561 3.59859 8.31553C3.64691 8.37496 3.70823 8.42249 3.77783 8.45447C3.84742 8.48644 3.92344 8.50199 4 8.49993H6.415L5.5 14.4249C5.48348 14.5348 5.504 14.647 5.55833 14.7438C5.61265 14.8407 5.69768 14.9167 5.8 14.9599C5.86356 14.9857 5.93141 14.9993 6 14.9999C6.07636 14.9998 6.15166 14.9821 6.22013 14.9483C6.2886 14.9145 6.34842 14.8654 6.395 14.8049L9.735 10.4399L14.295 14.9999L15 14.2949Z" fill="#161616"/>
<path d="M11.265 8.43494L12.895 6.30493C12.9475 6.23389 12.9803 6.15018 12.99 6.06235C12.9996 5.97452 12.9858 5.8857 12.95 5.80493C12.9124 5.71611 12.8499 5.64005 12.7701 5.58594C12.6902 5.53182 12.5964 5.50195 12.5 5.49993H10.125L11 1.60993C11.0166 1.53614 11.0162 1.45956 10.9988 1.38594C10.9815 1.31233 10.9477 1.2436 10.9 1.18493C10.8519 1.12559 10.7908 1.07806 10.7215 1.04599C10.6521 1.01392 10.5764 0.998163 10.5 0.999935H5.5C5.3851 0.996863 5.27266 1.03347 5.18159 1.10359C5.09052 1.17371 5.02639 1.27307 5 1.38493L4.85 2.03493L11.265 8.43494Z" fill="#161616"/>
</svg>
