<svg width="16" height="16" viewBox="0 0 16 16" fill="none" xmlns="http://www.w3.org/2000/svg">
<path d="M12.5 5.50001C11.924 5.50079 11.3658 5.70015 10.9196 6.06446C10.4734 6.42877 10.1665 6.93577 10.0505 7.50001H5.94943C5.82552 6.89298 5.48063 6.35359 4.98163 5.98641C4.48263 5.61922 3.86507 5.4504 3.24867 5.51267C2.63227 5.57493 2.06094 5.86386 1.64546 6.32343C1.22998 6.783 0.999939 7.38047 0.999939 8.00001C0.999939 8.61954 1.22998 9.21701 1.64546 9.67658C2.06094 10.1362 2.63227 10.4251 3.24867 10.4873C3.86507 10.5496 4.48263 10.3808 4.98163 10.0136C5.48063 9.64642 5.82552 9.10703 5.94943 8.50001H10.0505C10.1451 8.96349 10.3693 9.39062 10.697 9.73178C11.0247 10.0729 11.4424 10.3141 11.9017 10.4274C12.361 10.5406 12.843 10.5211 13.2917 10.3714C13.7404 10.2216 14.1374 9.94755 14.4365 9.58113C14.7357 9.21471 14.9248 8.77094 14.9818 8.30135C15.0388 7.83176 14.9614 7.35563 14.7586 6.92826C14.5558 6.5009 14.236 6.13983 13.8362 5.88702C13.4364 5.6342 12.973 5.5 12.5 5.50001ZM12.5 9.50001C12.2033 9.50001 11.9133 9.41203 11.6666 9.24721C11.42 9.08239 11.2277 8.84812 11.1142 8.57403C11.0006 8.29994 10.9709 7.99834 11.0288 7.70737C11.0867 7.4164 11.2295 7.14912 11.4393 6.93935C11.6491 6.72957 11.9164 6.58671 12.2073 6.52883C12.4983 6.47095 12.7999 6.50065 13.074 6.61419C13.3481 6.72772 13.5824 6.91998 13.7472 7.16665C13.912 7.41332 14 7.70333 14 8.00001C13.9995 8.3977 13.8414 8.77897 13.5602 9.06018C13.2789 9.34139 12.8977 9.49957 12.5 9.50001Z" fill="#161616"/>
</svg>
