<svg width="16" height="16" viewBox="0 0 16 16" fill="none" xmlns="http://www.w3.org/2000/svg">
<path d="M10 11.5H5.93001C5.88049 11.3247 5.80821 11.1566 5.71501 11L11 5.715C11.301 5.8997 11.6469 5.99828 12 6C12.3743 6.00122 12.7415 5.89735 13.0597 5.70021C13.378 5.50307 13.6345 5.22058 13.8001 4.88487C13.9657 4.54916 14.0338 4.1737 13.9966 3.80121C13.9594 3.42873 13.8184 3.07416 13.5896 2.77784C13.3609 2.48153 13.0535 2.25536 12.7026 2.12507C12.3517 1.99478 11.9712 1.96559 11.6045 2.04083C11.2378 2.11607 10.8996 2.29272 10.6283 2.55068C10.357 2.80864 10.1636 3.13755 10.07 3.5H5.93001C5.80831 3.02868 5.51889 2.61791 5.116 2.3447C4.71311 2.0715 4.22441 1.95461 3.74151 2.01595C3.2586 2.07728 2.81464 2.31264 2.49285 2.67789C2.17105 3.04314 1.99352 3.51322 1.99352 4C1.99352 4.48679 2.17105 4.95687 2.49285 5.32212C2.81464 5.68737 3.2586 5.92273 3.74151 5.98406C4.22441 6.0454 4.71311 5.92851 5.116 5.65531C5.51889 5.3821 5.80831 4.97133 5.93001 4.5H10.07C10.1195 4.67535 10.1918 4.84345 10.285 5L5.00001 10.285C4.69902 10.1003 4.35314 10.0017 4.00001 10C3.62567 9.99879 3.2585 10.1027 2.94027 10.2998C2.62204 10.4969 2.36553 10.7794 2.19991 11.1151C2.03429 11.4509 1.96621 11.8263 2.00342 12.1988C2.04063 12.5713 2.18163 12.9259 2.41039 13.2222C2.63915 13.5185 2.94647 13.7447 3.29741 13.8749C3.64835 14.0052 4.0288 14.0344 4.39551 13.9592C4.76221 13.8839 5.10044 13.7073 5.37171 13.4493C5.64299 13.1914 5.83642 12.8625 5.93001 12.5H10V14H14V10H10V11.5ZM4.00001 5C3.80223 5 3.60889 4.94136 3.44444 4.83147C3.27999 4.72159 3.15181 4.56541 3.07613 4.38269C3.00044 4.19996 2.98064 3.9989 3.01922 3.80491C3.05781 3.61093 3.15305 3.43275 3.2929 3.2929C3.43275 3.15305 3.61094 3.0578 3.80492 3.01922C3.9989 2.98063 4.19996 3.00044 4.38269 3.07613C4.56542 3.15181 4.72159 3.27999 4.83148 3.44443C4.94136 3.60888 5.00001 3.80222 5.00001 4C5.00001 4.26522 4.89465 4.51957 4.70711 4.70711C4.51958 4.89465 4.26522 5 4.00001 5ZM12 3C12.1978 3 12.3911 3.05865 12.5556 3.16854C12.72 3.27842 12.8482 3.4346 12.9239 3.61732C12.9996 3.80005 13.0194 4.00111 12.9808 4.1951C12.9422 4.38908 12.847 4.56726 12.7071 4.70711C12.5673 4.84696 12.3891 4.9422 12.1951 4.98079C12.0011 5.01938 11.8 4.99957 11.6173 4.92388C11.4346 4.8482 11.2784 4.72002 11.1685 4.55557C11.0587 4.39113 11 4.19779 11 4C11 3.73479 11.1054 3.48043 11.2929 3.2929C11.4804 3.10536 11.7348 3 12 3ZM4.00001 13C3.80223 13 3.60889 12.9414 3.44444 12.8315C3.27999 12.7216 3.15181 12.5654 3.07613 12.3827C3.00044 12.2 2.98064 11.9989 3.01922 11.8049C3.05781 11.6109 3.15305 11.4328 3.2929 11.2929C3.43275 11.153 3.61094 11.0578 3.80492 11.0192C3.9989 10.9806 4.19996 11.0004 4.38269 11.0761C4.56542 11.1518 4.72159 11.28 4.83148 11.4444C4.94136 11.6089 5.00001 11.8022 5.00001 12C5.00001 12.2652 4.89465 12.5196 4.70711 12.7071C4.51958 12.8946 4.26522 13 4.00001 13ZM11 11H13V13H11V11Z" fill="#161616"/>
</svg>
