<svg width="16" height="16" viewBox="0 0 16 16" fill="none" xmlns="http://www.w3.org/2000/svg">
<path d="M13 9C12.5578 9.00135 12.1285 9.14933 11.7795 9.42077C11.4304 9.69222 11.1813 10.0718 11.071 10.5H8.49997V5.5H11.071C11.1927 5.97133 11.4821 6.3821 11.885 6.65531C12.2879 6.92851 12.7766 7.0454 13.2595 6.98406C13.7424 6.92273 14.1864 6.68737 14.5082 6.32212C14.83 5.95687 15.0075 5.48679 15.0075 5C15.0075 4.51322 14.83 4.04314 14.5082 3.67789C14.1864 3.31264 13.7424 3.07728 13.2595 3.01595C12.7766 2.95461 12.2879 3.0715 11.885 3.3447C11.4821 3.61791 11.1927 4.02868 11.071 4.5H8.49997C8.23484 4.50027 7.98064 4.60571 7.79316 4.79319C7.60568 4.98067 7.50024 5.23487 7.49997 5.5V7.5H4.92892C4.80723 7.02868 4.51781 6.61791 4.11492 6.3447C3.71203 6.0715 3.22333 5.95461 2.74042 6.01595C2.25752 6.07728 1.81356 6.31264 1.49176 6.67789C1.16997 7.04314 0.992432 7.51322 0.992432 8C0.992432 8.48679 1.16997 8.95687 1.49176 9.32212C1.81356 9.68737 2.25752 9.92273 2.74042 9.98406C3.22333 10.0454 3.71203 9.92851 4.11492 9.65531C4.51781 9.3821 4.80723 8.97133 4.92892 8.5H7.49997V10.5C7.50024 10.7651 7.60568 11.0193 7.79316 11.2068C7.98064 11.3943 8.23484 11.4997 8.49997 11.5H11.071C11.1651 11.8614 11.3587 12.1891 11.6297 12.4459C11.9008 12.7028 12.2384 12.8785 12.6043 12.9531C12.9701 13.0277 13.3496 12.9983 13.6996 12.868C14.0495 12.7378 14.356 12.5121 14.5841 12.2164C14.8122 11.9208 14.9528 11.5671 14.99 11.1956C15.0272 10.824 14.9595 10.4495 14.7945 10.1145C14.6295 9.77952 14.3739 9.49751 14.0567 9.30051C13.7395 9.1035 13.3734 8.99939 13 9ZM13 4C13.1978 4 13.3911 4.05865 13.5555 4.16854C13.72 4.27842 13.8482 4.4346 13.9239 4.61732C13.9995 4.80005 14.0193 5.00111 13.9808 5.1951C13.9422 5.38908 13.8469 5.56726 13.7071 5.70711C13.5672 5.84696 13.389 5.9422 13.1951 5.98079C13.0011 6.01938 12.8 5.99957 12.6173 5.92388C12.4346 5.8482 12.2784 5.72002 12.1685 5.55557C12.0586 5.39113 12 5.19779 12 5C12.0002 4.73487 12.1057 4.48067 12.2932 4.29319C12.4806 4.10571 12.7348 4.00027 13 4ZM2.99997 9C2.80219 9 2.60885 8.94136 2.4444 8.83147C2.27995 8.72159 2.15178 8.56541 2.07609 8.38269C2.00041 8.19996 1.9806 7.9989 2.01919 7.80491C2.05777 7.61093 2.15301 7.43275 2.29287 7.2929C2.43272 7.15305 2.6109 7.0578 2.80488 7.01922C2.99886 6.98063 3.19993 7.00044 3.38266 7.07613C3.56538 7.15181 3.72156 7.27999 3.83144 7.44443C3.94132 7.60888 3.99997 7.80222 3.99997 8C3.99971 8.26514 3.89427 8.51934 3.70679 8.70682C3.51931 8.8943 3.26511 8.99974 2.99997 9ZM13 12C12.8022 12 12.6089 11.9414 12.4444 11.8315C12.28 11.7216 12.1518 11.5654 12.0761 11.3827C12.0004 11.2 11.9806 10.9989 12.0192 10.8049C12.0578 10.6109 12.153 10.4328 12.2929 10.2929C12.4327 10.153 12.6109 10.0578 12.8049 10.0192C12.9989 9.98063 13.1999 10.0004 13.3827 10.0761C13.5654 10.1518 13.7216 10.28 13.8314 10.4444C13.9413 10.6089 14 10.8022 14 11C13.9997 11.2651 13.8943 11.5193 13.7068 11.7068C13.5193 11.8943 13.2651 11.9997 13 12Z" fill="#161616"/>
</svg>
