<svg width="16" height="16" viewBox="0 0 16 16" fill="none" xmlns="http://www.w3.org/2000/svg">
<path d="M9.81312 14.7629L9.55502 13.7969C10.5268 13.5359 11.4174 13.0347 12.1449 12.3395C12.8724 11.6443 13.4134 10.7773 13.7182 9.81828C14.0229 8.85929 14.0817 7.83905 13.889 6.85141C13.6964 5.86376 13.2585 4.94041 12.6156 4.16627L13.3844 3.52687C14.1346 4.43004 14.6456 5.50736 14.8704 6.65972C15.0953 7.81208 15.0267 9.00248 14.6711 10.1214C14.3154 11.2403 13.6841 12.2519 12.8352 13.0629C11.9863 13.874 10.9471 14.4586 9.81312 14.7629Z" fill="#161616"/>
<path d="M5.00002 14.5001H4.00002V12.5901L4.40187 12.5098C5.13087 12.3641 6.00002 11.8104 6.00002 10.0001V9.30922L4.00002 8.30922V7.19102L6.00002 6.19102V6.00012C6.00002 3.26647 7.96267 1.50012 11 1.50012H12V3.41012L11.5982 3.49047C10.8692 3.63612 10 4.18982 10 6.00012V6.19102L12 7.19102V8.30922L10 9.30922V10.0001C10 12.7338 8.03737 14.5001 5.00002 14.5001ZM5.00002 13.5001C7.46732 13.5001 9.00002 12.1591 9.00002 10.0001V8.69102L10.8821 7.75012L9.00002 6.80922V6.00012C9.00002 3.71107 10.1927 2.90392 11 2.62012V2.50012C8.53272 2.50012 7.00002 3.84117 7.00002 6.00012V6.80922L5.11792 7.75012L7.00002 8.69102V10.0001C7.00002 12.2892 5.80737 13.0963 5.00002 13.3801V13.5001Z" fill="#161616"/>
<path d="M2.61562 12.4734C1.86532 11.5701 1.35427 10.4926 1.12948 9.34001C0.904696 8.18746 0.973398 6.99688 1.32927 5.87783C1.68514 4.75879 2.31674 3.74722 3.16596 2.93622C4.01518 2.12521 5.05473 1.54082 6.18897 1.23682L6.44702 2.20287C5.47494 2.46358 4.58403 2.96456 3.85626 3.65971C3.12848 4.35487 2.5872 5.22188 2.28221 6.18099C1.97722 7.14009 1.91832 8.1605 2.11093 9.14832C2.30353 10.1362 2.74146 11.0597 3.38442 11.834L2.61562 12.4734Z" fill="#161616"/>
</svg>
