<svg width="16" height="16" viewBox="0 0 16 16" fill="none" xmlns="http://www.w3.org/2000/svg">
<path d="M3.75501 12.9999C3.51185 13.0003 3.26973 12.9684 3.03501 12.9049C2.33046 12.704 1.73272 12.2349 1.37004 11.5984C1.00735 10.9618 0.908615 10.2084 1.09501 9.4999L2.26001 5.0799C2.35073 4.72218 2.51203 4.38621 2.73441 4.0917C2.9568 3.79719 3.23579 3.55008 3.55501 3.3649C3.86582 3.18487 4.20927 3.06831 4.56545 3.02196C4.92163 2.97562 5.28347 3.00041 5.63001 3.0949C5.99838 3.19719 6.34148 3.3749 6.63756 3.61676C6.93364 3.85862 7.17625 4.15935 7.35001 4.4999H8.65C8.823 4.15881 9.06537 3.85763 9.36157 3.61568C9.65776 3.37373 10.0012 3.19635 10.37 3.0949C10.7165 3.00041 11.0784 2.97562 11.4346 3.02196C11.7907 3.06831 12.1342 3.18487 12.445 3.3649C12.7627 3.54961 13.0406 3.79536 13.2629 4.08798C13.4852 4.38061 13.6473 4.71432 13.74 5.0699L14.905 9.4999C15.0942 10.2105 14.9962 10.967 14.6323 11.606C14.2684 12.2449 13.6677 12.7151 12.96 12.9149C12.6135 13.0094 12.2516 13.0342 11.8954 12.9878C11.5393 12.9415 11.1958 12.8249 10.885 12.6449C10.5668 12.4608 10.2884 12.2153 10.0661 11.9226C9.84378 11.6299 9.68193 11.2958 9.59 10.9399L9.5 10.4999H6.50001L6.38501 10.9299C6.29308 11.2858 6.13123 11.6199 5.9089 11.9126C5.68656 12.2053 5.40819 12.4508 5.09001 12.6349C4.68374 12.8692 4.22397 12.9949 3.75501 12.9999ZM4.91501 3.9999C4.61327 4.00092 4.31697 4.08017 4.05501 4.2299C3.64443 4.47079 3.346 4.86451 3.22501 5.3249L2.06001 9.7449C1.9381 10.2003 1.9997 10.6853 2.23156 11.0957C2.46343 11.5062 2.84706 11.8093 3.30001 11.9399C3.51876 11.9996 3.74717 12.0153 3.97203 11.9861C4.19689 11.9569 4.41373 11.8834 4.61001 11.7699C4.81436 11.6519 4.99306 11.4943 5.13559 11.3062C5.27813 11.1182 5.38163 10.9035 5.44001 10.6749L5.75001 9.4999H10.25L10.555 10.6749C10.6144 10.9031 10.7183 11.1173 10.8608 11.3052C11.0032 11.4931 11.1814 11.651 11.385 11.7699C11.5822 11.8833 11.7999 11.9567 12.0256 11.9859C12.2512 12.0151 12.4804 11.9994 12.7 11.9399C13.1535 11.8105 13.5376 11.5073 13.7688 11.0963C14.0001 10.6853 14.0598 10.1997 13.935 9.7449L12.77 5.3249C12.712 5.0968 12.6091 4.88252 12.4675 4.69453C12.3259 4.50654 12.1483 4.3486 11.945 4.2299C11.7478 4.11648 11.5301 4.04309 11.3044 4.01391C11.0788 3.98474 10.8496 4.00037 10.63 4.0599C10.3584 4.13731 10.1092 4.27841 9.90314 4.47146C9.69705 4.66451 9.53998 4.90396 9.445 5.1699L9.325 5.4999H6.67501L6.55501 5.1699C6.45918 4.9036 6.30124 4.66399 6.09428 4.47095C5.88732 4.2779 5.63732 4.13699 5.36501 4.0599C5.21827 4.02033 5.06698 4.00016 4.91501 3.9999Z" fill="#161616"/>
<path d="M5.00001 7.9999C4.80222 7.9999 4.60888 7.94125 4.44444 7.83137C4.27999 7.72149 4.15181 7.56531 4.07613 7.38258C4.00044 7.19986 3.98063 6.99879 4.01922 6.80481C4.05781 6.61083 4.15305 6.43264 4.2929 6.29279C4.43275 6.15294 4.61093 6.0577 4.80491 6.01911C4.9989 5.98053 5.19996 6.00033 5.38269 6.07602C5.56541 6.15171 5.72159 6.27988 5.83147 6.44433C5.94136 6.60878 6.00001 6.80212 6.00001 6.9999C6.00001 7.26511 5.89465 7.51947 5.70711 7.70701C5.51958 7.89454 5.26522 7.9999 5.00001 7.9999Z" fill="#161616"/>
<path d="M11 6.4999C11.2761 6.4999 11.5 6.27604 11.5 5.9999C11.5 5.72376 11.2761 5.4999 11 5.4999C10.7239 5.4999 10.5 5.72376 10.5 5.9999C10.5 6.27604 10.7239 6.4999 11 6.4999Z" fill="#161616"/>
<path d="M11 8.4999C11.2761 8.4999 11.5 8.27604 11.5 7.9999C11.5 7.72376 11.2761 7.4999 11 7.4999C10.7239 7.4999 10.5 7.72376 10.5 7.9999C10.5 8.27604 10.7239 8.4999 11 8.4999Z" fill="#161616"/>
<path d="M10 7.4999C10.2761 7.4999 10.5 7.27604 10.5 6.9999C10.5 6.72376 10.2761 6.4999 10 6.4999C9.72386 6.4999 9.5 6.72376 9.5 6.9999C9.5 7.27604 9.72386 7.4999 10 7.4999Z" fill="#161616"/>
<path d="M12 7.4999C12.2761 7.4999 12.5 7.27604 12.5 6.9999C12.5 6.72376 12.2761 6.4999 12 6.4999C11.7239 6.4999 11.5 6.72376 11.5 6.9999C11.5 7.27604 11.7239 7.4999 12 7.4999Z" fill="#161616"/>
</svg>
