<svg width="16" height="16" viewBox="0 0 16 16" fill="none" xmlns="http://www.w3.org/2000/svg">
<path d="M3.75501 15C3.51185 15.0004 3.26973 14.9685 3.03501 14.905C2.33046 14.7041 1.73272 14.235 1.37004 13.5985C1.00735 12.9619 0.908615 12.2085 1.09501 11.5L2.26001 7.07999C2.35193 6.72409 2.51378 6.39004 2.73611 6.09732C2.95845 5.80459 3.23682 5.55905 3.55501 5.37499C3.86582 5.19497 4.20927 5.07841 4.56545 5.03206C4.92163 4.98571 5.28347 5.0105 5.63001 5.10499C5.99749 5.20615 6.34003 5.38233 6.63606 5.62242C6.93208 5.86251 7.17517 6.16131 7.35001 6.49999H8.65C8.823 6.1589 9.06537 5.85773 9.36157 5.61578C9.65776 5.37383 10.0012 5.19644 10.37 5.09499C10.7165 5.0005 11.0784 4.97571 11.4346 5.02206C11.7907 5.06841 12.1342 5.18497 12.445 5.36499C12.763 5.54927 13.0413 5.79488 13.2636 6.08757C13.4859 6.38026 13.6478 6.7142 13.74 7.06999L14.905 11.5C15.0942 12.2106 14.9962 12.9671 14.6323 13.6061C14.2684 14.245 13.6677 14.7152 12.96 14.915C12.6135 15.0095 12.2516 15.0343 11.8954 14.9879C11.5393 14.9416 11.1958 14.825 10.885 14.645C10.5668 14.4609 10.2884 14.2154 10.0661 13.9227C9.84378 13.6299 9.68193 13.2959 9.59 12.94L9.5 12.5H6.50001L6.38501 12.93C6.29308 13.2859 6.13123 13.6199 5.9089 13.9127C5.68656 14.2054 5.40819 14.4509 5.09001 14.635C4.68374 14.8693 4.22397 14.995 3.75501 15ZM4.91501 5.99999C4.61327 6.00102 4.31697 6.08027 4.05501 6.22999C3.85135 6.34885 3.67319 6.50677 3.53076 6.69468C3.38832 6.8826 3.28441 7.0968 3.22501 7.32499L2.06001 11.745C1.9381 12.2004 1.9997 12.6854 2.23156 13.0958C2.46343 13.5063 2.84706 13.8094 3.30001 13.94C3.51876 13.9997 3.74717 14.0154 3.97203 13.9862C4.19689 13.957 4.41373 13.8835 4.61001 13.77C4.81383 13.6514 4.99212 13.4935 5.13459 13.3056C5.27705 13.1176 5.38085 12.9033 5.44001 12.675L5.75001 11.5H10.25L10.555 12.675C10.676 13.1354 10.9744 13.5291 11.385 13.77C11.5822 13.8834 11.7999 13.9568 12.0256 13.986C12.2512 14.0151 12.4804 13.9995 12.7 13.94C13.1535 13.8106 13.5376 13.5074 13.7688 13.0964C14.0001 12.6854 14.0598 12.1998 13.935 11.745L12.77 7.32499C12.7125 7.09667 12.6099 6.88217 12.4682 6.69412C12.3265 6.50606 12.1486 6.34826 11.945 6.22999C11.7478 6.11658 11.5301 6.04318 11.3044 6.01401C11.0788 5.98484 10.8496 6.00047 10.63 6.05999C10.3584 6.13741 10.1092 6.2785 9.90314 6.47156C9.69705 6.66461 9.53998 6.90405 9.445 7.16999L9.325 7.49999H6.67501L6.55501 7.16999C6.45918 6.9037 6.30124 6.66409 6.09428 6.47104C5.88732 6.278 5.63732 6.13709 5.36501 6.05999C5.21827 6.02043 5.06698 6.00026 4.91501 5.99999Z" fill="#161616"/>
<path d="M5.00001 9.99999C4.80222 9.99999 4.60888 9.94135 4.44444 9.83146C4.27999 9.72158 4.15181 9.5654 4.07613 9.38268C4.00044 9.19995 3.98063 8.99889 4.01922 8.8049C4.05781 8.61092 4.15305 8.43274 4.2929 8.29289C4.43275 8.15304 4.61093 8.05779 4.80491 8.01921C4.9989 7.98062 5.19996 8.00043 5.38269 8.07612C5.56541 8.1518 5.72159 8.27997 5.83147 8.44442C5.94136 8.60887 6.00001 8.80221 6.00001 8.99999C6.00001 9.26521 5.89465 9.51957 5.70711 9.7071C5.51958 9.89464 5.26522 9.99999 5.00001 9.99999Z" fill="#161616"/>
<path d="M11 8.49999C11.2761 8.49999 11.5 8.27614 11.5 7.99999C11.5 7.72385 11.2761 7.49999 11 7.49999C10.7239 7.49999 10.5 7.72385 10.5 7.99999C10.5 8.27614 10.7239 8.49999 11 8.49999Z" fill="#161616"/>
<path d="M11 10.5C11.2761 10.5 11.5 10.2761 11.5 9.99999C11.5 9.72385 11.2761 9.49999 11 9.49999C10.7239 9.49999 10.5 9.72385 10.5 9.99999C10.5 10.2761 10.7239 10.5 11 10.5Z" fill="#161616"/>
<path d="M10 9.49999C10.2761 9.49999 10.5 9.27614 10.5 8.99999C10.5 8.72385 10.2761 8.49999 10 8.49999C9.72386 8.49999 9.5 8.72385 9.5 8.99999C9.5 9.27614 9.72386 9.49999 10 9.49999Z" fill="#161616"/>
<path d="M12 9.49999C12.2761 9.49999 12.5 9.27614 12.5 8.99999C12.5 8.72385 12.2761 8.49999 12 8.49999C11.7239 8.49999 11.5 8.72385 11.5 8.99999C11.5 9.27614 11.7239 9.49999 12 9.49999Z" fill="#161616"/>
<path d="M6.87501 4.49999L6.12501 3.83499C6.35961 3.56898 6.64813 3.35593 6.97141 3.20999C7.29469 3.06406 7.64532 2.98859 8.00001 2.98859C8.35469 2.98859 8.70532 3.06406 9.0286 3.20999C9.35188 3.35593 9.6404 3.56898 9.875 3.83499L9.125 4.49999C8.98424 4.34038 8.81113 4.21255 8.61716 4.12499C8.4232 4.03744 8.21282 3.99215 8.00001 3.99215C7.78719 3.99215 7.57681 4.03744 7.38285 4.12499C7.18888 4.21255 7.01577 4.34038 6.87501 4.49999Z" fill="#161616"/>
<path d="M10.625 3.18499C10.2966 2.81257 9.89262 2.5143 9.44004 2.30999C8.98745 2.10569 8.49657 2.00003 8.00001 2.00003C7.50344 2.00003 7.01256 2.10569 6.55997 2.30999C6.10739 2.5143 5.70345 2.81257 5.37501 3.18499L4.62501 2.52499C5.04729 2.04616 5.56664 1.66267 6.14854 1.39999C6.73043 1.13732 7.36157 1.00146 8.00001 1.00146C8.63845 1.00146 9.26958 1.13732 9.85147 1.39999C10.4334 1.66267 10.9527 2.04616 11.375 2.52499L10.625 3.18499Z" fill="#161616"/>
</svg>
