<svg width="16" height="16" viewBox="0 0 16 16" fill="none" xmlns="http://www.w3.org/2000/svg">
<path d="M8.50001 9.96521C9.50953 9.83802 10.4326 9.33089 11.0814 8.54705C11.7302 7.76322 12.0559 6.7616 11.9922 5.74609C11.9284 4.73058 11.4801 3.77753 10.7384 3.08094C9.99677 2.38435 9.01751 1.99658 8.00001 1.99658C6.9825 1.99658 6.00324 2.38435 5.26157 3.08094C4.5199 3.77753 4.07158 4.73058 4.00786 5.74609C3.94414 6.7616 4.26982 7.76322 4.9186 8.54705C5.56737 9.33089 6.49048 9.83802 7.50001 9.96521V10.9999H5.00001V11.9999H7.50001V13.9999H8.50001V11.9999H11V10.9999H8.50001V9.96521ZM5.00001 5.99986C5.00001 5.40651 5.17595 4.8265 5.5056 4.33315C5.83524 3.8398 6.30378 3.45528 6.85196 3.22822C7.40013 3.00116 8.00333 2.94175 8.58528 3.0575C9.16722 3.17326 9.70177 3.45898 10.1213 3.87854C10.5409 4.2981 10.8266 4.83264 10.9424 5.41459C11.0581 5.99653 10.9987 6.59973 10.7716 7.14791C10.5446 7.69609 10.1601 8.16462 9.66672 8.49427C9.17337 8.82391 8.59335 8.99986 8.00001 8.99986C7.20462 8.99899 6.44207 8.68263 5.87965 8.12021C5.31723 7.55779 5.00088 6.79524 5.00001 5.99986Z" fill="#161616"/>
</svg>
