<svg width="16" height="16" viewBox="0 0 16 16" fill="none" xmlns="http://www.w3.org/2000/svg">
<path d="M7 2.00018C7.69224 2.00018 8.36893 2.20546 8.9445 2.59004C9.52007 2.97463 9.96867 3.52125 10.2336 4.16079C10.4985 4.80033 10.5678 5.50407 10.4327 6.183C10.2977 6.86193 9.96436 7.48557 9.47487 7.97506C8.98539 8.46454 8.36175 8.79788 7.68282 8.93293C7.00388 9.06798 6.30015 8.99867 5.66061 8.73376C5.02107 8.46886 4.47444 8.02025 4.08986 7.44468C3.70527 6.86911 3.5 6.19242 3.5 5.50018C3.5 4.57193 3.86875 3.68169 4.52513 3.02531C5.1815 2.36893 6.07174 2.00018 7 2.00018ZM7 1.00018C6.10999 1.00018 5.23996 1.2641 4.49993 1.75857C3.75991 2.25304 3.18314 2.95584 2.84254 3.77811C2.50195 4.60038 2.41283 5.50518 2.58647 6.37809C2.7601 7.25101 3.18868 8.05283 3.81802 8.68216C4.44736 9.3115 5.24918 9.74008 6.1221 9.91372C6.99501 10.0874 7.89981 9.99824 8.72208 9.65764C9.54434 9.31705 10.2471 8.74027 10.7416 8.00025C11.2361 7.26023 11.5 6.3902 11.5 5.50018C11.5 4.30671 11.0259 3.16212 10.182 2.3182C9.33807 1.47429 8.19348 1.00018 7 1.00018Z" fill="#161616"/>
<path d="M14 5.50018C14.0006 4.58098 13.8196 3.67072 13.4673 2.82168C13.1151 1.97264 12.5986 1.20156 11.9475 0.552734L11.2407 1.25953C12.3675 2.38178 13.0024 3.90565 13.0058 5.49598C13.0092 7.08632 12.3808 8.61289 11.2588 9.73996C10.1368 10.867 8.61307 11.5023 7.02274 11.506C5.4324 11.5098 3.9057 10.8817 2.7784 9.75988L2.75935 9.74083L2.05255 10.4476C2.70138 11.0988 3.47246 11.6153 4.3215 11.9675C5.17053 12.3197 6.0808 12.5008 7 12.5002V14.0002H5V15.0002H10V14.0002H8V12.4202C9.66419 12.179 11.1861 11.3472 12.2877 10.0767C13.3893 8.80616 13.9971 7.18176 14 5.50018Z" fill="#161616"/>
</svg>
