<svg width="16" height="16" viewBox="0 0 16 16" fill="none" xmlns="http://www.w3.org/2000/svg">
<path d="M14 15H11C10.7349 14.9997 10.4807 14.8943 10.2932 14.7068C10.1058 14.5193 10.0003 14.2652 10 14V11C10.0003 10.7349 10.1058 10.4807 10.2932 10.2933C10.4807 10.1058 10.7349 10.0003 11 10H14C14.2651 10.0003 14.5193 10.1058 14.7068 10.2933C14.8942 10.4807 14.9997 10.7349 15 11V14C14.9997 14.2652 14.8942 14.5193 14.7068 14.7068C14.5193 14.8943 14.2651 14.9997 14 15ZM10.9994 11L11 14H14V11H10.9994Z" fill="#161616"/>
<path d="M9 13H6C5.60231 12.9996 5.22103 12.8414 4.93982 12.5602C4.65861 12.279 4.50043 11.8977 4.5 11.5V9.50004H5.5V11.5C5.50013 11.6326 5.55285 11.7597 5.64659 11.8534C5.74033 11.9472 5.86743 11.9999 6 12H9V13Z" fill="#161616"/>
<path d="M13 9.00004H12V7.50004C11.9999 7.36747 11.9471 7.24037 11.8534 7.14663C11.7597 7.05289 11.6326 7.00017 11.5 7.00004H9V6.00004H11.5C11.8977 6.00047 12.279 6.15865 12.5602 6.43986C12.8414 6.72107 12.9996 7.10234 13 7.50004V9.00004Z" fill="#161616"/>
<path d="M7.5 9.00004C7.41279 9.00007 7.3271 8.97726 7.25145 8.93389L5 7.64434L2.7484 8.93389C2.66396 8.98226 2.56724 9.00494 2.4701 8.99915C2.37296 8.99336 2.27962 8.95935 2.20153 8.90129C2.12343 8.84323 2.06398 8.76364 2.03046 8.67229C1.99693 8.58093 1.9908 8.48178 2.0128 8.38698L2.5437 6.10099L1.1345 4.59124C1.07282 4.52516 1.0302 4.4436 1.01119 4.35523C0.992173 4.26686 0.99747 4.17499 1.02651 4.08939C1.05556 4.00379 1.10726 3.92767 1.17613 3.86912C1.24499 3.81057 1.32844 3.77178 1.4176 3.75689L3.5176 3.40594L4.5503 1.28139C4.59086 1.19792 4.65385 1.1274 4.73221 1.0777C4.81058 1.028 4.90123 1.00109 4.99402 0.999975C5.08681 0.998864 5.17808 1.0236 5.25761 1.07141C5.33714 1.11922 5.4018 1.18822 5.44435 1.27069L6.54665 3.40619L8.58485 3.75724C8.67373 3.77253 8.75683 3.81159 8.82532 3.87026C8.89382 3.92893 8.94517 4.00504 8.97394 4.09052C9.0027 4.17601 9.00781 4.26768 8.98872 4.35582C8.96963 4.44397 8.92705 4.52531 8.8655 4.59124L7.4563 6.10124L7.98695 8.38714C8.00394 8.46044 8.00417 8.53663 7.98761 8.61003C7.97106 8.68343 7.93815 8.75215 7.89134 8.81107C7.84454 8.86998 7.78503 8.91757 7.71727 8.95029C7.64951 8.98301 7.57524 9.00001 7.5 9.00004ZM5 6.50004C5 6.50004 5.1715 6.59004 5.24855 6.63434L6.75355 7.49639L6.3617 5.80824L7.5027 4.58559L5.88615 4.30714L5.01335 2.61614L4.19145 4.30724L2.501 4.58974L3.63825 5.80824L3.2462 7.49639L4.75145 6.63434C4.8285 6.59004 5 6.50004 5 6.50004Z" fill="#161616"/>
</svg>
