<svg width="16" height="16" viewBox="0 0 16 16" fill="none" xmlns="http://www.w3.org/2000/svg">
<path d="M10.7497 15.5001C11.164 15.5001 11.4997 15.1643 11.4997 14.7501C11.4997 14.3358 11.164 14.0001 10.7497 14.0001C10.3355 14.0001 9.99975 14.3358 9.99975 14.7501C9.99975 15.1643 10.3355 15.5001 10.7497 15.5001Z" fill="#161616"/>
<path d="M12.2497 13.5001C12.664 13.5001 12.9997 13.1643 12.9997 12.7501C12.9997 12.3358 12.664 12.0001 12.2497 12.0001C11.8355 12.0001 11.4997 12.3358 11.4997 12.7501C11.4997 13.1643 11.8355 13.5001 12.2497 13.5001Z" fill="#161616"/>
<path d="M3.74999 13.5001C4.16421 13.5001 4.49999 13.1643 4.49999 12.7501C4.49999 12.3358 4.16421 12.0001 3.74999 12.0001C3.33578 12.0001 2.99999 12.3358 2.99999 12.7501C2.99999 13.1643 3.33578 13.5001 3.74999 13.5001Z" fill="#161616"/>
<path d="M2.24974 15.5001C2.66396 15.5001 2.99974 15.1643 2.99974 14.7501C2.99974 14.3358 2.66396 14.0001 2.24974 14.0001C1.83553 14.0001 1.49974 14.3358 1.49974 14.7501C1.49974 15.1643 1.83553 15.5001 2.24974 15.5001Z" fill="#161616"/>
<path d="M5.24974 15.5001C5.66396 15.5001 5.99974 15.1643 5.99974 14.7501C5.99974 14.3358 5.66396 14.0001 5.24974 14.0001C4.83553 14.0001 4.49974 14.3358 4.49974 14.7501C4.49974 15.1643 4.83553 15.5001 5.24974 15.5001Z" fill="#161616"/>
<path d="M7.93399 15.2481L7.06599 14.7521L8.63799 12.0001H5.63849L8.06599 7.75205L8.93399 8.24805L7.36149 11.0001H10.362L7.93399 15.2481Z" fill="#161616"/>
<path d="M11.75 11.0001H11.5V10.0001H11.75C12.3311 10.0003 12.8898 9.77555 13.3088 9.37294C13.7279 8.97034 13.9748 8.42114 13.9979 7.84047C14.0209 7.2598 13.8183 6.69276 13.4324 6.25822C13.0466 5.82367 12.5075 5.55537 11.9282 5.50955L11.5205 5.4776L11.4712 5.0716C11.3674 4.22414 10.9571 3.44395 10.3177 2.87812C9.67834 2.31229 8.85404 1.99993 8.00024 1.99993C7.14645 1.99993 6.32215 2.31229 5.68277 2.87812C5.0434 3.44395 4.63312 4.22414 4.52929 5.0716L4.47974 5.4776L4.07199 5.50955C3.4927 5.55537 2.95363 5.82366 2.56778 6.25818C2.18194 6.6927 1.97929 7.25972 2.0023 7.84037C2.02532 8.42102 2.27222 8.97022 2.69125 9.37284C3.11027 9.77546 3.66889 10.0002 4.24999 10.0001H4.49999V11.0001H4.24999C3.4447 11.0004 2.66798 10.7017 2.0705 10.1617C1.47301 9.62183 1.09735 8.87925 1.01638 8.07804C0.93541 7.27683 1.1549 6.47411 1.63229 5.82557C2.10967 5.17704 2.81092 4.72892 3.59999 4.56815C3.81305 3.55901 4.36651 2.65376 5.16761 2.00414C5.96871 1.35452 6.96875 1 8.00014 1C9.03153 1 10.0316 1.35452 10.8327 2.00414C11.6338 2.65376 12.1872 3.55901 12.4003 4.56815C13.1893 4.72903 13.8904 5.17721 14.3677 5.82575C14.845 6.4743 15.0645 7.27699 14.9834 8.07815C14.9024 8.87931 14.5268 9.62183 13.9293 10.1617C13.3319 10.7016 12.5552 11.0004 11.75 11.0001Z" fill="#161616"/>
</svg>
