<svg width="16" height="16" viewBox="0 0 16 16" fill="none" xmlns="http://www.w3.org/2000/svg">
<path d="M13.185 10.26L8.50001 7.70502V6.93002C8.86247 6.83643 9.19138 6.643 9.44934 6.37172C9.7073 6.10045 9.88395 5.76222 9.95919 5.39552C10.0344 5.02882 10.0052 4.64836 9.87495 4.29742C9.74466 3.94649 9.51849 3.63916 9.22218 3.4104C8.92586 3.18165 8.57129 3.04065 8.1988 3.00344C7.82632 2.96623 7.45086 3.0343 7.11515 3.19992C6.77944 3.36554 6.49694 3.62206 6.29981 3.94028C6.10267 4.25851 5.9988 4.62568 6.00001 5.00002H7.00001C7.02256 4.7348 7.14954 4.4894 7.35301 4.31781C7.45376 4.23284 7.57026 4.16855 7.69586 4.12861C7.82146 4.08867 7.95369 4.07386 8.08501 4.08502C8.21634 4.09618 8.34417 4.1331 8.46123 4.19367C8.57828 4.25424 8.68226 4.33727 8.76723 4.43802C8.85219 4.53877 8.91648 4.65527 8.95642 4.78087C8.99636 4.90646 9.01118 5.0387 9.00001 5.17002C8.95055 5.4107 8.81747 5.62609 8.62435 5.77802C8.43124 5.92995 8.19058 6.00859 7.94501 6.00002C7.82699 6.00002 7.71381 6.0469 7.63035 6.13036C7.5469 6.21381 7.50001 6.327 7.50001 6.44502V7.70502L2.81501 10.26C2.50872 10.4226 2.26577 10.6831 2.12501 11C2.02744 11.2149 1.98516 11.4508 2.00203 11.6862C2.0189 11.9216 2.09438 12.149 2.2216 12.3478C2.34882 12.5466 2.52373 12.7104 2.73042 12.8243C2.93712 12.9382 3.16902 12.9986 3.40501 13H12.595C12.831 12.9986 13.0629 12.9382 13.2696 12.8243C13.4763 12.7104 13.6512 12.5466 13.7784 12.3478C13.9056 12.149 13.9811 11.9216 13.998 11.6862C14.0149 11.4508 13.9726 11.2149 13.875 11C13.7343 10.6831 13.4913 10.4226 13.185 10.26ZM12.595 12H3.40501C3.2976 12 3.19459 11.9573 3.11864 11.8814C3.04268 11.8054 3.00001 11.7024 3.00001 11.595C2.99977 11.5051 3.02379 11.4167 3.06955 11.3393C3.11531 11.2619 3.18111 11.1982 3.26001 11.155L8.00001 8.57002L12.74 11.155C12.8189 11.1982 12.8847 11.2619 12.9305 11.3393C12.9762 11.4167 13.0003 11.5051 13 11.595C13 11.7024 12.9573 11.8054 12.8814 11.8814C12.8054 11.9573 12.7024 12 12.595 12Z" fill="#161616"/>
</svg>
