<svg width="16" height="16" viewBox="0 0 16 16" fill="none" xmlns="http://www.w3.org/2000/svg">
<path d="M13.5 8.50022C13.4981 9.87154 12.9845 11.1928 12.0597 12.2054C11.1349 13.2179 9.86553 13.8489 8.5 13.9748V7.00022H11.5V6.00022H8.5V4.92917C8.97133 4.80747 9.38209 4.51805 9.6553 4.11516C9.92851 3.71227 10.0454 3.22357 9.98406 2.74067C9.92272 2.25776 9.68737 1.8138 9.32212 1.49201C8.95686 1.17021 8.48679 0.992676 8 0.992676C7.51321 0.992676 7.04314 1.17021 6.67788 1.49201C6.31263 1.8138 6.07728 2.25776 6.01594 2.74067C5.9546 3.22357 6.07149 3.71227 6.3447 4.11516C6.61791 4.51805 7.02867 4.80747 7.5 4.92917V6.00022H4.5V7.00022H7.5V13.9748C6.13447 13.8489 4.86508 13.2179 3.94029 12.2054C3.0155 11.1928 2.50189 9.87154 2.5 8.50022H1.5C1.5 10.2241 2.18482 11.8774 3.40381 13.0964C4.62279 14.3154 6.27609 15.0002 8 15.0002C9.72391 15.0002 11.3772 14.3154 12.5962 13.0964C13.8152 11.8774 14.5 10.2241 14.5 8.50022H13.5ZM7 3.00022C7 2.80244 7.05865 2.6091 7.16853 2.44465C7.27841 2.2802 7.43459 2.15203 7.61732 2.07634C7.80004 2.00065 8.00111 1.98085 8.19509 2.01943C8.38907 2.05802 8.56725 2.15326 8.70711 2.29311C8.84696 2.43296 8.9422 2.61115 8.98079 2.80513C9.01937 2.99911 8.99957 3.20017 8.92388 3.3829C8.84819 3.56563 8.72002 3.72181 8.55557 3.83169C8.39112 3.94157 8.19778 4.00022 8 4.00022C7.73488 3.99991 7.4807 3.89446 7.29323 3.70699C7.10576 3.51952 7.0003 3.26534 7 3.00022Z" fill="#161616"/>
</svg>
