<svg width="16" height="16" viewBox="0 0 16 16" fill="none" xmlns="http://www.w3.org/2000/svg">
<path d="M4.75 7.50013C4.89834 7.50013 5.04334 7.54412 5.16668 7.62653C5.29001 7.70894 5.38614 7.82607 5.44291 7.96312C5.49968 8.10016 5.51453 8.25096 5.48559 8.39645C5.45665 8.54193 5.38522 8.67557 5.28033 8.78046C5.17544 8.88535 5.0418 8.95678 4.89632 8.98572C4.75083 9.01466 4.60003 8.99981 4.46299 8.94304C4.32594 8.88628 4.20881 8.79015 4.1264 8.66681C4.04399 8.54347 4 8.39847 4 8.25013C4 8.05122 4.07902 7.86045 4.21967 7.7198C4.36032 7.57915 4.55109 7.50013 4.75 7.50013ZM4.75 6.50013C4.40388 6.50013 4.06554 6.60277 3.77775 6.79506C3.48997 6.98735 3.26566 7.26066 3.13321 7.58044C3.00076 7.90021 2.9661 8.25207 3.03363 8.59154C3.10115 8.93101 3.26782 9.24283 3.51256 9.48757C3.75731 9.73231 4.06912 9.89898 4.40859 9.96651C4.74806 10.034 5.09993 9.99937 5.4197 9.86692C5.73947 9.73447 6.01278 9.51017 6.20507 9.22238C6.39736 8.93459 6.5 8.59625 6.5 8.25013C6.5 7.786 6.31563 7.34088 5.98744 7.01269C5.65925 6.68451 5.21413 6.50013 4.75 6.50013Z" fill="#161616"/>
<path d="M12.5 7.00013H8.5C8.23478 7.00013 7.98043 7.10549 7.79289 7.29303C7.60536 7.48056 7.5 7.73492 7.5 8.00013V11.0001H2V5.30013L8 2.07013L14.265 5.44013L14.735 4.56013L8.235 1.06013C8.16266 1.02161 8.08196 1.00146 8 1.00146C7.91804 1.00146 7.83734 1.02161 7.765 1.06013L1.265 4.56013C1.18516 4.60264 1.11835 4.66602 1.07168 4.7435C1.02502 4.82099 1.00024 4.90968 1 5.00013V15.0001H2V12.0001H14V15.0001H15V9.50013C15 8.83709 14.7366 8.20121 14.2678 7.73236C13.7989 7.26352 13.163 7.00013 12.5 7.00013ZM8.5 11.0001V8.00013H12.5C12.8978 8.00013 13.2794 8.15817 13.5607 8.43947C13.842 8.72078 14 9.10231 14 9.50013V11.0001H8.5Z" fill="#161616"/>
</svg>
