<svg width="16" height="16" viewBox="0 0 16 16" fill="none" xmlns="http://www.w3.org/2000/svg">
<path d="M13 5.99998C12.4846 6.01374 11.9848 5.82274 11.61 5.46879C11.2351 5.11484 11.0158 4.62679 11 4.11148C11.0094 3.74358 11.1226 3.38582 11.3266 3.07953L12.585 1.20703C12.6334 1.14274 12.696 1.09056 12.768 1.05463C12.84 1.0187 12.9193 1 12.9998 1C13.0803 1 13.1596 1.0187 13.2316 1.05463C13.3036 1.09056 13.3662 1.14274 13.4146 1.20703L14.6577 3.05498C14.87 3.3674 14.9888 3.73392 15 4.11148C14.9842 4.62679 14.7649 5.11484 14.39 5.46879C14.0152 5.82274 13.5154 6.01374 13 5.99998ZM13 2.38158L12.1719 3.61283C12.0684 3.75937 12.0088 3.93232 12 4.11148C12.0289 4.35639 12.1467 4.58217 12.331 4.746C12.5154 4.90983 12.7534 5.00033 13 5.00033C13.2466 5.00033 13.4846 4.90983 13.669 4.746C13.8533 4.58217 13.9711 4.35639 14 4.11148C13.9888 3.92272 13.9237 3.74113 13.8125 3.58818L13 2.38158Z" fill="#161616"/>
<path d="M11.75 15H4.24999C3.44471 15.0005 2.66794 14.7019 2.07038 14.1621C1.47283 13.6223 1.09712 12.8797 1.01614 12.0785C0.935156 11.2773 1.15469 10.4746 1.63213 9.82612C2.10957 9.17764 2.81089 8.72963 3.59999 8.56903C3.81282 7.55969 4.36618 6.6542 5.16731 6.00438C5.96843 5.35456 6.96861 4.99992 8.00014 4.99992C9.03168 4.99992 10.0319 5.35456 10.833 6.00438C11.6341 6.6542 12.1875 7.55969 12.4003 8.56903C13.1892 8.72985 13.8903 9.17795 14.3676 9.82642C14.8448 10.4749 15.0642 11.2775 14.9832 12.0786C14.9022 12.8797 14.5266 13.6221 13.9292 14.1619C13.3318 14.7017 12.5552 15.0004 11.75 15ZM7.99999 5.99998C7.14629 6.00074 6.3223 6.31349 5.68309 6.87938C5.04388 7.44527 4.63354 8.22527 4.5293 9.07258L4.47975 9.47868L4.072 9.51068C3.49262 9.55618 2.95337 9.82428 2.56737 10.2587C2.18138 10.6932 1.97862 11.2602 2.00165 11.841C2.02467 12.4217 2.27169 12.9709 2.69087 13.3734C3.11005 13.7759 3.66884 14.0005 4.24999 14H11.75C12.3312 14.0006 12.89 13.776 13.3092 13.3735C13.7284 12.971 13.9755 12.4218 13.9985 11.8411C14.0216 11.2603 13.8189 10.6932 13.4329 10.2588C13.0469 9.82429 12.5076 9.55618 11.9282 9.51068L11.5205 9.47868L11.4712 9.07258C11.3667 8.22528 10.9562 7.44535 10.317 6.87949C9.67771 6.31364 8.85372 6.00086 7.99999 5.99998Z" fill="#161616"/>
</svg>
