<svg width="16" height="16" viewBox="0 0 16 16" fill="none" xmlns="http://www.w3.org/2000/svg">
<path d="M11.326 2.09105L10.2375 3.34815L9.53562 4.1587L10.3932 4.8025C10.8924 5.17257 11.2977 5.65472 11.5765 6.2101C11.8552 6.76549 11.9997 7.37858 11.9981 8L11.9985 8.0288L11.9994 8.04955C12.0084 8.2654 12.12 13.1052 4.67247 13.9107L5.76247 12.6518L6.46442 11.8413L5.60692 11.1975C5.10769 10.8274 4.70234 10.3453 4.42355 9.78992C4.14475 9.23453 4.0003 8.62143 4.00182 8L4.00142 7.9712L4.00057 7.95045C3.99157 7.735 3.88022 2.90355 11.326 2.09105ZM12.4989 1C12.4907 1 12.4825 1 12.4742 1.0005C2.62657 1.4573 3.00182 8 3.00182 8C3.00182 8.77634 3.18305 9.54197 3.53109 10.2359C3.87913 10.9299 4.38436 11.533 5.00657 11.9973L3.11837 14.1777C3.05787 14.2509 3.01934 14.3397 3.00725 14.4339C2.99516 14.528 3.01 14.6237 3.05006 14.7097C3.09012 14.7958 3.15375 14.8687 3.23357 14.9201C3.31339 14.9715 3.40615 14.9992 3.50107 15C3.50927 15 3.51742 15 3.52572 14.9995C13.3734 14.5427 12.9981 8 12.9981 8C12.9981 7.22367 12.8169 6.45807 12.4689 5.76411C12.1209 5.07016 11.6157 4.46702 10.9935 4.0027L12.8816 1.82225C12.9421 1.7491 12.9806 1.6603 12.9927 1.56614C13.0048 1.47199 12.9899 1.37633 12.9499 1.29027C12.9098 1.20421 12.8462 1.13126 12.7664 1.07988C12.6865 1.02851 12.5938 1.00081 12.4989 1Z" fill="#161616"/>
</svg>
