<svg width="16" height="16" viewBox="0 0 16 16" fill="none" xmlns="http://www.w3.org/2000/svg">
<path d="M8.49997 12.0918V9.99997H7.49997V12.0918C7.16637 12.2097 6.8852 12.4418 6.70616 12.747C6.52712 13.0522 6.46174 13.4109 6.52158 13.7596C6.58141 14.1084 6.76261 14.4247 7.03314 14.6528C7.30368 14.8809 7.64613 15.006 7.99997 15.006C8.35382 15.006 8.69627 14.8809 8.9668 14.6528C9.23734 14.4247 9.41854 14.1084 9.47837 13.7596C9.53821 13.4109 9.47283 13.0522 9.29379 12.747C9.11475 12.4418 8.83358 12.2097 8.49997 12.0918Z" fill="#161616"/>
<path d="M13 5.99997C12.5578 6.00131 12.1285 6.1493 11.7795 6.42074C11.4304 6.69218 11.1813 7.07174 11.071 7.49997H4.92892C4.80723 7.02864 4.51781 6.61787 4.11492 6.34467C3.71203 6.07146 3.22333 5.95457 2.74042 6.01591C2.25752 6.07725 1.81356 6.3126 1.49176 6.67785C1.16997 7.0431 0.992432 7.51318 0.992432 7.99997C0.992432 8.48675 1.16997 8.95683 1.49176 9.32208C1.81356 9.68734 2.25752 9.92269 2.74042 9.98403C3.22333 10.0454 3.71203 9.92847 4.11492 9.65527C4.51781 9.38206 4.80723 8.9713 4.92892 8.49997H11.071C11.1651 8.86132 11.3587 9.18904 11.6297 9.4459C11.9008 9.70276 12.2384 9.87848 12.6043 9.9531C12.9701 10.0277 13.3496 9.99823 13.6996 9.86801C14.0495 9.73779 14.356 9.51204 14.5841 9.21641C14.8122 8.92077 14.9528 8.56709 14.99 8.19554C15.0272 7.82399 14.9595 7.44945 14.7945 7.11447C14.6295 6.77949 14.3739 6.49748 14.0567 6.30047C13.7395 6.10346 13.3734 5.99935 13 5.99997ZM2.99997 8.99997C2.80219 8.99997 2.60885 8.94132 2.4444 8.83144C2.27995 8.72156 2.15178 8.56538 2.07609 8.38265C2.00041 8.19993 1.9806 7.99886 2.01919 7.80488C2.05777 7.6109 2.15301 7.43271 2.29287 7.29286C2.43272 7.15301 2.6109 7.05777 2.80488 7.01918C2.99886 6.9806 3.19993 7.0004 3.38266 7.07609C3.56538 7.15178 3.72156 7.27995 3.83144 7.4444C3.94132 7.60885 3.99997 7.80219 3.99997 7.99997C3.99964 8.26508 3.89418 8.51924 3.70671 8.70671C3.51925 8.89417 3.26509 8.99964 2.99997 8.99997ZM13 8.99997C12.8022 8.99997 12.6089 8.94132 12.4444 8.83144C12.28 8.72156 12.1518 8.56538 12.0761 8.38265C12.0004 8.19993 11.9806 7.99886 12.0192 7.80488C12.0578 7.6109 12.153 7.43271 12.2929 7.29286C12.4327 7.15301 12.6109 7.05777 12.8049 7.01918C12.9989 6.9806 13.1999 7.0004 13.3827 7.07609C13.5654 7.15178 13.7216 7.27995 13.8314 7.4444C13.9413 7.60885 14 7.80219 14 7.99997C13.9996 8.26508 13.8942 8.51924 13.7067 8.70671C13.5192 8.89417 13.2651 8.99964 13 8.99997Z" fill="#161616"/>
<path d="M9.49997 2.49997C9.50108 2.22472 9.42642 1.95447 9.28418 1.71882C9.14194 1.48317 8.9376 1.29119 8.69354 1.16393C8.44948 1.03666 8.1751 0.979 7.90045 0.997264C7.62581 1.01553 7.36148 1.10901 7.13642 1.26748C6.91136 1.42594 6.73424 1.64328 6.62446 1.89569C6.51467 2.1481 6.47646 2.42586 6.514 2.69854C6.55154 2.97122 6.66339 3.22831 6.8373 3.44167C7.0112 3.65502 7.24046 3.81641 7.49997 3.90817V5.99997H8.49997V3.90817C8.7918 3.80564 9.04466 3.61516 9.22374 3.36297C9.40283 3.11078 9.49934 2.80928 9.49997 2.49997Z" fill="#161616"/>
</svg>
