<svg width="16" height="16" viewBox="0 0 16 16" fill="none" xmlns="http://www.w3.org/2000/svg">
<path d="M10.5 12H5.50001V13H10.5V12Z" fill="#161616"/>
<path d="M9.50001 14H6.50001V15H9.50001V14Z" fill="#161616"/>
<path d="M8.00001 1C6.67393 1 5.40216 1.52678 4.46447 2.46447C3.52679 3.40215 3.00001 4.67392 3.00001 6C2.96619 6.72667 3.10539 7.45098 3.40616 8.11335C3.70692 8.77572 4.16064 9.35722 4.73001 9.81C5.23001 10.275 5.50001 10.54 5.50001 11H6.50001C6.50001 10.08 5.94501 9.565 5.40501 9.07C4.93769 8.71213 4.56524 8.24514 4.3203 7.70992C4.07535 7.1747 3.96538 6.58759 4.00001 6C4.00001 4.93913 4.42144 3.92172 5.17158 3.17157C5.92173 2.42143 6.93914 2 8.00001 2C9.06087 2 10.0783 2.42143 10.8284 3.17157C11.5786 3.92172 12 4.93913 12 6C12.0341 6.58802 11.9233 7.17541 11.6775 7.71067C11.4317 8.24592 11.0582 8.71267 10.59 9.07C10.055 9.57 9.50001 10.07 9.50001 11H10.5C10.5 10.54 10.765 10.275 11.27 9.805C11.839 9.35299 12.2925 8.77235 12.5933 8.11085C12.894 7.44935 13.0334 6.72589 13 6C13 5.34339 12.8707 4.69321 12.6194 4.08658C12.3681 3.47995 11.9998 2.92876 11.5355 2.46447C11.0712 2.00017 10.5201 1.63188 9.91342 1.3806C9.3068 1.12933 8.65662 1 8.00001 1Z" fill="#161616"/>
</svg>
