<svg width="16" height="16" viewBox="0 0 16 16" fill="none" xmlns="http://www.w3.org/2000/svg">
<path d="M13.69 14.0001H10.3089L12 10.618L13.69 14.0001ZM12 9.00008C11.9071 9.00005 11.8161 9.02589 11.7371 9.0747C11.6581 9.12352 11.5942 9.19337 11.5527 9.27643L9.05265 14.2764C9.0146 14.3527 8.99665 14.4374 9.00051 14.5225C9.00438 14.6077 9.02993 14.6904 9.07474 14.7629C9.11955 14.8354 9.18214 14.8952 9.25656 14.9367C9.33099 14.9782 9.41478 15 9.5 15.0001H14.5C14.5825 15.0001 14.6638 14.9797 14.7365 14.9407C14.8092 14.9016 14.8712 14.8452 14.9168 14.7765C14.9624 14.7077 14.9903 14.6287 14.998 14.5465C15.0056 14.4643 14.9928 14.3815 14.9607 14.3055L12.4473 9.27643C12.4058 9.19338 12.3419 9.12353 12.2629 9.07472C12.1839 9.02591 12.0929 9.00006 12 9.00008Z" fill="#161616"/>
<path d="M9.373 11.3997C8.70342 11.7609 7.96025 11.9645 7.20008 11.9951C6.43991 12.0256 5.6828 11.8822 4.98641 11.5759C4.29003 11.2696 3.67274 10.8083 3.18156 10.2274C2.69038 9.64639 2.33827 8.96098 2.15205 8.22334C1.96583 7.4857 1.95041 6.71529 2.10696 5.97079C2.26351 5.22629 2.58791 4.52734 3.05545 3.92717C3.52298 3.327 4.12132 2.84145 4.80489 2.5075C5.48845 2.17355 6.23922 2 7 2.00008V7.00008L10.0486 10.0487L10.6586 8.82868C10.7825 8.57911 10.9738 8.36922 11.2109 8.22278C11.448 8.07634 11.7213 7.99919 12 8.00008H12.9097C13.1139 6.78836 12.9409 5.54315 12.4141 4.43298C11.8873 3.32281 11.0322 2.40127 9.96446 1.79308C8.89672 1.18488 7.66791 0.919405 6.44432 1.03257C5.22073 1.14573 4.06145 1.63206 3.12335 2.42576C2.18526 3.21945 1.51365 4.28219 1.19941 5.47014C0.88518 6.65809 0.94349 7.9139 1.36646 9.06763C1.78942 10.2213 2.55662 11.2173 3.56423 11.9206C4.57183 12.624 5.77119 13.0008 7 13.0001C7.57466 12.9995 8.14621 12.9158 8.69695 12.7518L9.373 11.3997Z" fill="#161616"/>
</svg>
