<svg width="16" height="16" viewBox="0 0 16 16" fill="none" xmlns="http://www.w3.org/2000/svg">
<path d="M15 12.0001C15 11.4068 14.8241 10.8267 14.4944 10.3334C14.1648 9.84005 13.6962 9.45554 13.1481 9.22847C12.5999 9.00141 11.9967 8.942 11.4147 9.05776C10.8328 9.17351 10.2982 9.45923 9.87868 9.87879C9.45912 10.2983 9.1734 10.8329 9.05764 11.4148C8.94189 11.9968 9.0013 12.6 9.22836 13.1482C9.45543 13.6963 9.83994 14.1649 10.3333 14.4945C10.8266 14.8242 11.4067 15.0001 12 15.0001C12.7954 14.9992 13.5579 14.6829 14.1204 14.1205C14.6828 13.558 14.9991 12.7955 15 12.0001ZM14 12.0001C13.9981 12.356 13.9002 12.7048 13.7166 13.0096L10.9905 10.2836C11.2953 10.0999 11.6441 10.002 12 10.0001C12.5303 10.0007 13.0386 10.2116 13.4136 10.5866C13.7885 10.9615 13.9994 11.4699 14 12.0001ZM10 12.0001C10.0019 11.6442 10.0998 11.2954 10.2835 10.9906L13.0095 13.7167C12.7047 13.9003 12.3559 13.9982 12 14.0001C11.4698 13.9995 10.9614 13.7886 10.5864 13.4137C10.2115 13.0387 10.0006 12.5304 10 12.0001Z" fill="#161616"/>
<path d="M7 1.00011C6.16668 0.995017 5.34144 1.16357 4.57686 1.49502C3.81228 1.82647 3.12512 2.31356 2.55919 2.92525C1.99325 3.53693 1.56093 4.2598 1.28979 5.04779C1.01865 5.83578 0.914632 6.67161 0.984358 7.50203C1.05408 8.33244 1.29603 9.13922 1.69477 9.87096C2.09352 10.6027 2.64032 11.2434 3.30034 11.7521C3.96035 12.2609 4.71911 12.6265 5.52826 12.8259C6.33741 13.0252 7.1792 13.0537 8 12.9098V11.8993C7.31518 12.0389 6.60868 12.0335 5.92609 11.8832C5.24351 11.733 4.6 11.4413 4.0371 11.0271C3.4742 10.6128 3.0044 10.0851 2.65803 9.47802C2.31166 8.87096 2.0964 8.19803 2.02616 7.50265C1.95591 6.80727 2.03223 6.10488 2.2502 5.44082C2.46816 4.77675 2.82293 4.16576 3.2916 3.64727C3.76028 3.12877 4.33245 2.7143 4.9712 2.43059C5.60995 2.14687 6.30108 2.00023 7 2.00011V7.00011L9.1715 9.17176C9.54253 8.79975 9.98342 8.50474 10.4688 8.30366C10.9542 8.10259 11.4746 7.99943 12 8.00011H12.9097C13.0613 7.13944 13.022 6.25595 12.7945 5.41215C12.567 4.56834 12.1568 3.78484 11.5931 3.11706C11.0293 2.44928 10.3257 1.91353 9.53199 1.54772C8.7383 1.18191 7.87392 0.994963 7 1.00011Z" fill="#161616"/>
</svg>
