<svg width="16" height="16" viewBox="0 0 16 16" fill="none" xmlns="http://www.w3.org/2000/svg">
<path d="M15 1.70695L14.2929 0.999899L0.99999 14.2928L1.70704 14.9999L3.42869 13.2782C4.76181 14.442 6.48718 15.056 8.25579 14.9961C10.0244 14.9362 11.7043 14.2068 12.9556 12.9555C14.2069 11.7042 14.9363 10.0243 14.9962 8.25569C15.0561 6.48707 14.442 4.76172 13.2782 3.4286L15 1.70695ZM14 7.9999C14.0025 9.1441 13.6771 10.2651 13.0623 11.2301C12.4475 12.1951 11.569 12.9636 10.5309 13.4448C9.49277 13.926 8.33851 14.0996 7.20478 13.9451C6.07106 13.7905 5.00536 13.3144 4.13389 12.5729L7.49999 9.20695V10.9999H6.49999V11.9999H9.99999V10.9999H8.49999V8.20695L12.573 4.13395C13.4941 5.2114 14.0002 6.58238 14 7.9999Z" fill="#161616"/>
<path d="M7.99999 3.9999C7.85165 3.9999 7.70665 4.04389 7.58331 4.1263C7.45998 4.20871 7.36385 4.32584 7.30708 4.46289C7.25031 4.59993 7.23546 4.75073 7.2644 4.89622C7.29334 5.0417 7.36477 5.17534 7.46966 5.28023C7.57455 5.38512 7.70819 5.45655 7.85367 5.48549C7.99916 5.51443 8.14996 5.49957 8.287 5.44281C8.42405 5.38604 8.54118 5.28991 8.62359 5.16658C8.706 5.04324 8.74999 4.89823 8.74999 4.7499C8.74999 4.55099 8.67097 4.36022 8.53032 4.21957C8.38967 4.07892 8.1989 3.9999 7.99999 3.9999Z" fill="#161616"/>
<path d="M2.83498 11.0425C2.15753 9.89795 1.88018 8.56049 2.04665 7.24091C2.21312 5.92133 2.81393 4.69465 3.75442 3.75418C4.6949 2.8137 5.92159 2.2129 7.24117 2.04645C8.56075 1.88 9.89821 2.15736 11.0428 2.83483L11.77 2.10798C10.4271 1.2459 8.82982 0.869053 7.24326 1.04001C5.65669 1.21097 4.17633 1.91945 3.04796 3.04781C1.91959 4.17617 1.2111 5.65653 1.04014 7.2431C0.86917 8.82966 1.24601 10.427 2.10808 11.7698L2.83498 11.0425Z" fill="#161616"/>
</svg>
