<svg width="16" height="16" viewBox="0 0 16 16" fill="none" xmlns="http://www.w3.org/2000/svg">
<path d="M10.085 8.00005L8.79501 9.29005L9.50001 10L11.5 8.00005L9.50001 6.00005L8.79001 6.70505L10.085 8.00005Z" fill="#161616"/>
<path d="M5.91501 8.00005L7.20501 6.71005L6.50001 6.00005L4.50001 8.00005L6.50001 10L7.21001 9.29505L5.91501 8.00005Z" fill="#161616"/>
<path d="M13.5 11.071V4.92905C13.8411 4.84157 14.153 4.66539 14.4041 4.4184C14.6551 4.17141 14.8363 3.86239 14.9292 3.52273C15.0222 3.18306 15.0237 2.82485 14.9334 2.48444C14.8432 2.14404 14.6645 1.83357 14.4155 1.58456C14.1665 1.33554 13.856 1.15685 13.5156 1.06662C13.1752 0.976392 12.817 0.977839 12.4773 1.07082C12.1377 1.16379 11.8287 1.34499 11.5817 1.59601C11.3347 1.84702 11.1585 2.15893 11.071 2.50005H4.92901C4.84153 2.15893 4.66536 1.84702 4.41836 1.59601C4.17137 1.34499 3.86235 1.16379 3.52269 1.07082C3.18303 0.977839 2.82481 0.976392 2.48441 1.06662C2.144 1.15685 1.83353 1.33554 1.58452 1.58456C1.3355 1.83357 1.15681 2.14404 1.06658 2.48444C0.976354 2.82485 0.977801 3.18306 1.07078 3.52273C1.16375 3.86239 1.34495 4.17141 1.59597 4.4184C1.84699 4.66539 2.15889 4.84157 2.50001 4.92905V11.071C2.15889 11.1585 1.84699 11.3347 1.59597 11.5817C1.34495 11.8287 1.16375 12.1377 1.07078 12.4774C0.977801 12.817 0.976354 13.1752 1.06658 13.5157C1.15681 13.8561 1.3355 14.1665 1.58452 14.4155C1.83353 14.6646 2.144 14.8432 2.48441 14.9335C2.82481 15.0237 3.18303 15.0223 3.52269 14.9293C3.86235 14.8363 4.17137 14.6551 4.41836 14.4041C4.66536 14.1531 4.84153 13.8412 4.92901 13.5H11.071C11.1585 13.8412 11.3347 14.1531 11.5817 14.4041C11.8287 14.6551 12.1377 14.8363 12.4773 14.9293C12.817 15.0223 13.1752 15.0237 13.5156 14.9335C13.856 14.8432 14.1665 14.6646 14.4155 14.4155C14.6645 14.1665 14.8432 13.8561 14.9334 13.5157C15.0237 13.1752 15.0222 12.817 14.9292 12.4774C14.8363 12.1377 14.6551 11.8287 14.4041 11.5817C14.153 11.3347 13.8411 11.1585 13.5 11.071ZM13 2.00005C13.1978 2.00005 13.3911 2.0587 13.5556 2.16858C13.72 2.27846 13.8482 2.43464 13.9239 2.61736C13.9996 2.80009 14.0194 3.00116 13.9808 3.19514C13.9422 3.38912 13.847 3.5673 13.7071 3.70715C13.5673 3.84701 13.3891 3.94225 13.1951 3.98083C13.0011 4.01942 12.8001 3.99962 12.6173 3.92393C12.4346 3.84824 12.2784 3.72007 12.1685 3.55562C12.0587 3.39117 12 3.19783 12 3.00005C12.0003 2.73492 12.1058 2.48075 12.2932 2.29328C12.4807 2.10581 12.7349 2.00035 13 2.00005ZM2.00001 3.00005C2.00001 2.80227 2.05866 2.60893 2.16854 2.44448C2.27842 2.28003 2.4346 2.15186 2.61733 2.07617C2.80005 2.00048 3.00112 1.98068 3.1951 2.01926C3.38908 2.05785 3.56726 2.15309 3.70712 2.29294C3.84697 2.43279 3.94221 2.61098 3.9808 2.80496C4.01938 2.99894 3.99958 3.20001 3.92389 3.38273C3.8482 3.56546 3.72003 3.72164 3.55558 3.83152C3.39113 3.9414 3.19779 4.00005 3.00001 4.00005C2.73487 3.99978 2.48067 3.89434 2.2932 3.70686C2.10572 3.51938 2.00027 3.26518 2.00001 3.00005ZM3.00001 14C2.80223 14 2.60889 13.9414 2.44444 13.8315C2.27999 13.7216 2.15182 13.5655 2.07613 13.3827C2.00044 13.2 1.98064 12.9989 2.01922 12.805C2.05781 12.611 2.15305 12.4328 2.2929 12.2929C2.43276 12.1531 2.61094 12.0578 2.80492 12.0193C2.9989 11.9807 3.19997 12.0005 3.38269 12.0762C3.56542 12.1519 3.7216 12.28 3.83148 12.4445C3.94136 12.6089 4.00001 12.8023 4.00001 13C3.99971 13.2652 3.89425 13.5193 3.70678 13.7068C3.51931 13.8943 3.26513 13.9997 3.00001 14ZM11.071 12.5H4.92901C4.83946 12.1563 4.65983 11.8426 4.40863 11.5914C4.15744 11.3402 3.84378 11.1606 3.50001 11.071V4.92905C3.84376 4.83945 4.15739 4.6598 4.40857 4.40861C4.65976 4.15743 4.83941 3.84379 4.92901 3.50005H11.071C11.1606 3.84382 11.3402 4.15748 11.5914 4.40867C11.8426 4.65986 12.1562 4.8395 12.5 4.92905V11.071C12.1562 11.1606 11.8426 11.3402 11.5914 11.5914C11.3402 11.8426 11.1605 12.1563 11.071 12.5ZM13 14C12.8022 14 12.6089 13.9414 12.4444 13.8315C12.28 13.7216 12.1518 13.5655 12.0761 13.3827C12.0004 13.2 11.9806 12.9989 12.0192 12.805C12.0578 12.611 12.1531 12.4328 12.2929 12.2929C12.4328 12.1531 12.6109 12.0578 12.8049 12.0193C12.9989 11.9807 13.2 12.0005 13.3827 12.0762C13.5654 12.1519 13.7216 12.28 13.8315 12.4445C13.9414 12.6089 14 12.8023 14 13C13.9997 13.2652 13.8942 13.5193 13.7067 13.7068C13.5193 13.8942 13.2651 13.9997 13 14Z" fill="#161616"/>
</svg>
