<svg width="16" height="16" viewBox="0 0 16 16" fill="none" xmlns="http://www.w3.org/2000/svg">
<path d="M11.75 10.5001H11.5V9.50005H11.75C12.3312 9.50029 12.8898 9.27555 13.3089 8.87294C13.7279 8.47034 13.9749 7.92114 13.9979 7.34047C14.021 6.7598 13.8183 6.19276 13.4325 5.75822C13.0466 5.32367 12.5075 5.05537 11.9282 5.00955L11.5205 4.9776L11.4712 4.5716C11.3674 3.72414 10.9571 2.94395 10.3177 2.37812C9.67837 1.81229 8.85407 1.49993 8.00028 1.49993C7.14648 1.49993 6.32218 1.81229 5.6828 2.37812C5.04343 2.94395 4.63315 3.72414 4.52933 4.5716L4.47978 4.9776L4.07203 5.00955C3.49273 5.05537 2.95366 5.32366 2.56781 5.75818C2.18197 6.1927 1.97932 6.75972 2.00233 7.34037C2.02535 7.92102 2.27225 8.47022 2.69128 8.87284C3.1103 9.27546 3.66892 9.50023 4.25003 9.50005H4.50003V10.5001H4.25003C3.44473 10.5004 2.66801 10.2017 2.07053 9.66174C1.47304 9.12183 1.09738 8.37925 1.01641 7.57804C0.93544 6.77683 1.15494 5.97411 1.63232 5.32557C2.1097 4.67704 2.81095 4.22892 3.60003 4.06815C3.81308 3.05901 4.36654 2.15376 5.16764 1.50414C5.96874 0.85452 6.96878 0.5 8.00017 0.5C9.03156 0.5 10.0316 0.85452 10.8327 1.50414C11.6338 2.15376 12.1873 3.05901 12.4003 4.06815C13.1893 4.22903 13.8905 4.67721 14.3678 5.32575C14.8451 5.9743 15.0645 6.77699 14.9835 7.57815C14.9025 8.37931 14.5268 9.12183 13.9294 9.66171C13.3319 10.2016 12.5553 10.5004 11.75 10.5001Z" fill="#161616"/>
<path d="M4.50003 14.0001C4.77617 14.0001 5.00003 13.7762 5.00003 13.5001C5.00003 13.2239 4.77617 13.0001 4.50003 13.0001C4.22388 13.0001 4.00003 13.2239 4.00003 13.5001C4.00003 13.7762 4.22388 14.0001 4.50003 14.0001Z" fill="#161616"/>
<path d="M13 11.5001H8.50003V7.91505L9.79503 9.20505L10.5 8.50005L8.00003 6.00005L5.50003 8.50005L6.20503 9.20505L7.50003 7.91505V11.5001H3.00003C2.7349 11.5004 2.48073 11.6058 2.29325 11.7933C2.10578 11.9808 2.00033 12.2349 2.00003 12.5001V14.5001C2.00033 14.7652 2.10578 15.0194 2.29325 15.2068C2.48073 15.3943 2.7349 15.4997 3.00003 15.5001H13C13.2651 15.4997 13.5193 15.3943 13.7068 15.2068C13.8943 15.0194 13.9997 14.7652 14 14.5001V12.5001C13.9997 12.2349 13.8943 11.9808 13.7068 11.7933C13.5193 11.6058 13.2651 11.5004 13 11.5001ZM13 14.5001H3.00003V12.5001H13V14.5001Z" fill="#161616"/>
</svg>
