<svg width="16" height="16" viewBox="0 0 16 16" fill="none" xmlns="http://www.w3.org/2000/svg">
<path d="M14.94 7.76L11.94 2.26C11.8969 2.18109 11.8332 2.11529 11.7558 2.06954C11.6783 2.02378 11.59 1.99976 11.5 2H4.50003C4.41008 1.99976 4.32174 2.02378 4.2443 2.06954C4.16686 2.11529 4.1032 2.18109 4.06003 2.26L1.06003 7.76C1.01615 7.83601 0.993042 7.92223 0.993042 8.01C0.993042 8.09777 1.01615 8.18399 1.06003 8.26L4.06003 13.76C4.10576 13.8352 4.17053 13.897 4.24779 13.9391C4.32504 13.9813 4.41206 14.0023 4.50003 14H11.5C11.59 14.0002 11.6783 13.9762 11.7558 13.9305C11.8332 13.8847 11.8969 13.8189 11.94 13.74L14.94 8.24C14.9803 8.16642 15.0014 8.08388 15.0014 8C15.0014 7.91612 14.9803 7.83359 14.94 7.76ZM11.465 3.5L13.66 7.5H8.91003L11.465 3.5ZM8.00003 7.07L5.41003 3H10.59L8.00003 7.07ZM4.53503 3.5L7.09003 7.5H2.34003L4.53503 3.5ZM2.34003 8.5H7.09003L4.53503 12.5L2.34003 8.5ZM8.00003 8.93L10.59 13H5.41003L8.00003 8.93ZM11.465 12.5L8.91003 8.5H13.66L11.465 12.5Z" fill="#161616"/>
</svg>
