<svg width="16" height="16" viewBox="0 0 16 16" fill="none" xmlns="http://www.w3.org/2000/svg">
<path d="M10 3.00003C9.31094 2.99981 8.62934 3.14273 7.9984 3.41973C8.89036 3.80801 9.64955 4.44827 10.1828 5.26193C10.716 6.07558 11 7.02723 11 8.00003C11 8.97284 10.716 9.92448 10.1828 10.7381C9.64955 11.5518 8.89036 12.1921 7.9984 12.5803C8.67952 12.8781 9.41847 13.0201 10.1614 12.9962C10.9044 12.9724 11.6327 12.7831 12.2933 12.4422C12.9539 12.1013 13.5301 11.6175 13.9801 11.0258C14.4301 10.4341 14.7424 9.74951 14.8945 9.02187C15.0465 8.29424 15.0343 7.54186 14.8589 6.81951C14.6835 6.09716 14.3491 5.42302 13.8803 4.84618C13.4114 4.26934 12.8199 3.80431 12.1486 3.48494C11.4774 3.16558 10.7434 2.99992 10 3.00003Z" fill="#161616"/>
<path d="M5 8.00003C4.99964 8.74931 5.16809 9.48904 5.49284 10.1643C5.8176 10.8395 6.2903 11.4329 6.87585 11.9004C7.76231 11.7021 8.55476 11.2077 9.12264 10.4987C9.69052 9.7897 9.99995 8.90841 9.99995 8.00003C9.99995 7.09165 9.69052 6.21037 9.12264 5.50138C8.55476 4.79239 7.76231 4.29799 6.87585 4.09963C6.2903 4.56713 5.8176 5.16053 5.49284 5.83578C5.16809 6.51102 4.99964 7.25075 5 8.00003Z" fill="#161616"/>
<path d="M6 12C5.43659 12.0016 4.8792 11.8841 4.36435 11.6553C3.84949 11.4265 3.38878 11.0915 3.01239 10.6722C2.636 10.253 2.35243 9.75898 2.18024 9.22252C2.00805 8.68606 1.95113 8.11928 2.01321 7.5593C2.07529 6.99932 2.25497 6.45877 2.54048 5.97305C2.82599 5.48734 3.21089 5.06742 3.66996 4.7408C4.12904 4.41417 4.65194 4.18821 5.20441 4.07772C5.75688 3.96723 6.32647 3.9747 6.87585 4.09963C7.21845 3.82451 7.5959 3.59597 7.9984 3.41973C7.23743 3.08659 6.40545 2.94819 5.57763 3.01723C4.74981 3.08627 3.95223 3.36048 3.25696 3.81508C2.56169 4.26967 1.99064 4.89033 1.5954 5.62098C1.20016 6.35163 0.993195 7.16924 0.993195 7.99993C0.993195 8.83063 1.20016 9.64824 1.5954 10.3789C1.99064 11.1095 2.56169 11.7302 3.25696 12.1848C3.95223 12.6394 4.74981 12.9136 5.57763 12.9826C6.40545 13.0517 7.23743 12.9135 7.9984 12.5803C7.5959 12.4041 7.21845 12.1756 6.87585 11.9004C6.58849 11.966 6.29474 11.9992 6 12Z" fill="#161616"/>
</svg>
