<svg width="16" height="16" viewBox="0 0 16 16" fill="none" xmlns="http://www.w3.org/2000/svg">
<path d="M12.5 5.00001C11.9847 5.01377 11.4848 4.82277 11.11 4.46882C10.7351 4.11487 10.5158 3.62682 10.5 3.11151C10.5094 2.74361 10.6226 2.38585 10.8267 2.07956L12.085 0.207065C12.1334 0.142768 12.196 0.0905947 12.268 0.0546644C12.34 0.0187341 12.4194 3.05176e-05 12.4998 3.05176e-05C12.5803 3.05176e-05 12.6596 0.0187341 12.7316 0.0546644C12.8036 0.0905947 12.8663 0.142768 12.9146 0.207065L14.1577 2.05501C14.37 2.36743 14.4888 2.73395 14.5 3.11151C14.4842 3.62682 14.2649 4.11487 13.89 4.46882C13.5152 4.82277 13.0154 5.01377 12.5 5.00001ZM12.5 1.38161L11.6719 2.61286C11.5685 2.7594 11.5088 2.93235 11.5 3.11151C11.529 3.35635 11.6469 3.58203 11.8312 3.74578C12.0155 3.90954 12.2535 3.99999 12.5 3.99999C12.7466 3.99999 12.9845 3.90954 13.1689 3.74578C13.3532 3.58203 13.471 3.35635 13.5 3.11151C13.4888 2.92275 13.4237 2.74116 13.3125 2.58821L12.5 1.38161Z" fill="#161616"/>
<path d="M14.9927 7.91501C14.8429 7.06027 14.5352 6.24091 14.0854 5.49886L13.2165 6.00051C13.4319 6.35012 13.6112 6.72077 13.7515 7.10671C13.5072 7.036 13.2543 7.00007 13 7.00001C12.2885 7.00213 11.5971 7.23612 11.0305 7.66651C11.0347 6.04945 10.4987 4.4773 9.50772 3.19946C9.20681 2.83301 8.86914 2.49835 8.50002 2.20071V1.00001H7.50002V2.02321C5.9196 2.15195 4.42605 2.79949 3.2518 3.86507C2.07755 4.93064 1.28846 6.35448 1.00732 7.91501C0.991106 8.00913 1.00218 8.10591 1.03924 8.19393C1.0763 8.28195 1.13779 8.35751 1.21644 8.41168C1.29509 8.46585 1.3876 8.49636 1.48305 8.49961C1.57849 8.50286 1.67287 8.47871 1.75502 8.43001C2.12246 8.17468 2.55332 8.02587 3.00002 8.00001C3.42467 8.0103 3.83922 8.13159 4.20244 8.35183C4.56566 8.57207 4.86487 8.88358 5.07032 9.25536C5.11797 9.32543 5.18204 9.38279 5.25693 9.42243C5.33183 9.46207 5.41528 9.48279 5.50002 9.48279C5.58476 9.48279 5.66821 9.46207 5.74311 9.42243C5.818 9.38279 5.88207 9.32543 5.92972 9.25536C6.0974 8.96087 6.32298 8.70337 6.59285 8.49841C6.86273 8.29344 7.17132 8.14525 7.50002 8.06276V12.75C7.50002 13.0815 7.36832 13.3995 7.1339 13.6339C6.89948 13.8683 6.58154 14 6.25002 14C5.9185 14 5.60056 13.8683 5.36614 13.6339C5.13172 13.3995 5.00002 13.0815 5.00002 12.75V12.5H4.00002V12.75C4.00002 13.3468 4.23707 13.919 4.65903 14.341C5.08099 14.763 5.65328 15 6.25002 15C6.84676 15 7.41905 14.763 7.84101 14.341C8.26297 13.919 8.50002 13.3468 8.50002 12.75V8.06276C8.82872 8.14525 9.13731 8.29344 9.40719 8.49841C9.67706 8.70337 9.90264 8.96087 10.0703 9.25536C10.1146 9.32991 10.1775 9.39166 10.2528 9.43456C10.3281 9.47745 10.4133 9.5 10.5 9.5C10.5867 9.5 10.6719 9.47745 10.7472 9.43456C10.8226 9.39166 10.8855 9.32991 10.9297 9.25536C11.1352 8.88358 11.4344 8.57207 11.7976 8.35183C12.1608 8.13159 12.5754 8.0103 13 8.00001C13.4467 8.02587 13.8776 8.17468 14.245 8.43001C14.3272 8.47876 14.4216 8.50294 14.517 8.49972C14.6125 8.49649 14.7051 8.46598 14.7837 8.4118C14.8624 8.35763 14.9239 8.28204 14.961 8.194C14.998 8.10596 15.009 8.00915 14.9927 7.91501ZM4.96952 7.66651C4.40295 7.23612 3.71152 7.00213 3.00002 7.00001C2.74568 7.00005 2.49262 7.03597 2.24832 7.10671C2.58765 6.16115 3.15094 5.31183 3.89002 4.6314C4.6291 3.95096 5.52199 3.45964 6.49232 3.19946C5.50125 4.47726 4.9653 6.04943 4.96952 7.66651ZM8.00002 7.00001C7.26272 7.00346 6.54813 7.25549 5.97182 7.71536C5.99072 6.60536 6.27627 4.47036 8.00002 3.12721C9.71537 4.46561 10.0045 6.60156 10.0261 7.71361C9.45015 7.25479 8.73639 7.00341 8.00002 7.00001Z" fill="#161616"/>
</svg>
