<svg width="16" height="16" viewBox="0 0 16 16" fill="none" xmlns="http://www.w3.org/2000/svg">
<path d="M13 12.0024H3C2.73488 12.0021 2.4807 11.8967 2.29323 11.7092C2.10576 11.5217 2.0003 11.2676 2 11.0024V4.00244C2.00026 3.73731 2.10571 3.48311 2.29319 3.29563C2.48066 3.10815 2.73486 3.00271 3 3.00244H13C13.2651 3.00275 13.5193 3.1082 13.7068 3.29567C13.8942 3.48314 13.9997 3.73732 14 4.00244V11.0024C13.9996 11.2675 13.8942 11.5217 13.7067 11.7092C13.5193 11.8966 13.2651 12.0021 13 12.0024ZM3 4.00244V11.0024H13V4.00244H3Z" fill="#161616"/>
<path d="M15 13.0024H1V14.0024H15V13.0024Z" fill="#161616"/>
</svg>
