<svg width="16" height="16" viewBox="0 0 16 16" fill="none" xmlns="http://www.w3.org/2000/svg">
<path d="M14.8123 1.10958C14.7358 1.04842 14.643 1.01105 14.5455 1.00211C14.448 0.99317 14.35 1.01305 14.2637 1.05928L8.96765 3.89993L1.683 1.03463C1.59066 0.99828 1.48959 0.990228 1.39266 1.0115C1.29573 1.03278 1.20732 1.08241 1.13869 1.15409C1.07006 1.22577 1.02432 1.31626 1.00727 1.41402C0.990234 1.51178 1.00267 1.61241 1.043 1.70308L4.26065 8.94258C3.9715 9.16888 3.75087 9.47103 3.62336 9.81536C3.49585 10.1597 3.46647 10.5327 3.5385 10.8927C3.61053 11.2528 3.78113 11.5857 4.03129 11.8545C4.28145 12.1233 4.60134 12.3173 4.9553 12.4149C4.85981 12.8629 4.61363 13.2646 4.25781 13.553C3.90199 13.8415 3.45804 13.9992 3 13.9999H2V14.9999H3C3.71867 14.9986 4.41303 14.7396 4.95692 14.2698C5.50081 13.8 5.85815 13.1508 5.964 12.4399C6.31554 12.3547 6.63742 12.1758 6.89538 11.9223C7.15335 11.6687 7.33776 11.35 7.429 10.9999H11.62C11.8386 11 12.0512 10.9283 12.2252 10.7961C12.3993 10.6638 12.5252 10.4781 12.5837 10.2675L14.9817 1.63373C15.0079 1.53937 15.0058 1.4394 14.9757 1.34622C14.9455 1.25304 14.8887 1.17075 14.8123 1.10958ZM5.5 11.4999C5.30222 11.4999 5.10888 11.4413 4.94443 11.3314C4.77998 11.2215 4.65181 11.0653 4.57612 10.8826C4.50043 10.6999 4.48063 10.4988 4.51922 10.3048C4.5578 10.1109 4.65304 9.93268 4.79289 9.79282C4.93275 9.65297 5.11093 9.55773 5.30491 9.51915C5.49889 9.48056 5.69996 9.50036 5.88268 9.57605C6.06541 9.65174 6.22159 9.77991 6.33147 9.94436C6.44135 10.1088 6.5 10.3021 6.5 10.4999C6.49967 10.765 6.39421 11.0192 6.20674 11.2067C6.01928 11.3941 5.76512 11.4996 5.5 11.4999ZM11.62 9.99993H7.42895C7.31368 9.51227 7.01497 9.08777 6.59487 8.81462C6.17477 8.54146 5.66559 8.44065 5.1731 8.53313L2.4525 2.41183L9.03235 4.99993L13.705 2.49383L11.62 9.99993Z" fill="#161616"/>
</svg>
