<svg width="16" height="16" viewBox="0 0 16 16" fill="none" xmlns="http://www.w3.org/2000/svg">
<path d="M7.99998 12C7.91721 12 7.83574 11.9794 7.76293 11.94L1.26293 8.43999L1.73703 7.55999L7.99998 10.9321L14.2629 7.55999L14.737 8.44034L8.23703 11.9403C8.16419 11.9796 8.08272 12.0001 7.99998 12Z" fill="#161616"/>
<path d="M7.99998 15C7.91721 15 7.83574 14.9794 7.76293 14.94L1.26293 11.44L1.73703 10.56L7.99998 13.9321L14.2629 10.56L14.737 11.4403L8.23703 14.9403C8.16419 14.9796 8.08272 15.0001 7.99998 15Z" fill="#161616"/>
<path d="M7.99998 8.99999C7.91721 8.99999 7.83574 8.97937 7.76293 8.93999L1.26293 5.43999C1.18347 5.39718 1.11708 5.33365 1.0708 5.25616C1.02453 5.17866 1.00009 5.09008 1.00009 4.99982C1.00009 4.90956 1.02453 4.82098 1.0708 4.74348C1.11708 4.66598 1.18347 4.60246 1.26293 4.55964L7.76293 1.05964C7.83576 1.02034 7.91722 0.999756 7.99998 0.999756C8.08274 0.999756 8.1642 1.02034 8.23703 1.05964L14.737 4.55964C14.8165 4.60246 14.8829 4.66598 14.9292 4.74348C14.9754 4.82098 14.9999 4.90956 14.9999 4.99982C14.9999 5.09008 14.9754 5.17866 14.9292 5.25616C14.8829 5.33365 14.8165 5.39718 14.737 5.43999L8.23703 8.93999C8.16422 8.97937 8.08275 8.99999 7.99998 8.99999ZM2.55468 4.99999L7.99998 7.93214L13.4453 4.99999L7.99998 2.06789L2.55468 4.99999Z" fill="#161616"/>
</svg>
