<svg width="16" height="16" viewBox="0 0 16 16" fill="none" xmlns="http://www.w3.org/2000/svg">
<path d="M15 11.0001H7.99998V12.0001H15V11.0001Z" fill="#161616"/>
<path d="M4.49998 10.0001H2.49998C2.22384 10.0001 1.99998 10.2239 1.99998 10.5001V12.5001C1.99998 12.7762 2.22384 13.0001 2.49998 13.0001H4.49998C4.77612 13.0001 4.99998 12.7762 4.99998 12.5001V10.5001C4.99998 10.2239 4.77612 10.0001 4.49998 10.0001Z" fill="#161616"/>
<path d="M15 4.00008H7.99998V5.00008H15V4.00008Z" fill="#161616"/>
<path d="M4.74998 6.00008H2.24998C2.20736 6.00009 2.16545 5.9892 2.12823 5.96845C2.091 5.9477 2.0597 5.91778 2.03729 5.88153C2.01488 5.84528 2.00211 5.8039 2.00019 5.76133C1.99827 5.71876 2.00727 5.6764 2.02633 5.63828L3.27633 3.12708C3.29941 3.08834 3.33215 3.05627 3.37135 3.03399C3.41055 3.01171 3.45487 3 3.49996 3C3.54504 3 3.58936 3.01171 3.62856 3.03399C3.66776 3.05627 3.7005 3.08834 3.72358 3.12708L4.97358 5.63833C4.99263 5.67644 5.00161 5.71879 4.99969 5.76135C4.99777 5.80392 4.985 5.84528 4.9626 5.88152C4.9402 5.91776 4.90891 5.94768 4.8717 5.96843C4.83448 5.98918 4.79259 6.00007 4.74998 6.00008Z" fill="#161616"/>
</svg>
