<svg width="16" height="16" viewBox="0 0 16 16" fill="none" xmlns="http://www.w3.org/2000/svg">
<path d="M7.5 5.49999V4.50999H3.5V11.5H7.5V10.5H4.5V8.49999H7V7.49999H4.5V5.49999H7.5Z" fill="#161616"/>
<path d="M12.5 9.49999V7.49999C12.5 7.23478 12.3946 6.98042 12.2071 6.79289C12.0196 6.60535 11.7652 6.49999 11.5 6.49999H9.5C9.23478 6.49999 8.98043 6.60535 8.79289 6.79289C8.60536 6.98042 8.5 7.23478 8.5 7.49999V10.5C8.5 10.7652 8.60536 11.0196 8.79289 11.2071C8.98043 11.3946 9.23478 11.5 9.5 11.5H12V10.5H9.5V9.49999H12.5ZM9.5 7.49999H11.5V8.49999H9.5V7.49999Z" fill="#161616"/>
</svg>
