<svg width="16" height="16" viewBox="0 0 16 16" fill="none" xmlns="http://www.w3.org/2000/svg">
<path d="M5.80502 14.9602C5.7027 14.917 5.61767 14.841 5.56335 14.7441C5.50902 14.6472 5.4885 14.535 5.50502 14.4252L6.41502 8.50018H4.00002C3.92346 8.50224 3.84744 8.48668 3.77785 8.45471C3.70825 8.42274 3.64693 8.3752 3.59861 8.31577C3.5503 8.25635 3.51628 8.18661 3.49918 8.11196C3.48209 8.0373 3.48238 7.95971 3.50002 7.88518L5.00002 1.38518C5.02641 1.27331 5.09054 1.17396 5.18161 1.10384C5.27268 1.03371 5.38512 0.997107 5.50002 1.00018H10.5C10.5747 0.999925 10.6485 1.01641 10.716 1.04842C10.7835 1.08044 10.843 1.12717 10.89 1.18518C10.9377 1.24384 10.9715 1.31257 10.9889 1.38619C11.0062 1.4598 11.0066 1.53639 10.99 1.61018L10.125 5.50018H12.5C12.5937 5.49999 12.6856 5.52614 12.7652 5.57565C12.8447 5.62516 12.9088 5.69603 12.95 5.78018C12.9859 5.86095 12.9996 5.94977 12.99 6.0376C12.9803 6.12543 12.9476 6.20913 12.895 6.28018L6.39502 14.7802C6.35109 14.8453 6.29243 14.8992 6.22381 14.9374C6.15518 14.9756 6.07851 14.9971 6.00002 15.0002C5.93312 14.9989 5.86701 14.9854 5.80502 14.9602ZM8.87502 6.50018L9.87502 2.00018H5.90002L4.63002 7.50018H7.58502L6.79002 12.6402L11.5 6.50018H8.87502Z" fill="#161616"/>
</svg>
