<svg width="16" height="16" viewBox="0 0 16 16" fill="none" xmlns="http://www.w3.org/2000/svg">
<path d="M11 7.49992H5V8.49992H11V7.49992Z" fill="#161616"/>
<path d="M4.35 3.14252C4.44762 2.9423 4.49889 2.72266 4.5 2.49992C4.5 2.20325 4.41203 1.91324 4.24721 1.66656C4.08238 1.41989 3.84811 1.22763 3.57403 1.1141C3.29994 1.00057 2.99834 0.970861 2.70737 1.02874C2.41639 1.08662 2.14912 1.22948 1.93934 1.43926C1.72956 1.64904 1.5867 1.91631 1.52882 2.20728C1.47094 2.49825 1.50065 2.79985 1.61418 3.07394C1.72771 3.34803 1.91997 3.5823 2.16665 3.74712C2.41332 3.91194 2.70333 3.99992 3 3.99992C3.22279 3.99879 3.44245 3.94738 3.6426 3.84952L5 5.20697V6.49992H6V4.79287L4.35 3.14252ZM3 2.99992C2.90111 2.99992 2.80444 2.97059 2.72222 2.91565C2.63999 2.86071 2.5759 2.78262 2.53806 2.69126C2.50022 2.5999 2.49032 2.49936 2.50961 2.40237C2.5289 2.30538 2.57652 2.21629 2.64645 2.14636C2.71637 2.07644 2.80547 2.02882 2.90246 2.00952C2.99945 1.99023 3.09998 2.00013 3.19134 2.03798C3.28271 2.07582 3.36079 2.13991 3.41574 2.22213C3.47068 2.30436 3.5 2.40103 3.5 2.49992C3.49988 2.63249 3.44716 2.7596 3.35342 2.85334C3.25968 2.94708 3.13257 2.9998 3 2.99992Z" fill="#161616"/>
<path d="M9.5 2.49992C9.5012 2.22465 9.42662 1.95435 9.28444 1.71864C9.14225 1.48293 8.93795 1.29089 8.6939 1.16355C8.44985 1.03621 8.17547 0.978485 7.90079 0.996694C7.62612 1.0149 7.36176 1.10834 7.13665 1.26678C6.91155 1.42522 6.73438 1.64255 6.62456 1.89497C6.51474 2.14739 6.47649 2.42516 6.51401 2.69786C6.55154 2.97057 6.66338 3.22769 6.83729 3.44107C7.0112 3.65445 7.24047 3.81586 7.5 3.90762V6.49992H8.5V3.90787C8.79162 3.8051 9.04429 3.6146 9.22333 3.36252C9.40238 3.11043 9.49902 2.80911 9.5 2.49992ZM8 2.99992C7.90111 2.99992 7.80444 2.97059 7.72222 2.91565C7.63999 2.86071 7.5759 2.78262 7.53806 2.69126C7.50022 2.5999 7.49032 2.49936 7.50961 2.40237C7.5289 2.30538 7.57652 2.21629 7.64645 2.14636C7.71637 2.07644 7.80546 2.02882 7.90246 2.00952C7.99945 1.99023 8.09998 2.00013 8.19134 2.03798C8.2827 2.07582 8.3608 2.13991 8.41574 2.22213C8.47068 2.30436 8.5 2.40103 8.5 2.49992C8.49988 2.63249 8.44717 2.7596 8.35342 2.85334C8.25968 2.94708 8.13257 2.9998 8 2.99992Z" fill="#161616"/>
<path d="M13 0.999917C12.6023 1.00035 12.221 1.15853 11.9398 1.43974C11.6586 1.72095 11.5004 2.10223 11.5 2.49992C11.5011 2.72266 11.5524 2.9423 11.65 3.14252L10 4.79287V6.49992H11V5.20697L12.3574 3.84952C12.5576 3.94738 12.7772 3.99879 13 3.99992C13.3978 3.99992 13.7794 3.84188 14.0607 3.56058C14.342 3.27927 14.5 2.89774 14.5 2.49992C14.5 2.10209 14.342 1.72056 14.0607 1.43926C13.7794 1.15795 13.3978 0.999917 13 0.999917ZM13 2.99992C12.9011 2.99992 12.8044 2.97059 12.7222 2.91565C12.64 2.86071 12.5759 2.78262 12.5381 2.69126C12.5002 2.5999 12.4903 2.49936 12.5096 2.40237C12.5289 2.30538 12.5765 2.21629 12.6464 2.14636C12.7164 2.07644 12.8055 2.02882 12.9025 2.00952C12.9994 1.99023 13.1 2.00013 13.1913 2.03798C13.2827 2.07582 13.3608 2.13991 13.4157 2.22213C13.4707 2.30436 13.5 2.40103 13.5 2.49992C13.4999 2.63249 13.4472 2.7596 13.3534 2.85334C13.2597 2.94708 13.1326 2.9998 13 2.99992Z" fill="#161616"/>
<path d="M6 9.49992H5V10.7929L3.6427 12.1503C3.44252 12.0525 3.22282 12.001 3 11.9999C2.70333 11.9999 2.41332 12.0879 2.16665 12.2527C1.91997 12.4175 1.72771 12.6518 1.61418 12.9259C1.50065 13.2 1.47094 13.5016 1.52882 13.7926C1.5867 14.0835 1.72956 14.3508 1.93934 14.5606C2.14912 14.7704 2.41639 14.9132 2.70737 14.9711C2.99834 15.029 3.29994 14.9993 3.57403 14.8857C3.84811 14.7722 4.08238 14.5799 4.24721 14.3333C4.41203 14.0866 4.5 13.7966 4.5 13.4999C4.49889 13.2772 4.44762 13.0575 4.35 12.8573L6 11.207V9.49992ZM3 13.9999C2.90111 13.9999 2.80444 13.9706 2.72222 13.9157C2.63999 13.8607 2.5759 13.7826 2.53806 13.6913C2.50022 13.5999 2.49032 13.4994 2.50961 13.4024C2.5289 13.3054 2.57652 13.2163 2.64645 13.1464C2.71637 13.0764 2.80547 13.0288 2.90246 13.0095C2.99945 12.9902 3.09998 13.0001 3.19134 13.038C3.28271 13.0758 3.36079 13.1399 3.41574 13.2221C3.47068 13.3044 3.5 13.401 3.5 13.4999C3.49988 13.6325 3.44716 13.7596 3.35342 13.8533C3.25968 13.9471 3.13257 13.9998 3 13.9999Z" fill="#161616"/>
<path d="M8.5 12.092V9.49992H7.5V12.092C7.16639 12.2099 6.88522 12.442 6.70619 12.7472C6.52715 13.0524 6.46177 13.4111 6.5216 13.7598C6.58144 14.1086 6.76264 14.4249 7.03317 14.653C7.30371 14.8811 7.64616 15.0062 8 15.0062C8.35384 15.0062 8.6963 14.8811 8.96683 14.653C9.23737 14.4249 9.41856 14.1086 9.4784 13.7598C9.53823 13.4111 9.47286 13.0524 9.29382 12.7472C9.11478 12.442 8.83361 12.2099 8.5 12.092ZM8 13.9999C7.90111 13.9999 7.80444 13.9706 7.72222 13.9157C7.63999 13.8607 7.5759 13.7826 7.53806 13.6913C7.50022 13.5999 7.49032 13.4994 7.50961 13.4024C7.5289 13.3054 7.57652 13.2163 7.64645 13.1464C7.71637 13.0764 7.80547 13.0288 7.90246 13.0095C7.99945 12.9902 8.09998 13.0001 8.19134 13.038C8.28271 13.0758 8.3608 13.1399 8.41574 13.2221C8.47068 13.3044 8.5 13.401 8.5 13.4999C8.49988 13.6325 8.44717 13.7596 8.35342 13.8533C8.25968 13.9471 8.13257 13.9998 8 13.9999Z" fill="#161616"/>
<path d="M13 11.9999C12.7772 12.001 12.5575 12.0525 12.3573 12.1503L11 10.7929V9.49992H10V11.207L11.65 12.8573C11.5524 13.0575 11.5011 13.2772 11.5 13.4999C11.5 13.7966 11.588 14.0866 11.7528 14.3333C11.9176 14.5799 12.1519 14.7722 12.426 14.8857C12.7001 14.9993 13.0017 15.029 13.2926 14.9711C13.5836 14.9132 13.8509 14.7704 14.0607 14.5606C14.2704 14.3508 14.4133 14.0835 14.4712 13.7926C14.5291 13.5016 14.4994 13.2 14.3858 12.9259C14.2723 12.6518 14.08 12.4175 13.8334 12.2527C13.5867 12.0879 13.2967 11.9999 13 11.9999ZM13 13.9999C12.9011 13.9999 12.8044 13.9706 12.7222 13.9157C12.64 13.8607 12.5759 13.7826 12.5381 13.6913C12.5002 13.5999 12.4903 13.4994 12.5096 13.4024C12.5289 13.3054 12.5765 13.2163 12.6464 13.1464C12.7164 13.0764 12.8055 13.0288 12.9025 13.0095C12.9994 12.9902 13.1 13.0001 13.1913 13.038C13.2827 13.0758 13.3608 13.1399 13.4157 13.2221C13.4707 13.3044 13.5 13.401 13.5 13.4999C13.4999 13.6325 13.4472 13.7596 13.3534 13.8533C13.2597 13.9471 13.1326 13.9998 13 13.9999Z" fill="#161616"/>
</svg>
