<svg width="16" height="16" viewBox="0 0 16 16" fill="none" xmlns="http://www.w3.org/2000/svg">
<path d="M2 6.49177C1.99837 6.59311 2.02756 6.69254 2.08372 6.77691C2.13987 6.86127 2.22034 6.92658 2.31445 6.96417L7.1152 8.88462L9.03555 13.6856C9.07266 13.7784 9.13674 13.858 9.21954 13.9141C9.30233 13.9701 9.40002 14.0001 9.5 14H9.5081C9.60935 13.9983 9.70771 13.966 9.79017 13.9072C9.87264 13.8485 9.93535 13.7661 9.97 13.6709L13.97 2.67057C14.0026 2.58112 14.0089 2.48423 13.9883 2.39129C13.9677 2.29835 13.921 2.21322 13.8537 2.14592C13.7864 2.07861 13.7012 2.03192 13.6083 2.01134C13.5153 1.99076 13.4184 1.99713 13.329 2.02972L2.329 6.02972C2.23386 6.06442 2.15148 6.12716 2.09274 6.20965C2.034 6.29215 2.00167 6.39052 2 6.49177Z" fill="#161616"/>
</svg>
