<svg width="16" height="16" viewBox="0 0 16 16" fill="none" xmlns="http://www.w3.org/2000/svg">
<path d="M8.99999 15.0001H9.99999V14.0001C10.0001 13.8675 10.0528 13.7404 10.1466 13.6466C10.2403 13.5529 10.3674 13.5002 10.5 13.5001H13.5C13.6326 13.5002 13.7597 13.5529 13.8534 13.6466C13.9472 13.7404 13.9999 13.8675 14 14.0001V15.0001H15V14.0001C14.9996 13.6024 14.8414 13.2211 14.5602 12.9399C14.279 12.6587 13.8977 12.5005 13.5 12.5001H10.5C10.1023 12.5005 9.72102 12.6587 9.43981 12.9399C9.1586 13.2211 9.00042 13.6024 8.99999 14.0001V15.0001Z" fill="#161616"/>
<path d="M12 12.0001C11.6044 12.0001 11.2177 11.8828 10.8888 11.663C10.5599 11.4432 10.3036 11.1309 10.1522 10.7654C10.0009 10.4 9.96125 9.99785 10.0384 9.60989C10.1156 9.22192 10.3061 8.86556 10.5858 8.58585C10.8655 8.30615 11.2218 8.11567 11.6098 8.0385C11.9978 7.96133 12.3999 8.00093 12.7654 8.15231C13.1308 8.30368 13.4432 8.56003 13.6629 8.88893C13.8827 9.21782 14 9.6045 14 10.0001C13.9994 10.5303 13.7885 11.0387 13.4136 11.4137C13.0386 11.7886 12.5302 11.9995 12 12.0001ZM12 9.00007C11.8022 9.00007 11.6089 9.05872 11.4444 9.1686C11.28 9.27848 11.1518 9.43466 11.0761 9.61738C11.0004 9.80011 10.9806 10.0012 11.0192 10.1952C11.0578 10.3891 11.153 10.5673 11.2929 10.7072C11.4327 10.847 11.6109 10.9423 11.8049 10.9809C11.9989 11.0194 12.1999 10.9996 12.3827 10.9239C12.5654 10.8483 12.7216 10.7201 12.8315 10.5556C12.9413 10.3912 13 10.1978 13 10.0001C12.9997 9.73494 12.8942 9.48077 12.7068 9.2933C12.5193 9.10583 12.2651 9.00037 12 9.00007Z" fill="#161616"/>
<path d="M12.6709 5.03016L1.67089 1.03016C1.58146 0.997605 1.4846 0.991253 1.39169 1.01185C1.29878 1.03244 1.21367 1.07912 1.14637 1.14641C1.07906 1.21369 1.03236 1.29879 1.01175 1.3917C0.991134 1.48461 0.997464 1.58147 1.02999 1.67091L5.02999 12.6709C5.06464 12.7661 5.12734 12.8485 5.20982 12.9073C5.2923 12.9661 5.39067 12.9985 5.49194 13.0002H5.49999C5.59996 13.0002 5.69763 12.9702 5.7804 12.9142C5.86318 12.8581 5.92725 12.7785 5.96434 12.6857L7.88499 7.88476L12.6858 5.96436C12.7799 5.9268 12.8604 5.86153 12.9166 5.7772C12.9728 5.69286 13.002 5.59345 13.0004 5.49213C12.9988 5.39081 12.9665 5.29237 12.9077 5.20984C12.8489 5.12731 12.7661 5.06475 12.6709 5.03016ZM7.11524 7.11516L5.52224 11.098L2.33594 2.33591L11.0981 5.52221L7.11524 7.11516Z" fill="#161616"/>
</svg>
