<svg width="16" height="16" viewBox="0 0 16 16" fill="none" xmlns="http://www.w3.org/2000/svg">
<path d="M13.0383 1.79392C13.0485 1.96137 13.0087 2.12808 12.9238 2.27281C12.839 2.41754 12.713 2.53374 12.5619 2.60661C12.4108 2.67947 12.2414 2.70571 12.0753 2.68198C11.9092 2.65824 11.754 2.58561 11.6293 2.47333C11.5047 2.36105 11.4163 2.21421 11.3754 2.05151C11.3345 1.88881 11.3429 1.71761 11.3996 1.55973C11.4564 1.40185 11.5588 1.26443 11.6939 1.16497C11.829 1.06552 11.9907 1.00853 12.1583 1.00127C12.2682 0.995204 12.3782 1.01093 12.482 1.04753C12.5858 1.08414 12.6814 1.14091 12.7631 1.21458C12.8449 1.28824 12.9113 1.37735 12.9586 1.47678C13.0058 1.5762 13.0329 1.68398 13.0383 1.79392Z" fill="#161616"/>
<path d="M8.10954 11.5557C5.86624 11.5557 3.89454 10.7507 2.87514 9.56157C3.2707 10.6312 3.98443 11.5539 4.92028 12.2056C5.85613 12.8573 6.96916 13.2067 8.10957 13.2067C9.24997 13.2067 10.363 12.8573 11.2988 12.2056C12.2347 11.5539 12.9484 10.6312 13.344 9.56157C12.327 10.7506 10.3628 11.5557 8.10954 11.5557Z" fill="#161616"/>
<path d="M8.10954 3.82417C10.3529 3.82417 12.3245 4.62917 13.344 5.81822C12.9484 4.74861 12.2347 3.82586 11.2988 3.17416C10.363 2.52246 9.24997 2.1731 8.10957 2.1731C6.96916 2.1731 5.85613 2.52246 4.92028 3.17416C3.98443 3.82586 3.2707 4.74861 2.87514 5.81822C3.89459 4.62677 5.85629 3.82417 8.10954 3.82417Z" fill="#161616"/>
<path d="M5.02134 13.8694C5.03518 14.1308 4.95132 14.3879 4.78607 14.5908C4.62082 14.7938 4.386 14.928 4.12728 14.9674C3.86856 15.0068 3.60443 14.9486 3.38626 14.804C3.1681 14.6595 3.0115 14.4389 2.94692 14.1853C2.88234 13.9317 2.9144 13.6631 3.03686 13.4319C3.15932 13.2006 3.36343 13.0231 3.60948 12.934C3.85554 12.8448 4.12596 12.8504 4.36814 12.9496C4.61032 13.0488 4.80695 13.2345 4.91979 13.4706C4.97927 13.5957 5.01377 13.7311 5.02134 13.8694Z" fill="#161616"/>
<path d="M3.12999 3.55322C3.00913 3.55653 2.88999 3.52403 2.78754 3.45981C2.6851 3.39559 2.60393 3.30252 2.55424 3.19229C2.50455 3.08207 2.48855 2.95961 2.50827 2.84033C2.52798 2.72104 2.58252 2.61024 2.66503 2.52186C2.74755 2.43348 2.85434 2.37148 2.972 2.34363C3.08966 2.31578 3.21292 2.32335 3.32629 2.36536C3.43967 2.40738 3.53808 2.48198 3.60917 2.57978C3.68027 2.67758 3.72086 2.79421 3.72584 2.91502C3.73056 3.07842 3.67064 3.23709 3.55908 3.35658C3.44752 3.47607 3.29333 3.54673 3.12999 3.55322Z" fill="#161616"/>
</svg>
