<svg width="16" height="16" viewBox="0 0 16 16" fill="none" xmlns="http://www.w3.org/2000/svg">
<path d="M6.82349 7.4535C6.67819 7.4412 6.53256 7.47305 6.40566 7.54489C6.27877 7.61672 6.17651 7.7252 6.11229 7.85612C6.04807 7.98703 6.02488 8.13429 6.04574 8.27861C6.0666 8.42293 6.13055 8.55759 6.22921 8.66496C6.32788 8.77233 6.45666 8.84741 6.59871 8.88038C6.74076 8.91334 6.88944 8.90265 7.02531 8.8497C7.16118 8.79675 7.2779 8.70401 7.36018 8.58363C7.44247 8.46324 7.48649 8.32082 7.48649 8.175C7.49038 8.08408 7.47631 7.99329 7.44509 7.90781C7.41387 7.82233 7.3661 7.74384 7.30453 7.67684C7.24295 7.60983 7.16878 7.55561 7.08624 7.51729C7.0037 7.47897 6.91441 7.45729 6.82349 7.4535ZM9.19599 7.4535C9.05069 7.4412 8.90506 7.47305 8.77816 7.54489C8.65127 7.61672 8.54901 7.7252 8.48479 7.85612C8.42057 7.98703 8.39738 8.13429 8.41824 8.27861C8.4391 8.42293 8.50305 8.55759 8.60171 8.66496C8.70038 8.77233 8.82916 8.84741 8.97121 8.88038C9.11326 8.91334 9.26194 8.90265 9.39781 8.8497C9.53368 8.79675 9.6504 8.70401 9.73268 8.58363C9.81497 8.46324 9.85899 8.32082 9.85899 8.175C9.86288 8.08408 9.84881 7.99329 9.81759 7.90781C9.78637 7.82233 9.7386 7.74384 9.67703 7.67684C9.61545 7.60983 9.54128 7.55561 9.45874 7.51729C9.3762 7.47897 9.28691 7.45729 9.19599 7.4535Z" fill="#161616"/>
<path d="M12.355 2H3.64499C3.46957 2.00042 3.29596 2.03539 3.13406 2.10291C2.97216 2.17043 2.82514 2.26918 2.70141 2.39351C2.57767 2.51785 2.47964 2.66535 2.41291 2.82757C2.34618 2.9898 2.31205 3.16358 2.31249 3.339V12.127C2.31205 12.3024 2.34618 12.4762 2.41291 12.6384C2.47964 12.8007 2.57767 12.9481 2.70141 13.0725C2.82514 13.1968 2.97216 13.2956 3.13406 13.3631C3.29596 13.4306 3.46957 13.4656 3.64499 13.466H11.016L10.6715 12.2635L11.5035 13.037L12.29 13.765L13.6875 15V3.339C13.6879 3.16358 13.6538 2.9898 13.5871 2.82757C13.5203 2.66535 13.4223 2.51785 13.2986 2.39351C13.1748 2.26918 13.0278 2.17043 12.8659 2.10291C12.704 2.03539 12.5304 2.00042 12.355 2ZM9.84599 10.489C9.84599 10.489 9.61199 10.2095 9.41699 9.9625C9.88814 9.85157 10.3049 9.57758 10.5935 9.189C10.3596 9.34465 10.1088 9.47331 9.84599 9.5725C9.54361 9.70157 9.22735 9.79536 8.90349 9.852C8.3468 9.95449 7.77587 9.95229 7.21999 9.8455C6.89364 9.78164 6.57381 9.68809 6.26449 9.566C6.10144 9.5033 5.9429 9.42946 5.78999 9.345C5.77049 9.332 5.75099 9.3255 5.73149 9.3125C5.72171 9.30763 5.7129 9.30102 5.70549 9.293C5.58849 9.228 5.52349 9.1825 5.52349 9.1825C5.80166 9.56294 6.20401 9.83424 6.66099 9.9495C6.46599 10.1965 6.22549 10.489 6.22549 10.489C5.83938 10.4994 5.45663 10.4147 5.11093 10.2424C4.76523 10.0701 4.46717 9.81554 4.24299 9.501C4.26409 8.18326 4.58414 6.88752 5.17899 5.7115C5.70247 5.30037 6.34067 5.06189 7.00549 5.029L7.07049 5.107C6.44502 5.26179 5.86134 5.55252 5.36099 5.9585C5.36099 5.9585 5.50399 5.8805 5.74449 5.77C6.21172 5.55672 6.70967 5.41852 7.21999 5.3605C7.25638 5.35297 7.29335 5.34862 7.33049 5.3475C7.76607 5.29075 8.20687 5.28639 8.64349 5.3345C9.33011 5.41292 9.99476 5.6249 10.6 5.9585C10.125 5.57186 9.57334 5.29049 8.98149 5.133L9.07249 5.029C9.7373 5.06189 10.3755 5.30037 10.899 5.7115C11.4938 6.88752 11.8139 8.18326 11.835 9.501C11.609 9.81523 11.3097 10.0695 10.963 10.2417C10.6164 10.4139 10.2329 10.4988 9.84599 10.489Z" fill="#161616"/>
</svg>
