<svg width="16" height="16" viewBox="0 0 16 16" fill="none" xmlns="http://www.w3.org/2000/svg">
<path d="M4.52115 9.58293C4.52116 9.83226 4.44724 10.076 4.30873 10.2833C4.17021 10.4906 3.97333 10.6522 3.74299 10.7476C3.51264 10.843 3.25917 10.868 3.01464 10.8194C2.7701 10.7707 2.54548 10.6507 2.36918 10.4744C2.19287 10.2981 2.07281 10.0734 2.02417 9.8289C1.97554 9.58436 2.0005 9.3309 2.09592 9.10055C2.19134 8.8702 2.35292 8.67332 2.56023 8.53481C2.76755 8.3963 3.01128 8.32237 3.2606 8.32238H4.52115V9.58293Z" fill="#161616"/>
<path d="M5.15635 9.58293C5.15845 9.24998 5.29219 8.93138 5.52836 8.69669C5.76454 8.462 6.08397 8.33027 6.41693 8.33027C6.74989 8.33027 7.06932 8.462 7.3055 8.69669C7.54167 8.93138 7.67541 9.24998 7.6775 9.58293V12.7393C7.67855 12.9055 7.64672 13.0703 7.58384 13.2241C7.52096 13.378 7.42827 13.5179 7.31111 13.6358C7.19395 13.7537 7.05463 13.8473 6.90117 13.9111C6.74771 13.975 6.58314 14.0078 6.41693 14.0078C6.25072 14.0078 6.08615 13.975 5.93269 13.9111C5.77923 13.8473 5.63991 13.7537 5.52275 13.6358C5.40559 13.5179 5.3129 13.378 5.25002 13.2241C5.18714 13.0703 5.15531 12.9055 5.15635 12.7393V9.58293Z" fill="#161616"/>
<path d="M6.41695 4.52103C6.16763 4.52104 5.9239 4.44712 5.71658 4.3086C5.50927 4.17009 5.34769 3.97321 5.25227 3.74287C5.15685 3.51252 5.13189 3.25905 5.18052 3.01451C5.22916 2.76998 5.34923 2.54535 5.52553 2.36905C5.70183 2.19275 5.92645 2.07269 6.17099 2.02405C6.41552 1.97541 6.66899 2.00038 6.89934 2.0958C7.12969 2.19122 7.32656 2.3528 7.46508 2.56011C7.60359 2.76742 7.67751 3.01116 7.6775 3.26048V4.52103H6.41695Z" fill="#161616"/>
<path d="M6.41695 5.15623C6.74991 5.15833 7.0685 5.29206 7.3032 5.52824C7.53789 5.76442 7.66962 6.08385 7.66962 6.41681C7.66962 6.74976 7.53789 7.0692 7.3032 7.30538C7.0685 7.54155 6.74991 7.67529 6.41695 7.67738H3.2606C3.0944 7.67843 2.92962 7.6466 2.77576 7.58372C2.6219 7.52083 2.482 7.42815 2.3641 7.31099C2.2462 7.19383 2.15263 7.05451 2.08878 6.90105C2.02494 6.74759 1.99207 6.58302 1.99207 6.41681C1.99207 6.2506 2.02494 6.08602 2.08878 5.93256C2.15263 5.7791 2.2462 5.63979 2.3641 5.52263C2.482 5.40547 2.6219 5.31278 2.77576 5.2499C2.92962 5.18702 3.0944 5.15519 3.2606 5.15623H6.41695Z" fill="#161616"/>
<path d="M11.4789 6.41683C11.4788 6.16751 11.5528 5.92377 11.6913 5.71646C11.8298 5.50915 12.0267 5.34757 12.257 5.25215C12.4874 5.15673 12.7408 5.13176 12.9854 5.1804C13.2299 5.22904 13.4545 5.3491 13.6308 5.5254C13.8071 5.7017 13.9272 5.92633 13.9758 6.17086C14.0245 6.4154 13.9995 6.66887 13.9041 6.89922C13.8087 7.12956 13.6471 7.32644 13.4398 7.46495C13.2325 7.60347 12.9887 7.67739 12.7394 7.67738H11.4789V6.41683Z" fill="#161616"/>
<path d="M10.8437 6.41683C10.8416 6.74978 10.7078 7.06838 10.4716 7.30307C10.2355 7.53777 9.91604 7.66949 9.58308 7.66949C9.25012 7.66949 8.93069 7.53777 8.69451 7.30307C8.45834 7.06838 8.3246 6.74978 8.3225 6.41683V3.26048C8.32146 3.09427 8.35329 2.9295 8.41617 2.77564C8.47905 2.62178 8.57174 2.48188 8.6889 2.36398C8.80606 2.24608 8.94538 2.15251 9.09884 2.08866C9.2523 2.02481 9.41687 1.99194 9.58308 1.99194C9.74929 1.99194 9.91386 2.02481 10.0673 2.08866C10.2208 2.15251 10.3601 2.24608 10.4773 2.36398C10.5944 2.48188 10.6871 2.62178 10.75 2.77564C10.8129 2.9295 10.8447 3.09427 10.8437 3.26048V6.41683Z" fill="#161616"/>
<path d="M9.58305 11.4787C9.83238 11.4787 10.0761 11.5526 10.2834 11.6912C10.4907 11.8297 10.6523 12.0266 10.7477 12.2569C10.8432 12.4872 10.8681 12.7407 10.8195 12.9853C10.7708 13.2298 10.6508 13.4544 10.4745 13.6307C10.2982 13.807 10.0736 13.9271 9.82902 13.9757C9.58449 14.0244 9.33102 13.9994 9.10067 13.904C8.87032 13.8085 8.67345 13.647 8.53493 13.4397C8.39642 13.2323 8.32249 12.9886 8.3225 12.7393V11.4787H9.58305Z" fill="#161616"/>
<path d="M9.58305 10.8435C9.2501 10.8414 8.93151 10.7077 8.69681 10.4715C8.46212 10.2353 8.33039 9.91591 8.33039 9.58296C8.33039 9.25 8.46212 8.93057 8.69681 8.69439C8.93151 8.45821 9.2501 8.32448 9.58305 8.32238H12.7394C12.9056 8.32134 13.0704 8.35317 13.2242 8.41605C13.3781 8.47893 13.518 8.57162 13.6359 8.68878C13.7538 8.80594 13.8474 8.94525 13.9112 9.09871C13.9751 9.25217 14.0079 9.41674 14.0079 9.58296C14.0079 9.74917 13.9751 9.91374 13.9112 10.0672C13.8474 10.2207 13.7538 10.36 13.6359 10.4771C13.518 10.5943 13.3781 10.687 13.2242 10.7499C13.0704 10.8127 12.9056 10.8446 12.7394 10.8435H9.58305Z" fill="#161616"/>
</svg>
