<svg width="16" height="16" viewBox="0 0 16 16" fill="none" xmlns="http://www.w3.org/2000/svg">
<path d="M14.705 4.6301C14.6253 4.33412 14.4693 4.06425 14.2526 3.84752C14.0358 3.63078 13.766 3.47477 13.47 3.3951C12.38 3.1001 7.99999 3.1001 7.99999 3.1001C7.99999 3.1001 3.61999 3.1001 2.52999 3.3951C2.23401 3.47477 1.96414 3.63078 1.7474 3.84752C1.53067 4.06425 1.37466 4.33412 1.29499 4.6301C1.09146 5.74173 0.992694 6.87001 0.999987 8.0001C0.992694 9.13019 1.09146 10.2585 1.29499 11.3701C1.37466 11.6661 1.53067 11.9359 1.7474 12.1527C1.96414 12.3694 2.23401 12.5254 2.52999 12.6051C3.61999 12.9001 7.99999 12.9001 7.99999 12.9001C7.99999 12.9001 12.38 12.9001 13.47 12.6051C13.766 12.5254 14.0358 12.3694 14.2526 12.1527C14.4693 11.9359 14.6253 11.6661 14.705 11.3701C14.9085 10.2585 15.0073 9.13019 15 8.0001C15.0073 6.87001 14.9085 5.74173 14.705 4.6301ZM6.59999 10.1001V5.9001L10.235 8.0001L6.59999 10.1001Z" fill="#161616"/>
</svg>
