<svg width="16" height="16" viewBox="0 0 16 16" fill="none" xmlns="http://www.w3.org/2000/svg">
<path d="M16 8.38505V6.91865C16 5.67775 14.7592 5.0009 13.7439 5.0009C13.0375 5.05615 12.3666 5.33243 11.8262 5.79055C11.5933 5.54504 11.3136 5.34867 11.0036 5.21305C10.6936 5.07742 10.3595 5.00529 10.0212 5.0009C9.3078 5.02508 8.62701 5.30541 8.10346 5.79055C7.91267 5.52501 7.65687 5.31294 7.36057 5.17467C7.06428 5.03639 6.73743 4.97656 6.41136 5.0009C6.07468 4.97489 5.73769 5.04708 5.44121 5.20873C5.14474 5.37038 4.90151 5.61455 4.74101 5.91165L3.25291 9.28755L1.60056 5.5006C1.51223 5.29865 1.34764 5.13982 1.14267 5.05874C0.9377 4.97766 0.708987 4.98092 0.50641 5.0678C0.403831 5.11172 0.311096 5.17576 0.233685 5.25613C0.156273 5.3365 0.0957549 5.43157 0.0557067 5.53572C0.0156584 5.63987 -0.00310776 5.75099 0.000516973 5.86252C0.0041417 5.97405 0.0300838 6.08372 0.0768104 6.18505L2.12501 10.6413C2.12501 10.6413 2.46346 11.4309 3.14026 11.4309C3.34797 11.4617 3.56003 11.4231 3.74359 11.3211C3.92714 11.2191 4.07195 11.0595 4.15556 10.8669C4.31176 10.6325 5.49601 8.14185 6.20946 6.63225C6.23706 6.57393 6.28371 6.52676 6.34171 6.49849C6.39971 6.47022 6.4656 6.46255 6.52855 6.47673C6.59149 6.49092 6.64772 6.52612 6.68799 6.57654C6.72825 6.62696 6.75014 6.68958 6.75006 6.7541V10.4975C6.74706 10.7304 6.83222 10.9558 6.98845 11.1286C7.14468 11.3013 7.36044 11.4086 7.59246 11.429C7.71576 11.4372 7.83944 11.42 7.95582 11.3784C8.07221 11.3369 8.17882 11.2719 8.26906 11.1875C8.3593 11.1031 8.43125 11.001 8.48043 10.8876C8.52962 10.7743 8.555 10.652 8.55501 10.5285V7.42625C8.55501 7.17195 8.65603 6.92806 8.83585 6.74824C9.01567 6.56842 9.25956 6.4674 9.51386 6.4674C9.76816 6.4674 10.0121 6.56842 10.1919 6.74824C10.3717 6.92806 10.4727 7.17195 10.4727 7.42625V10.5285C10.4727 10.7678 10.5678 10.9974 10.737 11.1666C10.9063 11.3359 11.1359 11.431 11.3752 11.431C11.6146 11.431 11.8441 11.3359 12.0134 11.1666C12.1826 10.9974 12.2777 10.7678 12.2777 10.5285V7.42625C12.2777 7.17195 12.3787 6.92806 12.5586 6.74824C12.7384 6.56842 12.9823 6.4674 13.2366 6.4674C13.4909 6.4674 13.7348 6.56842 13.9146 6.74824C14.0944 6.92806 14.1954 7.17195 14.1954 7.42625V10.5285C14.1954 10.7678 14.2905 10.9974 14.4597 11.1666C14.629 11.3359 14.8586 11.431 15.0979 11.431C15.3373 11.431 15.5668 11.3359 15.7361 11.1666C15.9053 10.9974 16.0004 10.7678 16.0004 10.5285L16 8.38505Z" fill="#161616"/>
</svg>
