<svg width="16" height="16" viewBox="0 0 16 16" fill="none" xmlns="http://www.w3.org/2000/svg">
<path d="M5.41407 14H10.586C11.0408 14 11.477 13.8193 11.7987 13.4977C12.1203 13.1761 12.301 12.7398 12.301 12.285V5.1653H10.586V12.285H3.69907C3.69907 12.7398 3.87975 13.1761 4.20138 13.4977C4.523 13.8193 4.95922 14 5.41407 14Z" fill="#161616"/>
<path d="M10.586 2H5.41407C4.95922 2 4.523 2.18069 4.20138 2.50231C3.87975 2.82394 3.69907 3.26015 3.69907 3.715V10.835H5.41407V3.715H12.301C12.301 3.26015 12.1203 2.82394 11.7987 2.50231C11.477 2.18069 11.0408 2 10.586 2Z" fill="#161616"/>
</svg>
