<svg width="16" height="16" viewBox="0 0 16 16" fill="none" xmlns="http://www.w3.org/2000/svg">
<path d="M3.24 3.80005V5.76005H1V10.5H4.64V3.80005H3.24ZM3.24 9.40005H2.4V6.90005H3.24V9.40005Z" fill="#161616"/>
<path d="M6.6 5.76005H5.2V10.52H6.6V5.76005Z" fill="#161616"/>
<path d="M6.6 3.80005H5.2V5.20005H6.6V3.80005Z" fill="#161616"/>
<path d="M7.16 5.76005V10.5H9.4V11.06H7.16V12.2H10.8V5.76005H7.16ZM9.4 9.40005H8.56V6.90005H9.4V9.40005Z" fill="#161616"/>
<path d="M11.36 5.76005V10.5H13.6V11.06H11.36V12.2H15V5.76005H11.36ZM13.6 9.40005H12.76V6.90005H13.6V9.40005Z" fill="#161616"/>
</svg>
