<svg width="16" height="16" viewBox="0 0 16 16" fill="none" xmlns="http://www.w3.org/2000/svg">
<path d="M11.7441 4.57006V6.05321C11.7379 6.60757 11.5171 7.13795 11.128 7.53286C10.7389 7.92777 10.2118 8.15644 9.6576 8.17081H6.32155C5.87669 8.17965 5.45294 8.36215 5.14087 8.67931C4.82881 8.99647 4.65318 9.42312 4.65155 9.86806V13.0484C4.65155 13.9534 5.43865 14.486 6.32155 14.7457C7.40763 15.0853 8.57152 15.0853 9.6576 14.7457C10.4984 14.5022 11.3276 14.0123 11.3276 13.0484V11.7751H7.9915V11.3508H12.9976C13.9683 11.3508 14.33 10.6737 14.6676 9.65741C15.0103 8.55188 15.0103 7.36849 14.6676 6.26296C14.4276 5.29661 13.9695 4.56961 12.9976 4.56961L11.7441 4.57006ZM9.8678 12.6239C9.99418 12.6219 10.1183 12.6576 10.2243 12.7265C10.3303 12.7953 10.4134 12.8941 10.4631 13.0104C10.5127 13.1266 10.5266 13.255 10.503 13.3792C10.4794 13.5034 10.4194 13.6177 10.3305 13.7076C10.2417 13.7976 10.1281 13.859 10.0042 13.8842C9.88037 13.9093 9.75181 13.897 9.63496 13.8488C9.5181 13.8006 9.41824 13.7187 9.3481 13.6136C9.27796 13.5084 9.24071 13.3848 9.2411 13.2584C9.24055 13.1755 9.25633 13.0934 9.28754 13.0167C9.31874 12.94 9.36476 12.8702 9.42296 12.8112C9.48116 12.7523 9.55041 12.7054 9.62673 12.6733C9.70306 12.6411 9.78498 12.6243 9.8678 12.6239Z" fill="#161616"/>
<path d="M7.91756 1.00017C7.38268 1.00074 6.8488 1.04632 6.32156 1.13642C4.90816 1.38612 4.65156 1.90877 4.65156 2.87257V4.14562H7.99156V4.57017H3.39811C2.90651 4.56116 2.42754 4.72614 2.04576 5.03597C1.66398 5.34581 1.40396 5.78058 1.31161 6.26352C0.998089 7.37328 0.998089 8.5482 1.31161 9.65797C1.54901 10.6468 2.11601 11.3513 3.08661 11.3513H4.23501V9.82517C4.2472 9.27669 4.47129 8.75424 4.86029 8.36738C5.24929 7.98053 5.77297 7.75932 6.32151 7.75017H9.65756C9.87869 7.74851 10.0973 7.70328 10.301 7.61706C10.5046 7.53085 10.6892 7.40534 10.8443 7.24771C10.9994 7.09009 11.122 6.90344 11.2049 6.69843C11.2878 6.49343 11.3295 6.27409 11.3276 6.05297V2.87267C11.2995 2.43251 11.1163 2.01655 10.8106 1.69868C10.5048 1.38082 10.0963 1.18163 9.65756 1.13652C9.0824 1.04248 8.50035 0.996871 7.91756 1.00017ZM6.11131 2.02407C6.23753 2.02211 6.36148 2.05773 6.46741 2.1264C6.57333 2.19506 6.65645 2.29367 6.7062 2.40969C6.75594 2.52571 6.77007 2.6539 6.74678 2.77797C6.72349 2.90204 6.66384 3.01638 6.57541 3.10647C6.48698 3.19655 6.37376 3.25831 6.25014 3.28389C6.12653 3.30946 5.9981 3.29771 5.88118 3.25012C5.76425 3.20253 5.66412 3.12125 5.59351 3.01661C5.5229 2.91197 5.48499 2.7887 5.48461 2.66247C5.48337 2.4948 5.54863 2.33347 5.66609 2.21381C5.78355 2.09416 5.94365 2.02593 6.11131 2.02407Z" fill="#161616"/>
</svg>
