<svg width="16" height="16" viewBox="0 0 16 16" fill="none" xmlns="http://www.w3.org/2000/svg">
<path d="M11.245 11.855H10.865C9.735 11.855 8.605 11.855 7.475 11.855C7.24996 11.8636 7.02573 11.8234 6.81772 11.7371C6.60971 11.6508 6.42286 11.5204 6.27 11.355C5.75024 10.7862 5.32182 10.1402 5 9.44005C4.35 8.14005 3.73 6.83005 3.09 5.53005C2.895 5.13005 2.68 4.75005 2.45 4.37005C2.12141 3.72252 1.61942 3.17898 1 2.80005C1.62 2.80005 2.205 2.80005 2.785 2.80005C3.95777 2.8116 5.12791 2.91357 6.285 3.10505C6.99099 3.21174 7.65616 3.5034 8.21293 3.9504C8.76971 4.3974 9.19824 4.98381 9.455 5.65005C9.91327 6.84614 10.2761 8.07666 10.54 9.33005C10.6893 10.1933 10.9255 11.0393 11.245 11.855Z" fill="#161616"/>
<path d="M14.05 13.19C13.7019 13.1691 13.3727 13.0246 13.1216 12.7827C12.8705 12.5407 12.7139 12.2171 12.68 11.87C12.6091 11.0554 12.5857 10.2374 12.61 9.42005C12.6087 8.15064 12.5067 6.88333 12.305 5.63005C12.268 5.26316 12.1237 4.91532 11.89 4.63005H13.215C13.485 4.63005 13.58 4.81505 13.66 5.02005C13.847 5.54192 13.9614 6.08702 14 6.64005C14.145 8.00005 14.155 9.36505 14.165 10.73C14.1549 10.9216 14.1549 11.1135 14.165 11.305C14.21 11.695 14.365 11.855 14.75 11.845C15 11.845 15 11.815 15 11.815V13.16C14.6854 13.205 14.3668 13.2151 14.05 13.19Z" fill="#161616"/>
</svg>
