<svg width="16" height="16" viewBox="0 0 16 16" fill="none" xmlns="http://www.w3.org/2000/svg">
<path fill-rule="evenodd" clip-rule="evenodd" d="M13.5428 12.3897C13.9797 12.0949 14.3399 11.7001 14.5933 11.238C14.8468 10.7759 14.9862 10.26 15 9.73319C15 7.79319 13.1117 6.21974 10.7831 6.21974C8.45445 6.21974 6.56615 7.79299 6.56615 9.73319C6.56615 11.6734 8.4544 13.2472 10.7831 13.2472C11.2487 13.2477 11.7121 13.1829 12.1597 13.0547L12.2834 13.036C12.3625 13.0374 12.4398 13.0598 12.5074 13.101L13.4309 13.6342L13.5119 13.6604C13.5492 13.6604 13.5849 13.6456 13.6113 13.6192C13.6377 13.5929 13.6525 13.5571 13.6525 13.5198L13.6298 13.4172L13.4397 12.7084L13.4251 12.6184C13.4251 12.5737 13.4357 12.5295 13.4562 12.4897C13.4767 12.4499 13.5064 12.4156 13.5428 12.3897ZM6.0604 2.34009C3.26565 2.34009 1 4.22769 1 6.55694C1.01646 7.18905 1.1837 7.80808 1.4878 8.36249C1.79189 8.9169 2.22404 9.39063 2.74825 9.74424C2.7922 9.77534 2.82803 9.81657 2.8527 9.86443C2.87737 9.91229 2.89016 9.96539 2.89 10.0192L2.8725 10.1266L2.6444 10.9771L2.617 11.1001C2.61701 11.1448 2.63476 11.1878 2.66636 11.2195C2.69796 11.2512 2.74084 11.2691 2.7856 11.2692L2.8836 11.2377L3.99135 10.5977C4.07222 10.5483 4.16488 10.5215 4.25965 10.5201L4.4084 10.5423C4.94555 10.6962 5.50162 10.7742 6.0604 10.7739L6.3381 10.7669C6.22619 10.4339 6.16886 10.0851 6.16835 9.73379C6.16835 7.60989 8.2345 5.88789 10.7831 5.88789L11.0581 5.89489C10.6769 3.88059 8.5845 2.34009 6.0604 2.34009ZM9.37725 9.17154C9.26603 9.17154 9.1573 9.13856 9.06483 9.07676C8.97235 9.01497 8.90027 8.92715 8.85771 8.82439C8.81514 8.72163 8.80401 8.60856 8.82571 8.49948C8.8474 8.39039 8.90096 8.29019 8.97961 8.21155C9.05825 8.1329 9.15846 8.07934 9.26754 8.05764C9.37663 8.03594 9.4897 8.04708 9.59245 8.08964C9.69521 8.13221 9.78304 8.20428 9.84483 8.29676C9.90662 8.38924 9.9396 8.49797 9.9396 8.60919C9.93961 8.68304 9.92508 8.75616 9.89682 8.82439C9.86856 8.89262 9.82714 8.95461 9.77491 9.00682C9.72269 9.05904 9.66069 9.10045 9.59246 9.12869C9.52423 9.15694 9.4511 9.17146 9.37725 9.17144V9.17154ZM12.1889 9.17154C12.0777 9.17166 11.9689 9.13878 11.8763 9.07706C11.7838 9.01534 11.7116 8.92755 11.6689 8.82481C11.6263 8.72206 11.6151 8.60897 11.6367 8.49985C11.6583 8.39072 11.7118 8.29046 11.7904 8.21176C11.8691 8.13305 11.9693 8.07943 12.0784 8.05769C12.1875 8.03594 12.3006 8.04704 12.4034 8.08959C12.5062 8.13213 12.594 8.20421 12.6558 8.2967C12.7177 8.38919 12.7507 8.49794 12.7507 8.60919C12.7507 8.75822 12.6915 8.90115 12.5861 9.00658C12.4808 9.11201 12.3379 9.1713 12.1889 9.17144V9.17154ZM4.3734 5.88199C4.23997 5.88192 4.10955 5.84228 3.99864 5.76809C3.88774 5.69391 3.80132 5.58849 3.75032 5.46519C3.69932 5.34189 3.68603 5.20623 3.71213 5.07538C3.73823 4.94452 3.80255 4.82434 3.89695 4.73004C3.99135 4.63574 4.11159 4.57155 4.24248 4.54558C4.37336 4.51962 4.509 4.53305 4.63225 4.58418C4.7555 4.6353 4.86082 4.72183 4.9349 4.83281C5.00897 4.9438 5.04847 5.07425 5.0484 5.20769C5.04841 5.2963 5.03095 5.38404 4.99702 5.4659C4.96309 5.54776 4.91336 5.62213 4.85067 5.68475C4.78798 5.74738 4.71356 5.79703 4.63167 5.83087C4.54977 5.86472 4.46201 5.88209 4.3734 5.88199ZM7.74685 5.88199C7.61342 5.88192 7.483 5.84228 7.37209 5.76809C7.26119 5.69391 7.17477 5.58849 7.12377 5.46519C7.07277 5.34189 7.05948 5.20623 7.08558 5.07538C7.11168 4.94452 7.176 4.82434 7.2704 4.73004C7.3648 4.63574 7.48504 4.57155 7.61593 4.54558C7.74681 4.51962 7.88245 4.53305 8.0057 4.58418C8.12895 4.6353 8.23427 4.72183 8.30835 4.83281C8.38242 4.9438 8.42192 5.07425 8.42185 5.20769C8.42185 5.2963 8.40439 5.38404 8.37045 5.46589C8.33652 5.54775 8.28679 5.62211 8.2241 5.68474C8.16142 5.74736 8.087 5.79702 8.00511 5.83086C7.92322 5.86471 7.83546 5.88208 7.74685 5.88199Z" fill="#161616"/>
</svg>
