<svg width="16" height="16" viewBox="0 0 16 16" fill="none" xmlns="http://www.w3.org/2000/svg">
<path d="M5.71001 4.14488C5.66266 4.0337 5.58408 3.93863 5.4838 3.87118C5.38353 3.80374 5.26585 3.76681 5.14501 3.76488H3.14501C3.09248 3.7619 3.04001 3.77171 2.99211 3.79349C2.94421 3.81526 2.90231 3.84834 2.87001 3.88988C2.84329 3.93717 2.82924 3.99056 2.82924 4.04488C2.82924 4.0992 2.84329 4.15259 2.87001 4.19988L4.23501 6.56488L2.08501 10.3599C2.05679 10.4067 2.04187 10.4602 2.04187 10.5149C2.04187 10.5695 2.05679 10.6231 2.08501 10.6699C2.11184 10.7144 2.15012 10.7508 2.19586 10.7754C2.2416 10.8001 2.29311 10.812 2.34501 10.8099H4.34501C4.46487 10.8061 4.58097 10.7671 4.67879 10.6978C4.77662 10.6284 4.85182 10.5317 4.89501 10.4199L7.07501 6.56488L5.71001 4.14488Z" fill="#161616"/>
<path d="M13.915 1.43988C13.9408 1.39229 13.9544 1.33902 13.9544 1.28488C13.9544 1.23074 13.9408 1.17746 13.915 1.12988C13.8855 1.08755 13.8456 1.05342 13.7993 1.03069C13.7529 1.00795 13.7016 0.997349 13.65 0.999878H11.61C11.492 1.00321 11.3776 1.0416 11.2814 1.11017C11.1852 1.17873 11.1117 1.27436 11.07 1.38488C11.07 1.38488 6.72001 9.09988 6.57001 9.34988L9.44001 14.6149C9.48679 14.7259 9.5644 14.8211 9.66365 14.8894C9.7629 14.9576 9.87963 14.9959 10 14.9999H12C12.0525 15.0043 12.1053 14.9946 12.1528 14.9717C12.2002 14.9489 12.2407 14.9137 12.27 14.8699C12.2972 14.8228 12.3115 14.7693 12.3115 14.7149C12.3115 14.6605 12.2972 14.607 12.27 14.5599L9.42501 9.35988L13.915 1.43988Z" fill="#161616"/>
</svg>
