<svg width="16" height="16" viewBox="0 0 16 16" fill="none" xmlns="http://www.w3.org/2000/svg">
<path fill-rule="evenodd" clip-rule="evenodd" d="M4.54501 7.62294L6.88031 8.76179C6.97906 8.80993 7.0606 8.88729 7.11388 8.98336C7.16716 9.07944 7.18958 9.18957 7.17812 9.29883C7.16665 9.40809 7.12185 9.51117 7.04979 9.59409C6.97773 9.67701 6.8819 9.73575 6.77531 9.76234L4.25436 10.3909C4.18026 10.4093 4.1031 10.4116 4.02803 10.3978C3.95296 10.3839 3.88172 10.3542 3.81905 10.3106C3.75638 10.267 3.70374 10.2106 3.66464 10.145C3.62554 10.0794 3.60088 10.0063 3.59231 9.93044C3.5147 9.25697 3.58663 8.57468 3.80296 7.93219C3.82736 7.86014 3.86683 7.79412 3.91875 7.73853C3.97067 7.68293 4.03384 7.63904 4.10406 7.60978C4.17427 7.58052 4.24992 7.56656 4.32595 7.56883C4.40199 7.5711 4.47667 7.58954 4.54501 7.62294Z" fill="#161616"/>
<path fill-rule="evenodd" clip-rule="evenodd" d="M5.48001 12.4303L7.21816 10.4996C7.29167 10.418 7.38852 10.361 7.49556 10.3363C7.6026 10.3115 7.71465 10.3204 7.81651 10.3615C7.91837 10.4027 8.0051 10.4741 8.06494 10.5663C8.12478 10.6584 8.15483 10.7667 8.15101 10.8765L8.06031 13.4737C8.05761 13.55 8.03865 13.6248 8.00471 13.6932C7.97077 13.7615 7.92263 13.8218 7.86351 13.8701C7.80438 13.9183 7.73564 13.9534 7.66187 13.9729C7.5881 13.9924 7.51101 13.996 7.43576 13.9833C6.76786 13.8708 6.1326 13.6137 5.57441 13.23C5.51161 13.1868 5.45876 13.1307 5.41938 13.0654C5.38001 13.0002 5.35501 12.9273 5.34608 12.8515C5.33714 12.7758 5.34447 12.6991 5.36756 12.6265C5.39066 12.5538 5.429 12.4869 5.48001 12.4303Z" fill="#161616"/>
<path fill-rule="evenodd" clip-rule="evenodd" d="M9.60126 9.86114L12.0719 10.664C12.1444 10.6876 12.211 10.7263 12.2673 10.7777C12.3236 10.829 12.3683 10.8918 12.3984 10.9618C12.4286 11.0319 12.4434 11.1075 12.4419 11.1837C12.4405 11.2599 12.4228 11.3349 12.39 11.4037C12.0984 12.0151 11.6768 12.5554 11.1547 12.9869C11.0958 13.0355 11.0273 13.0709 10.9536 13.0909C10.88 13.1109 10.8029 13.1149 10.7276 13.1027C10.6522 13.0905 10.5804 13.0623 10.5168 13.0201C10.4533 12.9779 10.3994 12.9225 10.359 12.8578L8.98181 10.6539C8.9236 10.5608 8.89547 10.452 8.90123 10.3422C8.90698 10.2325 8.94635 10.1273 9.01399 10.0407C9.08163 9.95412 9.17426 9.89046 9.27932 9.85834C9.38438 9.82622 9.49678 9.8272 9.60126 9.86114Z" fill="#161616"/>
<path fill-rule="evenodd" clip-rule="evenodd" d="M12.1137 8.28504L9.61626 9.00109C9.51066 9.03136 9.3983 9.02841 9.29444 8.99263C9.19058 8.95686 9.10024 8.88999 9.03568 8.80111C8.97111 8.71223 8.93546 8.60565 8.93355 8.49581C8.93164 8.38597 8.96357 8.27821 9.02501 8.18714L10.478 6.03324C10.5205 5.97019 10.5759 5.91691 10.6406 5.87695C10.7053 5.837 10.7778 5.81128 10.8532 5.80152C10.9286 5.79175 11.0052 5.79816 11.0779 5.82033C11.1507 5.84249 11.2179 5.87989 11.275 5.93004C11.7837 6.3782 12.1872 6.93305 12.4568 7.55504C12.4873 7.62503 12.5025 7.70072 12.5015 7.77707C12.5004 7.85342 12.4831 7.92866 12.4506 7.99777C12.4181 8.06687 12.3712 8.12824 12.3131 8.17779C12.255 8.22733 12.187 8.2639 12.1137 8.28504Z" fill="#161616"/>
<path fill-rule="evenodd" clip-rule="evenodd" d="M6.27806 2.22504C5.83657 2.34313 5.40684 2.50144 4.99426 2.69799C4.92772 2.72987 4.86849 2.77517 4.8203 2.83103C4.77211 2.8869 4.73599 2.95214 4.71422 3.02263C4.69245 3.09313 4.6855 3.16737 4.6938 3.24068C4.7021 3.314 4.72548 3.3848 4.76246 3.44864L7.20341 7.67649C7.26234 7.77854 7.35329 7.85829 7.46216 7.90338C7.57103 7.94847 7.69174 7.95638 7.80556 7.92588C7.91938 7.89539 8.01997 7.82819 8.09171 7.7347C8.16345 7.64122 8.20234 7.52668 8.20236 7.40884V2.52674C8.20247 2.45296 8.18731 2.37996 8.15785 2.31231C8.12838 2.24467 8.08524 2.18385 8.03115 2.13368C7.97705 2.08351 7.91315 2.04508 7.84348 2.02079C7.77381 1.9965 7.69987 1.98688 7.62631 1.99254C7.17073 2.02869 6.71943 2.10651 6.27806 2.22504Z" fill="#161616"/>
</svg>
