<svg width="16" height="16" viewBox="0 0 16 16" fill="none" xmlns="http://www.w3.org/2000/svg">
<path d="M10.5 14H5.50002C5.23489 13.9997 4.98072 13.8943 4.79325 13.7068C4.60577 13.5193 4.50032 13.2651 4.50002 13V8.00002H2.00002C1.90114 8 1.80449 7.97066 1.72229 7.91572C1.64008 7.86078 1.57601 7.78269 1.53818 7.69134C1.50034 7.59999 1.49044 7.49948 1.50972 7.4025C1.52901 7.30553 1.57661 7.21644 1.64652 7.14652L7.64652 1.14652C7.69292 1.10007 7.74803 1.06322 7.80869 1.03808C7.86934 1.01294 7.93436 1 8.00002 1C8.06568 1 8.13069 1.01294 8.19135 1.03808C8.252 1.06322 8.30711 1.10007 8.35352 1.14652L14.3535 7.14652C14.4234 7.21644 14.471 7.30553 14.4903 7.4025C14.5096 7.49948 14.4997 7.59999 14.4619 7.69134C14.424 7.78269 14.3599 7.86078 14.2777 7.91572C14.1955 7.97066 14.0989 8 14 8.00002H11.5V13C11.4997 13.2651 11.3942 13.5193 11.2067 13.7067C11.0193 13.8942 10.7651 13.9997 10.5 14ZM3.20707 7.00002H5.50002V13H10.5V7.00002H12.793L8.00002 2.20707L3.20707 7.00002Z" fill="#161616"/>
</svg>
