<svg width="16" height="16" viewBox="0 0 16 16" fill="none" xmlns="http://www.w3.org/2000/svg">
<path d="M15 11.5H12.5V9.00004H11.5V11.5H9V12.5H11.5V15H12.5V12.5H15V11.5Z" fill="#161616"/>
<path d="M12.0637 5.91974L12.654 6.02654C13.1325 6.10445 13.5837 6.30121 13.9664 6.59879C14.3228 6.88201 14.6023 7.25045 14.7788 7.67012C14.9554 8.08978 15.0234 8.54716 14.9766 9.00004H15.9913C16.053 8.07981 15.7736 7.16908 15.2064 6.44183C14.6391 5.71459 13.8238 5.22181 12.9163 5.05764C12.727 4.07541 12.2476 3.17246 11.5401 2.46537C10.8325 1.75827 9.92926 1.2795 8.9469 1.09084C8.30164 0.966194 7.63813 0.969942 6.99432 1.10187C6.3505 1.23381 5.739 1.49134 5.19477 1.85974C4.65054 2.22814 4.18426 2.7002 3.82258 3.24891C3.4609 3.79763 3.21091 4.41225 3.0869 5.05764C2.1442 5.22794 1.3023 5.7523 0.733731 6.52329C0.165159 7.29427 -0.0870427 8.25351 0.028804 9.20444C0.161514 10.1287 0.626266 10.973 1.33619 11.5795C2.04611 12.186 2.95261 12.5133 3.88625 12.5H7V11.5H3.8489C3.19402 11.5103 2.55605 11.2919 2.04479 10.8825C1.53352 10.4731 1.18094 9.89836 1.0477 9.25709C0.981002 8.9003 0.985508 8.53385 1.06096 8.17881C1.13642 7.82377 1.28133 7.48715 1.48737 7.18832C1.6934 6.8895 1.95649 6.63436 2.2615 6.4376C2.56651 6.24083 2.90741 6.10632 3.2646 6.04179L3.939 5.91974L4.0459 5.36474C4.19609 4.53077 4.60082 3.76375 5.20448 3.16905C5.80814 2.57435 6.58112 2.18114 7.41725 2.04344C7.91911 1.969 8.43057 1.99107 8.92415 2.10844C9.68542 2.29719 10.376 2.70178 10.9128 3.27356C11.4497 3.84535 11.81 4.56001 11.9505 5.33164L12.0637 5.91974Z" fill="#161616"/>
</svg>
