<svg width="16" height="16" viewBox="0 0 16 16" fill="none" xmlns="http://www.w3.org/2000/svg">
<path d="M12.5 13.0001H11.5V15.0001H12.5V13.0001Z" fill="#161616"/>
<path d="M12.5 9.00007H11.5V11.0001H12.5V9.00007Z" fill="#161616"/>
<path d="M15 11.5001H13V12.5001H15V11.5001Z" fill="#161616"/>
<path d="M11 11.5001H8.99999V12.5001H11V11.5001Z" fill="#161616"/>
<path d="M12.6709 5.03016L1.67089 1.03016C1.58146 0.997605 1.4846 0.991253 1.39169 1.01185C1.29878 1.03244 1.21367 1.07912 1.14637 1.14641C1.07906 1.21369 1.03236 1.29879 1.01175 1.3917C0.991134 1.48461 0.997464 1.58147 1.02999 1.67091L5.02999 12.6709C5.06464 12.7661 5.12735 12.8485 5.20982 12.9073C5.2923 12.9661 5.39067 12.9985 5.49194 13.0002H5.49999C5.59996 13.0002 5.69763 12.9702 5.7804 12.9142C5.86318 12.8581 5.92725 12.7785 5.96434 12.6857L7.88499 7.88476L12.6857 5.96436C12.7799 5.9268 12.8603 5.86153 12.9165 5.7772C12.9727 5.69286 13.0019 5.59345 13.0004 5.49213C12.9988 5.39081 12.9664 5.29237 12.9076 5.20984C12.8488 5.12731 12.7661 5.06475 12.6709 5.03016ZM7.11524 7.11516L5.52229 11.098L2.33594 2.33591L11.0981 5.52221L7.11524 7.11516Z" fill="#161616"/>
</svg>
