<svg width="16" height="16" viewBox="0 0 16 16" fill="none" xmlns="http://www.w3.org/2000/svg">
<path d="M6 10.0001H3.5C3.42404 10.0001 3.34909 10.0174 3.28082 10.0507C3.21256 10.0841 3.15278 10.1325 3.10603 10.1924C3.05928 10.2522 3.02679 10.322 3.01101 10.3963C2.99524 10.4706 2.9966 10.5475 3.015 10.6212L3.4846 12.5001H4.5154L4.1404 11.0001H11.8596L11.4846 12.5001H12.5154L12.9851 10.6212C13.0035 10.5475 13.0049 10.4705 12.9891 10.3962C12.9733 10.3219 12.9408 10.2522 12.894 10.1923C12.8473 10.1324 12.7875 10.084 12.7192 10.0507C12.6509 10.0174 12.576 10.0001 12.5 10.0001H7V1.50008C7.00002 1.39519 6.96704 1.29294 6.90575 1.20781C6.84445 1.12269 6.75793 1.059 6.65843 1.02576C6.55894 0.992526 6.45151 0.991421 6.35136 1.02261C6.2512 1.05379 6.16339 1.11569 6.10035 1.19953L1.10375 7.69538C1.04687 7.76939 1.01184 7.85784 1.00263 7.95073C0.993412 8.04362 1.01038 8.13723 1.05162 8.22097C1.09285 8.30471 1.15671 8.37523 1.23595 8.42456C1.31519 8.47389 1.40666 8.50005 1.5 8.50008H6V10.0001ZM2.5154 7.50008L6 2.97008V7.50008H2.5154Z" fill="#161616"/>
<path d="M13.4529 12.8756C13.3698 13.1976 13.182 13.4829 12.9189 13.6865C12.6559 13.8901 12.3326 14.0004 12 14.0001C11.6595 13.9802 11.3326 13.8595 11.0609 13.6532C10.7892 13.447 10.585 13.1645 10.4744 12.8419C10.4407 12.7426 10.3769 12.6564 10.2919 12.5951C10.2068 12.5338 10.1048 12.5006 10 12.5001C9.89534 12.4993 9.79313 12.5317 9.70806 12.5927C9.623 12.6537 9.55947 12.7401 9.5266 12.8394C9.41612 13.1626 9.21194 13.4456 8.94007 13.6523C8.6682 13.859 8.34094 13.98 8 14.0001C7.65948 13.9802 7.33257 13.8595 7.06088 13.6532C6.7892 13.447 6.58503 13.1645 6.47435 12.8419C6.44069 12.7426 6.3769 12.6564 6.29187 12.5951C6.20684 12.5338 6.10481 12.5006 6 12.5001C5.89501 12.4978 5.79211 12.5297 5.70676 12.5909C5.62141 12.6521 5.55819 12.7393 5.5266 12.8394C5.41612 13.1626 5.21194 13.4456 4.94007 13.6523C4.66819 13.859 4.34094 13.98 4 14.0001C3.66739 14.0004 3.34412 13.8901 3.08109 13.6865C2.81805 13.4829 2.6302 13.1976 2.5471 12.8756L1.57885 13.1246C1.71707 13.6616 2.02999 14.1373 2.46834 14.4768C2.90668 14.8164 3.44553 15.0005 4 15.0001C4.38804 15.0035 4.77141 14.9153 5.11894 14.7427C5.46647 14.57 5.76834 14.3177 6 14.0064C6.23404 14.3152 6.5364 14.5656 6.88338 14.738C7.23037 14.9104 7.61255 15.0001 8 15.0001C8.38745 15.0001 8.76964 14.9104 9.11662 14.738C9.4636 14.5656 9.76596 14.3152 10 14.0064C10.2317 14.3177 10.5335 14.57 10.8811 14.7427C11.2286 14.9153 11.612 15.0035 12 15.0001C12.5545 15.0005 13.0933 14.8164 13.5317 14.4768C13.97 14.1373 14.2829 13.6616 14.4212 13.1246L13.4529 12.8756Z" fill="#161616"/>
<path d="M14.9558 6.96783L11.8142 1.18538C11.7832 1.12925 11.7376 1.08246 11.6824 1.04987C11.6271 1.01729 11.5641 1.0001 11.5 1.0001C11.4359 1.0001 11.3729 1.01729 11.3176 1.04987C11.2624 1.08246 11.2168 1.12925 11.1858 1.18538L8.04425 6.96783C8.01439 7.02264 7.99929 7.08426 8.00043 7.14666C8.00157 7.20905 8.01891 7.27009 8.05075 7.32376C8.08259 7.37744 8.12784 7.42191 8.18206 7.45282C8.23627 7.48373 8.29759 7.50002 8.36 7.50008H14.64C14.7024 7.50002 14.7637 7.48373 14.8179 7.45282C14.8722 7.42191 14.9174 7.37744 14.9493 7.32376C14.9811 7.27009 14.9984 7.20905 14.9996 7.14666C15.0007 7.08426 14.9856 7.02264 14.9558 6.96783ZM11.125 3.00008H11.875V5.00008H11.125V3.00008ZM11.5 6.50008C11.4011 6.50008 11.3044 6.47076 11.2222 6.41582C11.14 6.36088 11.0759 6.28279 11.0381 6.19143C11.0002 6.10006 10.9903 5.99953 11.0096 5.90254C11.0289 5.80555 11.0765 5.71646 11.1464 5.64653C11.2164 5.5766 11.3055 5.52898 11.4025 5.50969C11.4994 5.4904 11.6 5.5003 11.6913 5.53814C11.7827 5.57599 11.8608 5.64007 11.9157 5.7223C11.9707 5.80452 12 5.90119 12 6.00008C12 6.13269 11.9473 6.25987 11.8536 6.35364C11.7598 6.44741 11.6326 6.50008 11.5 6.50008Z" fill="#161616"/>
</svg>
