<svg width="16" height="16" viewBox="0 0 16 16" fill="none" xmlns="http://www.w3.org/2000/svg">
<path d="M4.59 9.28505C4.5321 9.02734 4.50193 8.76418 4.5 8.50005V7.00005H3.5V8.50005C3.49812 9.04337 3.59643 9.58238 3.79 10.09L4.59 9.28505Z" fill="#161616"/>
<path d="M6.5 7.50005V3.50005C6.5 3.10222 6.65804 2.72069 6.93934 2.43939C7.22064 2.15808 7.60218 2.00005 8 2.00005C8.39782 2.00005 8.77936 2.15808 9.06066 2.43939C9.34196 2.72069 9.5 3.10222 9.5 3.50005V4.37505L10.5 3.37505C10.4834 2.71201 10.2041 2.08271 9.72357 1.62559C9.24301 1.16847 8.60054 0.920974 7.9375 0.93755C7.27446 0.954126 6.64516 1.23341 6.18804 1.71398C5.73092 2.19454 5.48342 2.83701 5.5 3.50005V7.50005H6.5Z" fill="#161616"/>
<path d="M11.5 8.50005C11.498 9.17848 11.299 9.84171 10.927 10.4091C10.555 10.9764 10.0261 11.4234 9.40474 11.6957C8.78335 11.968 8.09622 12.0538 7.42695 11.9428C6.75768 11.8317 6.13511 11.5285 5.635 11.07L6.345 10.365C6.70516 10.6832 7.14937 10.8907 7.62446 10.9629C8.09954 11.0351 8.58536 10.9689 9.02376 10.7721C9.46216 10.5753 9.83455 10.2563 10.0964 9.8534C10.3582 9.45045 10.4983 8.98058 10.5 8.50005V6.21005L15 1.71005L14.295 1.00005L1 14.295L1.705 15L4.925 11.78C5.63075 12.4467 6.53493 12.8645 7.5 12.97V14H5.5V15H10.5V14H8.5V12.97C9.59968 12.8471 10.6155 12.3233 11.3534 11.4987C12.0913 10.6741 12.4995 9.60658 12.5 8.50005V7.00005H11.5V8.50005ZM9.5 8.50005C9.4989 8.78352 9.4175 9.06088 9.26523 9.29998C9.11296 9.53909 8.89605 9.73015 8.63964 9.85103C8.38323 9.97191 8.09782 10.0177 7.81647 9.98297C7.53513 9.94828 7.26937 9.83459 7.05 9.65505L9.5 7.21005V8.50005Z" fill="#161616"/>
</svg>
