<svg width="16" height="16" viewBox="0 0 16 16" fill="none" xmlns="http://www.w3.org/2000/svg">
<path d="M12.25 13.5001C12.6642 13.5001 13 13.1643 13 12.7501C13 12.3358 12.6642 12.0001 12.25 12.0001C11.8358 12.0001 11.5 12.3358 11.5 12.7501C11.5 13.1643 11.8358 13.5001 12.25 13.5001Z" fill="#161616"/>
<path d="M10.75 15.5001C11.1642 15.5001 11.5 15.1643 11.5 14.7501C11.5 14.3358 11.1642 14.0001 10.75 14.0001C10.3358 14.0001 9.99997 14.3358 9.99997 14.7501C9.99997 15.1643 10.3358 15.5001 10.75 15.5001Z" fill="#161616"/>
<path d="M7.93397 15.2481L7.06597 14.7521L8.63797 12.0001H5.63847L8.06597 7.75205L8.93397 8.24805L7.36147 11.0001H10.362L7.93397 15.2481Z" fill="#161616"/>
<path d="M4.49997 16.0001C4.41473 16.0001 4.3309 15.9783 4.25645 15.9368C4.182 15.8953 4.1194 15.8354 4.07459 15.7629C4.02978 15.6904 4.00426 15.6076 4.00044 15.5225C3.99662 15.4373 4.01463 15.3526 4.05277 15.2764L5.05277 13.2761C5.08214 13.2174 5.1228 13.165 5.17241 13.122C5.22202 13.079 5.27962 13.0462 5.34191 13.0254C5.40421 13.0046 5.46999 12.9964 5.53548 13.001C5.60098 13.0057 5.66492 13.0232 5.72365 13.0526C5.78237 13.0819 5.83474 13.1226 5.87776 13.1722C5.92077 13.2218 5.95359 13.2794 5.97435 13.3417C5.99511 13.404 6.00339 13.4698 5.99873 13.5353C5.99406 13.6008 5.97654 13.6647 5.94717 13.7235L4.94717 15.7235C4.90576 15.8066 4.84196 15.8766 4.76296 15.9254C4.68395 15.9743 4.59287 16.0001 4.49997 16.0001Z" fill="#161616"/>
<path d="M12.4004 4.56815C12.1873 3.55901 11.6339 2.65376 10.8328 2.00414C10.0317 1.35452 9.03161 1 8.00022 1C6.96883 1 5.96878 1.35452 5.16769 2.00414C4.36659 2.65376 3.81313 3.55901 3.60007 4.56815C2.85646 4.71928 2.18928 5.12611 1.71443 5.71797C1.23957 6.30984 0.987043 7.04935 1.00071 7.80804C1.01438 8.56672 1.29337 9.29666 1.78924 9.87104C2.2851 10.4454 2.9665 10.828 3.71507 10.9522L3.05297 12.2764C3.02239 12.3352 3.00382 12.3996 2.99834 12.4657C2.99286 12.5317 3.00059 12.5983 3.02106 12.6613C3.04153 12.7244 3.07434 12.7828 3.11759 12.8331C3.16084 12.8833 3.21365 12.9245 3.27296 12.9542C3.33226 12.9838 3.39688 13.0014 3.46304 13.0058C3.5292 13.0103 3.59559 13.0015 3.65834 12.9801C3.72109 12.9587 3.77894 12.9249 3.82854 12.8809C3.87813 12.8369 3.91848 12.7835 3.94722 12.7237L4.94722 10.7237C4.9766 10.665 4.99413 10.601 4.99879 10.5355C5.00346 10.47 4.99518 10.4043 4.97443 10.342C4.95368 10.2797 4.92085 10.2221 4.87784 10.1724C4.83482 10.1228 4.78245 10.0822 4.72372 10.0528C4.65396 10.0194 4.57728 10.0031 4.49997 10.0051V10.0001H4.24997C3.66886 10.0002 3.11025 9.77546 2.69122 9.37284C2.27219 8.97022 2.0253 8.42102 2.00228 7.84037C1.97926 7.25972 2.18192 6.6927 2.56776 6.25818C2.9536 5.82366 3.49267 5.55537 4.07197 5.50955L4.47972 5.4776L4.52927 5.0716C4.63309 4.22414 5.04337 3.44395 5.68275 2.87812C6.32213 2.31229 7.14642 1.99993 8.00022 1.99993C8.85402 1.99993 9.67831 2.31229 10.3177 2.87812C10.9571 3.44395 11.3673 4.22414 11.4712 5.0716L11.5205 5.4776L11.9282 5.50955C12.5075 5.55537 13.0466 5.82367 13.4324 6.25822C13.8183 6.69276 14.0209 7.2598 13.9979 7.84047C13.9748 8.42114 13.7279 8.97034 13.3088 9.37294C12.8897 9.77555 12.3311 10.0003 11.75 10.0001H11.5V11.0001H11.75C12.5552 11.0004 13.3319 10.7016 13.9294 10.1618C14.5268 9.62189 14.9025 8.87936 14.9835 8.0782C15.0645 7.27703 14.8451 6.47433 14.3678 5.82577C13.8905 5.17722 13.1894 4.72903 12.4004 4.56815Z" fill="#161616"/>
</svg>
