<svg width="16" height="16" viewBox="0 0 16 16" fill="none" xmlns="http://www.w3.org/2000/svg">
<path d="M14.9219 7.51742C14.8659 7.39802 14.7797 7.29529 14.6718 7.21937C14.564 7.14346 14.4382 7.09698 14.3069 7.08452C13.6526 7.01765 13.0458 6.71227 12.6022 6.22662C12.2214 5.79863 11.9611 5.27712 11.8481 4.7155C11.7351 4.15387 11.7734 3.5723 11.959 3.03032C12.0027 2.89951 12.0119 2.75964 11.9857 2.62422C11.9596 2.48881 11.8989 2.36245 11.8095 2.25737C11.7276 2.16051 11.6217 2.0868 11.5024 2.04355C11.3831 2.00029 11.2545 1.98901 11.1295 2.01082L11.12 2.01277C10.2637 2.20089 9.49392 2.66761 8.93117 3.33989C8.36842 4.01218 8.04446 4.85207 8.00999 5.72812C7.60653 5.57909 7.18009 5.50191 6.74999 5.50007C5.95378 5.50436 5.1793 5.76026 4.53728 6.23119C3.89525 6.70212 3.41854 7.36396 3.17529 8.12212C2.47976 8.32026 1.87937 8.76327 1.48489 9.36941C1.09042 9.97554 0.92848 10.7039 1.02896 11.4201C1.12945 12.1363 1.48557 12.7919 2.03162 13.2661C2.57767 13.7403 3.27679 14.001 3.99999 14.0001H9.49999C9.98442 14.0019 10.462 13.886 10.8917 13.6623C11.3214 13.4385 11.6902 13.1137 11.9665 12.7157C12.2427 12.3178 12.4181 11.8586 12.4775 11.3779C12.5368 10.8971 12.4785 10.4091 12.3073 9.95587C12.8291 9.87254 13.3275 9.67995 13.7697 9.39071C14.2119 9.10147 14.5881 8.7221 14.8735 8.27742C14.9469 8.16586 14.99 8.0371 14.9985 7.90383C15.0069 7.77056 14.9805 7.63738 14.9219 7.51742ZM9.49999 13.0001H3.99999C3.49918 13.0009 3.01633 12.8135 2.64723 12.4751C2.27812 12.1366 2.04973 11.6717 2.00736 11.1727C1.96499 10.6737 2.11173 10.1769 2.41847 9.78106C2.72521 9.38518 3.16955 9.11905 3.66334 9.03547L3.99484 8.97907L4.06764 8.65097C4.20345 8.04083 4.54322 7.49523 5.03087 7.10419C5.51852 6.71315 6.12492 6.50005 6.74999 6.50005C7.37506 6.50005 7.98146 6.71315 8.46911 7.10419C8.95676 7.49523 9.29653 8.04083 9.43234 8.65097L9.50514 8.97907L9.83644 9.03547C10.3303 9.11892 10.7748 9.38498 11.0817 9.78087C11.3885 10.1768 11.5353 10.6735 11.493 11.1726C11.4506 11.6717 11.2222 12.1367 10.853 12.4752C10.4838 12.8137 10.0009 13.001 9.49999 13.0001ZM11.7326 8.99957H11.7218C11.348 8.5814 10.8637 8.27725 10.3247 8.12212C10.0896 7.39069 9.63569 6.74902 9.02429 6.28377C9.01929 6.23297 9.00624 6.18487 9.00379 6.13337C8.96021 5.49368 9.12007 4.85659 9.46051 4.31325C9.80094 3.76992 10.3045 3.34818 10.8991 3.10837C10.7422 3.77277 10.7485 4.46528 10.9174 5.12674C11.0863 5.78819 11.4129 6.39891 11.8691 6.90672C12.3883 7.47119 13.07 7.86042 13.82 8.02057C13.5652 8.32696 13.2462 8.57351 12.8854 8.74271C12.5247 8.9119 12.1311 8.9996 11.7326 8.99957Z" fill="#161616"/>
</svg>
