<svg width="16" height="16" viewBox="0 0 16 16" fill="none" xmlns="http://www.w3.org/2000/svg">
<path d="M11 14H5.00002C4.91589 14 4.83312 13.9788 4.75937 13.9383C4.68563 13.8979 4.62328 13.8394 4.57812 13.7684L1.07812 8.26845C1.02706 8.18822 0.999939 8.0951 0.999939 8C0.999939 7.9049 1.02706 7.81178 1.07812 7.73155L4.57812 2.23155C4.62328 2.16058 4.68563 2.10215 4.75937 2.06168C4.83312 2.0212 4.91589 1.99999 5.00002 2H11C11.0841 1.99999 11.1669 2.0212 11.2407 2.06168C11.3144 2.10215 11.3767 2.16058 11.4219 2.23155L14.9219 7.73155C14.973 7.81178 15.0001 7.9049 15.0001 8C15.0001 8.0951 14.973 8.18822 14.9219 8.26845L11.4219 13.7684C11.3767 13.8394 11.3144 13.8979 11.2407 13.9383C11.1669 13.9788 11.0841 14 11 14ZM5.27442 13H10.7256L13.9073 8L10.7256 3H5.27442L2.09277 8L5.27442 13Z" fill="#161616"/>
<path d="M9.75002 12H6.25002C6.16629 12 6.0839 11.979 6.01041 11.9388C5.93692 11.8987 5.87467 11.8408 5.82937 11.7704L3.57937 8.2704C3.52761 8.18971 3.50009 8.09586 3.50009 8C3.50009 7.90414 3.52761 7.81029 3.57937 7.7296L5.82937 4.2296C5.87467 4.15918 5.93692 4.10126 6.01041 4.06115C6.0839 4.02104 6.16629 4.00001 6.25002 4H9.75002C9.83374 4.00001 9.91613 4.02104 9.98962 4.06115C10.0631 4.10126 10.1254 4.15918 10.1707 4.2296L12.4207 7.7296C12.4724 7.81029 12.4999 7.90414 12.4999 8C12.4999 8.09586 12.4724 8.18971 12.4207 8.2704L10.1707 11.7704C10.1254 11.8408 10.0631 11.8987 9.98962 11.9388C9.91613 11.979 9.83374 12 9.75002 12ZM6.52297 11H9.47707L11.4055 8L9.47707 5H6.52297L4.59452 8L6.52297 11Z" fill="#161616"/>
</svg>
