<svg width="16" height="16" viewBox="0 0 16 16" fill="none" xmlns="http://www.w3.org/2000/svg">
<path d="M11 11.5H6.91497L8.20497 10.205L7.49997 9.50002L4.99997 12L7.49997 14.5L8.20497 13.795L6.91497 12.5H11V11.5Z" fill="#161616"/>
<path d="M5.49997 6.50002H9.58497L8.29497 5.20502L8.99997 4.50002L11.5 7.00002L8.99997 9.50002L8.29497 8.79502L9.58497 7.50002H5.49997V6.50002Z" fill="#161616"/>
<path d="M12.25 12.5H12V11.5H12.25C12.9628 11.5005 13.6479 11.224 14.1607 10.7288C14.6734 10.2337 14.9737 9.55866 14.9982 8.84627C15.0227 8.13388 14.7694 7.43986 14.2918 6.91071C13.8142 6.38156 13.1496 6.05869 12.4385 6.01027L12.0202 5.98197L11.9752 5.56497C11.8683 4.58531 11.4034 3.67962 10.6698 3.02167C9.93612 2.36371 8.98535 1.99983 7.99987 1.99983C7.0144 1.99983 6.06363 2.36371 5.32997 3.02167C4.59631 3.67962 4.13143 4.58531 4.02452 5.56497L3.97952 5.98197L3.56127 6.01027C2.85009 6.0587 2.18556 6.38158 1.70795 6.91075C1.23035 7.43991 0.977056 8.13396 1.00154 8.84637C1.02603 9.55878 1.32638 10.2338 1.8392 10.7289C2.35201 11.224 3.03715 11.5005 3.74997 11.5H3.99997V12.5H3.74997C2.813 12.5005 1.90984 12.15 1.21845 11.5176C0.527056 10.8852 0.0975834 10.0168 0.0146559 9.08356C-0.0682715 8.15026 0.201361 7.21975 0.770422 6.47538C1.33948 5.73101 2.1667 5.22677 3.08907 5.06202C3.30723 3.91936 3.91701 2.88854 4.8134 2.1471C5.7098 1.40565 6.83668 1 7.99997 1C9.16327 1 10.2902 1.40565 11.1865 2.1471C12.0829 2.88854 12.6927 3.91936 12.9109 5.06202C13.8332 5.22677 14.6605 5.73101 15.2295 6.47538C15.7986 7.21975 16.0682 8.15026 15.9853 9.08356C15.9024 10.0168 15.4729 10.8852 14.7815 11.5176C14.0901 12.15 13.1869 12.5005 12.25 12.5Z" fill="#161616"/>
</svg>
