<svg width="16" height="16" viewBox="0 0 16 16" fill="none" xmlns="http://www.w3.org/2000/svg">
<path d="M8.49997 8.5H11.071C11.1927 8.97133 11.4821 9.3821 11.885 9.65531C12.2879 9.92851 12.7766 10.0454 13.2595 9.98406C13.7424 9.92273 14.1864 9.68737 14.5082 9.32212C14.83 8.95687 15.0075 8.48679 15.0075 8C15.0075 7.51322 14.83 7.04314 14.5082 6.67789C14.1864 6.31264 13.7424 6.07728 13.2595 6.01595C12.7766 5.95461 12.2879 6.0715 11.885 6.3447C11.4821 6.61791 11.1927 7.02868 11.071 7.5H8.49997V3.5H11.071C11.1927 3.97133 11.4821 4.3821 11.885 4.65531C12.2879 4.92851 12.7766 5.0454 13.2595 4.98406C13.7424 4.92273 14.1864 4.68737 14.5082 4.32212C14.83 3.95687 15.0075 3.48679 15.0075 3C15.0075 2.51322 14.83 2.04314 14.5082 1.67789C14.1864 1.31264 13.7424 1.07728 13.2595 1.01595C12.7766 0.954608 12.2879 1.0715 11.885 1.3447C11.4821 1.61791 11.1927 2.02868 11.071 2.5H8.49997C8.23485 2.50031 7.98067 2.60576 7.7932 2.79323C7.60573 2.9807 7.50028 3.23488 7.49997 3.5V7.5H4.92892C4.80723 7.02868 4.51781 6.61791 4.11492 6.3447C3.71203 6.0715 3.22333 5.95461 2.74042 6.01595C2.25752 6.07728 1.81356 6.31264 1.49176 6.67789C1.16997 7.04314 0.992432 7.51322 0.992432 8C0.992432 8.48679 1.16997 8.95687 1.49176 9.32212C1.81356 9.68737 2.25752 9.92273 2.74042 9.98406C3.22333 10.0454 3.71203 9.92851 4.11492 9.65531C4.51781 9.3821 4.80723 8.97133 4.92892 8.5H7.49997V12.5C7.50028 12.7651 7.60573 13.0193 7.7932 13.2068C7.98067 13.3942 8.23485 13.4997 8.49997 13.5H11.071C11.1927 13.9713 11.4821 14.3821 11.885 14.6553C12.2879 14.9285 12.7766 15.0454 13.2595 14.9841C13.7424 14.9227 14.1864 14.6874 14.5082 14.3221C14.83 13.9569 15.0075 13.4868 15.0075 13C15.0075 12.5132 14.83 12.0431 14.5082 11.6779C14.1864 11.3126 13.7424 11.0773 13.2595 11.0159C12.7766 10.9546 12.2879 11.0715 11.885 11.3447C11.4821 11.6179 11.1927 12.0287 11.071 12.5H8.49997V8.5ZM13 7C13.1978 7 13.3911 7.05865 13.5555 7.16854C13.72 7.27842 13.8482 7.4346 13.9239 7.61732C13.9995 7.80005 14.0193 8.00111 13.9808 8.1951C13.9422 8.38908 13.8469 8.56726 13.7071 8.70711C13.5672 8.84696 13.389 8.9422 13.1951 8.98079C13.0011 9.01938 12.8 8.99957 12.6173 8.92388C12.4346 8.8482 12.2784 8.72002 12.1685 8.55558C12.0586 8.39113 12 8.19779 12 8C12.0003 7.73488 12.1057 7.4807 12.2932 7.29323C12.4807 7.10576 12.7348 7.00031 13 7ZM13 2C13.1978 2 13.3911 2.05865 13.5555 2.16854C13.72 2.27842 13.8482 2.4346 13.9239 2.61732C13.9995 2.80005 14.0193 3.00111 13.9808 3.1951C13.9422 3.38908 13.8469 3.56726 13.7071 3.70711C13.5672 3.84696 13.389 3.9422 13.1951 3.98079C13.0011 4.01938 12.8 3.99957 12.6173 3.92388C12.4346 3.8482 12.2784 3.72002 12.1685 3.55557C12.0586 3.39113 12 3.19779 12 3C12.0003 2.73488 12.1057 2.4807 12.2932 2.29323C12.4807 2.10576 12.7348 2.00031 13 2ZM2.99997 9C2.80219 9 2.60885 8.94136 2.4444 8.83147C2.27995 8.72159 2.15178 8.56541 2.07609 8.38269C2.00041 8.19996 1.9806 7.9989 2.01919 7.80491C2.05777 7.61093 2.15301 7.43275 2.29287 7.2929C2.43272 7.15305 2.6109 7.0578 2.80488 7.01922C2.99886 6.98063 3.19993 7.00044 3.38266 7.07613C3.56538 7.15181 3.72156 7.27999 3.83144 7.44443C3.94132 7.60888 3.99997 7.80222 3.99997 8C3.99967 8.26513 3.89421 8.51931 3.70674 8.70678C3.51927 8.89425 3.2651 8.9997 2.99997 9ZM13 12C13.1978 12 13.3911 12.0587 13.5555 12.1685C13.72 12.2784 13.8482 12.4346 13.9239 12.6173C13.9995 12.8 14.0193 13.0011 13.9808 13.1951C13.9422 13.3891 13.8469 13.5673 13.7071 13.7071C13.5672 13.847 13.389 13.9422 13.1951 13.9808C13.0011 14.0194 12.8 13.9996 12.6173 13.9239C12.4346 13.8482 12.2784 13.72 12.1685 13.5556C12.0586 13.3911 12 13.1978 12 13C12.0003 12.7349 12.1057 12.4807 12.2932 12.2932C12.4807 12.1058 12.7348 12.0003 13 12Z" fill="#161616"/>
</svg>
