<svg width="16" height="16" viewBox="0 0 16 16" fill="none" xmlns="http://www.w3.org/2000/svg">
<path d="M1.99998 13.0001H0.999975V14.0001H1.99998V13.0001Z" fill="#161616"/>
<path d="M2.99998 14.0001H1.99998V15.0001H2.99998V14.0001Z" fill="#161616"/>
<path d="M3.99998 15.0001H2.99998V16.0001H3.99998V15.0001Z" fill="#161616"/>
<path d="M3.99998 13.0001H2.99998V14.0001H3.99998V13.0001Z" fill="#161616"/>
<path d="M1.99998 15.0001H0.999975V16.0001H1.99998V15.0001Z" fill="#161616"/>
<path d="M11 13.0001H9.99998V14.0001H11V13.0001Z" fill="#161616"/>
<path d="M12 14.0001H11V15.0001H12V14.0001Z" fill="#161616"/>
<path d="M13 15.0001H12V16.0001H13V15.0001Z" fill="#161616"/>
<path d="M13 13.0001H12V14.0001H13V13.0001Z" fill="#161616"/>
<path d="M11 15.0001H9.99998V16.0001H11V15.0001Z" fill="#161616"/>
<path d="M6.49998 13.0001H5.49998V14.0001H6.49998V13.0001Z" fill="#161616"/>
<path d="M7.49998 14.0001H6.49998V15.0001H7.49998V14.0001Z" fill="#161616"/>
<path d="M8.49998 15.0001H7.49998V16.0001H8.49998V15.0001Z" fill="#161616"/>
<path d="M8.49998 13.0001H7.49998V14.0001H8.49998V13.0001Z" fill="#161616"/>
<path d="M6.49998 15.0001H5.49998V16.0001H6.49998V15.0001Z" fill="#161616"/>
<path d="M14.9219 6.51742C14.8659 6.39802 14.7797 6.29529 14.6719 6.21938C14.564 6.14346 14.4382 6.09698 14.3069 6.08452C13.6526 6.01764 13.0458 5.71226 12.6022 5.22662C12.2214 4.7986 11.9612 4.27709 11.8482 3.71547C11.7352 3.15384 11.7735 2.57228 11.9592 2.03032C12.0029 1.89951 12.0121 1.75964 11.9859 1.62422C11.9597 1.48881 11.8991 1.36245 11.8097 1.25737C11.7277 1.16052 11.6218 1.0868 11.5026 1.04355C11.3833 1.00029 11.2547 0.989012 11.1297 1.01082L11.1202 1.01277C10.4207 1.16145 9.7759 1.50032 9.25674 1.99205C8.73757 2.48377 8.36422 3.10927 8.17782 3.79962C7.72659 3.60562 7.24113 3.50377 6.74998 3.50007C5.95376 3.50436 5.17929 3.76026 4.53726 4.23119C3.89524 4.70212 3.41852 5.36396 3.17528 6.12212C2.47975 6.32026 1.87935 6.76327 1.48488 7.36941C1.0904 7.97554 0.928465 8.7039 1.02895 9.42009C1.12943 10.1363 1.48555 10.7919 2.0316 11.2661C2.57765 11.7403 3.27678 12.001 3.99998 12.0001H9.49998C10.2954 11.9992 11.0579 11.6828 11.6203 11.1204C12.1828 10.558 12.4991 9.79545 12.5 9.00007C12.5 8.97152 12.4938 8.94442 12.493 8.91582C12.9784 8.81355 13.4387 8.6161 13.8473 8.33488C14.2559 8.05366 14.6047 7.69425 14.8736 7.27742C14.947 7.16586 14.99 7.0371 14.9985 6.90383C15.007 6.77056 14.9806 6.63738 14.9219 6.51742ZM9.49998 11.0001H3.99998C3.49916 11.0009 3.01631 10.8135 2.64721 10.4751C2.27811 10.1366 2.04972 9.6717 2.00735 9.17268C1.96497 8.67366 2.11171 8.17694 2.41845 7.78106C2.7252 7.38518 3.16953 7.11905 3.66333 7.03547L3.99483 6.97907L4.06763 6.65097C4.20344 6.04083 4.54321 5.49523 5.03086 5.10419C5.51851 4.71315 6.1249 4.50005 6.74998 4.50005C7.37505 4.50005 7.98144 4.71315 8.46909 5.10419C8.95675 5.49523 9.29651 6.04083 9.43233 6.65097L9.50513 6.97907L9.83642 7.03547C10.3303 7.11891 10.7748 7.38498 11.0816 7.78087C11.3885 8.17675 11.5353 8.67353 11.493 9.17263C11.4506 9.67172 11.2222 10.1367 10.853 10.4752C10.4838 10.8137 10.0009 11.001 9.49998 11.0001ZM12.2987 7.93562C12.1339 7.50029 11.8696 7.10955 11.5268 6.79465C11.1841 6.47976 10.7724 6.24944 10.3247 6.12212C10.0965 5.41524 9.66334 4.79217 9.08018 4.33212C9.16883 3.8372 9.38247 3.37315 9.70082 2.98398C10.0192 2.59481 10.4317 2.29344 10.8992 2.10847C10.7423 2.77287 10.7486 3.46538 10.9175 4.12684C11.0864 4.78829 11.413 5.39901 11.8692 5.90682C12.3884 6.47124 13.07 6.86042 13.82 7.02057C13.4293 7.48689 12.8937 7.80902 12.2987 7.93562Z" fill="#161616"/>
</svg>
