<svg width="16" height="16" viewBox="0 0 16 16" fill="none" xmlns="http://www.w3.org/2000/svg">
<path d="M12.4542 14.4701L8.41592 7.24395C8.37454 7.16999 8.31419 7.1084 8.24109 7.06553C8.16798 7.02265 8.08477 7.00005 8.00002 7.00005C7.91527 7.00005 7.83205 7.02265 7.75895 7.06553C7.68584 7.1084 7.62549 7.16999 7.58412 7.24395L3.54582 14.4701C3.51548 14.5243 3.49986 14.5855 3.50049 14.6476C3.50112 14.7097 3.51799 14.7706 3.54942 14.8241C3.58085 14.8777 3.62574 14.9221 3.67965 14.953C3.73356 14.9839 3.7946 15.0001 3.85672 15.0001H12.1434C12.2055 15.0001 12.2665 14.9839 12.3204 14.953C12.3744 14.9221 12.4193 14.8777 12.4507 14.8241C12.4821 14.7705 12.499 14.7097 12.4996 14.6476C12.5002 14.5854 12.4846 14.5243 12.4542 14.4701ZM7.56252 9.50005H8.43752V12.2501H7.56252V9.50005ZM8.00002 14.0001C7.90113 14.0001 7.80446 13.9707 7.72223 13.9158C7.64001 13.8608 7.57592 13.7828 7.53808 13.6914C7.50024 13.6 7.49033 13.4995 7.50963 13.4025C7.52892 13.3055 7.57654 13.2164 7.64647 13.1465C7.71639 13.0766 7.80548 13.029 7.90247 13.0097C7.99946 12.9904 8.1 13.0003 8.19136 13.0381C8.28272 13.076 8.36081 13.14 8.41575 13.2223C8.47069 13.3045 8.50002 13.4012 8.50002 13.5001C8.50002 13.6327 8.44734 13.7598 8.35357 13.8536C8.2598 13.9474 8.13263 14.0001 8.00002 14.0001Z" fill="#161616"/>
<path d="M12.4004 4.56815C12.1874 3.55901 11.6339 2.65376 10.8328 2.00414C10.0317 1.35452 9.03166 1 8.00027 1C6.96888 1 5.96883 1.35452 5.16773 2.00414C4.36664 2.65376 3.81318 3.55901 3.60012 4.56815C2.8274 4.72511 2.13823 5.15794 1.66128 5.78583C1.18432 6.41372 0.952199 7.19373 1.00825 7.98023C1.06429 8.76673 1.40468 9.50595 1.96585 10.0599C2.52702 10.6138 3.2706 10.9445 4.05777 10.9903L4.61087 10.0001H4.25002C3.81737 10.002 3.39342 9.87863 3.02938 9.64483C2.66535 9.41103 2.37681 9.0768 2.19864 8.68254C2.02047 8.28828 1.96029 7.85086 2.02536 7.42313C2.09044 6.99541 2.278 6.59568 2.56537 6.27225L5.21387 8.92045L5.72037 8.0137L3.39037 5.6834C3.6068 5.58928 3.83695 5.53058 4.07202 5.50955L4.47977 5.4776L4.52932 5.0716C4.54117 4.9744 4.55837 4.8792 4.57792 4.78495L6.46792 6.67535L6.97482 5.76785L4.96802 3.76105C5.21562 3.32901 5.55231 2.95459 5.95572 2.66265L12.9431 9.65005C12.5866 9.87748 12.1728 9.99887 11.75 10.0001H11.3881L11.9416 10.9901C12.7287 10.9444 13.4724 10.6138 14.0337 10.06C14.5949 9.50616 14.9355 8.767 14.9916 7.98051C15.0478 7.19401 14.8159 6.41395 14.339 5.78597C13.8622 5.15799 13.1731 4.72527 12.4004 4.56815ZM13.6501 8.94315L6.89117 2.18415C7.38249 2.01783 7.90474 1.96323 8.41984 2.02432C8.93495 2.08541 9.42993 2.26066 9.86872 2.53729C10.3075 2.81393 10.6791 3.18498 10.9563 3.6234C11.2335 4.06183 11.4094 4.55658 11.4712 5.0716L11.5205 5.4776L11.9282 5.50955C12.4911 5.55624 13.0162 5.81221 13.3997 6.22697C13.7833 6.64172 13.9974 7.18515 14 7.75005C13.9988 8.17289 13.8775 8.58668 13.6501 8.94315Z" fill="#161616"/>
</svg>
