<svg width="16" height="16" viewBox="0 0 16 16" fill="none" xmlns="http://www.w3.org/2000/svg">
<path d="M15 9.5C15.0009 8.99492 14.848 8.50154 14.5617 8.08548C14.2753 7.66942 13.869 7.35042 13.3969 7.1709C13.2293 6.47368 12.8508 5.84513 12.3128 5.37094C11.7749 4.89675 11.1039 4.60001 10.3911 4.52118C9.67838 4.44235 8.95867 4.58527 8.33013 4.93045C7.7016 5.27562 7.19482 5.80626 6.87889 6.45C6.42705 5.06211 6.45017 3.56329 6.94459 2.19C6.97372 2.1146 6.98441 2.03333 6.97578 1.95296C6.96715 1.87259 6.93944 1.79544 6.89497 1.72794C6.8505 1.66044 6.79055 1.60454 6.72011 1.56489C6.64966 1.52525 6.57077 1.503 6.48999 1.5C6.46072 1.49999 6.4315 1.5026 6.40269 1.5078C4.81059 1.79059 3.37942 2.6525 2.38487 3.92751C1.39032 5.20252 0.902725 6.80044 1.01601 8.4135C1.12929 10.0266 1.83543 11.5406 2.99842 12.6641C4.16141 13.7876 5.69899 14.4411 7.31499 14.4986C7.39699 14.5017 7.47904 14.4986 7.56034 14.4986C8.55313 14.498 9.53269 14.2708 10.4243 13.8342C11.316 13.3976 12.0961 12.7631 12.7053 11.9792C13.329 11.929 13.9111 11.6463 14.3361 11.1871C14.7611 10.7278 14.9981 10.1257 15 9.5ZM7.35169 13.4988C6.05603 13.4529 4.81735 12.9547 3.8508 12.0906C2.88424 11.2266 2.25086 10.0513 2.06067 8.7688C1.87047 7.48635 2.13548 6.17779 2.80966 5.0704C3.48384 3.963 4.52461 3.12672 5.75119 2.7068C5.39254 4.27339 5.54035 5.91339 6.17334 7.3906C5.71342 7.67768 5.35958 8.10681 5.16541 8.61302C4.97124 9.11922 4.94732 9.67491 5.09728 10.1959C5.24723 10.7169 5.56289 11.1749 5.99645 11.5004C6.43 11.826 6.95783 12.0013 7.49999 12H11.3386C10.3141 12.9594 8.96412 13.4949 7.56054 13.4988C7.49134 13.4988 7.42139 13.5012 7.35169 13.4988ZM12.5 11H7.49999C7.13278 11.0007 6.77813 10.8664 6.50348 10.6226C6.22882 10.3789 6.05332 10.0427 6.01034 9.678C5.96736 9.31331 6.0599 8.94554 6.27036 8.64462C6.48083 8.3437 6.79454 8.13063 7.15184 8.0459L7.48119 7.9673L7.53049 7.6323C7.61782 7.03971 7.91532 6.49828 8.3687 6.10683C8.82209 5.71539 9.40111 5.50002 10.0001 5.50005C10.5991 5.50008 11.1781 5.71551 11.6314 6.107C12.0848 6.49849 12.3822 7.03995 12.4695 7.63255L12.5188 7.9673L12.8481 8.0459C13.2055 8.13063 13.5192 8.3437 13.7296 8.64462C13.9401 8.94554 14.0326 9.31331 13.9896 9.678C13.9467 10.0427 13.7712 10.3789 13.4965 10.6226C13.2219 10.8664 12.8672 11.0007 12.5 11Z" fill="#161616"/>
</svg>
