<svg width="16" height="16" viewBox="0 0 16 16" fill="none" xmlns="http://www.w3.org/2000/svg">
<path d="M15 2V1H11V2C11.0008 2.44237 11.1486 2.87193 11.4201 3.22116C11.6916 3.57039 12.0715 3.81949 12.5 3.9293V5.5H11.5V6.5H14.5V5.5H13.5V3.9293C13.9285 3.81949 14.3084 3.57039 14.5799 3.22116C14.8515 2.87193 14.9992 2.44237 15 2Z" fill="#161616"/>
<path d="M5.25001 4.5C4.90389 4.5 4.56555 4.39737 4.27776 4.20507C3.98998 4.01278 3.76568 3.73947 3.63322 3.4197C3.50077 3.09993 3.46611 2.74806 3.53364 2.40859C3.60116 2.06913 3.76783 1.75731 4.01257 1.51256C4.25732 1.26782 4.56914 1.10115 4.9086 1.03363C5.24807 0.966102 5.59994 1.00076 5.91971 1.13321C6.23948 1.26566 6.51279 1.48997 6.70508 1.77775C6.89738 2.06554 7.00001 2.40388 7.00001 2.75C6.99946 3.21396 6.8149 3.65876 6.48683 3.98682C6.15877 4.31489 5.71397 4.49944 5.25001 4.5ZM5.25001 2C5.10168 2 4.95667 2.04399 4.83333 2.1264C4.71 2.20881 4.61387 2.32594 4.5571 2.46299C4.50034 2.60003 4.48548 2.75083 4.51442 2.89632C4.54336 3.0418 4.61479 3.17544 4.71968 3.28033C4.82457 3.38522 4.95821 3.45665 5.10369 3.48559C5.24918 3.51453 5.39998 3.49968 5.53702 3.44291C5.67407 3.38614 5.7912 3.29002 5.87361 3.16668C5.95602 3.04334 6.00001 2.89834 6.00001 2.75C5.99979 2.55116 5.9207 2.36052 5.78009 2.21992C5.63949 2.07932 5.44885 2.00023 5.25001 2Z" fill="#161616"/>
<path d="M11.2373 15.6565L9.67041 12H6.11966C5.67893 11.9995 5.25067 11.8537 4.90119 11.5852C4.55171 11.3166 4.30052 10.9404 4.18651 10.5147L3.36966 7.45165C3.23644 6.95211 3.30712 6.42011 3.56615 5.97268C3.82518 5.52525 4.25134 5.19904 4.75089 5.06583C5.25043 4.93261 5.78243 5.00329 6.22986 5.26232C6.67729 5.52135 7.00349 5.94751 7.13671 6.44705L7.55081 8H10.5V9H6.78226L6.17091 6.7046C6.10195 6.46577 5.94212 6.26348 5.72572 6.14115C5.50932 6.01881 5.25359 5.98617 5.0134 6.05023C4.7732 6.11428 4.56769 6.26994 4.44095 6.48379C4.31421 6.69764 4.27633 6.95265 4.33546 7.1941L5.15236 10.2569C5.20943 10.4699 5.33512 10.6581 5.50999 10.7925C5.68486 10.9268 5.89914 10.9997 6.11966 11H10.3297L12.1568 15.2627L11.2373 15.6565Z" fill="#161616"/>
<path d="M9.00001 14H3.88416C3.66385 13.9998 3.44976 13.9269 3.27506 13.7927C3.10036 13.6585 2.97481 13.4704 2.91786 13.2576L1.01686 6.1288L1.98316 5.8712L3.88416 13H9.00001V14Z" fill="#161616"/>
</svg>
