<svg width="16" height="16" viewBox="0 0 16 16" fill="none" xmlns="http://www.w3.org/2000/svg">
<path d="M5.24999 4.5C4.90388 4.5 4.56553 4.39737 4.27775 4.20507C3.98996 4.01278 3.76566 3.73947 3.63321 3.4197C3.50075 3.09993 3.4661 2.74806 3.53362 2.40859C3.60114 2.06913 3.76782 1.75731 4.01256 1.51256C4.2573 1.26782 4.56912 1.10115 4.90859 1.03363C5.24805 0.966102 5.59992 1.00076 5.91969 1.13321C6.23946 1.26566 6.51277 1.48997 6.70507 1.77775C6.89736 2.06554 6.99999 2.40388 6.99999 2.75C6.99944 3.21396 6.81489 3.65876 6.48682 3.98682C6.15875 4.31489 5.71395 4.49944 5.24999 4.5ZM5.24999 2C5.10166 2 4.95665 2.04399 4.83332 2.1264C4.70998 2.20881 4.61385 2.32594 4.55709 2.46299C4.50032 2.60003 4.48547 2.75083 4.51441 2.89632C4.54334 3.0418 4.61478 3.17544 4.71966 3.28033C4.82455 3.38522 4.95819 3.45665 5.10368 3.48559C5.24916 3.51453 5.39996 3.49968 5.53701 3.44291C5.67405 3.38614 5.79119 3.29002 5.8736 3.16668C5.95601 3.04334 5.99999 2.89834 5.99999 2.75C5.99977 2.55116 5.92068 2.36052 5.78008 2.21992C5.63947 2.07932 5.44884 2.00023 5.24999 2Z" fill="#161616"/>
<path d="M11.2369 15.6565L9.67 12H6.11924C5.67852 11.9995 5.25027 11.8537 4.9008 11.5852C4.55132 11.3166 4.30014 10.9404 4.18614 10.5147L3.36924 7.45165C3.23894 6.95307 3.31136 6.42317 3.57067 5.97784C3.82997 5.5325 4.25507 5.20795 4.75299 5.07517C5.25092 4.94238 5.78117 5.01216 6.22779 5.26924C6.67442 5.52632 7.00108 5.94979 7.13634 6.44705L7.5504 8H10.5V9H6.78184L6.17054 6.7046C6.10158 6.46577 5.94176 6.26348 5.72536 6.14115C5.50895 6.01881 5.25322 5.98617 5.01303 6.05023C4.77284 6.11428 4.56732 6.26994 4.44058 6.48379C4.31384 6.69764 4.27597 6.95265 4.33509 7.1941L5.15199 10.2569C5.20905 10.4699 5.33474 10.6581 5.5096 10.7924C5.68446 10.9268 5.89873 10.9997 6.11924 11H10.3292L12.1564 15.2627L11.2369 15.6565Z" fill="#161616"/>
<path d="M15 3H13V1H12V3H9.99999V4H12V6H13V4H15V3Z" fill="#161616"/>
<path d="M8.99999 14H3.88379C3.66348 13.9998 3.44939 13.9269 3.27469 13.7927C3.09999 13.6585 2.97444 13.4704 2.91749 13.2576L1.01649 6.1288L1.98279 5.8712L3.88379 13H8.99999V14Z" fill="#161616"/>
</svg>
