<svg width="16" height="16" viewBox="0 0 16 16" fill="none" xmlns="http://www.w3.org/2000/svg">
<path d="M10 4.49998H6V5.49998H9L6 10.5V11.5H10V10.5H7L10 5.49998V4.49998Z" fill="#161616"/>
<path d="M15.2071 8.70704C15.2999 8.6142 15.3736 8.50397 15.4239 8.38266C15.4741 8.26134 15.5 8.13131 15.5 7.99999C15.5 7.86867 15.4741 7.73864 15.4239 7.61732C15.3736 7.49601 15.2999 7.38578 15.2071 7.29294L12.3136 4.39964L13.7639 2.96824C13.9778 3.02124 14.2032 3.00218 14.4052 2.914C14.6071 2.82582 14.7743 2.67347 14.8808 2.48056C14.9874 2.28766 15.0272 2.06499 14.9943 1.84711C14.9614 1.62922 14.8574 1.4283 14.6987 1.2755C14.5399 1.12271 14.3351 1.02659 14.1161 1.00205C13.8971 0.97751 13.6761 1.02593 13.4875 1.13979C13.2988 1.25365 13.153 1.42659 13.0727 1.63178C12.9923 1.83697 12.9819 2.06294 13.0431 2.27464L11.6065 3.69239L8.70706 0.79294C8.61422 0.700069 8.50399 0.626397 8.38267 0.576134C8.26135 0.525871 8.13132 0.5 8.00001 0.5C7.86869 0.5 7.73866 0.525871 7.61734 0.576134C7.49602 0.626397 7.3858 0.700069 7.29296 0.79294L4.39966 3.68629L2.96841 2.23584C3.02138 2.02191 3.00227 1.79648 2.91404 1.59452C2.82582 1.39256 2.6734 1.22536 2.48045 1.11887C2.2875 1.01237 2.0648 0.972529 1.84689 1.00552C1.62899 1.03852 1.42806 1.1425 1.27529 1.30135C1.12251 1.46019 1.02643 1.66501 1.00195 1.88404C0.977463 2.10307 1.02595 2.32405 1.13988 2.51271C1.25381 2.70136 1.42681 2.84715 1.63206 2.92744C1.8373 3.00774 2.0633 3.01805 2.27501 2.95679L3.69251 4.39354L0.792955 7.29294C0.700084 7.38578 0.626413 7.49601 0.576149 7.61732C0.525886 7.73864 0.500015 7.86867 0.500015 7.99999C0.500015 8.13131 0.525886 8.26134 0.576149 8.38266C0.626413 8.50397 0.700084 8.6142 0.792955 8.70704L3.69241 11.6064L2.27501 13.0432C2.06378 12.9824 1.83839 12.9929 1.63377 13.0732C1.42916 13.1535 1.25674 13.2991 1.14325 13.4873C1.02975 13.6755 0.981519 13.896 1.00602 14.1144C1.03053 14.3328 1.1264 14.5371 1.27878 14.6955C1.43116 14.8539 1.63154 14.9576 1.84887 14.9906C2.06619 15.0236 2.28831 14.9839 2.48081 14.8778C2.67331 14.7717 2.82544 14.6051 2.91361 14.4037C3.00178 14.2024 3.02108 13.9776 2.96851 13.7641L4.39976 12.3137L7.29306 15.207C7.38589 15.2999 7.49612 15.3736 7.61744 15.4238C7.73876 15.4741 7.86879 15.5 8.00011 15.5C8.13142 15.5 8.26145 15.4741 8.38277 15.4238C8.50409 15.3736 8.61432 15.2999 8.70716 15.207L11.6066 12.3076L13.0432 13.7253C12.9824 13.9366 12.993 14.162 13.0733 14.3667C13.1536 14.5713 13.2992 14.7438 13.4875 14.8573C13.6758 14.9708 13.8963 15.019 14.1147 14.9944C14.3332 14.9699 14.5375 14.874 14.6959 14.7215C14.8543 14.5691 14.958 14.3686 14.991 14.1513C15.0239 13.9339 14.9842 13.7117 14.878 13.5192C14.7718 13.3267 14.6051 13.1746 14.4037 13.0865C14.2023 12.9983 13.9775 12.9791 13.764 13.0317L12.3137 11.6003L15.2071 8.70704ZM8.00001 14.5L1.50001 7.99999L8.00001 1.49999L14.5 7.99999L8.00001 14.5Z" fill="#161616"/>
</svg>
