<svg width="16" height="16" viewBox="0 0 16 16" fill="none" xmlns="http://www.w3.org/2000/svg">
<path d="M10 5.49998V4.49998H6V11.5H10V10.5H7V8.49998H9.5V7.49998H7V5.49998H10Z" fill="#161616"/>
<path d="M15.2071 8.70704C15.2999 8.6142 15.3736 8.50397 15.4239 8.38266C15.4741 8.26134 15.5 8.13131 15.5 7.99999C15.5 7.86867 15.4741 7.73864 15.4239 7.61732C15.3736 7.49601 15.2999 7.38578 15.2071 7.29294L12.3136 4.39964L13.7639 2.96824C13.9778 3.02124 14.2032 3.00218 14.4052 2.914C14.6071 2.82582 14.7743 2.67347 14.8808 2.48056C14.9874 2.28766 15.0272 2.06499 14.9943 1.84711C14.9614 1.62922 14.8574 1.4283 14.6987 1.2755C14.5399 1.12271 14.3351 1.02659 14.1161 1.00205C13.8971 0.97751 13.6762 1.02593 13.4875 1.13979C13.2988 1.25365 13.153 1.42659 13.0727 1.63178C12.9923 1.83697 12.9819 2.06294 13.0431 2.27464L11.6065 3.69239L8.70706 0.79294C8.61422 0.700069 8.504 0.626397 8.38268 0.576134C8.26136 0.525871 8.13133 0.5 8.00001 0.5C7.8687 0.5 7.73866 0.525871 7.61735 0.576134C7.49603 0.626397 7.3858 0.700069 7.29296 0.79294L4.39966 3.68629L2.96841 2.23584C3.02139 2.02191 3.00228 1.79648 2.91405 1.59452C2.82582 1.39256 2.67341 1.22536 2.48046 1.11887C2.28751 1.01237 2.06481 0.972529 1.8469 1.00552C1.62899 1.03852 1.42807 1.1425 1.27529 1.30135C1.12252 1.46019 1.02644 1.66501 1.00195 1.88404C0.977471 2.10307 1.02595 2.32405 1.13988 2.51271C1.25381 2.70136 1.42682 2.84715 1.63206 2.92744C1.83731 3.00774 2.06331 3.01805 2.27501 2.95679L3.69251 4.39354L0.792963 7.29294C0.700092 7.38578 0.62642 7.49601 0.576157 7.61732C0.525893 7.73864 0.500023 7.86867 0.500023 7.99999C0.500023 8.13131 0.525893 8.26134 0.576157 8.38266C0.62642 8.50397 0.700092 8.6142 0.792963 8.70704L3.69241 11.6064L2.27501 13.0432C2.06379 12.9824 1.8384 12.9929 1.63378 13.0732C1.42917 13.1535 1.25675 13.2991 1.14325 13.4873C1.02976 13.6755 0.981527 13.896 1.00603 14.1144C1.03054 14.3328 1.12641 14.5371 1.27879 14.6955C1.43117 14.8539 1.63155 14.9576 1.84887 14.9906C2.06619 15.0236 2.28832 14.9839 2.48082 14.8778C2.67332 14.7717 2.82545 14.6051 2.91362 14.4037C3.00179 14.2024 3.02109 13.9776 2.96851 13.7641L4.39976 12.3137L7.29306 15.207C7.3859 15.2999 7.49613 15.3736 7.61745 15.4238C7.73876 15.4741 7.8688 15.5 8.00011 15.5C8.13143 15.5 8.26146 15.4741 8.38278 15.4238C8.5041 15.3736 8.61432 15.2999 8.70716 15.207L11.6066 12.3076L13.0432 13.7253C12.9824 13.9366 12.993 14.162 13.0733 14.3667C13.1536 14.5713 13.2992 14.7438 13.4875 14.8573C13.6758 14.9708 13.8963 15.019 14.1147 14.9944C14.3332 14.9699 14.5375 14.874 14.6959 14.7215C14.8543 14.5691 14.958 14.3686 14.991 14.1513C15.0239 13.9339 14.9842 13.7117 14.878 13.5192C14.7719 13.3267 14.6051 13.1746 14.4037 13.0865C14.2023 12.9983 13.9775 12.9791 13.764 13.0317L12.3137 11.6003L15.2071 8.70704ZM8.00001 14.5L1.50001 7.99999L8.00001 1.49999L14.5 7.99999L8.00001 14.5Z" fill="#161616"/>
</svg>
