<svg width="16" height="16" viewBox="0 0 16 16" fill="none" xmlns="http://www.w3.org/2000/svg">
<path d="M14.8535 2.64652L13.3535 1.14652C13.3071 1.10007 13.252 1.06322 13.1913 1.03808C13.1307 1.01294 13.0656 1 13 1C12.9343 1 12.8693 1.01294 12.8087 1.03808C12.748 1.06322 12.6929 1.10007 12.6465 1.14652L9.79293 4.00002H8.54733C7.40721 4.0009 6.29548 4.3557 5.36562 5.01543C4.43576 5.67516 3.73364 6.60729 3.35618 7.68312L1.02808 14.335C0.997018 14.4239 0.991658 14.5197 1.01262 14.6114C1.03358 14.7032 1.08001 14.7871 1.14658 14.8537C1.21314 14.9202 1.29713 14.9666 1.38889 14.9875C1.48065 15.0085 1.57645 15.0031 1.66528 14.972L8.31713 12.6439C9.39292 12.2664 10.325 11.5642 10.9847 10.6343C11.6444 9.70448 11.9991 8.59277 12 7.45267V6.20707L14.8535 3.35352C14.8999 3.30711 14.9368 3.252 14.9619 3.19135C14.9871 3.13069 15 3.06568 15 3.00002C15 2.93436 14.9871 2.86934 14.9619 2.80869C14.9368 2.74803 14.8999 2.69293 14.8535 2.64652ZM11.1465 5.64652C11.0527 5.74026 11 5.86742 11 6.00002V7.45267C10.9992 8.3855 10.7089 9.2951 10.1692 10.0559C9.62939 10.8167 8.86675 11.3912 7.98653 11.7L3.40268 13.3045L7.99998 8.70707L7.29293 8.00002L2.69568 12.5974L4.29998 8.01347C4.60883 7.13325 5.18331 6.37061 5.94411 5.83083C6.7049 5.29105 7.6145 5.00076 8.54733 5.00002H9.99998C10.1326 4.99999 10.2597 4.94729 10.3535 4.85352L13 2.20707L13.7929 3.00002L11.1465 5.64652Z" fill="#161616"/>
</svg>
