<svg width="16" height="16" viewBox="0 0 16 16" fill="none" xmlns="http://www.w3.org/2000/svg">
<path d="M4.49999 7C4.00554 7 3.52219 6.85338 3.11106 6.57867C2.69994 6.30397 2.37951 5.91352 2.19029 5.45671C2.00107 4.99989 1.95156 4.49723 2.04803 4.01228C2.14449 3.52732 2.38259 3.08187 2.73222 2.73223C3.08185 2.3826 3.52731 2.1445 4.01226 2.04804C4.49722 1.95157 4.99988 2.00108 5.4567 2.1903C5.91351 2.37952 6.30396 2.69995 6.57866 3.11108C6.85337 3.5222 6.99999 4.00555 6.99999 4.5C6.99926 5.16282 6.73564 5.79828 6.26695 6.26696C5.79827 6.73565 5.16281 6.99927 4.49999 7Z" fill="#161616"/>
<path d="M13.2929 2.00002L1.99998 13.293L2.70702 14L14 2.70706L13.2929 2.00002Z" fill="#161616"/>
<path d="M11.5 14C11.0055 14 10.5222 13.8534 10.1111 13.5787C9.69994 13.304 9.37951 12.9135 9.19029 12.4567C9.00107 11.9999 8.95156 11.4972 9.04803 11.0123C9.14449 10.5273 9.38259 10.0819 9.73222 9.73223C10.0819 9.3826 10.5273 9.1445 11.0123 9.04804C11.4972 8.95157 11.9999 9.00108 12.4567 9.1903C12.9135 9.37952 13.304 9.69995 13.5787 10.1111C13.8534 10.5222 14 11.0055 14 11.5C13.9993 12.1628 13.7356 12.7983 13.267 13.267C12.7983 13.7356 12.1628 13.9993 11.5 14Z" fill="#161616"/>
</svg>
