<svg width="16" height="16" viewBox="0 0 16 16" fill="none" xmlns="http://www.w3.org/2000/svg">
<path d="M4.49999 7C4.00554 7 3.52219 6.85338 3.11106 6.57867C2.69994 6.30397 2.37951 5.91352 2.19029 5.45671C2.00107 4.99989 1.95156 4.49723 2.04803 4.01228C2.14449 3.52732 2.38259 3.08187 2.73222 2.73223C3.08185 2.3826 3.52731 2.1445 4.01226 2.04804C4.49722 1.95157 4.99988 2.00108 5.4567 2.1903C5.91351 2.37952 6.30396 2.69995 6.57866 3.11108C6.85337 3.5222 6.99999 4.00555 6.99999 4.5C6.99926 5.16282 6.73564 5.79828 6.26695 6.26696C5.79827 6.73565 5.16281 6.99927 4.49999 7ZM4.49999 3C4.20332 3 3.91331 3.08797 3.66663 3.2528C3.41996 3.41762 3.2277 3.65189 3.11417 3.92598C3.00064 4.20007 2.97093 4.50167 3.02881 4.79264C3.08669 5.08361 3.22955 5.35088 3.43933 5.56066C3.64911 5.77044 3.91638 5.9133 4.20735 5.97118C4.49833 6.02906 4.79993 5.99935 5.07401 5.88582C5.3481 5.77229 5.58237 5.58003 5.74719 5.33336C5.91202 5.08668 5.99999 4.79667 5.99999 4.5C5.99955 4.10231 5.84138 3.72103 5.56017 3.43982C5.27896 3.15861 4.89768 3.00044 4.49999 3Z" fill="#161616"/>
<path d="M13.2929 2.00002L1.99998 13.293L2.70702 14L14 2.70706L13.2929 2.00002Z" fill="#161616"/>
<path d="M11.5 14C11.0055 14 10.5222 13.8534 10.1111 13.5787C9.69994 13.304 9.37951 12.9135 9.19029 12.4567C9.00107 11.9999 8.95156 11.4972 9.04803 11.0123C9.14449 10.5273 9.38259 10.0819 9.73222 9.73223C10.0819 9.3826 10.5273 9.1445 11.0123 9.04804C11.4972 8.95157 11.9999 9.00108 12.4567 9.1903C12.9135 9.37952 13.304 9.69995 13.5787 10.1111C13.8534 10.5222 14 11.0055 14 11.5C13.9993 12.1628 13.7356 12.7983 13.267 13.267C12.7983 13.7356 12.1628 13.9993 11.5 14ZM11.5 10C11.2033 10 10.9133 10.088 10.6666 10.2528C10.42 10.4176 10.2277 10.6519 10.1142 10.926C10.0006 11.2001 9.97093 11.5017 10.0288 11.7926C10.0867 12.0836 10.2296 12.3509 10.4393 12.5607C10.6491 12.7704 10.9164 12.9133 11.2074 12.9712C11.4983 13.0291 11.7999 12.9994 12.074 12.8858C12.3481 12.7723 12.5824 12.58 12.7472 12.3334C12.912 12.0867 13 11.7967 13 11.5C12.9996 11.1023 12.8414 10.721 12.5602 10.4398C12.279 10.1586 11.8977 10.0004 11.5 10Z" fill="#161616"/>
</svg>
