<svg width="16" height="16" viewBox="0 0 16 16" fill="none" xmlns="http://www.w3.org/2000/svg">
<path d="M13 14.5H12.915C3.09002 13.935 1.69502 5.645 1.50002 3.115C1.48492 2.9186 1.50865 2.72114 1.56985 2.5339C1.63106 2.34667 1.72855 2.17332 1.85675 2.02376C1.98495 1.87421 2.14136 1.75136 2.31703 1.66225C2.49271 1.57314 2.68422 1.5195 2.88062 1.5044C2.92022 1.50147 2.96002 1.5 3.00002 1.5H5.63502C5.8353 1.49981 6.03102 1.55976 6.19684 1.67208C6.36265 1.78441 6.49092 1.94394 6.56502 2.13L7.32502 4C7.3982 4.18177 7.41636 4.38104 7.37724 4.57305C7.33813 4.76505 7.24347 4.94134 7.10502 5.08L6.04002 6.155C6.2057 7.10066 6.65821 7.97249 7.33619 8.65226C8.01416 9.33202 8.8848 9.78683 9.83002 9.955L10.915 8.88C11.0558 8.74308 11.2337 8.65063 11.4267 8.61417C11.6196 8.57771 11.819 8.59887 12 8.675L13.885 9.43C14.0683 9.50644 14.2246 9.63571 14.3342 9.80134C14.4437 9.96696 14.5014 10.1614 14.5 10.36V13C14.5 13.3978 14.342 13.7794 14.0607 14.0607C13.7794 14.342 13.3978 14.5 13 14.5ZM3.00002 2.5C2.93436 2.49979 2.8693 2.51251 2.80856 2.53745C2.74781 2.56238 2.69258 2.59903 2.646 2.64531C2.59942 2.6916 2.56241 2.7466 2.53709 2.80718C2.51177 2.86776 2.49863 2.93274 2.49842 2.9984C2.49842 3.0123 2.49895 3.02617 2.50002 3.04C2.73002 6 4.20502 13 12.97 13.5C13.0356 13.5039 13.1012 13.4949 13.1633 13.4735C13.2254 13.452 13.2826 13.4186 13.3317 13.375C13.3809 13.3315 13.4209 13.2787 13.4496 13.2196C13.4784 13.1606 13.4952 13.0964 13.4991 13.0309C13.4997 13.0206 13.5 13.0103 13.5 13V10.36L11.615 9.605L10.18 11.03L9.94002 11C5.59002 10.455 5.00002 6.105 5.00002 6.06L4.97002 5.82L6.39002 4.385L5.64002 2.5H3.00002Z" fill="#161616"/>
<path d="M13.5 6.5V5.5H11.207L14.5 2.207L13.793 1.5L10.5 4.793V2.5H9.50002V6.5H13.5Z" fill="#161616"/>
</svg>
