<svg width="16" height="16" viewBox="0 0 16 16" fill="none" xmlns="http://www.w3.org/2000/svg">
<path d="M15 5V4H13.9494C13.885 3.68703 13.7607 3.38944 13.5835 3.12355L14.3285 2.37855L13.6215 1.67155L12.8765 2.41655C12.6106 2.2393 12.313 2.11503 12 2.05055V1H11V2.05055C10.687 2.11502 10.3894 2.23928 10.1235 2.4165L9.37854 1.6715L8.67154 2.3785L9.41654 3.1235C9.2393 3.3894 9.11503 3.68701 9.05054 4H7.99999V5H9.05054C9.11502 5.31297 9.23927 5.61056 9.41649 5.87645L8.67149 6.62145L9.37849 7.32845L10.1235 6.58345C10.3894 6.7607 10.687 6.88497 11 6.94945V8H12V6.94945C12.313 6.88498 12.6106 6.76072 12.8764 6.5835L13.6214 7.3285L14.3284 6.6215L13.5834 5.8765C13.7607 5.6106 13.885 5.31299 13.9494 5H15ZM11.5 6C11.2033 6 10.9133 5.91203 10.6666 5.7472C10.42 5.58238 10.2277 5.34811 10.1142 5.07403C10.0006 4.79994 9.97094 4.49834 10.0288 4.20736C10.0867 3.91639 10.2296 3.64912 10.4393 3.43934C10.6491 3.22956 10.9164 3.0867 11.2074 3.02882C11.4983 2.97094 11.7999 3.00065 12.074 3.11418C12.3481 3.22771 12.5824 3.41997 12.7472 3.66664C12.912 3.91332 13 4.20333 13 4.5C12.9996 4.89769 12.8414 5.27897 12.5602 5.56018C12.279 5.84139 11.8977 5.99956 11.5 6Z" fill="#161616"/>
<path d="M12.5 15H12.415C2.58999 14.435 1.19499 6.145 0.999995 3.615C0.96949 3.21835 1.0978 2.82583 1.35671 2.52378C1.61561 2.22174 1.98389 2.03491 2.38054 2.0044C2.42018 2.00147 2.45999 2 2.49999 2H5.13499C5.33527 1.99981 5.531 2.05975 5.69681 2.17208C5.86263 2.28441 5.99089 2.44393 6.06499 2.63L6.82499 4.5C6.89817 4.68177 6.91633 4.88104 6.87722 5.07305C6.8381 5.26505 6.74344 5.44134 6.60499 5.58L5.53999 6.655C5.70568 7.60066 6.15819 8.47249 6.83616 9.15226C7.51414 9.83202 8.38477 10.2868 9.32999 10.455L10.415 9.38C10.5557 9.24308 10.7337 9.15063 10.9266 9.11417C11.1196 9.07771 11.319 9.09887 11.5 9.175L13.385 9.93C13.5683 10.0064 13.7246 10.1357 13.8341 10.3013C13.9437 10.467 14.0014 10.6614 14 10.86V13.5C14 13.8978 13.842 14.2794 13.5607 14.5607C13.2794 14.842 12.8978 15 12.5 15ZM2.49999 3C2.43433 2.99979 2.36927 3.01251 2.30853 3.03745C2.24779 3.06238 2.19255 3.09903 2.14597 3.14531C2.09939 3.1916 2.06239 3.2466 2.03707 3.30718C2.01175 3.36776 1.9986 3.43274 1.99839 3.4984C1.99839 3.5123 1.99889 3.52615 1.99999 3.54C2.22999 6.5 3.70499 13.5 12.47 14C12.6024 14.0079 12.7325 13.963 12.8317 13.875C12.9309 13.787 12.9911 13.6633 12.999 13.5309C12.9997 13.5206 13 13.5103 13 13.5V10.86L11.115 10.105L9.67999 11.53L9.43999 11.5C5.08999 10.955 4.49999 6.605 4.49999 6.56L4.46999 6.32L5.88999 4.885L5.13999 3H2.49999Z" fill="#161616"/>
</svg>
