<svg width="16" height="16" viewBox="0 0 16 16" fill="none" xmlns="http://www.w3.org/2000/svg">
<path d="M12 6.50001H11C10.9996 6.10231 10.8414 5.72104 10.5602 5.43983C10.279 5.15862 9.89771 5.00044 9.50002 5.00001V4.00001C10.1628 4.00076 10.7983 4.26439 11.267 4.73307C11.7356 5.20175 11.9993 5.8372 12 6.50001Z" fill="#161616"/>
<path d="M14 6.50001H13C12.999 5.57206 12.6299 4.68243 11.9738 4.02627C11.3176 3.37012 10.428 3.00104 9.50002 3.00001V2.00001C10.6931 2.00133 11.8369 2.47586 12.6805 3.31949C13.5242 4.16311 13.9987 5.30694 14 6.50001Z" fill="#161616"/>
<path d="M10.1667 10.7412L11.2867 9.62115C11.4366 9.4712 11.6272 9.36854 11.8349 9.32587C12.0426 9.28321 12.2582 9.30243 12.4551 9.38116L13.8191 9.9268C14.0202 10.0072 14.1925 10.1461 14.3139 10.3254C14.4353 10.5048 14.5001 10.7164 14.5 10.933V13.4136C14.5004 13.561 14.4706 13.707 14.4126 13.8425C14.3545 13.978 14.2695 14.1003 14.1625 14.2018C14.0556 14.3033 13.9291 14.3819 13.7907 14.4329C13.6524 14.4838 13.5051 14.5059 13.3579 14.4979C3.79692 13.9027 1.86607 5.80571 1.50732 2.70396C1.48996 2.55233 1.50491 2.39875 1.55117 2.25332C1.59743 2.10788 1.67396 1.97389 1.77573 1.86016C1.87749 1.74643 2.00219 1.65554 2.14161 1.59346C2.28102 1.53139 2.43201 1.49954 2.58462 1.50001H5.02102C5.23754 1.5 5.44908 1.56488 5.62837 1.68626C5.80766 1.80765 5.94646 1.97997 6.02687 2.18101L6.57252 3.54501C6.65124 3.74187 6.67046 3.9575 6.62779 4.16518C6.58513 4.37287 6.48247 4.56346 6.33252 4.71335L5.21252 5.83336C5.21252 5.83336 5.83337 10.1995 10.1667 10.7412Z" fill="#161616"/>
</svg>
