<svg width="16" height="16" viewBox="0 0 16 16" fill="none" xmlns="http://www.w3.org/2000/svg">
<path d="M15 1.70731L14.2927 1.00001L8.64662 6.64626C8.59903 6.69243 8.5611 6.7476 8.53503 6.80856C8.50897 6.86952 8.49528 6.93506 8.49478 7.00136C8.49428 7.06765 8.50697 7.13339 8.53211 7.19474C8.55725 7.25609 8.59434 7.31183 8.64123 7.35871C8.68811 7.40559 8.74385 7.44267 8.8052 7.46781C8.86655 7.49295 8.93229 7.50563 8.99859 7.50513C9.06489 7.50462 9.13042 7.49093 9.19138 7.46486C9.25234 7.43879 9.30751 7.40085 9.35367 7.35326L11.0808 5.62621C11.3251 5.99128 11.4681 6.41462 11.4953 6.85303C11.5224 7.29143 11.4328 7.7292 11.2355 8.12163C11.0382 8.51407 10.7403 8.84713 10.3722 9.0868C10.0041 9.32647 9.57898 9.46418 9.14027 9.48586C8.89621 8.98199 8.53563 8.54351 8.08837 8.20674C7.64112 7.86998 7.12006 7.64461 6.56837 7.54931C6.48042 7.1836 6.4771 6.80264 6.55866 6.43545C6.64023 6.06826 6.80453 5.72453 7.03904 5.43044C7.27356 5.13636 7.5721 4.89968 7.91193 4.73845C8.25176 4.57721 8.6239 4.49566 9.00002 4.50001V3.50001C8.4939 3.49673 7.99317 3.60397 7.53278 3.81424C7.0724 4.0245 6.66346 4.33273 6.33452 4.71739C6.00558 5.10206 5.76457 5.55389 5.62832 6.04133C5.49207 6.52878 5.46386 7.04009 5.54567 7.53956C5.03686 7.60838 4.5497 7.78941 4.11942 8.06956C3.95667 7.33945 3.96032 6.58207 4.1301 5.85357C4.29988 5.12506 4.63143 4.4441 5.10018 3.86115C5.56893 3.27821 6.16286 2.80823 6.83795 2.48606C7.51305 2.16388 8.25199 1.99776 9.00002 2.00001V1.00001C8.05585 0.998086 7.12461 1.21946 6.28231 1.64607C5.44002 2.07268 4.71054 2.69242 4.15344 3.45471C3.59633 4.21701 3.22739 5.10024 3.07673 6.03231C2.92606 6.96438 2.99795 7.91887 3.28652 8.81786C2.96153 9.21288 2.72804 9.67496 2.60282 10.1709C2.05787 10.38 1.60336 10.7733 1.31823 11.2826C1.03309 11.7919 0.935345 12.3849 1.04196 12.9588C1.14858 13.5327 1.45282 14.051 1.90186 14.4239C2.35089 14.7968 2.91635 15.0006 3.50002 15H8.50002C9.13374 14.9982 9.74304 14.7553 10.2043 14.3208C10.6656 13.8862 10.9443 13.2925 10.9839 12.66C12.1557 12.2465 13.1707 11.4804 13.8898 10.467C14.6088 9.45366 14.9966 8.24258 15 7.00001C15.0053 5.5807 14.5017 4.20651 13.5806 3.12671L15 1.70731ZM8.50002 14H3.50002C3.13281 14.0007 2.77815 13.8664 2.5035 13.6226C2.22885 13.3789 2.05334 13.0427 2.01036 12.678C1.96738 12.3133 2.05992 11.9455 2.27039 11.6446C2.48085 11.3437 2.79456 11.1306 3.15187 11.0459L3.48122 10.9673L3.53052 10.6323C3.61781 10.0397 3.91529 9.49827 4.36865 9.1068C4.82201 8.71533 5.40103 8.49994 6.00002 8.49994C6.59901 8.49994 7.17802 8.71533 7.63139 9.1068C8.08475 9.49827 8.38222 10.0397 8.46952 10.6323L8.51882 10.9671L8.84817 11.0457C9.20572 11.1302 9.51971 11.3432 9.7304 11.6442C9.94108 11.9452 10.0337 12.3131 9.99074 12.678C9.94774 13.0429 9.77209 13.3792 9.49721 13.623C9.22233 13.8667 8.86742 14.0009 8.50002 14ZM14 7.00001C13.9973 8.00078 13.6953 8.97787 13.1329 9.80569C12.5706 10.6335 11.7735 11.2742 10.8441 11.6455C10.6555 11.1282 10.3 10.6884 9.83377 10.3955C10.3952 10.2583 10.9139 9.98409 11.3434 9.59734C11.7729 9.2106 12.0998 8.72341 12.2948 8.17937C12.4899 7.63533 12.5471 7.05142 12.4612 6.47988C12.3753 5.90834 12.1491 5.367 11.8028 4.90431L12.8688 3.83841C13.6032 4.72801 14.0034 5.84644 14 7.00001Z" fill="#161616"/>
</svg>
