<svg width="16" height="16" viewBox="0 0 16 16" fill="none" xmlns="http://www.w3.org/2000/svg">
<path d="M15 1.7073L14.2927 1L8.64657 6.64625C8.59898 6.69241 8.56105 6.74758 8.53499 6.80855C8.50892 6.86951 8.49524 6.93504 8.49473 7.00134C8.49423 7.06764 8.50692 7.13338 8.53206 7.19473C8.5572 7.25608 8.5943 7.31181 8.64118 7.35869C8.68806 7.40557 8.7438 7.44266 8.80515 7.4678C8.8665 7.49293 8.93224 7.50562 8.99854 7.50511C9.06484 7.50461 9.13037 7.49092 9.19133 7.46485C9.25229 7.43878 9.30746 7.40084 9.35362 7.35325L11.0808 5.6262C11.3316 6.00192 11.4755 6.43879 11.4971 6.89002C11.5187 7.34125 11.4172 7.78987 11.2034 8.18784C10.9897 8.58581 10.6717 8.91816 10.2836 9.14929C9.89542 9.38043 9.45172 9.50166 8.99997 9.5C8.89833 9.4978 8.79691 9.48945 8.69627 9.475C8.28821 8.49264 7.50757 7.71196 6.52522 7.30385C6.47374 6.95165 6.49962 6.59245 6.60106 6.25127C6.7025 5.91008 6.87706 5.59509 7.1126 5.32822C7.34815 5.06136 7.63901 4.84902 7.96496 4.70599C8.2909 4.56295 8.6441 4.49266 8.99997 4.5V3.5C8.07203 3.50103 7.18239 3.87011 6.52624 4.52627C5.87009 5.18242 5.501 6.07206 5.49997 7C5.49997 7.0117 5.50277 7.02345 5.50292 7.035C5.33617 7.01283 5.16819 7.00114 4.99997 7C4.66443 7.0012 4.33039 7.04488 4.00582 7.13C4.00472 7.08645 3.99997 7.04395 3.99997 7C4.00148 5.67438 4.52875 4.40349 5.4661 3.46613C6.40346 2.52878 7.67435 2.00151 8.99997 2V1C7.40923 1.00181 5.88416 1.63454 4.75933 2.75936C3.63451 3.88419 3.00179 5.40926 2.99997 7C2.99997 7.1775 3.00852 7.35305 3.02352 7.52685C2.48822 7.83078 2.03036 8.25424 1.68561 8.7642C1.34087 9.27417 1.11856 9.85687 1.03603 10.4669C0.953497 11.0769 1.01297 11.6977 1.2098 12.2809C1.40664 12.8642 1.73552 13.3941 2.17081 13.8293C2.6061 14.2646 3.13603 14.5934 3.71929 14.7902C4.30255 14.987 4.92338 15.0464 5.53338 14.9638C6.14337 14.8812 6.72605 14.6589 7.23599 14.3141C7.74593 13.9693 8.16934 13.5114 8.47322 12.9761C8.64822 12.9911 8.82417 13 8.99997 13C10.1441 13.0014 11.2647 12.6752 12.2294 12.0601C13.1941 11.4449 13.9625 10.5664 14.4439 9.52846C14.9252 8.4905 15.0993 7.33644 14.9457 6.20266C14.7921 5.06888 14.3171 4.00278 13.5769 3.13035L15 1.7073ZM7.95497 10.5H6.97812C6.91318 9.74612 6.70657 9.01126 6.36912 8.334C6.78327 8.54739 7.14214 8.85416 7.41736 9.23007C7.69259 9.60598 7.87664 10.0407 7.95497 10.5ZM2.04497 11.5H3.02172C3.0867 12.254 3.29335 12.9889 3.63082 13.6663C3.21664 13.4528 2.85776 13.146 2.58253 12.7701C2.3073 12.3941 2.12327 11.9593 2.04497 11.5ZM3.02157 10.5H2.04497C2.12329 10.0408 2.30732 9.606 2.58252 9.23009C2.85772 8.85419 3.21655 8.54741 3.63067 8.334C3.29328 9.01128 3.08669 9.74613 3.02172 10.5H3.02157ZM4.99997 13.9929C4.45571 13.2655 4.11957 12.4038 4.02757 11.5H5.97257C5.88051 12.4038 5.54431 13.2655 4.99997 13.9929ZM4.02757 10.5C4.11957 9.59635 4.45571 8.73476 4.99997 8.00755C5.54427 8.73474 5.88041 9.59634 5.97237 10.5H4.02757ZM6.36912 13.6663C6.7066 12.9889 6.91325 12.254 6.97822 11.5H7.95497C7.87667 11.9593 7.69264 12.3941 7.41741 12.7701C7.14219 13.146 6.7833 13.4528 6.36912 13.6663ZM14 7C13.9985 8.32562 13.4712 9.59651 12.5338 10.5339C11.5965 11.4712 10.3256 11.9985 8.99997 12C8.95652 12 8.91332 11.995 8.86997 11.9942C9.00144 11.5065 9.03374 10.9974 8.96497 10.4971C8.97682 10.4971 8.98827 10.5 8.99997 10.5C9.64954 10.5001 10.2863 10.3194 10.839 9.9781C11.3917 9.63683 11.8385 9.14847 12.1294 8.56769C12.4203 7.9869 12.5438 7.33662 12.4861 6.68962C12.4284 6.04262 12.1918 5.42445 11.8027 4.9043L12.8684 3.8386C13.6005 4.72942 14.0005 5.8469 14 7Z" fill="#161616"/>
</svg>
