<svg width="16" height="16" viewBox="0 0 16 16" fill="none" xmlns="http://www.w3.org/2000/svg">
<path d="M4.25418 16.0001C4.17636 16 4.09962 15.982 4.02993 15.9474C3.97106 15.9181 3.91855 15.8776 3.8754 15.828C3.83225 15.7784 3.79931 15.7208 3.77847 15.6585C3.75763 15.5962 3.7493 15.5303 3.75396 15.4648C3.75862 15.3992 3.77618 15.3352 3.80563 15.2765L4.55233 13.7765C4.61241 13.6588 4.7165 13.5697 4.84197 13.5284C4.96744 13.487 5.10414 13.4969 5.22235 13.5559C5.34057 13.6148 5.43075 13.718 5.47328 13.8431C5.51581 13.9681 5.50725 14.1049 5.44948 14.2237L4.70278 15.7237C4.66108 15.8069 4.59701 15.8769 4.51777 15.9257C4.43853 15.9745 4.34725 16.0003 4.25418 16.0001Z" fill="#161616"/>
<path d="M14.9221 6.51747C14.866 6.39805 14.7797 6.29532 14.6718 6.21941C14.5638 6.14349 14.438 6.09702 14.3066 6.08457C13.6523 6.01745 13.0456 5.71201 12.6019 5.22642C12.2212 4.79835 11.961 4.27678 11.8481 3.71511C11.7352 3.15344 11.7736 2.57186 11.9594 2.02992C12.003 1.89906 12.0122 1.75916 11.9859 1.62375C11.9596 1.48835 11.8988 1.36201 11.8094 1.25697C11.7275 1.16021 11.6216 1.08659 11.5023 1.04341C11.3831 1.00024 11.2546 0.989019 11.1297 1.01087L11.1202 1.01232C10.3433 1.18005 9.63551 1.57955 9.09046 2.15805C8.5454 2.73654 8.1887 3.4668 8.06748 4.25232C7.64743 4.08838 7.20087 4.0029 6.74998 4.00012C5.95376 4.00441 5.17929 4.26031 4.53726 4.73123C3.89524 5.20216 3.41852 5.86401 3.17528 6.62217C2.47975 6.8203 1.87935 7.26331 1.48488 7.86945C1.0904 8.47559 0.928465 9.20395 1.02895 9.92013C1.12943 10.6363 1.48555 11.292 2.0316 11.7662C2.57765 12.2403 3.27678 12.501 3.99998 12.5001H7.69088L7.05298 13.7765C7.0224 13.8353 7.00383 13.8996 6.99835 13.9657C6.99287 14.0318 7.00059 14.0983 7.02106 14.1614C7.04153 14.2245 7.07435 14.2828 7.11759 14.3331C7.16084 14.3834 7.21365 14.4246 7.27296 14.4542C7.33227 14.4839 7.39688 14.5015 7.46305 14.5059C7.52921 14.5104 7.5956 14.5016 7.65834 14.4802C7.72109 14.4587 7.77895 14.425 7.82854 14.381C7.87814 14.337 7.91848 14.2835 7.94723 14.2238L8.80883 12.5001H9.49998C9.94338 12.5035 10.3819 12.4078 10.7836 12.22C11.1853 12.0322 11.54 11.7571 11.8218 11.4147C12.1035 11.0723 12.3052 10.6713 12.4122 10.2409C12.5192 9.81061 12.5286 9.36183 12.44 8.92737C12.9359 8.83047 13.407 8.63436 13.8252 8.35082C14.2434 8.06728 14.6 7.70215 14.8736 7.27737C14.9469 7.16581 14.99 7.03708 14.9985 6.90384C15.007 6.7706 14.9806 6.63744 14.9221 6.51747ZM9.49998 11.5001H3.99998C3.49916 11.501 3.01631 11.3136 2.64721 10.9751C2.27811 10.6366 2.04972 10.1717 2.00735 9.67273C1.96497 9.17371 2.11171 8.67699 2.41845 8.28111C2.7252 7.88522 3.16953 7.6191 3.66333 7.53552L3.99483 7.47912L4.06763 7.15102C4.20344 6.54088 4.54321 5.99527 5.03086 5.60423C5.51851 5.2132 6.1249 5.00009 6.74998 5.00009C7.37505 5.00009 7.98144 5.2132 8.46909 5.60423C8.95675 5.99527 9.29651 6.54088 9.43233 7.15102L9.50513 7.47912L9.83642 7.53552C10.3303 7.61896 10.7748 7.88502 11.0816 8.28091C11.3885 8.6768 11.5353 9.17358 11.493 9.67267C11.4506 10.1718 11.2222 10.6367 10.853 10.9752C10.4838 11.3137 10.0009 11.5011 9.49998 11.5001ZM12.0754 7.97617C11.6871 7.31695 11.0603 6.8322 10.3247 6.62217C10.0884 5.88626 9.63081 5.24121 9.01428 4.77512C9.03789 4.19615 9.2284 3.63637 9.56284 3.16318C9.89728 2.69 10.3614 2.3236 10.8993 2.10812C10.7423 2.77254 10.7485 3.46508 10.9174 4.12658C11.0863 4.78807 11.4128 5.39885 11.869 5.90672C12.3882 6.47122 13.0699 6.86047 13.82 7.02062C13.38 7.54799 12.7567 7.88936 12.0754 7.97617Z" fill="#161616"/>
</svg>
