<svg width="16" height="16" viewBox="0 0 16 16" fill="none" xmlns="http://www.w3.org/2000/svg">
<path d="M11.75 10.9998H4.24999C3.44819 10.9947 2.67657 10.6934 2.08348 10.1538C1.49039 9.61425 1.1177 8.87447 1.03706 8.07672C0.956412 7.27898 1.17351 6.47957 1.64662 5.83221C2.11972 5.18485 2.81543 4.73523 3.59999 4.56979C3.81584 3.56305 4.37041 2.66077 5.17115 2.01352C5.97189 1.36627 6.97037 1.01318 7.99999 1.01318C9.02961 1.01318 10.0281 1.36627 10.8288 2.01352C11.6296 2.66077 12.1841 3.56305 12.4 4.56979C13.1845 4.73523 13.8803 5.18485 14.3534 5.83221C14.8265 6.47957 15.0436 7.27898 14.9629 8.07672C14.8823 8.87447 14.5096 9.61425 13.9165 10.1538C13.3234 10.6934 12.5518 10.9947 11.75 10.9998ZM7.99999 1.99979C7.1468 2.00064 6.3233 2.3131 5.6843 2.87844C5.0453 3.44378 4.63481 4.22306 4.52999 5.06979L4.49999 5.49979H4.06999C3.47325 5.52365 2.91044 5.7836 2.50536 6.22243C2.10028 6.66127 1.88612 7.24305 1.90999 7.83979C1.93386 8.43652 2.1938 8.99934 2.63264 9.40442C3.07147 9.80949 3.65325 10.0237 4.24999 9.99979H11.75C12.3467 10.0237 12.9285 9.80949 13.3673 9.40442C13.8062 8.99934 14.0661 8.43652 14.09 7.83979C14.1139 7.24305 13.8997 6.66127 13.4946 6.22243C13.0895 5.7836 12.5267 5.52365 11.93 5.49979H11.5L11.45 5.08979C11.3501 4.24284 10.9444 3.4615 10.3092 2.89253C9.67392 2.32356 8.85278 2.0061 7.99999 1.99979Z" fill="#161616"/>
<path d="M6.99999 14.9998C6.92155 15.0007 6.84415 14.9818 6.77499 14.9448C6.65723 14.8848 6.56798 14.7807 6.52676 14.6552C6.48553 14.5296 6.49568 14.3929 6.55499 14.2748L7.55499 12.2748C7.58142 12.2113 7.62066 12.154 7.67025 12.1063C7.71985 12.0587 7.77873 12.0218 7.84322 11.998C7.90772 11.9742 7.97643 11.9639 8.04508 11.9678C8.11372 11.9717 8.18082 11.9898 8.24218 12.0208C8.30354 12.0518 8.35784 12.0952 8.40169 12.1481C8.44554 12.2011 8.47799 12.2625 8.49703 12.3286C8.51606 12.3947 8.52127 12.4639 8.51231 12.5321C8.50336 12.6003 8.48044 12.6659 8.44499 12.7248L7.44499 14.7248C7.40344 14.8072 7.33987 14.8766 7.26132 14.9251C7.18278 14.9737 7.09232 14.9995 6.99999 14.9998Z" fill="#161616"/>
<path d="M9.99999 14.9998C9.92155 15.0007 9.84415 14.9818 9.77499 14.9448C9.65723 14.8848 9.56798 14.7807 9.52676 14.6552C9.48553 14.5296 9.49568 14.3929 9.55499 14.2748L10.555 12.2748C10.5814 12.2113 10.6207 12.154 10.6703 12.1063C10.7198 12.0587 10.7787 12.0218 10.8432 11.998C10.9077 11.9742 10.9764 11.9639 11.0451 11.9678C11.1137 11.9717 11.1808 11.9898 11.2422 12.0208C11.3035 12.0518 11.3578 12.0952 11.4017 12.1481C11.4455 12.2011 11.478 12.2625 11.497 12.3286C11.5161 12.3947 11.5213 12.4639 11.5123 12.5321C11.5034 12.6003 11.4804 12.6659 11.445 12.7248L10.445 14.7248C10.4034 14.8072 10.3399 14.8766 10.2613 14.9251C10.1828 14.9737 10.0923 14.9995 9.99999 14.9998Z" fill="#161616"/>
<path d="M3.99999 14.9998C3.92155 15.0007 3.84415 14.9818 3.77499 14.9448C3.65723 14.8848 3.56798 14.7807 3.52676 14.6552C3.48553 14.5296 3.49568 14.3929 3.55499 14.2748L4.55499 12.2748C4.58142 12.2113 4.62066 12.154 4.67025 12.1063C4.71985 12.0587 4.77873 12.0218 4.84322 11.998C4.90772 11.9742 4.97643 11.9639 5.04508 11.9678C5.11372 11.9717 5.18082 11.9898 5.24218 12.0208C5.30354 12.0518 5.35784 12.0952 5.40169 12.1481C5.44554 12.2011 5.47799 12.2625 5.49703 12.3286C5.51606 12.3947 5.52127 12.4639 5.51231 12.5321C5.50336 12.6003 5.48044 12.6659 5.44499 12.7248L4.44499 14.7248C4.40344 14.8072 4.33987 14.8766 4.26132 14.9251C4.18278 14.9737 4.09232 14.9995 3.99999 14.9998Z" fill="#161616"/>
</svg>
