<svg width="16" height="16" viewBox="0 0 16 16" fill="none" xmlns="http://www.w3.org/2000/svg">
<path d="M6 5.0001H3.39C4.03668 4.00626 4.98721 3.24802 6.09991 2.83839C7.21262 2.42876 8.4279 2.38969 9.56462 2.72699C10.7013 3.0643 11.6986 3.75992 12.4078 4.71016C13.117 5.66041 13.5001 6.81439 13.5 8.0001H14.5C14.5014 6.66285 14.0903 5.35771 13.3227 4.26265C12.5552 3.1676 11.4686 2.33593 10.2111 1.88104C8.95358 1.42615 7.58637 1.37018 6.29589 1.72077C5.00541 2.07136 3.85447 2.81144 3 3.8401V2.0001H2V6.0001H6V5.0001Z" fill="#161616"/>
<path d="M10 11.0001H12.61C11.9633 11.9939 11.0128 12.7522 9.90009 13.1618C8.78739 13.5714 7.5721 13.6105 6.43539 13.2732C5.29867 12.9359 4.30139 12.2403 3.59221 11.29C2.88303 10.3398 2.49993 9.18581 2.5 8.0001H1.5C1.49863 9.33736 1.90973 10.6425 2.67727 11.7375C3.4448 12.8326 4.53141 13.6643 5.78892 14.1192C7.04642 14.5741 8.41363 14.63 9.70411 14.2794C10.9946 13.9288 12.1455 13.1888 13 12.1601V14.0001H14V10.0001H10V11.0001Z" fill="#161616"/>
</svg>
