<svg width="16" height="16" viewBox="0 0 16 16" fill="none" xmlns="http://www.w3.org/2000/svg">
<path d="M9.5 14.5C9.4267 14.5 9.35431 14.4839 9.28794 14.4528C9.22158 14.4217 9.16287 14.3764 9.116 14.32L4.116 8.32002C4.04116 8.23018 4.00018 8.11695 4.00018 8.00002C4.00018 7.88309 4.04116 7.76986 4.116 7.68002L9.116 1.68002C9.18178 1.60113 9.27027 1.54442 9.36943 1.51759C9.46859 1.49077 9.5736 1.49514 9.67018 1.5301C9.76677 1.56506 9.85025 1.62893 9.90926 1.71301C9.96827 1.79708 9.99995 1.8973 10 2.00002V5.51627C13.5037 5.74772 15.5 8.44627 15.5 13.0001C15.5 13.1051 15.467 13.2073 15.4056 13.2925C15.3443 13.3776 15.2577 13.4413 15.1581 13.4745C15.0586 13.5076 14.9511 13.5087 14.8509 13.4774C14.7507 13.4461 14.663 13.3841 14.6 13.3001C13.1891 11.419 11.9044 10.627 10 10.5143V14C10 14.1326 9.94732 14.2598 9.85355 14.3536C9.75978 14.4473 9.6326 14.5 9.5 14.5ZM5.1508 8.00002L9 12.619V10C9 9.86741 9.05267 9.74023 9.14644 9.64647C9.24021 9.5527 9.36739 9.50002 9.5 9.50002C10.4194 9.46453 11.3355 9.62904 12.185 9.98219C13.0346 10.3353 13.7974 10.8687 14.4207 11.5455C14.0432 8.27767 12.3293 6.50002 9.5 6.50002C9.36739 6.50002 9.24021 6.44734 9.14644 6.35357C9.05267 6.2598 9 6.13263 9 6.00002V3.38092L5.1508 8.00002Z" fill="#161616"/>
<path d="M5.73195 14.4591L0.615896 8.32002C0.541063 8.23018 0.500084 8.11695 0.500084 8.00002C0.500084 7.88309 0.541063 7.76986 0.615896 7.68002L5.7319 1.53962L6.5 2.18002L1.6508 8.00002L6.5 13.819L5.73195 14.4591Z" fill="#161616"/>
</svg>
