<svg width="16" height="16" viewBox="0 0 16 16" fill="none" xmlns="http://www.w3.org/2000/svg">
<path d="M8 3.99998C7.99915 4.55065 8.15012 5.09089 8.43632 5.56135C8.72251 6.0318 9.13286 6.41426 9.62226 6.6667C10.1117 6.91913 10.6612 7.03177 11.2104 6.99225C11.7597 6.95272 12.2874 6.76254 12.7356 6.44263L14.293 7.99998L15 7.29298L13.4425 5.73558C13.7159 5.35091 13.8947 4.90712 13.9642 4.44033C14.0338 3.97354 13.9922 3.49692 13.8428 3.04924C13.6934 2.60156 13.4405 2.19546 13.1045 1.86399C12.7686 1.53251 12.3591 1.28501 11.9095 1.14162C11.4599 0.998233 10.9827 0.963005 10.5169 1.0388C10.0511 1.1146 9.60975 1.29928 9.22877 1.57783C8.84778 1.85638 8.53793 2.22092 8.32442 2.6418C8.1109 3.06269 7.99975 3.52803 8 3.99998ZM9 3.99998C9 3.60442 9.1173 3.21774 9.33706 2.88884C9.55682 2.55994 9.86918 2.30359 10.2346 2.15222C10.6001 2.00084 11.0022 1.96124 11.3902 2.03841C11.7781 2.11558 12.1345 2.30606 12.4142 2.58576C12.6939 2.86547 12.8844 3.22184 12.9616 3.6098C13.0387 3.99776 12.9991 4.39989 12.8478 4.76535C12.6964 5.1308 12.44 5.44315 12.1111 5.66292C11.7822 5.88268 11.3956 5.99998 11 5.99998C10.4697 5.99938 9.96139 5.78848 9.58644 5.41353C9.2115 5.03859 9.00059 4.53023 9 3.99998Z" fill="#161616"/>
<path d="M10.5 12H5.5V13H10.5V12Z" fill="#161616"/>
<path d="M9.5 14H6.5V15H9.5V14Z" fill="#161616"/>
<path d="M5.40725 9.07028C4.93898 8.71307 4.56572 8.24621 4.32032 7.71081C4.07493 7.17541 3.96492 6.58789 4 5.99998C4.00143 5.11406 4.29673 4.25364 4.83962 3.55355C5.38251 2.85346 6.14233 2.35326 7 2.13133L6.8069 1.14998C5.72198 1.41735 4.75775 2.04013 4.06784 2.91908C3.37792 3.79804 3.00201 4.8826 3 5.99998C2.96605 6.72639 3.10521 7.45047 3.40599 8.11255C3.70677 8.77464 4.16057 9.35577 4.73 9.80808C5.23585 10.2754 5.5 10.5407 5.5 11H6.5C6.5 10.08 5.9446 9.56688 5.40725 9.07028Z" fill="#161616"/>
<path d="M11.5246 7.99998C11.2677 8.40158 10.9523 8.76264 10.5888 9.07128C10.0534 9.56738 9.5 10.0805 9.5 11H10.5C10.5 10.5403 10.7632 10.275 11.2676 9.80713C11.7396 9.40528 12.14 8.92631 12.4519 8.39058L11.5246 7.99998Z" fill="#161616"/>
</svg>
