<svg width="16" height="16" viewBox="0 0 16 16" fill="none" xmlns="http://www.w3.org/2000/svg">
<path d="M13 1.00002H12V4.50002H13V1.00002Z" fill="#161616"/>
<path d="M12.5 5.50002C12.3517 5.50002 12.2067 5.544 12.0833 5.62641C11.96 5.70882 11.8639 5.82596 11.8071 5.963C11.7503 6.10005 11.7355 6.25085 11.7644 6.39633C11.7933 6.54182 11.8648 6.67546 11.9697 6.78035C12.0746 6.88524 12.2082 6.95667 12.3537 6.9856C12.4992 7.01454 12.65 6.99969 12.787 6.94293C12.9241 6.88616 13.0412 6.79003 13.1236 6.66669C13.206 6.54336 13.25 6.39835 13.25 6.25002C13.25 6.0511 13.171 5.86034 13.0303 5.71969C12.8897 5.57903 12.6989 5.50002 12.5 5.50002Z" fill="#161616"/>
<path d="M10.5 12H5.5V13H10.5V12Z" fill="#161616"/>
<path d="M9.5 14H6.5V15H9.5V14Z" fill="#161616"/>
<path d="M11.5244 8.00002C11.2674 8.40153 10.9521 8.76258 10.5888 9.07131C10.0534 9.56742 9.5 10.0806 9.5 11H10.5C10.5 10.5403 10.7632 10.275 11.2676 9.80717C11.8579 9.31815 12.3278 8.6998 12.6407 8.00002H11.5244Z" fill="#161616"/>
<path d="M8 2.00002C8.70282 2.00022 9.39299 2.187 10 2.54127V1.42042C9.23942 1.0869 8.40768 0.948323 7.58005 1.01721C6.75242 1.08611 5.95504 1.36029 5.26007 1.81496C4.5651 2.26963 3.99448 2.89043 3.59985 3.62117C3.20523 4.35191 2.99906 5.16953 3 6.00002C2.96605 6.72643 3.10521 7.45051 3.40599 8.11259C3.70677 8.77468 4.16057 9.35581 4.73 9.80812C5.23585 10.2754 5.5 10.5408 5.5 11H6.5C6.5 10.08 5.9446 9.56692 5.40725 9.07032C4.93898 8.71311 4.56572 8.24625 4.32032 7.71085C4.07493 7.17545 3.96492 6.58793 4 6.00002C4.00122 4.93952 4.42303 3.92281 5.17292 3.17293C5.9228 2.42305 6.93951 2.00123 8 2.00002Z" fill="#161616"/>
</svg>
