<svg width="16" height="16" viewBox="0 0 16 16" fill="none" xmlns="http://www.w3.org/2000/svg">
<path d="M10.5 12H5.5V13H10.5V12Z" fill="#161616"/>
<path d="M9.5 14H6.5V15H9.5V14Z" fill="#161616"/>
<path d="M11.5244 8.00003C11.2674 8.40155 10.9521 8.7626 10.5888 9.07133C10.0534 9.56743 9.5 10.0806 9.5 11H10.5C10.5 10.5403 10.7632 10.275 11.2676 9.80718C11.8579 9.31816 12.3278 8.69981 12.6407 8.00003H11.5244Z" fill="#161616"/>
<path d="M8 2.00003C8.64282 1.99995 9.27601 2.15621 9.845 2.45533L10.2929 1.55983C9.53112 1.16513 8.68052 0.973308 7.82307 1.00284C6.96562 1.03237 6.13023 1.28226 5.39742 1.72843C4.6646 2.1746 4.05905 2.802 3.63914 3.55018C3.21923 4.29835 2.99911 5.14207 3 6.00003C2.96605 6.72644 3.10521 7.45052 3.40599 8.11261C3.70677 8.77469 4.16057 9.35583 4.73 9.80813C5.23585 10.2754 5.5 10.5408 5.5 11H6.5C6.5 10.08 5.9446 9.56693 5.40725 9.07033C4.93898 8.71312 4.56572 8.24626 4.32032 7.71086C4.07493 7.17546 3.96492 6.58794 4 6.00003C4.00122 4.93954 4.42303 3.92283 5.17292 3.17295C5.9228 2.42306 6.93951 2.00125 8 2.00003Z" fill="#161616"/>
<path d="M14.5 7.00003H9.5C9.41476 7.00004 9.33094 6.97826 9.25648 6.93675C9.18203 6.89525 9.11943 6.83541 9.07462 6.7629C9.0298 6.69039 9.00427 6.60763 9.00044 6.52248C8.99662 6.43733 9.01462 6.35261 9.05275 6.27638L11.5527 1.27638C11.5943 1.19333 11.6581 1.12349 11.7371 1.07468C11.8161 1.02587 11.9071 1.00001 11.9999 1.00001C12.0928 1.00001 12.1838 1.02587 12.2628 1.07468C12.3418 1.12349 12.4056 1.19333 12.4471 1.27638L14.9471 6.27638C14.9853 6.35261 15.0033 6.43731 14.9995 6.52246C14.9956 6.6076 14.9701 6.69035 14.9253 6.76286C14.8805 6.83536 14.8179 6.89521 14.7435 6.93672C14.669 6.97823 14.5852 7.00002 14.5 7.00003ZM10.3091 6.00003H13.6909L12 2.61808L10.3091 6.00003Z" fill="#161616"/>
</svg>
