<svg width="16" height="16" viewBox="0 0 16 16" fill="none" xmlns="http://www.w3.org/2000/svg">
<path d="M8.95499 13.41L9.12999 14.41C9.8764 14.2798 10.594 14.0192 11.25 13.64L10.75 12.775C10.1936 13.0905 9.586 13.3055 8.95499 13.41Z" fill="#161616"/>
<path d="M12.21 11.535L13 12.175C13.4843 11.5935 13.8633 10.9319 14.12 10.22L13.185 9.87996C12.9596 10.4845 12.6296 11.0448 12.21 11.535Z" fill="#161616"/>
<path d="M4.74999 13.625C5.40595 14.0042 6.12359 14.2648 6.86999 14.395L7.04499 13.395C6.41302 13.2858 5.80533 13.0657 5.24999 12.745L4.74999 13.625Z" fill="#161616"/>
<path d="M2.83499 9.87996L1.89999 10.22C2.15059 10.9305 2.5228 11.592 2.99999 12.175L3.15999 12.045L3.76999 11.545C3.35754 11.0532 3.03433 10.4931 2.81499 9.88996L2.83499 9.87996Z" fill="#161616"/>
<path d="M14.5 7.99996C14.4986 7.24216 14.3632 6.49058 14.1 5.77996L13.165 6.11996C13.3837 6.72277 13.497 7.35872 13.5 7.99996H14.5Z" fill="#161616"/>
<path d="M13 3.82496C12.39 3.09065 11.6258 2.4997 10.7616 2.09412C9.89749 1.68853 8.9546 1.47827 7.99999 1.47827C7.04539 1.47827 6.1025 1.68853 5.23834 2.09412C4.37418 2.4997 3.60996 3.09065 2.99999 3.82496V1.99996H1.99999V5.99996H5.99999V4.99996H3.40499C3.87427 4.28305 4.50456 3.6857 5.2456 3.25553C5.98664 2.82537 6.81794 2.5743 7.6732 2.52233C8.52847 2.47036 9.38405 2.61894 10.1717 2.95622C10.9594 3.29349 11.6574 3.81014 12.21 4.46496L13 3.82496Z" fill="#161616"/>
</svg>
