<svg width="16" height="16" viewBox="0 0 16 16" fill="none" xmlns="http://www.w3.org/2000/svg">
<path d="M14.705 10.8351L5.17 1.29011C5.07713 1.19714 4.96684 1.12338 4.84544 1.07305C4.72405 1.02273 4.59392 0.996826 4.4625 0.996826C4.33109 0.996826 4.20096 1.02273 4.07956 1.07305C3.95817 1.12338 3.84788 1.19714 3.755 1.29011L1.295 3.75511C1.10875 3.94248 1.00421 4.19593 1.00421 4.46011C1.00421 4.7243 1.10875 4.97775 1.295 5.16511L10.83 14.7101C10.9234 14.8028 11.0343 14.8761 11.1561 14.9259C11.2779 14.9756 11.4084 15.0009 11.54 15.0001C11.8041 15.0003 12.0575 14.8961 12.245 14.7101L14.705 12.2451C14.8913 12.0577 14.9958 11.8043 14.9958 11.5401C14.9958 11.2759 14.8913 11.0225 14.705 10.8351ZM11.54 14.0001L2 4.46011L4.46 2.00011L6.355 3.89511L5.23 5.00011L5.935 5.70511L7.06 4.60011L9.125 6.66511L8 7.79011L8.71 8.50011L9.835 7.37511L11.9 9.44011L10.775 10.5651L11.5 11.2701L12.625 10.1451L14 11.5401L11.54 14.0001Z" fill="#161616"/>
</svg>
