<svg width="16" height="16" viewBox="0 0 16 16" fill="none" xmlns="http://www.w3.org/2000/svg">
<path d="M3.48459 12.5001H4.51539L4.14039 11.0001H11.8596L11.4846 12.5001H12.5154L12.9851 10.6212C13.0035 10.5475 13.0049 10.4705 12.9891 10.3962C12.9733 10.3219 12.9408 10.2522 12.894 10.1923C12.8473 10.1324 12.7875 10.084 12.7192 10.0507C12.6509 10.0174 12.576 10.0001 12.5 10.0001H9.99999V8.50006H12.5C12.5839 8.50007 12.6665 8.47897 12.7401 8.4387C12.8137 8.39842 12.876 8.34027 12.9212 8.26961C12.9664 8.19894 12.9932 8.11802 12.9989 8.03431C13.0047 7.9506 12.9892 7.8668 12.9541 7.79061L9.95409 1.29061C9.918 1.21242 9.86233 1.14487 9.79247 1.0945C9.72262 1.04413 9.64095 1.01264 9.55536 1.00309C9.46977 0.993534 9.38317 1.00624 9.30393 1.03996C9.22468 1.07369 9.15549 1.1273 9.10304 1.19561L4.10374 7.69536C4.04686 7.76936 4.01183 7.85782 4.00262 7.9507C3.9934 8.04359 4.01037 8.1372 4.05161 8.22094C4.09284 8.30468 4.1567 8.3752 4.23594 8.42453C4.31518 8.47386 4.40665 8.50002 4.49999 8.50006H8.99999V10.0001H3.49999C3.42403 10.0001 3.34908 10.0174 3.28081 10.0507C3.21255 10.084 3.15277 10.1325 3.10602 10.1923C3.05927 10.2522 3.02678 10.3219 3.011 10.3962C2.99523 10.4705 2.99659 10.5475 3.01499 10.6212L3.48459 12.5001ZM9.99999 3.77641L11.7185 7.50006H9.99999V3.77641ZM5.51539 7.50006L8.99999 2.97006V7.50006H5.51539Z" fill="#161616"/>
<path d="M13.4529 12.8756C13.3698 13.1976 13.1819 13.4829 12.9189 13.6865C12.6559 13.8901 12.3326 14.0004 12 14.0001C11.6595 13.9802 11.3326 13.8594 11.0609 13.6532C10.7892 13.4469 10.585 13.1645 10.4743 12.8419C10.4407 12.7426 10.3769 12.6563 10.2919 12.5951C10.2068 12.5338 10.1048 12.5006 9.99999 12.5001C9.89533 12.4993 9.79312 12.5317 9.70805 12.5927C9.62299 12.6537 9.55946 12.74 9.52659 12.8394C9.41611 13.1626 9.21193 13.4455 8.94006 13.6522C8.66819 13.8589 8.34093 13.98 7.99999 14.0001C7.65947 13.9802 7.33256 13.8594 7.06087 13.6532C6.78919 13.4469 6.58502 13.1645 6.47434 12.8419C6.44068 12.7426 6.37689 12.6563 6.29186 12.5951C6.20683 12.5338 6.1048 12.5006 5.99999 12.5001C5.895 12.4978 5.7921 12.5297 5.70675 12.5909C5.6214 12.652 5.55818 12.7393 5.52659 12.8394C5.41611 13.1626 5.21193 13.4455 4.94006 13.6522C4.66818 13.8589 4.34093 13.98 3.99999 14.0001C3.66738 14.0004 3.34411 13.8901 3.08108 13.6865C2.81804 13.4829 2.63019 13.1976 2.54709 12.8756L1.57884 13.1246C1.71706 13.6615 2.02998 14.1373 2.46833 14.4768C2.90667 14.8164 3.44552 15.0004 3.99999 15.0001C4.38803 15.0035 4.7714 14.9153 5.11893 14.7426C5.46646 14.57 5.76833 14.3177 5.99999 14.0064C6.23403 14.3152 6.53639 14.5656 6.88337 14.738C7.23036 14.9104 7.61254 15.0001 7.99999 15.0001C8.38744 15.0001 8.76963 14.9104 9.11661 14.738C9.46359 14.5656 9.76595 14.3152 9.99999 14.0064C10.2317 14.3177 10.5335 14.57 10.8811 14.7426C11.2286 14.9153 11.612 15.0035 12 15.0001C12.5545 15.0004 13.0933 14.8164 13.5317 14.4768C13.97 14.1373 14.2829 13.6615 14.4211 13.1246L13.4529 12.8756Z" fill="#161616"/>
</svg>
