<svg width="16" height="16" viewBox="0 0 16 16" fill="none" xmlns="http://www.w3.org/2000/svg">
<path d="M14.4141 3.56691C14.0332 3.20306 13.5267 3.00002 13 3.00002C12.4733 3.00002 11.9668 3.20306 11.586 3.56691L0.171661 14.981H4.79446C5.12291 14.9818 5.44827 14.9175 5.75171 14.7918C6.05515 14.6661 6.33065 14.4815 6.56226 14.2486L14.4141 6.39501C14.5998 6.20935 14.7472 5.98891 14.8477 5.74629C14.9483 5.50366 15 5.2436 15 4.98096C15 4.71833 14.9483 4.45827 14.8477 4.21564C14.7472 3.97301 14.5998 3.75257 14.4141 3.56691ZM6.14641 10.4203L7.18941 9.37741L8.60406 10.7921L7.56121 11.835L6.14641 10.4203ZM5.85501 13.5415C5.71601 13.6812 5.5507 13.792 5.36863 13.8674C5.18656 13.9429 4.99134 13.9814 4.79426 13.981H2.58571L5.43936 11.1274L6.85436 12.5424L5.85501 13.5415ZM13.7071 5.68801L9.31106 10.085L7.89641 8.67041L12.293 4.27401C12.4834 4.09208 12.7366 3.99055 13 3.99055C13.2634 3.99055 13.5166 4.09208 13.7071 4.27401C13.7999 4.36684 13.8736 4.47707 13.9239 4.59838C13.9741 4.71969 14 4.84972 14 4.98104C14 5.11235 13.9741 5.24238 13.9239 5.3637C13.8736 5.48501 13.7999 5.59518 13.7071 5.68801Z" fill="#161616"/>
<path d="M5.50001 1.00001H3.50001C3.0269 0.998518 2.56314 1.13172 2.16294 1.38406C1.76274 1.63639 1.44264 1.99743 1.24004 2.42497C1.03745 2.85251 0.96074 3.32888 1.01888 3.7984C1.07702 4.26793 1.2676 4.7112 1.56836 5.07641C1.52511 5.21354 1.50209 5.35624 1.50001 5.50001C1.50096 5.80919 1.59759 6.11049 1.77664 6.36254C1.95569 6.61459 2.20838 6.80503 2.50001 6.90771V7.00001C2.49968 7.26513 2.39422 7.51929 2.20675 7.70675C2.01929 7.89422 1.76513 7.99968 1.50001 8.00001H1.00001V9.00001H1.50001C2.03026 8.99942 2.53862 8.78851 2.91357 8.41357C3.28851 8.03862 3.49942 7.53026 3.50001 7.00001V6.90796C3.70917 6.83338 3.89914 6.71322 4.05615 6.55619C4.21316 6.39916 4.3333 6.20918 4.40786 6.00001H5.50001C6.16305 6.00001 6.79894 5.73662 7.26778 5.26778C7.73662 4.79894 8.00001 4.16305 8.00001 3.50001C8.00001 2.83697 7.73662 2.20109 7.26778 1.73225C6.79894 1.2634 6.16305 1.00001 5.50001 1.00001ZM3.00001 6.00001C2.90112 6.00001 2.80445 5.97069 2.72223 5.91575C2.64 5.86081 2.57592 5.78272 2.53807 5.69135C2.50023 5.59999 2.49033 5.49946 2.50962 5.40247C2.52891 5.30548 2.57653 5.21639 2.64646 5.14646C2.71638 5.07653 2.80548 5.02891 2.90247 5.00962C2.99946 4.99033 3.09999 5.00023 3.19135 5.03807C3.28272 5.07592 3.36081 5.14 3.41575 5.22223C3.47069 5.30445 3.50001 5.40112 3.50001 5.50001C3.49989 5.63258 3.44718 5.75969 3.35343 5.85343C3.25969 5.94718 3.13258 5.99989 3.00001 6.00001ZM5.50001 5.00001H4.40786C4.3341 4.7872 4.21295 4.59392 4.05357 4.43478C3.89419 4.27563 3.70073 4.15477 3.48781 4.08131C3.27489 4.00786 3.04807 3.98373 2.82446 4.01076C2.60085 4.03778 2.3863 4.11525 2.19701 4.23731C2.06687 4.00955 1.99892 3.75156 2.00001 3.48924C2.00109 3.22692 2.07115 2.9695 2.20317 2.74282C2.33519 2.51614 2.52452 2.32817 2.75214 2.19779C2.97977 2.06741 3.23769 1.9992 3.50001 2.00001H5.50001C5.89784 2.00001 6.27937 2.15805 6.56067 2.43935C6.84198 2.72066 7.00001 3.10219 7.00001 3.50001C7.00001 3.89784 6.84198 4.27937 6.56067 4.56067C6.27937 4.84198 5.89784 5.00001 5.50001 5.00001Z" fill="#161616"/>
</svg>
