<svg width="16" height="16" viewBox="0 0 16 16" fill="none" xmlns="http://www.w3.org/2000/svg">
<path d="M14.415 2.58498C14.0337 2.22124 13.527 2.01831 13 2.01831C12.473 2.01831 11.9663 2.22124 11.585 2.58498L0.169983 14H4.79498C5.45675 13.9998 6.09145 13.7373 6.55998 13.27L14.415 5.41498C14.6009 5.22923 14.7485 5.00865 14.8491 4.76586C14.9498 4.52306 15.0016 4.26281 15.0016 3.99998C15.0016 3.73715 14.9498 3.47689 14.8491 3.2341C14.7485 2.9913 14.6009 2.77072 14.415 2.58498ZM6.14498 9.43998L7.18998 8.39498L8.60498 9.80998L7.55998 10.855L6.14498 9.43998ZM5.85498 12.56C5.57395 12.8414 5.19267 12.9996 4.79498 13H2.58498L5.43998 10.145L6.85498 11.56L5.85498 12.56ZM13.705 4.70498L9.30998 9.10498L7.89498 7.68998L12.295 3.29498C12.4823 3.10873 12.7358 3.00419 13 3.00419C13.2642 3.00419 13.5176 3.10873 13.705 3.29498C13.8912 3.48234 13.9958 3.73579 13.9958 3.99998C13.9958 4.26416 13.8912 4.51762 13.705 4.70498Z" fill="#161616"/>
</svg>
