<svg width="16" height="16" viewBox="0 0 16 16" fill="none" xmlns="http://www.w3.org/2000/svg">
<path d="M14.4141 3.58583C14.0332 3.22198 13.5267 3.01895 13 3.01895C12.4733 3.01895 11.9668 3.22198 11.586 3.58583L0.171661 14.9999H4.79446C5.12291 15.0007 5.44827 14.9364 5.75171 14.8107C6.05515 14.685 6.33065 14.5004 6.56226 14.2675L14.4141 6.41393C14.5998 6.22828 14.7472 6.00784 14.8477 5.76521C14.9483 5.52258 15 5.26252 15 4.99988C15 4.73725 14.9483 4.47719 14.8477 4.23456C14.7472 3.99193 14.5998 3.77149 14.4141 3.58583ZM6.14641 10.4392L7.18941 9.39629L8.60406 10.811L7.56121 11.8541L6.14641 10.4392ZM5.85501 13.5604C5.71604 13.7001 5.55076 13.8109 5.36872 13.8863C5.18668 13.9617 4.9915 14.0003 4.79446 13.9999H2.58571L5.43936 11.1463L6.85436 12.5613L5.85501 13.5604ZM13.7069 5.70693L9.31086 10.1039L7.89621 8.68928L12.2928 4.29283C12.4832 4.11092 12.7364 4.00941 12.9998 4.00941C13.2632 4.00941 13.5164 4.11092 13.7069 4.29283C13.7997 4.38567 13.8734 4.4959 13.9237 4.61722C13.9739 4.73854 13.9998 4.86857 13.9998 4.99988C13.9998 5.1312 13.9739 5.26123 13.9237 5.38255C13.8734 5.50387 13.7997 5.61409 13.7069 5.70693Z" fill="#161616"/>
<path d="M7.50001 0.999885C7.19082 1.00082 6.88949 1.09745 6.63741 1.2765C6.38534 1.45555 6.19487 1.70824 6.09216 1.99988H3.90781C3.82393 1.76121 3.68089 1.5477 3.49208 1.37932C3.30327 1.21093 3.07485 1.09317 2.82817 1.03705C2.58149 0.980917 2.3246 0.988253 2.08153 1.05837C1.83845 1.12848 1.61712 1.25909 1.43823 1.43797C1.25933 1.61685 1.12872 1.83818 1.05859 2.08125C0.988463 2.32432 0.981114 2.58121 1.03723 2.82789C1.09334 3.07458 1.21109 3.30301 1.37947 3.49182C1.54784 3.68064 1.76134 3.82369 2.00001 3.90758V6.09193C1.6664 6.20988 1.38523 6.44197 1.2062 6.74717C1.02716 7.05238 0.961778 7.41105 1.02161 7.7598C1.08145 8.10855 1.26265 8.42492 1.53318 8.65299C1.80372 8.88106 2.14617 9.00615 2.50001 9.00615C2.85386 9.00615 3.19631 8.88106 3.46684 8.65299C3.73738 8.42492 3.91857 8.10855 3.97841 7.7598C4.03824 7.41105 3.97287 7.05238 3.79383 6.74717C3.61479 6.44197 3.33362 6.20988 3.00001 6.09193V3.90783C3.20916 3.83324 3.39912 3.71308 3.55612 3.55605C3.71312 3.39902 3.83325 3.20905 3.90781 2.99988H6.09211C6.18425 3.25842 6.34567 3.48666 6.55874 3.65966C6.77181 3.83266 7.02833 3.94377 7.30028 3.98085C7.57222 4.01793 7.84913 3.97956 8.10074 3.86991C8.35235 3.76027 8.56898 3.58358 8.72697 3.35915C8.88496 3.13472 8.97822 2.87118 8.99657 2.59733C9.01492 2.32349 8.95765 2.04986 8.83101 1.80636C8.70438 1.56286 8.51325 1.35885 8.27852 1.21662C8.04378 1.07439 7.77447 0.999415 7.50001 0.999885ZM2.50001 7.99988C2.40112 7.99988 2.30445 7.97056 2.22223 7.91562C2.14 7.86068 2.07592 7.78259 2.03807 7.69123C2.00023 7.59986 1.99033 7.49933 2.00962 7.40234C2.02891 7.30535 2.07653 7.21626 2.14646 7.14633C2.21638 7.07641 2.30548 7.02878 2.40247 7.00949C2.49946 6.9902 2.59999 7.0001 2.69135 7.03794C2.78272 7.07579 2.86081 7.13987 2.91575 7.2221C2.97069 7.30432 3.00001 7.40099 3.00001 7.49988C2.99991 7.63246 2.94719 7.75958 2.85345 7.85332C2.7597 7.94707 2.63259 7.99978 2.50001 7.99988ZM2.50001 2.99988C2.40112 2.99988 2.30445 2.97056 2.22223 2.91562C2.14 2.86068 2.07592 2.78259 2.03807 2.69123C2.00023 2.59986 1.99033 2.49933 2.00962 2.40234C2.02891 2.30535 2.07653 2.21626 2.14646 2.14633C2.21638 2.07641 2.30548 2.02878 2.40247 2.00949C2.49946 1.9902 2.59999 2.0001 2.69135 2.03794C2.78272 2.07579 2.86081 2.13987 2.91575 2.2221C2.97069 2.30432 3.00001 2.40099 3.00001 2.49988C2.99991 2.63246 2.94719 2.75958 2.85345 2.85332C2.7597 2.94707 2.63259 2.99978 2.50001 2.99988ZM7.50001 2.99988C7.40112 2.99988 7.30445 2.97056 7.22223 2.91562C7.14 2.86068 7.07592 2.78259 7.03807 2.69123C7.00023 2.59986 6.99033 2.49933 7.00962 2.40234C7.02891 2.30535 7.07653 2.21626 7.14646 2.14633C7.21638 2.07641 7.30548 2.02878 7.40247 2.00949C7.49946 1.9902 7.59999 2.0001 7.69135 2.03794C7.78272 2.07579 7.86081 2.13987 7.91575 2.2221C7.97069 2.30432 8.00001 2.40099 8.00001 2.49988C7.99991 2.63246 7.94719 2.75958 7.85345 2.85332C7.7597 2.94707 7.63259 2.99978 7.50001 2.99988Z" fill="#161616"/>
</svg>
