<svg width="16" height="16" viewBox="0 0 16 16" fill="none" xmlns="http://www.w3.org/2000/svg">
<path d="M14.6913 1.03815C14.5999 1.00024 14.4993 0.990302 14.4023 1.0096C14.3053 1.0289 14.2162 1.07656 14.1463 1.14655L1.14627 14.1466C1.07635 14.2165 1.02875 14.3056 1.00947 14.4026C0.990193 14.4996 1.00011 14.6001 1.03797 14.6915C1.07583 14.7828 1.13993 14.8609 1.22217 14.9158C1.3044 14.9708 1.40108 15.0001 1.49997 15.0001H5.49997V14.0001H2.70712L4.70712 12.0001H11C11.2651 11.9998 11.5193 11.8943 11.7068 11.7069C11.8942 11.5194 11.9997 11.2652 12 11.0001V4.70735L14 2.70735V5.50005H15V1.50005C15 1.40116 14.9706 1.3045 14.9157 1.22228C14.8607 1.14006 14.7826 1.07598 14.6913 1.03815ZM11 11.0001H5.70712L11 5.70735V11.0001Z" fill="#161616"/>
<path d="M4.99997 8.87775V5.00005H8.87767L9.87767 4.00005H4.99997C4.73486 4.00038 4.48069 4.10584 4.29323 4.29331C4.10577 4.48077 4.0003 4.73494 3.99997 5.00005V9.87775L4.99997 8.87775Z" fill="#161616"/>
<path d="M5.49997 1.00005H0.999971V5.50005H1.99997V2.00005H5.49997V1.00005Z" fill="#161616"/>
<path d="M10.5 15.0001H15V10.5001H14V14.0001H10.5V15.0001Z" fill="#161616"/>
<path d="M1.99997 11.8776V10.5001H0.999971V12.8771L1.99997 11.8776Z" fill="#161616"/>
<path d="M12.8775 1.00005H10.5V2.00005H11.8775L12.8775 1.00005Z" fill="#161616"/>
</svg>
