<svg width="16" height="16" viewBox="0 0 16 16" fill="none" xmlns="http://www.w3.org/2000/svg">
<path d="M13.5 9.50047C13.4994 8.9701 13.2884 8.46163 12.9134 8.0866C12.5384 7.71156 12.0299 7.5006 11.4995 7.49997H4.50055C4.23528 7.49971 3.98096 7.39422 3.79338 7.20666C3.6058 7.0191 3.50029 6.76479 3.5 6.49952V4.92897C3.84375 4.83937 4.15738 4.65972 4.40858 4.40854C4.65977 4.15735 4.83943 3.84372 4.92905 3.49997H11.071C11.1927 3.9713 11.4822 4.38207 11.885 4.65527C12.2879 4.92848 12.7766 5.04537 13.2595 4.98403C13.7425 4.9227 14.1864 4.68734 14.5082 4.32209C14.83 3.95684 15.0075 3.48676 15.0075 2.99997C15.0075 2.51319 14.83 2.04311 14.5082 1.67786C14.1864 1.3126 13.7425 1.07725 13.2595 1.01591C12.7766 0.954577 12.2879 1.07147 11.885 1.34467C11.4822 1.61788 11.1927 2.02864 11.071 2.49997H4.92905C4.84157 2.15885 4.66539 1.84696 4.4184 1.59594C4.17141 1.34493 3.86239 1.16373 3.52273 1.07076C3.18307 0.977779 2.82486 0.976331 2.48446 1.06656C2.14405 1.15678 1.83359 1.33547 1.58457 1.58448C1.33556 1.83349 1.15686 2.14395 1.06663 2.48435C0.976396 2.82475 0.977837 3.18297 1.07081 3.52263C1.16378 3.86229 1.34496 4.17131 1.59597 4.41831C1.84698 4.6653 2.15888 4.84149 2.5 4.92897V6.49952C2.50063 7.0299 2.71161 7.53837 3.08665 7.91339C3.46169 8.28841 3.97017 8.49936 4.50055 8.49997H11.4995C11.7648 8.50025 12.0191 8.60575 12.2067 8.79332C12.3942 8.98089 12.4997 9.23521 12.5 9.50047V11H11V12.5H4.92905C4.80735 12.0286 4.51793 11.6179 4.11504 11.3447C3.71215 11.0715 3.22345 10.9546 2.74055 11.0159C2.25764 11.0773 1.81368 11.3126 1.49188 11.6779C1.17009 12.0431 0.992554 12.5132 0.992554 13C0.992554 13.4868 1.17009 13.9568 1.49188 14.3221C1.81368 14.6873 2.25764 14.9227 2.74055 14.984C3.22345 15.0454 3.71215 14.9285 4.11504 14.6553C4.51793 14.3821 4.80735 13.9713 4.92905 13.5H11V15H15V11H13.5V9.50047ZM13 1.99997C13.1978 1.99997 13.3911 2.05862 13.5556 2.1685C13.72 2.27839 13.8482 2.43456 13.9239 2.61729C13.9996 2.80002 14.0194 3.00108 13.9808 3.19506C13.9422 3.38904 13.847 3.56723 13.7071 3.70708C13.5672 3.84693 13.3891 3.94217 13.1951 3.98076C13.0011 4.01934 12.8 3.99954 12.6173 3.92385C12.4346 3.84817 12.2784 3.71999 12.1685 3.55554C12.0586 3.39109 12 3.19775 12 2.99997C12.0002 2.73483 12.1057 2.48063 12.2932 2.29314C12.4806 2.10566 12.7349 2.00022 13 1.99997ZM2 2.99997C2 2.80219 2.05864 2.60885 2.16853 2.4444C2.27841 2.27995 2.43459 2.15178 2.61731 2.07609C2.80004 2.00041 3.0011 1.9806 3.19509 2.01919C3.38907 2.05777 3.56725 2.15301 3.7071 2.29287C3.84695 2.43272 3.9422 2.6109 3.98078 2.80488C4.01937 2.99886 3.99956 3.19993 3.92388 3.38266C3.84819 3.56538 3.72001 3.72156 3.55557 3.83144C3.39112 3.94132 3.19778 3.99997 3 3.99997C2.73486 3.99972 2.48065 3.89428 2.29317 3.7068C2.10568 3.51932 2.00025 3.26511 2 2.99997ZM3 14C2.80221 14 2.60887 13.9413 2.44443 13.8314C2.27998 13.7216 2.1518 13.5654 2.07612 13.3827C2.00043 13.1999 1.98062 12.9989 2.01921 12.8049C2.0578 12.6109 2.15304 12.4327 2.29289 12.2929C2.43274 12.153 2.61092 12.0578 2.80491 12.0192C2.99889 11.9806 3.19995 12.0004 3.38268 12.0761C3.56541 12.1518 3.72158 12.28 3.83147 12.4444C3.94135 12.6089 4 12.8022 4 13C3.99973 13.2651 3.89429 13.5193 3.70681 13.7068C3.51933 13.8943 3.26513 13.9997 3 14ZM14 12V14H12V12H14Z" fill="#161616"/>
</svg>
