<svg width="16" height="16" viewBox="0 0 16 16" fill="none" xmlns="http://www.w3.org/2000/svg">
<path d="M11.5 12.9999C12.0523 12.9999 12.5 12.5522 12.5 11.9999C12.5 11.4477 12.0523 10.9999 11.5 10.9999C10.9477 10.9999 10.5 11.4477 10.5 11.9999C10.5 12.5522 10.9477 12.9999 11.5 12.9999Z" fill="#161616"/>
<path d="M15.3885 11.7392C15.0795 10.9522 14.5464 10.2731 13.8552 9.78623C13.164 9.29931 12.3451 9.02592 11.5 8.99994C10.6549 9.02592 9.83604 9.29931 9.14484 9.78623C8.45365 10.2731 7.92053 10.9522 7.61155 11.7392L7.5 11.9999L7.61155 12.2607C7.92053 13.0477 8.45365 13.7267 9.14484 14.2136C9.83604 14.7006 10.6549 14.974 11.5 14.9999C12.3451 14.974 13.164 14.7006 13.8552 14.2136C14.5464 13.7267 15.0795 13.0477 15.3885 12.2607L15.5 11.9999L15.3885 11.7392ZM11.5 13.9999C11.1044 13.9999 10.7178 13.8826 10.3889 13.6629C10.06 13.4431 9.80362 13.1308 9.65224 12.7653C9.50087 12.3999 9.46126 11.9977 9.53843 11.6098C9.6156 11.2218 9.80608 10.8654 10.0858 10.5857C10.3655 10.306 10.7219 10.1155 11.1098 10.0384C11.4978 9.9612 11.8999 10.0008 12.2654 10.1522C12.6308 10.3036 12.9432 10.5599 13.1629 10.8888C13.3827 11.2177 13.5 11.6044 13.5 11.9999C13.4994 12.5302 13.2885 13.0386 12.9136 13.4135C12.5386 13.7884 12.0303 13.9993 11.5 13.9999Z" fill="#161616"/>
<path d="M6.19945 10.3999C5.79046 10.0931 5.4667 9.68672 5.2589 9.21953C5.05111 8.75233 4.96617 8.23977 5.01216 7.73052C5.05815 7.22127 5.23354 6.73223 5.52167 6.30982C5.80981 5.88741 6.20113 5.54566 6.65848 5.31701C7.11584 5.08836 7.62404 4.9804 8.13485 5.00338C8.64565 5.02637 9.14211 5.17953 9.57708 5.44833C10.012 5.71713 10.3711 6.09264 10.6201 6.53922C10.8692 6.9858 10.9999 7.48862 11 7.99994H10C10 7.65903 9.91286 7.32377 9.74684 7.02601C9.58083 6.72825 9.34146 6.47787 9.05146 6.29864C8.76147 6.11941 8.43047 6.01728 8.0899 6.00196C7.74933 5.98664 7.4105 6.05862 7.10557 6.21108C6.80065 6.36354 6.53976 6.59142 6.34768 6.87307C6.1556 7.15472 6.0387 7.48079 6.00808 7.82033C5.97747 8.15986 6.03415 8.50159 6.17275 8.81306C6.31135 9.12452 6.52727 9.39539 6.8 9.59994L6.19945 10.3999Z" fill="#161616"/>
<path d="M14.6524 5.52189L13.4721 3.47799C13.3566 3.27764 13.1753 3.12353 12.9589 3.04196C12.7426 2.96039 12.5046 2.95641 12.2857 3.03069L11.0686 3.44234C10.8589 3.30108 10.6397 3.1744 10.4126 3.06319L10.1608 1.80389C10.1154 1.57716 9.99293 1.37315 9.81412 1.22657C9.63531 1.07999 9.41122 0.999903 9.18001 0.999939H6.82001C6.58883 0.999949 6.36479 1.08006 6.18602 1.22663C6.00725 1.37321 5.88478 1.5772 5.83946 1.80389L5.58761 3.06319C5.35794 3.17321 5.13622 3.2991 4.92406 3.43994L3.71436 3.03069C3.49539 2.95641 3.25744 2.96039 3.04109 3.04196C2.82473 3.12353 2.64338 3.27764 2.52796 3.47799L1.34766 5.52189C1.23211 5.72212 1.18948 5.9562 1.22703 6.18432C1.26457 6.41243 1.37998 6.6205 1.55361 6.77314L2.51906 7.62154C2.51051 7.74724 2.50001 7.87224 2.50001 7.99994C2.50001 8.12884 2.50501 8.25629 2.51391 8.38274L1.55361 9.22674C1.37998 9.37938 1.26457 9.58744 1.22703 9.81556C1.18948 10.0437 1.23211 10.2778 1.34766 10.478L2.52796 12.5219C2.64338 12.7222 2.82473 12.8763 3.04109 12.9579C3.25744 13.0395 3.49539 13.0435 3.71436 12.9692L4.93141 12.5575C5.14108 12.6989 5.36027 12.8256 5.58741 12.9367L5.83926 14.196C5.88459 14.4227 6.00708 14.6267 6.1859 14.7733C6.36471 14.9199 6.58879 15 6.82001 14.9999H7.50001V13.9999H6.82001L6.46501 12.2245C5.97398 12.0422 5.51815 11.7764 5.11761 11.4389L3.39421 12.0219L2.21421 9.97799L3.57641 8.78044C3.4832 8.26339 3.48202 7.73395 3.57291 7.21649L2.21376 6.02189L3.39431 3.97799L5.10766 4.55754C5.51098 4.21974 5.97024 3.95502 6.46471 3.77534L6.82001 1.99994H9.18001L9.53501 3.77534C10.026 3.9577 10.4819 4.22349 10.8824 4.56099L12.6058 3.97799L13.7858 6.02189L12.3869 7.24799L13.0462 7.99994L14.4462 6.77314C14.6198 6.62053 14.7353 6.41248 14.7729 6.18436C14.8105 5.95625 14.7679 5.72215 14.6524 5.52189Z" fill="#161616"/>
</svg>
