<svg width="16" height="16" viewBox="0 0 16 16" fill="none" xmlns="http://www.w3.org/2000/svg">
<path d="M13.5 8.38005C13.5 8.25505 13.5 8.13005 13.5 8.00005C13.5 7.87005 13.5 7.74505 13.5 7.61505L14.46 6.77505C14.637 6.61908 14.7531 6.40556 14.7879 6.17225C14.8226 5.93894 14.7738 5.70084 14.65 5.50005L13.47 3.50005C13.3823 3.34818 13.2562 3.22204 13.1044 3.13428C12.9526 3.04652 12.7804 3.00023 12.605 3.00005C12.4963 2.99922 12.3882 3.01611 12.285 3.05005L11.07 3.46005C10.8602 3.32065 10.6414 3.19538 10.415 3.08505L10.16 1.82505C10.1143 1.59485 9.98905 1.38807 9.80623 1.2409C9.62341 1.09373 9.39466 1.01555 9.16 1.02005H6.82C6.58535 1.01555 6.3566 1.09373 6.17378 1.2409C5.99096 1.38807 5.86573 1.59485 5.82 1.82505L5.565 3.08505C5.33697 3.19535 5.11649 3.32062 4.905 3.46005L3.715 3.03005C3.61065 3.00286 3.50259 2.99273 3.395 3.00005C3.21964 3.00023 3.04741 3.04652 2.89559 3.13428C2.74376 3.22204 2.61769 3.34818 2.53 3.50005L1.35 5.50005C1.2333 5.70054 1.18993 5.93538 1.22733 6.16433C1.26473 6.39329 1.38057 6.60211 1.555 6.75505L2.5 7.62005C2.5 7.74505 2.5 7.87005 2.5 8.00005C2.5 8.13005 2.5 8.25505 2.5 8.38505L1.555 9.22505C1.37564 9.37905 1.25663 9.59162 1.2191 9.82502C1.18158 10.0584 1.22795 10.2976 1.35 10.5001L2.53 12.5001C2.61769 12.6519 2.74376 12.7781 2.89559 12.8658C3.04741 12.9536 3.21964 12.9999 3.395 13.0001C3.50368 13.0009 3.61176 12.984 3.715 12.9501L4.93 12.5401C5.13977 12.6794 5.35859 12.8047 5.585 12.9151L5.84 14.1751C5.88573 14.4052 6.01096 14.612 6.19378 14.7592C6.3766 14.9064 6.60535 14.9845 6.84 14.9801H9.2C9.43466 14.9845 9.66341 14.9064 9.84623 14.7592C10.029 14.612 10.1543 14.4052 10.2 14.1751L10.455 12.9151C10.683 12.8048 10.9035 12.6795 11.115 12.5401L12.325 12.9501C12.4282 12.984 12.5363 13.0009 12.645 13.0001C12.8204 12.9999 12.9926 12.9536 13.1444 12.8658C13.2962 12.7781 13.4223 12.6519 13.51 12.5001L14.65 10.5001C14.7667 10.2996 14.8101 10.0647 14.7727 9.83577C14.7353 9.60682 14.6194 9.39799 14.445 9.24505L13.5 8.38005ZM12.605 12.0001L10.89 11.4201C10.4885 11.7601 10.0297 12.0259 9.535 12.2051L9.18 14.0001H6.82L6.465 12.2251C5.97422 12.0408 5.51786 11.7755 5.115 11.4401L3.395 12.0001L2.215 10.0001L3.575 8.80005C3.48255 8.28248 3.48255 7.75262 3.575 7.23505L2.215 6.00005L3.395 4.00005L5.11 4.58005C5.51147 4.24 5.97031 3.97418 6.465 3.79505L6.82 2.00005H9.18L9.535 3.77505C10.0258 3.95926 10.4821 4.22462 10.885 4.56005L12.605 4.00005L13.785 6.00005L12.425 7.20005C12.5175 7.71762 12.5175 8.24748 12.425 8.76505L13.785 10.0001L12.605 12.0001Z" fill="#161616"/>
<path d="M8 11.0001C7.40666 11.0001 6.82664 10.8241 6.33329 10.4945C5.83995 10.1648 5.45543 9.69628 5.22837 9.1481C5.0013 8.59992 4.94189 7.99672 5.05765 7.41478C5.1734 6.83284 5.45913 6.29829 5.87868 5.87873C6.29824 5.45917 6.83279 5.17345 7.41473 5.0577C7.99668 4.94194 8.59988 5.00135 9.14805 5.22841C9.69623 5.45548 10.1648 5.83999 10.4944 6.33334C10.8241 6.82669 11 7.40671 11 8.00005C11.004 8.39513 10.9292 8.78704 10.7798 9.15283C10.6305 9.51862 10.4096 9.85093 10.1303 10.1303C9.85089 10.4097 9.51857 10.6305 9.15278 10.7799C8.787 10.9292 8.39508 11.0041 8 11.0001ZM8 6.00005C7.73568 5.99389 7.47285 6.04142 7.22741 6.13975C6.98198 6.23808 6.75904 6.38517 6.57208 6.57213C6.38512 6.75909 6.23803 6.98202 6.1397 7.22746C6.04137 7.47289 5.99385 7.73572 6 8.00005C5.99385 8.26438 6.04137 8.52721 6.1397 8.77264C6.23803 9.01808 6.38512 9.24102 6.57208 9.42797C6.75904 9.61493 6.98198 9.76203 7.22741 9.86036C7.47285 9.95868 7.73568 10.0062 8 10.0001C8.26433 10.0062 8.52716 9.95868 8.7726 9.86036C9.01803 9.76203 9.24097 9.61493 9.42793 9.42797C9.61489 9.24102 9.76198 9.01808 9.86031 8.77264C9.95864 8.52721 10.0062 8.26438 10 8.00005C10.0062 7.73572 9.95864 7.47289 9.86031 7.22746C9.76198 6.98202 9.61489 6.75909 9.42793 6.57213C9.24097 6.38517 9.01803 6.23808 8.7726 6.13975C8.52716 6.04142 8.26433 5.99389 8 6.00005Z" fill="#161616"/>
</svg>
