<svg width="16" height="16" viewBox="0 0 16 16" fill="none" xmlns="http://www.w3.org/2000/svg">
<path d="M11.5 10.0001C11.1257 10.002 10.7567 10.0879 10.42 10.2514C10.0834 10.415 9.78779 10.652 9.555 10.9451L5.9 8.6601C6.03321 8.23018 6.03321 7.77002 5.9 7.3401L9.555 5.0551C9.92597 5.51446 10.4476 5.82769 11.0274 5.93931C11.6072 6.05092 12.2078 5.95372 12.7228 5.66491C13.2378 5.37611 13.6339 4.91435 13.8411 4.36143C14.0482 3.8085 14.053 3.20011 13.8545 2.64402C13.656 2.08793 13.2671 1.62003 12.7567 1.32322C12.2463 1.0264 11.6473 0.919827 11.0658 1.02237C10.4843 1.12491 9.95788 1.42996 9.57978 1.88346C9.20167 2.33697 8.99629 2.90966 9 3.5001C9.00236 3.72369 9.03602 3.94585 9.1 4.1601L5.445 6.4451C5.12232 6.03889 4.68127 5.74313 4.18298 5.5988C3.68468 5.45447 3.15383 5.46873 2.66401 5.63961C2.17418 5.81048 1.74964 6.1295 1.44924 6.55245C1.14884 6.9754 0.987457 7.48133 0.987457 8.0001C0.987457 8.51888 1.14884 9.0248 1.44924 9.44775C1.74964 9.8707 2.17418 10.1897 2.66401 10.3606C3.15383 10.5315 3.68468 10.5457 4.18298 10.4014C4.68127 10.2571 5.12232 9.96131 5.445 9.5551L9.1 11.8401C9.03602 12.0544 9.00236 12.2765 9 12.5001C9 12.9946 9.14662 13.4779 9.42133 13.889C9.69603 14.3002 10.0865 14.6206 10.5433 14.8098C11.0001 14.999 11.5028 15.0485 11.9877 14.9521C12.4727 14.8556 12.9181 14.6175 13.2678 14.2679C13.6174 13.9182 13.8555 13.4728 13.952 12.9878C14.0484 12.5029 13.9989 12.0002 13.8097 11.5434C13.6205 11.0866 13.3 10.6961 12.8889 10.4214C12.4778 10.1467 11.9945 10.0001 11.5 10.0001ZM11.5 2.0001C11.7967 2.0001 12.0867 2.08808 12.3334 2.2529C12.58 2.41772 12.7723 2.65199 12.8858 2.92608C12.9994 3.20017 13.0291 3.50177 12.9712 3.79274C12.9133 4.08371 12.7704 4.35098 12.5607 4.56076C12.3509 4.77054 12.0836 4.9134 11.7926 4.97128C11.5017 5.02916 11.2001 4.99945 10.926 4.88592C10.6519 4.77239 10.4176 4.58013 10.2528 4.33346C10.088 4.08678 10 3.79677 10 3.5001C10 3.10228 10.158 2.72075 10.4393 2.43944C10.7206 2.15814 11.1022 2.0001 11.5 2.0001ZM3.5 9.5001C3.20333 9.5001 2.91332 9.41213 2.66664 9.24731C2.41997 9.08248 2.22771 8.84822 2.11418 8.57413C2.00065 8.30004 1.97094 7.99844 2.02882 7.70747C2.0867 7.4165 2.22956 7.14922 2.43934 6.93944C2.64912 6.72966 2.91639 6.5868 3.20737 6.52892C3.49834 6.47105 3.79994 6.50075 4.07403 6.61428C4.34811 6.72781 4.58238 6.92007 4.7472 7.16675C4.91203 7.41342 5 7.70343 5 8.0001C5 8.39793 4.84197 8.77946 4.56066 9.06076C4.27936 9.34207 3.89783 9.5001 3.5 9.5001ZM11.5 14.0001C11.2033 14.0001 10.9133 13.9121 10.6666 13.7473C10.42 13.5825 10.2277 13.3482 10.1142 13.0741C10.0006 12.8 9.97094 12.4984 10.0288 12.2075C10.0867 11.9165 10.2296 11.6492 10.4393 11.4394C10.6491 11.2297 10.9164 11.0868 11.2074 11.0289C11.4983 10.971 11.7999 11.0008 12.074 11.1143C12.3481 11.2278 12.5824 11.4201 12.7472 11.6667C12.912 11.9134 13 12.2034 13 12.5001C13 12.8979 12.842 13.2795 12.5607 13.5608C12.2794 13.8421 11.8978 14.0001 11.5 14.0001Z" fill="#161616"/>
</svg>
