<svg width="16" height="16" viewBox="0 0 16 16" fill="none" xmlns="http://www.w3.org/2000/svg">
<path d="M14 4.99994H2C1.73487 4.99965 1.48069 4.8942 1.29321 4.70672C1.10574 4.51925 1.00029 4.26507 1 3.99994V1.99994C1.00028 1.73481 1.10572 1.48062 1.2932 1.29314C1.48068 1.10566 1.73487 1.00022 2 0.999939H14C14.2651 1.00022 14.5193 1.10566 14.7068 1.29314C14.8943 1.48062 14.9997 1.73481 15 1.99994V3.99994C14.9997 4.26507 14.8943 4.51925 14.7068 4.70672C14.5193 4.8942 14.2651 4.99965 14 4.99994ZM2 1.99994V3.99994H14V1.99994H2Z" fill="#161616"/>
<path d="M14 14.9999H2C1.73487 14.9996 1.48069 14.8942 1.29321 14.7067C1.10574 14.5193 1.00029 14.2651 1 13.9999V11.9999C1.00028 11.7348 1.10572 11.4806 1.2932 11.2931C1.48068 11.1057 1.73487 11.0002 2 10.9999H14C14.2651 11.0002 14.5193 11.1057 14.7068 11.2931C14.8943 11.4806 14.9997 11.7348 15 11.9999V13.9999C14.9997 14.2651 14.8943 14.5193 14.7068 14.7067C14.5193 14.8942 14.2651 14.9996 14 14.9999ZM2 11.9999V13.9999H14V11.9999H2Z" fill="#161616"/>
<path d="M14 9.99994H2C1.73487 9.99965 1.48069 9.8942 1.29321 9.70672C1.10574 9.51925 1.00029 9.26507 1 8.99994V6.99994C1.00028 6.73481 1.10572 6.48062 1.2932 6.29314C1.48068 6.10566 1.73487 6.00022 2 5.99994H14C14.2651 6.00022 14.5193 6.10566 14.7068 6.29314C14.8943 6.48062 14.9997 6.73481 15 6.99994V8.99994C14.9997 9.26507 14.8943 9.51925 14.7068 9.70672C14.5193 9.8942 14.2651 9.99965 14 9.99994ZM2 6.99994V8.99994H14V6.99994H2Z" fill="#161616"/>
</svg>
