<svg width="16" height="16" viewBox="0 0 16 16" fill="none" xmlns="http://www.w3.org/2000/svg">
<path d="M2.5 14C2.3674 14 2.24022 13.9473 2.14645 13.8535C2.05268 13.7598 2 13.6326 2 13.5V2.49997C1.99965 2.41187 2.02259 2.32524 2.06649 2.24885C2.11039 2.17246 2.1737 2.10903 2.25 2.06497C2.32601 2.02109 2.41224 1.99799 2.5 1.99799C2.58777 1.99799 2.67399 2.02109 2.75 2.06497L12.25 7.56497C12.327 7.60858 12.391 7.67182 12.4355 7.74824C12.48 7.82466 12.5035 7.91153 12.5035 7.99997C12.5035 8.08842 12.48 8.17528 12.4355 8.2517C12.391 8.32812 12.327 8.39136 12.25 8.43497L2.75 13.935C2.6738 13.9782 2.58759 14.0006 2.5 14ZM3 3.36497V12.635L11 7.99997L3 3.36497Z" fill="#161616"/>
<path d="M15 1.99997H14V14H15V1.99997Z" fill="#161616"/>
</svg>
