<svg width="16" height="16" viewBox="0 0 16 16" fill="none" xmlns="http://www.w3.org/2000/svg">
<path d="M4.00002 12.0001H3.00002V13.0001H4.00002V12.0001Z" fill="#161616"/>
<path d="M5.00002 13.0001H4.00002V14.0001H5.00002V13.0001Z" fill="#161616"/>
<path d="M6.00002 14.0001H5.00002V15.0001H6.00002V14.0001Z" fill="#161616"/>
<path d="M6.00002 12.0001H5.00002V13.0001H6.00002V12.0001Z" fill="#161616"/>
<path d="M4.00002 14.0001H3.00002V15.0001H4.00002V14.0001Z" fill="#161616"/>
<path d="M10.5 15.0001C10.4148 15.0001 10.331 14.9783 10.2565 14.9368C10.182 14.8953 10.1194 14.8354 10.0746 14.7629C10.0298 14.6904 10.0043 14.6076 10.0005 14.5225C9.99667 14.4373 10.0147 14.3526 10.0528 14.2764L11.0528 12.2761C11.0822 12.2174 11.1228 12.165 11.1725 12.122C11.2221 12.079 11.2797 12.0462 11.342 12.0254C11.4043 12.0046 11.47 11.9964 11.5355 12.001C11.601 12.0057 11.665 12.0232 11.7237 12.0526C11.7824 12.0819 11.8348 12.1226 11.8778 12.1722C11.9208 12.2218 11.9536 12.2794 11.9744 12.3417C11.9952 12.404 12.0034 12.4698 11.9988 12.5353C11.9941 12.6008 11.9766 12.6647 11.9472 12.7235L10.9472 14.7235C10.9058 14.8066 10.842 14.8766 10.763 14.9254C10.684 14.9743 10.5929 15.0001 10.5 15.0001Z" fill="#161616"/>
<path d="M12.4004 4.56815C12.1874 3.55901 11.6339 2.65376 10.8328 2.00414C10.0317 1.35452 9.03166 1 8.00027 1C6.96888 1 5.96883 1.35452 5.16773 2.00414C4.36663 2.65376 3.81318 3.55901 3.60012 4.56815C2.81105 4.72892 2.10981 5.17703 1.63243 5.82555C1.15504 6.47408 0.93554 7.27679 1.0165 8.07799C1.09745 8.87919 1.4731 9.62177 2.07056 10.1617C2.66803 10.7016 3.44473 11.0004 4.25002 11.0001H8.69092L8.05302 12.2764C8.02244 12.3352 8.00387 12.3996 7.99839 12.4657C7.99291 12.5317 8.00063 12.5983 8.0211 12.6613C8.04158 12.7244 8.07439 12.7828 8.11764 12.8331C8.16088 12.8833 8.2137 12.9245 8.273 12.9542C8.33231 12.9838 8.39692 13.0014 8.46309 13.0058C8.52925 13.0103 8.59564 13.0015 8.65839 12.9801C8.72113 12.9587 8.77899 12.9249 8.82859 12.8809C8.87818 12.8369 8.91852 12.7835 8.94727 12.7237L9.80887 11.0001H11.75C12.5553 11.0004 13.3319 10.7016 13.9294 10.1618C14.5269 9.62189 14.9026 8.87936 14.9836 8.0782C15.0646 7.27703 14.8452 6.47433 14.3679 5.82577C13.8906 5.17722 13.1894 4.72903 12.4004 4.56815ZM11.75 10.0001H4.25002C3.66891 10.0002 3.11029 9.77546 2.69127 9.37284C2.27224 8.97022 2.02534 8.42102 2.00232 7.84037C1.97931 7.25972 2.18196 6.6927 2.5678 6.25818C2.95365 5.82366 3.49272 5.55537 4.07202 5.50955L4.47977 5.4776L4.52932 5.0716C4.63314 4.22414 5.04342 3.44395 5.6828 2.87812C6.32217 2.31229 7.14647 1.99993 8.00027 1.99993C8.85406 1.99993 9.67836 2.31229 10.3177 2.87812C10.9571 3.44395 11.3674 4.22414 11.4712 5.0716L11.5205 5.4776L11.9282 5.50955C12.5075 5.55537 13.0466 5.82367 13.4325 6.25822C13.8183 6.69276 14.0209 7.2598 13.9979 7.84047C13.9749 8.42114 13.7279 8.97034 13.3089 9.37294C12.8898 9.77555 12.3311 10.0003 11.75 10.0001Z" fill="#161616"/>
</svg>
