<svg width="16" height="16" viewBox="0 0 16 16" fill="none" xmlns="http://www.w3.org/2000/svg">
<path d="M7.99997 10.5001C9.38068 10.5001 10.5 9.3808 10.5 8.00009C10.5 6.61938 9.38068 5.50009 7.99997 5.50009C6.61926 5.50009 5.49997 6.61938 5.49997 8.00009C5.49997 9.3808 6.61926 10.5001 7.99997 10.5001Z" fill="#161616"/>
<path d="M3.84997 2.35009C3.27648 2.7902 2.77104 3.31249 2.34997 3.90009L3.14997 4.50009C3.51721 3.99082 3.95491 3.53628 4.44997 3.15009L3.84997 2.35009Z" fill="#161616"/>
<path d="M2.29997 6.15009L1.34997 5.85009C1.10846 6.54077 0.99 7.26847 0.99997 8.00009H1.99997C1.9979 7.37115 2.09925 6.74615 2.29997 6.15009Z" fill="#161616"/>
<path d="M1.34997 10.2001C1.58187 10.8973 1.91911 11.5549 2.34997 12.1501L3.14997 11.5501C2.78849 11.044 2.50219 10.4882 2.29997 9.90009L1.34997 10.2001Z" fill="#161616"/>
<path d="M3.89997 13.6501C4.49515 14.081 5.15276 14.4182 5.84997 14.6501L6.14997 13.7001C5.56183 13.4979 5.00607 13.2116 4.49997 12.8501L3.89997 13.6501Z" fill="#161616"/>
<path d="M5.84997 1.35009L6.14997 2.30009C6.74603 2.09938 7.37103 1.99802 7.99997 2.00009V1.00009C7.26835 0.990123 6.54065 1.10858 5.84997 1.35009Z" fill="#161616"/>
<path d="M12.1 13.6501C12.6889 13.2111 13.211 12.689 13.65 12.1001L12.85 11.5001C12.4782 12.022 12.0219 12.4783 11.5 12.8501L12.1 13.6501Z" fill="#161616"/>
<path d="M13.7 9.85009L14.65 10.1501C14.8674 9.45352 14.9853 8.72968 15 8.00009H14C14.002 8.62903 13.9007 9.25404 13.7 9.85009Z" fill="#161616"/>
<path d="M14.6 5.80009C14.3681 5.10288 14.0308 4.44527 13.6 3.85009L12.8 4.45009C13.1615 4.95619 13.4478 5.51195 13.65 6.10009L14.6 5.80009Z" fill="#161616"/>
<path d="M12.05 2.30009C11.4548 1.86923 10.7972 1.53199 10.1 1.30009L9.79997 2.25009C10.3881 2.45231 10.9439 2.73861 11.45 3.10009L12.05 2.30009Z" fill="#161616"/>
<path d="M10.15 14.6501L9.84997 13.7001C9.25391 13.9008 8.62891 14.0022 7.99997 14.0001V15.0001C8.72667 14.9568 9.44706 14.8395 10.15 14.6501Z" fill="#161616"/>
</svg>
