<svg width="16" height="16" viewBox="0 0 16 16" fill="none" xmlns="http://www.w3.org/2000/svg">
<path d="M10 6.99998V5.99998H6.00002V6.99998H8.75002L6.00002 9.99998V11H10V9.99998H7.25352L10 6.99998Z" fill="#161616"/>
<path d="M12.2079 1.99978L11.5003 2.70596L13.2917 4.50084L13.9993 3.79467L12.2079 1.99978Z" fill="#161616"/>
<path d="M8.00002 14C6.91223 14 5.84886 13.6774 4.94439 13.0731C4.03992 12.4687 3.33497 11.6097 2.91869 10.6047C2.50241 9.59974 2.39349 8.49388 2.60571 7.42698C2.81792 6.36009 3.34175 5.38008 4.11094 4.61089C4.88013 3.8417 5.86013 3.31788 6.92703 3.10566C7.99392 2.89344 9.09979 3.00236 10.1048 3.41864C11.1098 3.83492 11.9688 4.53987 12.5731 5.44434C13.1775 6.34881 13.5 7.41218 13.5 8.49998C13.4984 9.95816 12.9184 11.3561 11.8873 12.3872C10.8562 13.4183 9.45821 13.9983 8.00002 14ZM8.00002 3.99998C7.11001 3.99998 6.23998 4.2639 5.49996 4.75836C4.75994 5.25283 4.18316 5.95563 3.84257 6.7779C3.50197 7.60017 3.41286 8.50497 3.58649 9.37788C3.76012 10.2508 4.18871 11.0526 4.81804 11.682C5.44738 12.3113 6.2492 12.7399 7.12212 12.9135C7.99503 13.0871 8.89983 12.998 9.7221 12.6574C10.5444 12.3168 11.2472 11.7401 11.7416 11C12.2361 10.26 12.5 9.38999 12.5 8.49998C12.4987 7.30691 12.0242 6.16309 11.1805 5.31946C10.3369 4.47583 9.19309 4.0013 8.00002 3.99998Z" fill="#161616"/>
<path d="M3.79221 1.99976L2.00079 3.79464L2.70834 4.50082L4.49975 2.70593L3.79221 1.99976Z" fill="#161616"/>
</svg>
