<svg width="16" height="16" viewBox="0 0 16 16" fill="none" xmlns="http://www.w3.org/2000/svg">
<path d="M2.00001 13H1.00001V14H2.00001V13Z" fill="#161616"/>
<path d="M3.00001 14H2.00001V15H3.00001V14Z" fill="#161616"/>
<path d="M4.00001 15H3.00001V16H4.00001V15Z" fill="#161616"/>
<path d="M4.00001 13H3.00001V14H4.00001V13Z" fill="#161616"/>
<path d="M2.00001 15H1.00001V16H2.00001V15Z" fill="#161616"/>
<path d="M11 13H10V14H11V13Z" fill="#161616"/>
<path d="M12 14H11V15H12V14Z" fill="#161616"/>
<path d="M13 15H12V16H13V15Z" fill="#161616"/>
<path d="M13 13H12V14H13V13Z" fill="#161616"/>
<path d="M11 15H10V16H11V15Z" fill="#161616"/>
<path d="M6.50001 13H5.50001V14H6.50001V13Z" fill="#161616"/>
<path d="M7.50001 14H6.50001V15H7.50001V14Z" fill="#161616"/>
<path d="M8.50001 15H7.50001V16H8.50001V15Z" fill="#161616"/>
<path d="M8.50001 13H7.50001V14H8.50001V13Z" fill="#161616"/>
<path d="M6.50001 15H5.50001V16H6.50001V15Z" fill="#161616"/>
<path d="M11 0H10V1.5H11V0Z" fill="#161616"/>
<path d="M16 5.00035H14.5V6.00035H16V5.00035Z" fill="#161616"/>
<path d="M14.2929 1.50031L13.2322 2.56097L13.9393 3.26808L15 2.20742L14.2929 1.50031Z" fill="#161616"/>
<path d="M13.2322 8.43968L14.2929 9.50034L15 8.79324L13.9393 7.73258L13.2322 8.43968Z" fill="#161616"/>
<path d="M5.99995 2.20744L7.06061 3.2681L7.76772 2.56099L6.70706 1.50033L5.99995 2.20744Z" fill="#161616"/>
<path d="M13.5 5.5C13.5016 4.86523 13.3013 4.24641 12.928 3.73297C12.5548 3.21953 12.0279 2.83807 11.4236 2.64372C10.8194 2.44938 10.1689 2.45221 9.56636 2.65182C8.9638 2.85143 8.44031 3.23747 8.07156 3.75415C7.65036 3.58907 7.20238 3.50292 6.75001 3.5C5.95379 3.50429 5.17932 3.76019 4.53729 4.23112C3.89527 4.70205 3.41856 5.36389 3.17531 6.12205C2.47978 6.32019 1.87939 6.7632 1.48491 7.36934C1.09043 7.97547 0.928495 8.70383 1.02898 9.42002C1.12946 10.1362 1.48558 10.7919 2.03163 11.2661C2.57768 11.7402 3.27681 12.0009 4.00001 12H9.50001C9.98974 12.0027 10.4726 11.8848 10.906 11.6568C11.3394 11.4287 11.71 11.0974 11.985 10.6922C12.2601 10.287 12.4312 9.82038 12.4832 9.33341C12.5353 8.84644 12.4666 8.35416 12.2834 7.9C12.6598 7.62307 12.966 7.26165 13.1773 6.84481C13.3886 6.42796 13.4992 5.96734 13.5 5.5ZM9.50001 11H4.00001C3.49919 11.0009 3.01634 10.8135 2.64724 10.475C2.27814 10.1365 2.04975 9.67163 2.00738 9.17261C1.965 8.67359 2.11174 8.17687 2.41848 7.78099C2.72523 7.38511 3.16957 7.11898 3.66336 7.0354L3.99486 6.979L4.06766 6.6509C4.20347 6.04076 4.54324 5.49516 5.03089 5.10412C5.51854 4.71308 6.12493 4.49998 6.75001 4.49998C7.37508 4.49998 7.98147 4.71308 8.46912 5.10412C8.95678 5.49516 9.29654 6.04076 9.43236 6.6509L9.50516 6.979L9.83646 7.0354C10.3303 7.11884 10.7748 7.38491 11.0817 7.7808C11.3885 8.17668 11.5353 8.67346 11.493 9.17256C11.4506 9.67165 11.2222 10.1366 10.853 10.4751C10.4838 10.8136 10.0009 11.001 9.50001 11ZM11.7611 7.04345C11.3824 6.60284 10.8831 6.28257 10.3247 6.12205C10.0824 5.36387 9.60582 4.70212 8.96351 4.23205C9.14011 4.01613 9.36007 3.83967 9.60915 3.71409C9.85823 3.58851 10.1309 3.51661 10.4095 3.50303C10.6881 3.48945 10.9665 3.5345 11.2266 3.63525C11.4867 3.73601 11.7228 3.89024 11.9196 4.08797C12.1163 4.2857 12.2694 4.52252 12.3689 4.78312C12.4684 5.04372 12.5121 5.3223 12.4972 5.60085C12.4822 5.8794 12.409 6.15172 12.2822 6.40019C12.1554 6.64865 11.9779 6.8679 11.7611 7.04345Z" fill="#161616"/>
</svg>
