<svg width="16" height="16" viewBox="0 0 16 16" fill="none" xmlns="http://www.w3.org/2000/svg">
<path d="M3.00001 13.0001H2.00001V14.0001H3.00001V13.0001Z" fill="#161616"/>
<path d="M4.00001 14.0001H3.00001V15.0001H4.00001V14.0001Z" fill="#161616"/>
<path d="M5.00001 15.0001H4.00001V16.0001H5.00001V15.0001Z" fill="#161616"/>
<path d="M5.00001 13.0001H4.00001V14.0001H5.00001V13.0001Z" fill="#161616"/>
<path d="M3.00001 15.0001H2.00001V16.0001H3.00001V15.0001Z" fill="#161616"/>
<path d="M5.00001 9.00005H4.00001V10.0001H5.00001V9.00005Z" fill="#161616"/>
<path d="M6.00001 10.0001H5.00001V11.0001H6.00001V10.0001Z" fill="#161616"/>
<path d="M7.00001 11.0001H6.00001V12.0001H7.00001V11.0001Z" fill="#161616"/>
<path d="M7.00001 9.00005H6.00001V10.0001H7.00001V9.00005Z" fill="#161616"/>
<path d="M5.00001 11.0001H4.00001V12.0001H5.00001V11.0001Z" fill="#161616"/>
<path d="M10 9.00005H9.00001V10.0001H10V9.00005Z" fill="#161616"/>
<path d="M11 10.0001H10V11.0001H11V10.0001Z" fill="#161616"/>
<path d="M12 11.0001H11V12.0001H12V11.0001Z" fill="#161616"/>
<path d="M12 9.00005H11V10.0001H12V9.00005Z" fill="#161616"/>
<path d="M10 11.0001H9.00001V12.0001H10V11.0001Z" fill="#161616"/>
<path d="M8.00001 13.0001H7.00001V14.0001H8.00001V13.0001Z" fill="#161616"/>
<path d="M9.00001 14.0001H8.00001V15.0001H9.00001V14.0001Z" fill="#161616"/>
<path d="M10 15.0001H9.00001V16.0001H10V15.0001Z" fill="#161616"/>
<path d="M10 13.0001H9.00001V14.0001H10V13.0001Z" fill="#161616"/>
<path d="M8.00001 15.0001H7.00001V16.0001H8.00001V15.0001Z" fill="#161616"/>
<path d="M12.4004 4.56815C12.1873 3.55901 11.6339 2.65376 10.8328 2.00414C10.0317 1.35452 9.03165 1 8.00026 1C6.96887 1 5.96882 1.35452 5.16772 2.00414C4.36662 2.65376 3.81317 3.55901 3.60011 4.56815C2.91899 4.70678 2.30031 5.06028 1.83503 5.57666C1.36975 6.09304 1.0824 6.74507 1.01523 7.4369C0.948066 8.12873 1.10462 8.82386 1.46189 9.4201C1.81915 10.0163 2.35828 10.4822 3.00001 10.7493V9.6193C2.61127 9.36 2.31304 8.98596 2.14681 8.54925C1.98059 8.11253 1.95464 7.63486 2.07258 7.1827C2.19053 6.73055 2.44649 6.32641 2.80485 6.02653C3.16321 5.72664 3.60614 5.54594 4.07201 5.50955L4.47976 5.4776L4.52931 5.0716C4.63313 4.22414 5.04341 3.44395 5.68279 2.87812C6.32216 2.31229 7.14646 1.99993 8.00026 1.99993C8.85405 1.99993 9.67835 2.31229 10.3177 2.87812C10.9571 3.44395 11.3674 4.22414 11.4712 5.0716L11.5205 5.4776L11.9282 5.50955C12.394 5.54603 12.8369 5.72679 13.1951 6.02668C13.5534 6.32657 13.8093 6.73068 13.9272 7.18279C14.0451 7.6349 14.0192 8.11251 13.853 8.54919C13.6868 8.98586 13.3887 9.35988 13 9.6192V10.7492C13.6417 10.4821 14.1807 10.0163 14.538 9.42008C14.8952 8.8239 15.0518 8.12884 14.9847 7.43707C14.9176 6.74529 14.6303 6.09329 14.1652 5.57688C13.7 5.06048 13.0814 4.70691 12.4004 4.56815Z" fill="#161616"/>
</svg>
