<svg width="16" height="16" viewBox="0 0 16 16" fill="none" xmlns="http://www.w3.org/2000/svg">
<path d="M11.75 10.9998H4.24999C3.44819 10.9947 2.67657 10.6934 2.08348 10.1538C1.49039 9.61425 1.1177 8.87447 1.03706 8.07672C0.956412 7.27898 1.17351 6.47957 1.64662 5.83221C2.11972 5.18485 2.81543 4.73523 3.59999 4.56979C3.81584 3.56305 4.37041 2.66077 5.17115 2.01352C5.97189 1.36627 6.97037 1.01318 7.99999 1.01318C9.02961 1.01318 10.0281 1.36627 10.8288 2.01352C11.6296 2.66077 12.1841 3.56305 12.4 4.56979C13.1845 4.73523 13.8803 5.18485 14.3534 5.83221C14.8265 6.47957 15.0436 7.27898 14.9629 8.07672C14.8823 8.87447 14.5096 9.61425 13.9165 10.1538C13.3234 10.6934 12.5518 10.9947 11.75 10.9998ZM7.99999 1.99979C7.1468 2.00064 6.3233 2.3131 5.6843 2.87844C5.0453 3.44378 4.63481 4.22306 4.52999 5.06979L4.49999 5.49979H4.06999C3.47325 5.52365 2.91044 5.7836 2.50536 6.22243C2.10028 6.66127 1.88612 7.24305 1.90999 7.83979C1.93386 8.43652 2.1938 8.99934 2.63264 9.40442C3.07147 9.80949 3.65325 10.0237 4.24999 9.99979H11.75C12.3467 10.0237 12.9285 9.80949 13.3673 9.40442C13.8062 8.99934 14.0661 8.43652 14.09 7.83979C14.1139 7.24305 13.8997 6.66127 13.4946 6.22243C13.0895 5.7836 12.5267 5.52365 11.93 5.49979H11.5L11.45 5.08979C11.3501 4.24284 10.9444 3.4615 10.3092 2.89253C9.67392 2.32356 8.85278 2.0061 7.99999 1.99979Z" fill="#161616"/>
<path d="M5.99999 12.5248L5.47499 11.9998L4.74999 12.7248L4.02499 11.9998L3.49999 12.5248L4.22499 13.2498L3.49999 13.9748L4.02499 14.4998L4.74999 13.7748L5.47499 14.4998L5.99999 13.9748L5.27499 13.2498L5.99999 12.5248Z" fill="#161616"/>
<path d="M13 12.5248L12.475 11.9998L11.75 12.7248L11.025 11.9998L10.5 12.5248L11.225 13.2498L10.5 13.9748L11.025 14.4998L11.75 13.7748L12.475 14.4998L13 13.9748L12.275 13.2498L13 12.5248Z" fill="#161616"/>
<path d="M9.49999 13.5248L8.97499 12.9998L8.24999 13.7248L7.52499 12.9998L6.99999 13.5248L7.72499 14.2498L6.99999 14.9748L7.52499 15.4998L8.24999 14.7748L8.97499 15.4998L9.49999 14.9748L8.77499 14.2498L9.49999 13.5248Z" fill="#161616"/>
</svg>
