<svg width="16" height="16" viewBox="0 0 16 16" fill="none" xmlns="http://www.w3.org/2000/svg">
<path d="M10.5 14.207L8 11.7065L8.7065 11L10.5 12.793L14.2925 8.99995L15 9.70745L10.5 14.207Z" fill="#161616"/>
<path d="M6 7.79495L4.705 6.49995L4 7.20495L6 9.20495L9.5 5.70495L8.795 4.99995L6 7.79495Z" fill="#161616"/>
<path d="M5.90965 12.9011C4.74409 12.6847 3.66882 12.1277 2.81973 11.3004C1.97063 10.4731 1.38582 9.41272 1.13919 8.25319C0.892563 7.09365 0.995188 5.88703 1.4341 4.78581C1.87301 3.68458 2.6285 2.73817 3.60511 2.06617C4.58172 1.39418 5.73561 1.02676 6.92097 1.01034C8.10633 0.993925 9.26995 1.32925 10.2648 1.97395C11.2596 2.61864 12.0411 3.54377 12.5103 4.63242C12.9795 5.72107 13.1155 6.92439 12.9011 8.0903L11.9177 7.9096C12.0975 6.93713 11.9849 5.93317 11.5941 5.02468C11.2034 4.1162 10.552 3.34398 9.72239 2.80567C8.89278 2.26736 7.92217 1.98714 6.9333 2.00044C5.94443 2.01374 4.98171 2.31995 4.16686 2.88038C3.35202 3.4408 2.72165 4.23025 2.35546 5.14892C1.98927 6.06758 1.90371 7.0742 2.10959 8.04149C2.31547 9.00878 2.80356 9.89331 3.51212 10.5832C4.22068 11.2731 5.11791 11.7374 6.09035 11.9175L5.90965 12.9011Z" fill="#161616"/>
</svg>
