<svg width="16" height="16" viewBox="0 0 16 16" fill="none" xmlns="http://www.w3.org/2000/svg">
<path d="M7.99998 1C7.88727 0.99998 7.77785 1.03805 7.68949 1.10802C7.60112 1.178 7.539 1.27578 7.51318 1.3855L6.65173 5.04665C5.60762 4.90335 4.54486 5.09145 3.61336 5.58443C2.68186 6.07741 1.92863 6.85038 1.45991 7.79431C0.991191 8.73825 0.830637 9.80552 1.00089 10.8456C1.17115 11.8856 1.66363 12.846 2.40886 13.5912C3.15409 14.3364 4.11447 14.8289 5.15454 14.9991C6.1946 15.1694 7.26187 15.0088 8.20579 14.54C9.14972 14.0713 9.92267 13.318 10.4156 12.3865C10.9086 11.455 11.0967 10.3923 10.9533 9.34815L14.6145 8.4868C14.7242 8.46099 14.822 8.39886 14.892 8.3105C14.9619 8.22213 15 8.11272 15 8C14.9979 6.14413 14.2597 4.36486 12.9474 3.05256C11.6351 1.74026 9.85586 1.00209 7.99998 1ZM5.64648 10.3535C5.74023 10.4473 5.86739 10.5 5.99998 10.5C6.03853 10.5 6.07694 10.4955 6.11448 10.4868L7.99558 10.0442C7.98726 10.4357 7.86411 10.8161 7.64141 11.1381C7.41872 11.4602 7.1063 11.7097 6.74298 11.8557C6.37966 12.0017 5.98146 12.0377 5.59784 11.9593C5.21422 11.8808 4.8621 11.6914 4.58524 11.4145C4.30837 11.1377 4.11895 10.7856 4.04052 10.4019C3.9621 10.0183 3.99812 9.62012 4.1441 9.2568C4.29009 8.89348 4.53962 8.58107 4.86167 8.35837C5.18373 8.13568 5.56412 8.01252 5.95558 8.0042L5.51298 9.8853C5.4935 9.96825 5.49553 10.0548 5.5189 10.1367C5.54226 10.2187 5.58618 10.2933 5.64648 10.3535ZM6.67148 9.3281L7.80698 4.5031C8.78074 4.51879 9.71022 4.91259 10.3989 5.60123C11.0875 6.28987 11.4813 7.21934 11.497 8.1931L6.67148 9.3281ZM9.99998 10C9.99998 10.7911 9.76539 11.5645 9.32586 12.2223C8.88634 12.8801 8.26162 13.3928 7.53072 13.6955C6.79981 13.9983 5.99555 14.0775 5.21962 13.9231C4.4437 13.7688 3.73097 13.3878 3.17156 12.8284C2.61215 12.269 2.23118 11.5563 2.07684 10.7804C1.9225 10.0044 2.00172 9.20017 2.30447 8.46927C2.60722 7.73836 3.11991 7.11365 3.7777 6.67412C4.4355 6.2346 5.20886 6 5.99998 6C6.14093 6.00047 6.28175 6.0083 6.42188 6.02345L6.18998 7.0095C6.12658 7.00535 6.06348 7 5.99998 7C5.40664 7 4.82662 7.17595 4.33327 7.50559C3.83993 7.83524 3.45541 8.30377 3.22835 8.85195C3.00128 9.40013 2.94187 10.0033 3.05763 10.5853C3.17338 11.1672 3.45911 11.7018 3.87866 12.1213C4.29822 12.5409 4.83277 12.8266 5.41471 12.9424C5.99666 13.0581 6.59986 12.9987 7.14803 12.7716C7.69621 12.5446 8.16475 12.1601 8.49439 11.6667C8.82404 11.1734 8.99998 10.5933 8.99998 10C8.99998 9.9365 8.99448 9.8733 8.99048 9.81L9.97653 9.57785C9.99169 9.71806 9.99952 9.85897 9.99998 10ZM12.4853 7.96045C12.4136 6.80485 11.9222 5.71525 11.1035 4.89653C10.2848 4.07781 9.19524 3.58638 8.03963 3.51465L8.39303 2.0127C9.8447 2.11001 11.2118 2.73064 12.2406 3.75943C13.2693 4.78821 13.89 6.15529 13.9873 7.60695L12.4853 7.96045Z" fill="#161616"/>
</svg>
