<svg width="16" height="16" viewBox="0 0 16 16" fill="none" xmlns="http://www.w3.org/2000/svg">
<path d="M15 5.34004L14 2.34004C13.9652 2.23655 13.8975 2.14729 13.8072 2.0859C13.7169 2.0245 13.609 1.99435 13.5 2.00004H2.49997C2.39094 1.99435 2.28304 2.0245 2.19275 2.0859C2.10247 2.14729 2.03476 2.23655 1.99997 2.34004L0.999971 5.34004C0.992767 5.39313 0.992767 5.44695 0.999971 5.50004V8.50004C0.999971 8.63265 1.05265 8.75982 1.14642 8.85359C1.24019 8.94736 1.36736 9.00004 1.49997 9.00004H1.99997V14H2.99997V9.00004H5.99997V14H14V9.00004H14.5C14.6326 9.00004 14.7598 8.94736 14.8535 8.85359C14.9473 8.75982 15 8.63265 15 8.50004V5.50004C15.0072 5.44695 15.0072 5.39313 15 5.34004ZM13 13H6.99997V9.00004H13V13ZM14 8.00004H12V6.00004H11V8.00004H8.49997V6.00004H7.49997V8.00004H4.99997V6.00004H3.99997V8.00004H1.99997V5.58004L2.85997 3.00004H13.14L14 5.58004V8.00004Z" fill="#161616"/>
</svg>
