<svg width="16" height="16" viewBox="0 0 16 16" fill="none" xmlns="http://www.w3.org/2000/svg">
<path d="M5.50003 5H4.50003V6H5.50003V5Z" fill="#161616"/>
<path d="M5.50003 7H4.50003V8H5.50003V7Z" fill="#161616"/>
<path d="M7.50003 6H6.50003V7H7.50003V6Z" fill="#161616"/>
<path d="M4.50003 14C4.37552 14 4.25118 13.9909 4.12798 13.973C3.52866 13.8731 2.9848 13.5623 2.59457 13.0966C2.20435 12.6309 1.99348 12.041 2.00003 11.4334V5.59925C1.99331 4.71861 2.31137 3.86638 2.8934 3.20546C3.47543 2.54454 4.2806 2.12129 5.15503 2.0166C5.9382 1.93747 6.72507 2.12617 7.38718 2.5519L11.3716 5.04225C11.8985 5.37452 12.3269 5.84176 12.6123 6.39547C12.8976 6.94919 13.0296 7.56919 12.9945 8.19113C12.9594 8.81307 12.7584 9.41428 12.4125 9.93234C12.0666 10.4504 11.5883 10.8664 11.0273 11.1372L5.58733 13.7515C5.24837 13.9155 4.87659 14.0005 4.50003 14ZM5.50103 3C5.41823 3 5.33481 3.00402 5.25078 3.01205C4.6232 3.09125 4.04678 3.39884 3.63161 3.87607C3.21644 4.35331 2.99159 4.96675 3.00003 5.59925V11.4334C2.99243 11.801 3.1164 12.1592 3.34959 12.4434C3.58277 12.7276 3.90983 12.9191 4.27178 12.9834C4.57211 13.0287 4.87912 12.9826 5.15288 12.851L10.5943 10.236C10.9942 10.0425 11.3351 9.74557 11.5816 9.37596C11.8281 9.00635 11.9712 8.57753 11.9961 8.13397C12.0211 7.6904 11.9269 7.24824 11.7233 6.85334C11.5198 6.45844 11.2143 6.12517 10.8386 5.8881L6.85233 3.39675C6.44959 3.13692 5.9803 2.99914 5.50103 3Z" fill="#161616"/>
<path d="M13 3.5H11C10.4698 3.4994 9.96141 3.2885 9.58647 2.91356C9.21153 2.53861 9.00062 2.03025 9.00003 1.5V1H10V1.5C10.0003 1.76513 10.1058 2.01932 10.2932 2.2068C10.4807 2.39428 10.7349 2.49972 11 2.5H13V3.5Z" fill="#161616"/>
</svg>
