<svg width="16" height="16" viewBox="0 0 16 16" fill="none" xmlns="http://www.w3.org/2000/svg">
<path d="M15 6.99997H9V7.99997H15V6.99997Z" fill="#161616"/>
<path d="M13 9.49997H9V10.5H13V9.49997Z" fill="#161616"/>
<path d="M15 4.49997H9V5.49997H15V4.49997Z" fill="#161616"/>
<path d="M11 12V14H3V7.99997H7V6.99997H5V3.99997C5.00006 3.54043 5.15834 3.09492 5.44823 2.73835C5.73811 2.38178 6.14192 2.13589 6.59177 2.04202C7.04162 1.94814 7.51008 2.01202 7.91837 2.2229C8.32667 2.43378 8.64991 2.7788 8.83375 3.19997L9.75025 2.79997C9.47443 2.16835 8.98958 1.65094 8.37719 1.33472C7.7648 1.01849 7.06222 0.922728 6.38754 1.06352C5.71286 1.20432 5.10722 1.57309 4.67242 2.10785C4.23762 2.64261 4.00018 3.31075 4 3.99997V6.99997H3C2.73488 7.00027 2.4807 7.10573 2.29323 7.2932C2.10576 7.48067 2.0003 7.73484 2 7.99997V14C2.0003 14.2651 2.10576 14.5193 2.29323 14.7067C2.4807 14.8942 2.73488 14.9997 3 15H11C11.2651 14.9997 11.5193 14.8942 11.7068 14.7067C11.8942 14.5193 11.9997 14.2651 12 14V12H11Z" fill="#161616"/>
</svg>
