<svg width="16" height="16" viewBox="0 0 16 16" fill="none" xmlns="http://www.w3.org/2000/svg">
<path d="M14.9993 13.5024H1V14.5024H14.9993V13.5024Z" fill="#161616"/>
<path d="M8 10.0024C8.53025 10.003 9.03861 10.2139 9.41356 10.5888C9.7885 10.9638 9.9994 11.4721 10 12.0024H11C11 11.2067 10.6839 10.4437 10.1213 9.88107C9.55871 9.31846 8.79565 9.00239 8 9.00239C7.20435 9.00239 6.44129 9.31846 5.87868 9.88107C5.31607 10.4437 5 11.2067 5 12.0024H6C6.0006 11.4721 6.2115 10.9638 6.58644 10.5888C6.96139 10.2139 7.46975 10.003 8 10.0024Z" fill="#161616"/>
<path d="M15 11.0024H12.5V12.0024H15V11.0024Z" fill="#161616"/>
<path d="M12.5962 6.69915L10.8433 8.45206L11.5503 9.1591L13.3032 7.40618L12.5962 6.69915Z" fill="#161616"/>
<path d="M9.795 4.79744L8.5 6.08744V2.00244H7.5V6.08744L6.205 4.79744L5.5 5.50244L8 8.00244L10.5 5.50244L9.795 4.79744Z" fill="#161616"/>
<path d="M3.4038 6.69914L2.69676 7.40618L4.44968 9.1591L5.15672 8.45206L3.4038 6.69914Z" fill="#161616"/>
<path d="M3.5 11.0024H1V12.0024H3.5V11.0024Z" fill="#161616"/>
</svg>
