<svg width="16" height="16" viewBox="0 0 16 16" fill="none" xmlns="http://www.w3.org/2000/svg">
<path d="M10.5 9.99998V15L15 12.5L10.5 9.99998Z" fill="#161616"/>
<path d="M7 7.99998C7.55229 7.99998 8 7.55226 8 6.99998C8 6.4477 7.55229 5.99998 7 5.99998C6.44772 5.99998 6 6.4477 6 6.99998C6 7.55226 6.44772 7.99998 7 7.99998Z" fill="#161616"/>
<path d="M7 9.99998C6.40666 9.99998 5.82664 9.82403 5.33329 9.49439C4.83994 9.16474 4.45543 8.69621 4.22836 8.14803C4.0013 7.59985 3.94189 6.99665 4.05765 6.41471C4.1734 5.83277 4.45912 5.29822 4.87868 4.87866C5.29824 4.4591 5.83279 4.17338 6.41473 4.05762C6.99667 3.94187 7.59987 4.00128 8.14805 4.22834C8.69623 4.4554 9.16476 4.83992 9.49441 5.33327C9.82405 5.82662 10 6.40664 10 6.99998C9.99913 7.79536 9.68278 8.55792 9.12036 9.12034C8.55794 9.68276 7.79538 9.99911 7 9.99998ZM7 4.99998C6.60444 4.99998 6.21776 5.11728 5.88886 5.33704C5.55996 5.5568 5.30362 5.86916 5.15224 6.23461C5.00087 6.60007 4.96126 7.0022 5.03843 7.39016C5.1156 7.77812 5.30608 8.13449 5.58579 8.41419C5.86549 8.6939 6.22186 8.88438 6.60982 8.96155C6.99778 9.03872 7.39992 8.99911 7.76537 8.84774C8.13082 8.69636 8.44318 8.44002 8.66294 8.11112C8.8827 7.78222 9 7.39554 9 6.99998C8.9994 6.46973 8.7885 5.96137 8.41356 5.58642C8.03861 5.21148 7.53025 5.00058 7 4.99998Z" fill="#161616"/>
<path d="M12.9756 6.45498H12.9724C12.8658 5.22422 12.3834 4.05598 11.5906 3.10854C10.7978 2.1611 9.73295 1.48026 8.54027 1.15827C7.3476 0.836275 6.08477 0.888688 4.92289 1.30841C3.761 1.72813 2.75621 2.49486 2.04466 3.50474C1.33311 4.51461 0.949194 5.71881 0.944921 6.95417C0.940649 8.18954 1.31623 9.39636 2.02078 10.4111C2.72532 11.4259 3.72478 12.1996 4.88374 12.6273C6.04269 13.0551 7.30513 13.1162 8.5 12.8025V11.7693C7.44027 12.1009 6.30019 12.0697 5.2602 11.6805C4.22022 11.2913 3.33974 10.5664 2.75811 9.62051C2.17647 8.6746 1.92692 7.56173 2.04894 6.45804C2.17096 5.35434 2.65759 4.32286 3.4318 3.52685C4.20601 2.73084 5.22358 2.21577 6.32347 2.06315C7.42335 1.91054 8.54272 2.1291 9.50441 2.68425C10.4661 3.2394 11.2152 4.09942 11.6331 5.1282C12.051 6.15698 12.1139 7.29575 11.8118 8.36428L12.7742 8.63628C12.9243 8.10382 13.0003 7.5532 13 6.99998C13 6.81638 12.9919 6.63471 12.9756 6.45498Z" fill="#161616"/>
</svg>
