<svg width="16" height="16" viewBox="0 0 16 16" fill="none" xmlns="http://www.w3.org/2000/svg">
<path d="M6.99998 4.5C7.38802 4.50343 7.77139 4.41523 8.11891 4.24257C8.46644 4.06991 8.76831 3.81767 8.99998 3.50635C9.23402 3.81512 9.53637 4.06551 9.88336 4.2379C10.2303 4.41029 10.6125 4.5 11 4.5C11.3874 4.5 11.7696 4.41029 12.1166 4.2379C12.4636 4.06551 12.7659 3.81512 13 3.50635C13.2316 3.81767 13.5335 4.06991 13.881 4.24257C14.2286 4.41523 14.6119 4.50343 15 4.5V3.5C14.6595 3.48012 14.3325 3.35937 14.0609 3.15312C13.7892 2.94687 13.585 2.66445 13.4743 2.3418C13.4407 2.24254 13.3769 2.15627 13.2918 2.095C13.2068 2.03373 13.1048 2.00052 13 2C12.8953 1.99921 12.7931 2.03164 12.708 2.09262C12.623 2.1536 12.5594 2.23998 12.5266 2.33935C12.4161 2.66251 12.2119 2.94547 11.94 3.15217C11.6682 3.35888 11.3409 3.47996 11 3.5C10.6595 3.48012 10.3325 3.35937 10.0609 3.15312C9.78917 2.94687 9.585 2.66445 9.47433 2.3418C9.44067 2.24254 9.37688 2.15627 9.29184 2.095C9.20681 2.03373 9.10478 2.00052 8.99998 2C8.89498 1.99775 8.79209 2.02961 8.70673 2.0908C8.62138 2.15198 8.55817 2.23919 8.52658 2.33935C8.4161 2.66251 8.21192 2.94547 7.94004 3.15217C7.66817 3.35888 7.34091 3.47996 6.99998 3.5H6.49998V3C6.49998 2.46957 6.28926 1.96086 5.91419 1.58579C5.53912 1.21071 5.03041 1 4.49998 1C3.96954 1 3.46083 1.21071 3.08576 1.58579C2.71069 1.96086 2.49998 2.46957 2.49998 3V8.63085C1.90553 9.04176 1.45257 9.6263 1.20306 10.3045C0.953549 10.9827 0.919683 11.7214 1.10609 12.4196C1.2925 13.1178 1.69009 13.7413 2.24444 14.2049C2.7988 14.6685 3.48285 14.9494 4.203 15.0094C4.92315 15.0693 5.64423 14.9052 6.26757 14.5396C6.89091 14.1741 7.38607 13.6248 7.68531 12.967C7.98454 12.3092 8.07322 11.5751 7.93922 10.865C7.80522 10.1549 7.45509 9.5035 6.93673 9H6.99998C7.38802 9.00343 7.77139 8.91523 8.11891 8.74257C8.46644 8.56991 8.76831 8.31767 8.99998 8.00635C9.23402 8.31512 9.53637 8.56551 9.88336 8.7379C10.2303 8.91029 10.6125 9 11 9C11.3874 9 11.7696 8.91029 12.1166 8.7379C12.4636 8.56551 12.7659 8.31512 13 8.00635C13.2316 8.31767 13.5335 8.56991 13.881 8.74257C14.2286 8.91523 14.6119 9.00343 15 9V8C14.6595 7.98012 14.3325 7.85937 14.0609 7.65312C13.7892 7.44687 13.585 7.16445 13.4743 6.8418C13.4407 6.74255 13.3769 6.65627 13.2918 6.595C13.2068 6.53373 13.1048 6.50052 13 6.5C12.8953 6.49921 12.7931 6.53164 12.708 6.59262C12.623 6.65359 12.5594 6.73998 12.5266 6.83935C12.4161 7.16251 12.2119 7.44547 11.94 7.65217C11.6682 7.85888 11.3409 7.97996 11 8C10.6595 7.98012 10.3325 7.85937 10.0609 7.65312C9.78917 7.44687 9.585 7.16445 9.47433 6.8418C9.44067 6.74255 9.37688 6.65627 9.29184 6.595C9.20681 6.53373 9.10478 6.50052 8.99998 6.5C8.89498 6.49775 8.79209 6.52961 8.70673 6.5908C8.62138 6.65198 8.55817 6.73919 8.52658 6.83935C8.4161 7.16251 8.21192 7.44547 7.94004 7.65217C7.66817 7.85888 7.34091 7.97996 6.99998 8H6.49998V4.5H6.99998ZM3.49998 3C3.49998 2.73478 3.60533 2.48043 3.79287 2.29289C3.98041 2.10536 4.23476 2 4.49998 2C4.76519 2 5.01955 2.10536 5.20708 2.29289C5.39462 2.48043 5.49998 2.73478 5.49998 3V6H3.49998V3ZM4.49998 14C3.94974 14.0004 3.41476 13.8191 2.9781 13.4843C2.54145 13.1495 2.22754 12.6799 2.08511 12.1484C1.94268 11.6169 1.9797 11.0533 2.19042 10.545C2.40114 10.0367 2.77378 9.61221 3.25048 9.3374L3.49998 9.19285V7H5.49998V9.19285L5.74948 9.3374C6.22617 9.61221 6.59881 10.0367 6.80953 10.545C7.02025 11.0533 7.05727 11.6169 6.91485 12.1484C6.77242 12.6799 6.45851 13.1495 6.02185 13.4843C5.58519 13.8191 5.05021 14.0004 4.49998 14Z" fill="#161616"/>
</svg>
