<svg width="16" height="16" viewBox="0 0 16 16" fill="none" xmlns="http://www.w3.org/2000/svg">
<path d="M15 9H12C11.7349 8.9997 11.4807 8.89424 11.2932 8.70677C11.1058 8.5193 11.0003 8.26512 11 8V3C11.0003 2.73486 11.1057 2.48066 11.2932 2.29319C11.4807 2.10571 11.7349 2.00026 12 2H15V3H12V8H15V9Z" fill="#161616"/>
<path d="M9 3C9.55229 3 10 2.55228 10 2C10 1.44772 9.55229 1 9 1C8.44772 1 8 1.44772 8 2C8 2.55228 8.44772 3 9 3Z" fill="#161616"/>
<path d="M5 10.092V6H4V10.092C3.6664 10.21 3.38523 10.4421 3.20619 10.7473C3.02715 11.0525 2.96177 11.4112 3.02161 11.7599C3.08144 12.1087 3.26264 12.425 3.53317 12.6531C3.80371 12.8812 4.14616 13.0063 4.5 13.0063C4.85385 13.0063 5.1963 12.8812 5.46683 12.6531C5.73737 12.425 5.91857 12.1087 5.9784 11.7599C6.03824 11.4112 5.97286 11.0525 5.79382 10.7473C5.61478 10.4421 5.33361 10.21 5 10.092Z" fill="#161616"/>
<path d="M4.5 15C3.81108 15.0007 3.13731 14.7978 2.56328 14.4169C1.98925 14.036 1.54053 13.494 1.27346 12.8589C1.00639 12.2239 0.932869 11.5241 1.06213 10.8474C1.19139 10.1707 1.51767 9.5473 2 9.0554V3.5C2 2.83696 2.2634 2.20107 2.73224 1.73223C3.20108 1.26339 3.83696 1 4.5 1C5.16304 1 5.79893 1.26339 6.26777 1.73223C6.73661 2.20107 7 2.83696 7 3.5V9.0554C7.48234 9.5473 7.80862 10.1707 7.93788 10.8474C8.06714 11.5241 7.99362 12.2239 7.72655 12.8589C7.45948 13.494 7.01076 14.036 6.43673 14.4169C5.86269 14.7978 5.18892 15.0007 4.5 15ZM4.5 2C4.10231 2.00044 3.72104 2.15861 3.43983 2.43982C3.15862 2.72103 3.00044 3.10231 3 3.5V9.4917L2.834 9.64085C2.45644 9.97831 2.19026 10.4225 2.07069 10.9145C1.95113 11.4066 1.98381 11.9234 2.16441 12.3965C2.34502 12.8696 2.66503 13.2766 3.0821 13.5639C3.49916 13.8511 3.99361 14.0048 4.5 14.0048C5.00639 14.0048 5.50084 13.8511 5.91791 13.5639C6.33497 13.2766 6.65499 12.8696 6.83559 12.3965C7.0162 11.9234 7.04888 11.4066 6.92931 10.9145C6.80974 10.4225 6.54356 9.97831 6.166 9.64085L6 9.4917V3.5C5.99957 3.10231 5.84139 2.72103 5.56018 2.43982C5.27897 2.15861 4.89769 2.00044 4.5 2Z" fill="#161616"/>
</svg>
