<svg width="16" height="16" viewBox="0 0 16 16" fill="none" xmlns="http://www.w3.org/2000/svg">
<path d="M9.5 1.99998C8.74516 1.9984 8.00211 2.18712 7.33951 2.54871C6.67691 2.91029 6.11614 3.43307 5.70905 4.06872C5.30195 4.70438 5.06166 5.4324 5.01038 6.18549C4.9591 6.93859 5.09848 7.69246 5.41565 8.37743L1 12.7929L1.70705 13.5L5.9507 9.25633C6.18108 9.55253 6.44745 9.8189 6.74365 10.0493L5 11.7929L5.70705 12.5L7.6227 10.5844C8.23364 10.8654 8.8998 11.0058 9.57217 10.9953C10.2445 10.9849 10.906 10.8238 11.5079 10.5239C12.1098 10.224 12.6368 9.793 13.0501 9.26257C13.4634 8.73214 13.7525 8.11578 13.8962 7.45886C14.0398 6.80193 14.0344 6.12116 13.8802 5.46662C13.726 4.81208 13.427 4.20045 13.0053 3.67672C12.5835 3.15298 12.0497 2.73049 11.443 2.44031C10.8364 2.15014 10.1725 1.99967 9.5 1.99998ZM12.9529 5.95288C12.2242 5.83641 11.5509 5.49274 11.0291 4.97092C10.5072 4.4491 10.1636 3.77579 10.0471 3.04708C10.7758 3.16355 11.4491 3.50722 11.9709 4.02904C12.4928 4.55086 12.8364 5.22416 12.9529 5.95288ZM6.0471 7.04708C6.77581 7.16355 7.44912 7.50722 7.97094 8.02904C8.49276 8.55086 8.83643 9.22416 8.9529 9.95288C8.22419 9.83641 7.55088 9.49274 7.02906 8.97092C6.50724 8.4491 6.16357 7.77579 6.0471 7.04708ZM9.965 9.96533C9.84385 8.96494 9.39079 8.03405 8.67825 7.32148C7.96571 6.60891 7.03484 6.15582 6.03445 6.03463C6.13736 5.27521 6.48654 4.57052 7.02844 4.02862C7.57034 3.48672 8.27503 3.13754 9.03445 3.03463C9.1556 4.03502 9.60866 4.96591 10.3212 5.67848C11.0337 6.39105 11.9646 6.84414 12.965 6.96533C12.8621 7.72475 12.5129 8.42944 11.971 8.97134C11.4291 9.51324 10.7244 9.86242 9.965 9.96533Z" fill="#161616"/>
</svg>
