<svg width="16" height="16" viewBox="0 0 16 16" fill="none" xmlns="http://www.w3.org/2000/svg">
<path d="M13.5 11.0699V4.92993C13.8426 4.84313 14.156 4.66711 14.4084 4.4198C14.6608 4.17248 14.8432 3.8627 14.937 3.52199C15.0308 3.18128 15.0326 2.82181 14.9423 2.48015C14.852 2.1385 14.6728 1.82688 14.4229 1.577C14.1731 1.32712 13.8614 1.14791 13.5198 1.05761C13.1781 0.967308 12.8186 0.969145 12.4779 1.06293C12.1372 1.15671 11.8274 1.3391 11.5801 1.59152C11.3328 1.84394 11.1568 2.15738 11.07 2.49993H4.92999C4.84319 2.15738 4.66717 1.84394 4.41986 1.59152C4.17254 1.3391 3.86277 1.15671 3.52205 1.06293C3.18134 0.969145 2.82187 0.967308 2.48022 1.05761C2.13856 1.14791 1.82694 1.32712 1.57706 1.577C1.32718 1.82688 1.14797 2.1385 1.05767 2.48015C0.967369 2.82181 0.969206 3.18128 1.06299 3.52199C1.15678 3.8627 1.33916 4.17248 1.59158 4.4198C1.844 4.66711 2.15744 4.84313 2.49999 4.92993V11.0699C2.15744 11.1567 1.844 11.3328 1.59158 11.5801C1.33916 11.8274 1.15678 12.1372 1.06299 12.4779C0.969206 12.8186 0.967369 13.1781 1.05767 13.5197C1.14797 13.8614 1.32718 14.173 1.57706 14.4229C1.82694 14.6728 2.13856 14.852 2.48022 14.9423C2.82187 15.0326 3.18134 15.0307 3.52205 14.9369C3.86277 14.8432 4.17254 14.6608 4.41986 14.4083C4.66717 14.1559 4.84319 13.8425 4.92999 13.4999H11.07C11.1568 13.8425 11.3328 14.1559 11.5801 14.4083C11.8274 14.6608 12.1372 14.8432 12.4779 14.9369C12.8186 15.0307 13.1781 15.0326 13.5198 14.9423C13.8614 14.852 14.1731 14.6728 14.4229 14.4229C14.6728 14.173 14.852 13.8614 14.9423 13.5197C15.0326 13.1781 15.0308 12.8186 14.937 12.4779C14.8432 12.1372 14.6608 11.8274 14.4084 11.5801C14.156 11.3328 13.8426 11.1567 13.5 11.0699ZM13 1.99993C13.1978 1.99993 13.3911 2.05858 13.5556 2.16846C13.72 2.27835 13.8482 2.43452 13.9239 2.61725C13.9996 2.79998 14.0194 3.00104 13.9808 3.19502C13.9422 3.38901 13.847 3.56719 13.7071 3.70704C13.5672 3.84689 13.3891 3.94213 13.1951 3.98072C13.0011 4.0193 12.8 3.9995 12.6173 3.92381C12.4346 3.84813 12.2784 3.71995 12.1685 3.5555C12.0586 3.39105 12 3.19772 12 2.99993C12 2.73472 12.1054 2.48036 12.2929 2.29283C12.4804 2.10529 12.7348 1.99993 13 1.99993ZM1.99999 2.99993C1.99999 2.80215 2.05864 2.60881 2.16853 2.44436C2.27841 2.27991 2.43459 2.15174 2.61731 2.07605C2.80004 2.00037 3.0011 1.98056 3.19509 2.01915C3.38907 2.05773 3.56725 2.15297 3.7071 2.29283C3.84695 2.43268 3.9422 2.61086 3.98078 2.80484C4.01937 2.99882 3.99956 3.19989 3.92387 3.38262C3.84819 3.56534 3.72001 3.72152 3.55557 3.8314C3.39112 3.94128 3.19778 3.99993 2.99999 3.99993C2.73478 3.99993 2.48042 3.89458 2.29289 3.70704C2.10535 3.5195 1.99999 3.26515 1.99999 2.99993ZM2.99999 13.9999C2.80221 13.9999 2.60887 13.9413 2.44442 13.8314C2.27998 13.7215 2.1518 13.5653 2.07612 13.3826C2.00043 13.1999 1.98062 12.9988 2.01921 12.8048C2.05779 12.6109 2.15304 12.4327 2.29289 12.2928C2.43274 12.153 2.61092 12.0577 2.8049 12.0191C2.99889 11.9806 3.19995 12.0004 3.38268 12.0761C3.5654 12.1517 3.72158 12.2799 3.83146 12.4444C3.94135 12.6088 3.99999 12.8022 3.99999 12.9999C3.99999 13.2652 3.89464 13.5195 3.7071 13.707C3.51957 13.8946 3.26521 13.9999 2.99999 13.9999ZM11.07 12.4999H4.92999C4.84022 12.156 4.6604 11.8422 4.40905 11.5909C4.15771 11.3395 3.84392 11.1597 3.49999 11.0699V4.92993C3.84392 4.84015 4.15771 4.66034 4.40905 4.40899C4.6604 4.15765 4.84022 3.84386 4.92999 3.49993H11.07C11.1598 3.84386 11.3396 4.15765 11.5909 4.40899C11.8423 4.66034 12.1561 4.84015 12.5 4.92993V11.0699C12.1561 11.1597 11.8423 11.3395 11.5909 11.5909C11.3396 11.8422 11.1598 12.156 11.07 12.4999ZM13 13.9999C12.8022 13.9999 12.6089 13.9413 12.4444 13.8314C12.28 13.7215 12.1518 13.5653 12.0761 13.3826C12.0004 13.1999 11.9806 12.9988 12.0192 12.8048C12.0578 12.6109 12.153 12.4327 12.2929 12.2928C12.4327 12.153 12.6109 12.0577 12.8049 12.0191C12.9989 11.9806 13.2 12.0004 13.3827 12.0761C13.5654 12.1517 13.7216 12.2799 13.8315 12.4444C13.9413 12.6088 14 12.8022 14 12.9999C14 13.2652 13.8946 13.5195 13.7071 13.707C13.5196 13.8946 13.2652 13.9999 13 13.9999Z" fill="#161616"/>
<path d="M10.5 5.49993H5.49999V6.49993H7.49999V10.9999H8.49999V6.49993H10.5V5.49993Z" fill="#161616"/>
</svg>
