<svg width="16" height="16" viewBox="0 0 16 16" fill="none" xmlns="http://www.w3.org/2000/svg">
<path d="M10.5 15.0001C10.4148 15.0001 10.3309 14.9783 10.2565 14.9368C10.182 14.8953 10.1194 14.8354 10.0746 14.7629C10.0298 14.6904 10.0043 14.6076 10.0005 14.5225C9.99665 14.4373 10.0147 14.3526 10.0528 14.2764L11.0528 12.2761C11.0822 12.2174 11.1228 12.165 11.1724 12.122C11.222 12.079 11.2796 12.0462 11.3419 12.0254C11.4042 12.0046 11.47 11.9964 11.5355 12.001C11.601 12.0057 11.6649 12.0232 11.7237 12.0526C11.7824 12.0819 11.8348 12.1226 11.8778 12.1722C11.9208 12.2218 11.9536 12.2794 11.9744 12.3417C11.9951 12.404 12.0034 12.4698 11.9988 12.5353C11.9941 12.6008 11.9766 12.6647 11.9472 12.7235L10.9472 14.7235C10.9058 14.8066 10.842 14.8766 10.763 14.9254C10.684 14.9743 10.5929 15.0001 10.5 15.0001Z" fill="#161616"/>
<path d="M4.5 16.0001C4.41476 16.0001 4.33093 15.9783 4.25648 15.9368C4.18203 15.8953 4.11943 15.8354 4.07462 15.7629C4.02982 15.6904 4.00429 15.6076 4.00047 15.5225C3.99665 15.4373 4.01466 15.3526 4.0528 15.2764L5.0528 13.2761C5.08217 13.2174 5.12283 13.165 5.17244 13.122C5.22205 13.079 5.27965 13.0462 5.34194 13.0254C5.40424 13.0046 5.47002 12.9964 5.53551 13.001C5.60101 13.0057 5.66495 13.0232 5.72368 13.0526C5.7824 13.0819 5.83477 13.1226 5.87779 13.1722C5.9208 13.2218 5.95363 13.2794 5.97438 13.3417C5.99514 13.404 6.00342 13.4698 5.99876 13.5353C5.99409 13.6008 5.97657 13.6647 5.9472 13.7235L4.9472 15.7235C4.90579 15.8066 4.84199 15.8766 4.76299 15.9254C4.68398 15.9743 4.5929 16.0001 4.5 16.0001Z" fill="#161616"/>
<path d="M7.9505 15.2481L7.0825 14.7521L8.655 12.0001H5.655L8.0825 7.75205L8.9505 8.24805L7.378 11.0001H10.3785L7.9505 15.2481Z" fill="#161616"/>
<path d="M12.4004 4.56815C12.1873 3.55901 11.6339 2.65376 10.8328 2.00414C10.0317 1.35452 9.03164 1 8.00025 1C6.96886 1 5.96881 1.35452 5.16772 2.00414C4.36662 2.65376 3.81316 3.55901 3.6001 4.56815C2.85649 4.71928 2.18931 5.12611 1.71446 5.71797C1.2396 6.30984 0.987074 7.04935 1.00074 7.80804C1.01441 8.56672 1.2934 9.29666 1.78927 9.87104C2.28513 10.4454 2.96653 10.828 3.7151 10.9522L3.053 12.2764C3.02242 12.3352 3.00385 12.3996 2.99837 12.4657C2.99289 12.5317 3.00062 12.5983 3.02109 12.6613C3.04156 12.7244 3.07437 12.7828 3.11762 12.8331C3.16087 12.8833 3.21368 12.9245 3.27299 12.9542C3.33229 12.9838 3.39691 13.0014 3.46307 13.0058C3.52923 13.0103 3.59562 13.0015 3.65837 12.9801C3.72112 12.9587 3.77897 12.9249 3.82857 12.8809C3.87816 12.8369 3.91851 12.7835 3.94725 12.7237L4.94725 10.7237C4.97663 10.665 4.99416 10.601 4.99883 10.5355C5.00349 10.47 4.99521 10.4043 4.97446 10.342C4.95371 10.2797 4.92088 10.2221 4.87787 10.1724C4.83485 10.1228 4.78248 10.0822 4.72375 10.0528C4.65399 10.0194 4.57731 10.0031 4.5 10.0051V10.0001H4.25C3.66889 10.0002 3.11028 9.77546 2.69125 9.37284C2.27223 8.97022 2.02533 8.42102 2.00231 7.84037C1.97929 7.25972 2.18195 6.6927 2.56779 6.25818C2.95363 5.82366 3.4927 5.55537 4.072 5.50955L4.47975 5.4776L4.5293 5.0716C4.63312 4.22414 5.0434 3.44395 5.68278 2.87812C6.32216 2.31229 7.14646 1.99993 8.00025 1.99993C8.85405 1.99993 9.67834 2.31229 10.3177 2.87812C10.9571 3.44395 11.3674 4.22414 11.4712 5.0716L11.5205 5.4776L11.9282 5.50955C12.5075 5.55537 13.0466 5.82367 13.4324 6.25822C13.8183 6.69276 14.0209 7.2598 13.9979 7.84047C13.9748 8.42114 13.7279 8.97034 13.3088 9.37294C12.8898 9.77555 12.3311 10.0003 11.75 10.0001H11.5V11.0001H11.75C12.5553 11.0004 13.3319 10.7016 13.9294 10.1618C14.5269 9.62189 14.9025 8.87936 14.9836 8.0782C15.0646 7.27703 14.8451 6.47433 14.3679 5.82577C13.8906 5.17722 13.1894 4.72903 12.4004 4.56815Z" fill="#161616"/>
</svg>
