<svg width="16" height="16" viewBox="0 0 16 16" fill="none" xmlns="http://www.w3.org/2000/svg">
<path d="M6.66898 14.9998L5.80098 14.4998L6.94448 12.4998H4.99998L6.99648 8.99984L7.86497 9.49984L6.72298 11.4998H8.66848L6.66898 14.9998Z" fill="#161616"/>
<path d="M14.922 6.51719C14.8658 6.39782 14.7795 6.29512 14.6716 6.21922C14.5636 6.14332 14.4378 6.09682 14.3065 6.08429C13.6522 6.01736 13.0454 5.71199 12.6018 5.22639C12.221 4.79831 11.9609 4.27672 11.848 3.71505C11.7351 3.15338 11.7735 2.57179 11.9593 2.02984C12.0029 1.89898 12.012 1.75909 11.9857 1.62369C11.9594 1.48829 11.8987 1.36196 11.8093 1.25689C11.7273 1.16021 11.6215 1.08663 11.5023 1.04347C11.3831 1.0003 11.2547 0.989035 11.1298 1.01079L11.1202 1.01274C10.3433 1.18044 9.63553 1.57994 9.09047 2.15844C8.54541 2.73694 8.18872 3.46721 8.06752 4.25274C7.64751 4.08856 7.20093 4.00284 6.74998 3.99984C5.95376 4.00413 5.17929 4.26003 4.53726 4.73096C3.89524 5.20189 3.41852 5.86374 3.17528 6.62189C2.47975 6.82003 1.87935 7.26304 1.48488 7.86918C1.0904 8.47532 0.928465 9.20368 1.02895 9.91986C1.12943 10.636 1.48555 11.2917 2.0316 11.7659C2.57765 12.2401 3.27678 12.5008 3.99998 12.4998V11.4998C3.49916 11.5007 3.01631 11.3133 2.64721 10.9748C2.27811 10.6363 2.04972 10.1715 2.00735 9.67245C1.96497 9.17343 2.11171 8.67672 2.41845 8.28083C2.7252 7.88495 3.16953 7.61882 3.66333 7.53524L3.99483 7.47884L4.06763 7.15074C4.20344 6.5406 4.54321 5.995 5.03086 5.60396C5.51851 5.21292 6.1249 4.99982 6.74998 4.99982C7.37505 4.99982 7.98144 5.21292 8.46909 5.60396C8.95675 5.995 9.29651 6.5406 9.43233 7.15074L9.50513 7.47884L9.83642 7.53524C10.3303 7.61869 10.7748 7.88475 11.0816 8.28064C11.3885 8.67653 11.5353 9.1733 11.493 9.6724C11.4506 10.1715 11.2222 10.6364 10.853 10.9749C10.4838 11.3135 10.0009 11.5008 9.49998 11.4998V12.4998C9.94338 12.5032 10.3819 12.4075 10.7836 12.2197C11.1853 12.0319 11.54 11.7568 11.8218 11.4144C12.1035 11.072 12.3052 10.671 12.4122 10.2407C12.5192 9.81034 12.5286 9.36156 12.44 8.92709C12.9358 8.83012 13.4069 8.63398 13.8251 8.35045C14.2433 8.06691 14.5998 7.70183 14.8734 7.27709C14.9468 7.16556 14.9899 7.03683 14.9984 6.90358C15.0069 6.77033 14.9806 6.63716 14.922 6.51719ZM12.0757 7.97614C11.6873 7.31685 11.0604 6.83202 10.3247 6.62189C10.0884 5.88601 9.63085 5.24097 9.01437 4.77484C9.03795 4.1959 9.22844 3.63613 9.56288 3.16297C9.89733 2.68982 10.3615 2.32348 10.8994 2.10809C10.7424 2.77246 10.7486 3.46495 10.9175 4.1264C11.0863 4.78784 11.4128 5.39858 11.869 5.90644C12.3882 6.47088 13.07 6.86011 13.82 7.02034C13.38 7.54765 12.7569 7.88909 12.0757 7.97614Z" fill="#161616"/>
</svg>
