<svg width="16" height="16" viewBox="0 0 16 16" fill="none" xmlns="http://www.w3.org/2000/svg">
<path d="M11.75 10.9998H11.5V9.99979H11.75C12.3467 10.0237 12.9285 9.80949 13.3673 9.40442C13.8062 8.99934 14.0661 8.43652 14.09 7.83979C14.1139 7.24305 13.8997 6.66127 13.4946 6.22243C13.0895 5.7836 12.5267 5.52365 11.93 5.49979H11.5L11.45 5.08979C11.3391 4.24801 10.9259 3.47526 10.2875 2.91548C9.64915 2.3557 8.82904 2.04706 7.97999 2.04706C7.13094 2.04706 6.31083 2.3557 5.67244 2.91548C5.03406 3.47526 4.62092 4.24801 4.50999 5.08979L4.49999 5.49979H4.06999C3.47325 5.52365 2.91044 5.7836 2.50536 6.22243C2.10028 6.66127 1.88612 7.24305 1.90999 7.83979C1.93386 8.43652 2.1938 8.99934 2.63264 9.40442C3.07147 9.80949 3.65325 10.0237 4.24999 9.99979H4.49999V10.9998H4.24999C3.44819 10.9947 2.67657 10.6934 2.08348 10.1538C1.49039 9.61425 1.1177 8.87447 1.03706 8.07672C0.956412 7.27898 1.17351 6.47957 1.64662 5.83221C2.11972 5.18485 2.81543 4.73523 3.59999 4.56979C3.81584 3.56305 4.37041 2.66077 5.17115 2.01352C5.97189 1.36627 6.97037 1.01318 7.99999 1.01318C9.02961 1.01318 10.0281 1.36627 10.8288 2.01352C11.6296 2.66077 12.1841 3.56305 12.4 4.56979C13.1845 4.73523 13.8803 5.18485 14.3534 5.83221C14.8265 6.47957 15.0436 7.27898 14.9629 8.07672C14.8823 8.87447 14.5096 9.61425 13.9165 10.1538C13.3234 10.6934 12.5518 10.9947 11.75 10.9998Z" fill="#161616"/>
<path d="M7.93499 15.2498L7.06499 14.7498L8.63999 11.9998H5.63999L8.06499 7.74979L8.93499 8.24979L7.35999 10.9998H10.36L7.93499 15.2498Z" fill="#161616"/>
</svg>
