<svg width="16" height="16" viewBox="0 0 16 16" fill="none" xmlns="http://www.w3.org/2000/svg">
<path d="M10.5 15C10.4148 15 10.3309 14.9782 10.2565 14.9367C10.182 14.8952 10.1194 14.8353 10.0746 14.7628C10.0298 14.6903 10.0043 14.6075 10.0005 14.5224C9.99666 14.4372 10.0147 14.3525 10.0528 14.2763L11.0528 12.276C11.082 12.217 11.1226 12.1644 11.1722 12.1211C11.2218 12.0779 11.2795 12.0448 11.3419 12.0239C11.4043 12.0029 11.4702 11.9945 11.5359 11.9991C11.6016 12.0038 11.6657 12.0213 11.7246 12.0507C11.7834 12.0802 11.8359 12.121 11.879 12.1708C11.9221 12.2205 11.9549 12.2783 11.9756 12.3408C11.9962 12.4033 12.0044 12.4693 11.9995 12.5349C11.9946 12.6006 11.9768 12.6646 11.9472 12.7234L10.9472 14.7234C10.9058 14.8065 10.842 14.8765 10.763 14.9253C10.684 14.9742 10.5929 15.0001 10.5 15Z" fill="#161616"/>
<path d="M4.50001 16C4.41477 16 4.33094 15.9782 4.25649 15.9367C4.18204 15.8952 4.11944 15.8353 4.07463 15.7628C4.02982 15.6903 4.0043 15.6075 4.00048 15.5224C3.99666 15.4372 4.01467 15.3525 4.05281 15.2763L5.05281 13.276C5.08202 13.217 5.1226 13.1644 5.17221 13.1211C5.22181 13.0779 5.27948 13.0448 5.34189 13.0239C5.4043 13.0029 5.47024 12.9945 5.5359 12.9991C5.60157 13.0038 5.66568 13.0213 5.72456 13.0507C5.78343 13.0802 5.83591 13.121 5.87899 13.1708C5.92206 13.2205 5.95488 13.2783 5.97556 13.3408C5.99625 13.4033 6.00438 13.4693 5.99951 13.5349C5.99463 13.6006 5.97684 13.6646 5.94716 13.7234L4.94716 15.7234C4.90575 15.8065 4.84196 15.8765 4.76297 15.9253C4.68397 15.9742 4.5929 16.0001 4.50001 16Z" fill="#161616"/>
<path d="M7.95051 15.248L7.08251 14.752L8.65451 12H5.65501L8.08251 7.75198L8.95051 8.24798L7.37801 11H10.3785L7.95051 15.248Z" fill="#161616"/>
<path d="M13.9758 7.49998C13.9886 7.58279 13.9967 7.66626 14 7.74998C13.9994 8.34652 13.7621 8.91844 13.3403 9.34026C12.9185 9.76207 12.3465 9.99933 11.75 9.99998H11.5V11H11.75C12.6117 10.999 13.4377 10.6563 14.047 10.047C14.6563 9.4377 14.999 8.61163 15 7.74998C15 7.66498 14.9844 7.58348 14.9778 7.49998H13.9758Z" fill="#161616"/>
<path d="M15.9558 5.96773L12.8142 0.185282C12.7831 0.129147 12.7376 0.0823542 12.6823 0.04977C12.6271 0.0171857 12.5641 0 12.5 0C12.4358 0 12.3728 0.0171857 12.3176 0.04977C12.2623 0.0823542 12.2168 0.129147 12.1858 0.185282L9.04416 5.96773C9.01429 6.02254 8.99919 6.08417 9.00034 6.14658C9.00148 6.20899 9.01883 6.27002 9.05068 6.3237C9.08254 6.37738 9.1278 6.42185 9.18203 6.45276C9.23626 6.48366 9.29759 6.49994 9.36001 6.49998H15.64C15.7024 6.49992 15.7637 6.48363 15.818 6.45272C15.8722 6.42181 15.9174 6.37733 15.9493 6.32366C15.9811 6.26998 15.9984 6.20895 15.9996 6.14656C16.0007 6.08416 15.9856 6.02253 15.9558 5.96773ZM12.125 1.99998H12.875V3.99998H12.125V1.99998ZM12.5 5.49998C12.4011 5.49998 12.3044 5.47066 12.2222 5.41572C12.14 5.36078 12.0759 5.28269 12.0381 5.19132C12.0002 5.09996 11.9903 4.99943 12.0096 4.90244C12.0289 4.80545 12.0765 4.71636 12.1465 4.64643C12.2164 4.5765 12.3055 4.52888 12.4025 4.50959C12.4995 4.4903 12.6 4.5002 12.6914 4.53804C12.7827 4.57589 12.8608 4.63997 12.9157 4.7222C12.9707 4.80442 13 4.90109 13 4.99998C13 5.13259 12.9473 5.25977 12.8536 5.35354C12.7598 5.4473 12.6326 5.49998 12.5 5.49998Z" fill="#161616"/>
<path d="M4.07201 5.50948L4.47971 5.47753L4.52926 5.07153C4.59627 4.52012 4.79381 3.99264 5.10549 3.53286C5.41717 3.07308 5.834 2.69425 6.3214 2.42782C6.8088 2.16139 7.35271 2.01503 7.90799 2.0009C8.46328 1.98676 9.01393 2.10525 9.51426 2.34653L10 1.47338C9.38577 1.16643 8.70931 1.00449 8.02266 1.00002C7.33602 0.995549 6.6575 1.14866 6.03932 1.44758C5.42114 1.7465 4.87977 2.18326 4.45688 2.72424C4.03399 3.26523 3.74085 3.89602 3.60001 4.56808C2.8564 4.71921 2.18922 5.12604 1.71436 5.71791C1.23951 6.30977 0.986982 7.04928 1.00065 7.80797C1.01432 8.56666 1.29331 9.29659 1.78918 9.87097C2.28504 10.4453 2.96644 10.8279 3.71501 10.9521L3.05296 12.2763C3.02238 12.3352 3.00381 12.3995 2.99833 12.4656C2.99285 12.5317 3.00057 12.5982 3.02105 12.6613C3.04152 12.7243 3.07433 12.7827 3.11758 12.833C3.16082 12.8833 3.21364 12.9244 3.27295 12.9541C3.33225 12.9837 3.39687 13.0013 3.46303 13.0058C3.52919 13.0102 3.59558 13.0015 3.65833 12.98C3.72108 12.9586 3.77893 12.9249 3.82853 12.8809C3.87812 12.8368 3.91847 12.7834 3.94721 12.7236L4.94721 10.7236C4.97659 10.6649 4.99411 10.601 4.99878 10.5355C5.00344 10.47 4.99516 10.4042 4.9744 10.3419C4.95364 10.2796 4.92081 10.222 4.87779 10.1724C4.83477 10.1228 4.78239 10.0821 4.72366 10.0527C4.65393 10.0194 4.57728 10.003 4.50001 10.005V9.99998H4.25001C3.66891 10.0002 3.1103 9.77536 2.69128 9.37274C2.27227 8.97012 2.02538 8.42092 2.00237 7.84028C1.97936 7.25963 2.18201 6.69262 2.56786 6.2581C2.9537 5.82358 3.49272 5.5553 4.07201 5.50948Z" fill="#161616"/>
</svg>
