<svg width="16" height="16" viewBox="0 0 16 16" fill="none" xmlns="http://www.w3.org/2000/svg">
<path d="M8.49997 5.5H7.49997V10H8.49997V5.5Z" fill="#161616"/>
<path d="M9.49997 1H6.49997V2H9.49997V1Z" fill="#161616"/>
<path d="M14 4.5L13.29 3.795L12.165 4.92C11.2441 3.85652 9.94884 3.18872 8.54839 3.05535C7.14793 2.92199 5.74994 3.33332 4.64487 4.20387C3.53979 5.07443 2.81261 6.33727 2.6144 7.73003C2.41619 9.12278 2.7622 10.5384 3.58053 11.6826C4.39887 12.8269 5.62661 13.6119 7.00867 13.8746C8.39072 14.1372 9.82083 13.8572 11.0019 13.0929C12.1829 12.3285 13.024 11.1385 13.3505 9.77016C13.677 8.40178 13.4637 6.96022 12.755 5.745L14 4.5ZM7.99997 13C7.10995 13 6.23992 12.7361 5.4999 12.2416C4.75988 11.7471 4.18311 11.0443 3.84251 10.2221C3.50192 9.39981 3.4128 8.49501 3.58644 7.62209C3.76007 6.74918 4.18865 5.94736 4.81799 5.31802C5.44733 4.68868 6.24915 4.2601 7.12206 4.08647C7.99498 3.91283 8.89978 4.00195 9.72205 4.34254C10.5443 4.68314 11.2471 5.25991 11.7416 5.99993C12.236 6.73995 12.5 7.60998 12.5 8.5C12.5 9.69347 12.0259 10.8381 11.1819 11.682C10.338 12.5259 9.19344 13 7.99997 13Z" fill="#161616"/>
</svg>
