<svg width="16" height="16" viewBox="0 0 16 16" fill="none" xmlns="http://www.w3.org/2000/svg">
<path d="M6.50002 15C5.70464 14.9991 4.9421 14.6828 4.37968 14.1203C3.81726 13.5579 3.50091 12.7954 3.50002 12H4.50002C4.50002 12.5304 4.71073 13.0391 5.08581 13.4142C5.46088 13.7893 5.96959 14 6.50002 14C7.03045 14 7.53916 13.7893 7.91423 13.4142C8.28931 13.0391 8.50002 12.5304 8.50002 12H9.50002C9.49913 12.7954 9.18278 13.5579 8.62036 14.1203C8.05794 14.6828 7.2954 14.9991 6.50002 15Z" fill="#161616"/>
<path d="M10.5 1H8.28032C7.77857 0.999972 7.29513 1.18854 6.92592 1.5283L2.32567 5.76145C2.21825 5.85965 2.13355 5.9801 2.07745 6.11439C2.02136 6.24868 1.99523 6.39359 2.00088 6.53902C2.00653 6.68445 2.04382 6.8269 2.11017 6.95643C2.17651 7.08597 2.27031 7.19948 2.38502 7.28905C2.58144 7.43292 2.82221 7.5031 3.06517 7.4873C3.30813 7.47151 3.53778 7.37074 3.71392 7.20265L5.50002 5.57155V12C5.50002 12.2652 5.60538 12.5196 5.79291 12.7071C5.98045 12.8946 6.2348 13 6.50002 13C6.76524 13 7.01959 12.8946 7.20713 12.7071C7.39466 12.5196 7.50002 12.2652 7.50002 12V8.5C7.50002 8.76522 7.60538 9.01957 7.79291 9.20711C7.98045 9.39464 8.2348 9.5 8.50002 9.5C8.76524 9.5 9.01959 9.39464 9.20713 9.20711C9.39466 9.01957 9.50002 8.76522 9.50002 8.5V8C9.50002 8.26522 9.60538 8.51957 9.79291 8.70711C9.98045 8.89464 10.2348 9 10.5 9C10.7652 9 11.0196 8.89464 11.2071 8.70711C11.3947 8.51957 11.5 8.26522 11.5 8V7.5C11.5 7.76522 11.6054 8.01957 11.7929 8.20711C11.9804 8.39464 12.2348 8.5 12.5 8.5C12.7652 8.5 13.0196 8.39464 13.2071 8.20711C13.3947 8.01957 13.5 7.76522 13.5 7.5V4C13.5 3.20435 13.1839 2.44129 12.6213 1.87868C12.0587 1.31607 11.2957 1 10.5 1Z" fill="#161616"/>
</svg>
