<svg width="16" height="16" viewBox="0 0 16 16" fill="none" xmlns="http://www.w3.org/2000/svg">
<path d="M9.99998 4H8.99998C8.99998 3.33696 8.73659 2.70107 8.26775 2.23223C7.79891 1.76339 7.16302 1.5 6.49998 1.5C5.83694 1.5 5.20105 1.76339 4.73221 2.23223C4.26337 2.70107 3.99998 3.33696 3.99998 4H2.99998C2.99998 3.07174 3.36873 2.1815 4.02511 1.52513C4.68148 0.868749 5.57172 0.5 6.49998 0.5C7.42824 0.5 8.31848 0.868749 8.97485 1.52513C9.63123 2.1815 9.99998 3.07174 9.99998 4Z" fill="#161616"/>
<path d="M12.5 7.5C12.2417 7.50093 11.9882 7.56991 11.765 7.7C11.6302 7.48619 11.4435 7.30992 11.2224 7.18754C11.0012 7.06516 10.7527 7.00065 10.5 7C10.2417 7.00093 9.98815 7.06991 9.76498 7.2C9.58307 6.91376 9.30953 6.69762 8.98898 6.58684C8.66844 6.47606 8.31981 6.47717 7.99998 6.59V4C7.99998 3.60218 7.84194 3.22064 7.56064 2.93934C7.27934 2.65804 6.8978 2.5 6.49998 2.5C6.10215 2.5 5.72062 2.65804 5.43932 2.93934C5.15801 3.22064 4.99998 3.60218 4.99998 4V9.55L3.88498 8.79C3.62938 8.59964 3.31867 8.49783 2.99998 8.5C2.70247 8.49927 2.41146 8.58702 2.16395 8.7521C1.91644 8.91719 1.72362 9.15215 1.60999 9.4271C1.49636 9.70206 1.46706 10.0046 1.52582 10.2963C1.58458 10.5879 1.72875 10.8555 1.93998 11.065L5.93998 14.715C6.50628 15.2219 7.23998 15.5015 7.99998 15.5H10.5C11.4282 15.5 12.3185 15.1313 12.9749 14.4749C13.6312 13.8185 14 12.9283 14 12V9C14 8.60217 13.8419 8.22064 13.5606 7.93934C13.2793 7.65804 12.8978 7.5 12.5 7.5ZM13 12C13 12.663 12.7366 13.2989 12.2677 13.7678C11.7989 14.2366 11.163 14.5 10.5 14.5H7.99998C7.49458 14.5061 7.00417 14.3284 6.61998 14L2.64498 10.35C2.55261 10.2569 2.50053 10.1312 2.49998 10C2.49998 9.90714 2.52584 9.81612 2.57465 9.73713C2.62347 9.65815 2.69332 9.59431 2.77637 9.55279C2.85943 9.51126 2.9524 9.49368 3.04488 9.50202C3.13736 9.51036 3.22569 9.54429 3.29998 9.6L5.99998 11.45V4C5.99998 3.86739 6.05266 3.74021 6.14643 3.64645C6.24019 3.55268 6.36737 3.5 6.49998 3.5C6.63259 3.5 6.75976 3.55268 6.85353 3.64645C6.9473 3.74021 6.99998 3.86739 6.99998 4V9.5H7.99998V8C7.99998 7.86739 8.05266 7.74021 8.14643 7.64645C8.24019 7.55268 8.36737 7.5 8.49998 7.5C8.63259 7.5 8.75977 7.55268 8.85353 7.64645C8.9473 7.74021 8.99998 7.86739 8.99998 8V9.5H9.99998V8.5C9.99998 8.36739 10.0527 8.24021 10.1464 8.14645C10.2402 8.05268 10.3674 8 10.5 8C10.6326 8 10.7598 8.05268 10.8535 8.14645C10.9473 8.24021 11 8.36739 11 8.5V9.5H12V9C12 8.86739 12.0527 8.74021 12.1464 8.64645C12.2402 8.55268 12.3674 8.5 12.5 8.5C12.6326 8.5 12.7598 8.55268 12.8535 8.64645C12.9473 8.74021 13 8.86739 13 9V12Z" fill="#161616"/>
</svg>
