<svg width="16" height="16" viewBox="0 0 16 16" fill="none" xmlns="http://www.w3.org/2000/svg">
<path d="M6.50002 1C5.70464 1.00089 4.9421 1.31724 4.37968 1.87966C3.81726 2.44208 3.50091 3.20462 3.50002 4H4.50002C4.50002 3.46957 4.71073 2.96086 5.08581 2.58579C5.46088 2.21071 5.96959 2 6.50002 2C7.03045 2 7.53916 2.21071 7.91423 2.58579C8.28931 2.96086 8.50002 3.46957 8.50002 4H9.50002C9.49913 3.20462 9.18278 2.44208 8.62036 1.87966C8.05794 1.31724 7.2954 1.00089 6.50002 1Z" fill="#161616"/>
<path d="M10.5 15H8.28032C7.77857 15 7.29513 14.8115 6.92592 14.4717L2.32567 10.2386C2.21825 10.1403 2.13355 10.0199 2.07745 9.88561C2.02136 9.75132 1.99523 9.60641 2.00088 9.46098C2.00653 9.31555 2.04382 9.1731 2.11017 9.04357C2.17651 8.91403 2.27031 8.80052 2.38502 8.71095C2.58144 8.56708 2.82221 8.4969 3.06517 8.5127C3.30813 8.52849 3.53778 8.62926 3.71392 8.79735L5.50002 10.4284V4C5.50002 3.73478 5.60538 3.48043 5.79291 3.29289C5.98045 3.10536 6.2348 3 6.50002 3C6.76524 3 7.01959 3.10536 7.20713 3.29289C7.39466 3.48043 7.50002 3.73478 7.50002 4V7.5C7.50002 7.23478 7.60538 6.98043 7.79291 6.79289C7.98045 6.60536 8.2348 6.5 8.50002 6.5C8.76524 6.5 9.01959 6.60536 9.20713 6.79289C9.39466 6.98043 9.50002 7.23478 9.50002 7.5V8C9.50002 7.73478 9.60538 7.48043 9.79291 7.29289C9.98045 7.10536 10.2348 7 10.5 7C10.7652 7 11.0196 7.10536 11.2071 7.29289C11.3947 7.48043 11.5 7.73478 11.5 8V8.5C11.5 8.23478 11.6054 7.98043 11.7929 7.79289C11.9804 7.60536 12.2348 7.5 12.5 7.5C12.7652 7.5 13.0196 7.60536 13.2071 7.79289C13.3947 7.98043 13.5 8.23478 13.5 8.5V12C13.5 12.7956 13.1839 13.5587 12.6213 14.1213C12.0587 14.6839 11.2957 15 10.5 15Z" fill="#161616"/>
</svg>
