<svg width="16" height="16" viewBox="0 0 16 16" fill="none" xmlns="http://www.w3.org/2000/svg">
<path d="M14.5629 3.5625C14.4137 3.5625 14.2706 3.50324 14.1651 3.39775C14.0596 3.29226 14.0004 3.14918 14.0004 3C14.0004 2.85082 14.0596 2.70774 14.1651 2.60225C14.2706 2.49676 14.4137 2.4375 14.5629 2.4375H15.0004V1H9.00037V2.4375H9.43787C9.58705 2.4375 9.73012 2.49676 9.83561 2.60225C9.9411 2.70774 10.0004 2.85082 10.0004 3C10.0004 3.14918 9.9411 3.29226 9.83561 3.39775C9.73012 3.50324 9.58705 3.5625 9.43787 3.5625H9.00037V5H15.0004V3.5625H14.5629Z" fill="#161616"/>
<path d="M11.0004 6.5V8H3.00037V5H7.50037V4H3.09252C3.19522 3.70836 3.38569 3.45566 3.63777 3.27661C3.88985 3.09756 4.19117 3.00093 4.50037 3H7.50037V2H4.50037C3.83756 2.00075 3.20211 2.26439 2.73343 2.73307C2.26475 3.20174 2.00112 3.83719 2.00037 4.5V10.5C2.00222 11.0374 2.17755 11.5598 2.50026 11.9896C2.82296 12.4193 3.27579 12.7334 3.79137 12.885L2.88502 15H3.97292L4.83002 13H9.17062L10.0278 15H11.1157L10.2093 12.885C10.7249 12.7334 11.1777 12.4193 11.5005 11.9896C11.8232 11.5599 11.9985 11.0374 12.0004 10.5V6.5H11.0004ZM11.0004 10H9.50037V11H10.9082C10.8055 11.2916 10.615 11.5443 10.363 11.7234C10.1109 11.9024 9.80956 11.9991 9.50037 12H4.50037C4.19117 11.9991 3.88985 11.9024 3.63777 11.7234C3.38569 11.5443 3.19522 11.2916 3.09252 11H4.50037V10H3.00037V9H11.0004V10Z" fill="#161616"/>
</svg>
