<svg width="16" height="16" viewBox="0 0 16 16" fill="none" xmlns="http://www.w3.org/2000/svg">
<path d="M5.28501 15.0001L5.75166 14.0001H10.2481L10.7147 15.0001H11.8183L8.50001 7.88901V5.50011H7.50001V7.88901L4.18156 15.0001H5.28501ZM8.00001 9.18246L8.84826 11.0001H7.15176L8.00001 9.18246ZM6.68501 12.0001H9.31501L9.78166 13.0001H6.21846L6.68501 12.0001Z" fill="#161616"/>
<path d="M5.39161 4.66636C5.71993 4.29944 6.12196 4.00591 6.57145 3.80495C7.02094 3.60399 7.50777 3.50012 8.00013 3.50012C8.4925 3.50012 8.97933 3.60399 9.42882 3.80495C9.8783 4.00591 10.2803 4.29944 10.6087 4.66636L9.86366 5.33336C9.62916 5.07118 9.34198 4.86143 9.02088 4.71782C8.69978 4.57422 8.35199 4.49999 8.00023 4.49999C7.64848 4.49999 7.30069 4.57422 6.97959 4.71782C6.65849 4.86143 6.3713 5.07118 6.13681 5.33336L5.39161 4.66636Z" fill="#161616"/>
<path d="M3.59961 3.19981C4.11203 2.51685 4.7764 1.96254 5.54011 1.58077C6.30383 1.199 7.14594 1.00024 7.99976 1.00024C8.85358 1.00024 9.69569 1.199 10.4594 1.58077C11.2231 1.96254 11.8875 2.51685 12.3999 3.19981L11.6 3.80011C11.1808 3.24118 10.6372 2.78752 10.0123 2.47507C9.3874 2.16261 8.69833 1.99994 7.99966 1.99994C7.30099 1.99994 6.61191 2.16261 5.987 2.47507C5.36209 2.78752 4.81851 3.24118 4.39931 3.80011L3.59961 3.19981Z" fill="#161616"/>
</svg>
