<svg width="16" height="16" viewBox="0 0 16 16" fill="none" xmlns="http://www.w3.org/2000/svg">
<path d="M13.9744 12.8418C13.9412 12.7425 13.8777 12.6561 13.7929 12.5948C13.708 12.5335 13.6061 12.5003 13.5014 12.5001C13.3967 12.4998 13.2945 12.5324 13.2094 12.5933C13.1242 12.6541 13.0603 12.7402 13.0266 12.8393C12.9161 13.1625 12.712 13.4455 12.4401 13.6522C12.1682 13.8589 11.841 13.9799 11.5 14C11.1591 13.9799 10.8318 13.8589 10.5599 13.6522C10.2881 13.4455 10.0839 13.1625 9.97341 12.8393C9.93976 12.7402 9.87584 12.6541 9.79066 12.5933C9.70548 12.5324 9.60335 12.4998 9.49866 12.5001C9.39397 12.5003 9.292 12.5335 9.20714 12.5948C9.12228 12.6561 9.0588 12.7425 9.02566 12.8418C8.91499 13.1644 8.71082 13.4469 8.43913 13.6531C8.16745 13.8594 7.84054 13.9801 7.50001 14H7.28321C6.96206 13.3969 6.00001 11.156 6.00001 5.99998V5.93433L6.55846 6.30663C6.80399 6.47165 7.02567 6.66962 7.21731 6.89498L7.71766 5.97408C7.53208 5.78927 7.32971 5.62211 7.11316 5.47478L6.40126 4.99998H7.16666C7.50457 5.00269 7.84031 5.05441 8.16336 5.15353L8.65111 4.25583C8.17417 4.0878 7.67233 4.00131 7.16666 3.99998H6.55846C7.21168 3.36239 8.08722 3.00379 9.00001 2.99998H9.33346L9.87681 1.99998H9.00001C8.32828 2.00251 7.66556 2.15479 7.0601 2.44574C6.45465 2.73669 5.92168 3.15898 5.50001 3.68188C5.07834 3.15898 4.54538 2.73669 3.93992 2.44574C3.33446 2.15479 2.67174 2.00251 2.00001 1.99998H1.00001V2.99998H2.00001C2.91278 3.00372 3.7883 3.36234 4.44141 3.99998H3.83326C2.85995 4.00213 1.9132 4.31771 1.13326 4.89998L0.200012 5.59998L0.800012 6.39998L1.73341 5.69998C2.33992 5.24689 3.07635 5.00142 3.83341 4.99998H4.59866L3.88671 5.47458C3.30581 5.86096 2.82953 6.38507 2.50033 7.00018C2.17114 7.6153 1.99926 8.30232 2.00001 8.99998H3.00001C2.99939 8.46697 3.13068 7.94208 3.38218 7.47214C3.63369 7.00219 3.99758 6.60179 4.44141 6.30663L5.00001 5.93433V5.99998C5.00001 10.4682 5.69971 12.8769 6.17751 14H1.00001V15H7.50001C7.88805 15.0034 8.27142 14.9152 8.61895 14.7426C8.96648 14.5699 9.26835 14.3176 9.50001 14.0063C9.73405 14.3151 10.0364 14.5655 10.3834 14.7379C10.7304 14.9103 11.1126 15 11.5 15C11.8875 15 12.2696 14.9103 12.6166 14.7379C12.9636 14.5655 13.266 14.3151 13.5 14.0063C13.8682 14.4929 14.4018 14.8279 15 14.948V13.9062C14.766 13.8073 14.5545 13.6619 14.3782 13.479C14.202 13.296 14.0646 13.0793 13.9744 12.8418Z" fill="#161616"/>
<path d="M14.9558 6.96773L11.8142 1.18528C11.7832 1.12915 11.7376 1.08235 11.6824 1.04977C11.6271 1.01719 11.5642 1 11.5 1C11.4359 1 11.3729 1.01719 11.3176 1.04977C11.2624 1.08235 11.2169 1.12915 11.1858 1.18528L8.04426 6.96773C8.0144 7.02253 7.9993 7.08416 8.00044 7.14655C8.00158 7.20895 8.01892 7.26998 8.05076 7.32366C8.0826 7.37733 8.12785 7.42181 8.18207 7.45272C8.23628 7.48363 8.2976 7.49992 8.36001 7.49998H14.64C14.7024 7.49992 14.7637 7.48363 14.818 7.45272C14.8722 7.42181 14.9174 7.37733 14.9493 7.32366C14.9811 7.26998 14.9984 7.20895 14.9996 7.14655C15.0007 7.08416 14.9856 7.02253 14.9558 6.96773ZM11.125 2.99998H11.875V4.99998H11.125V2.99998ZM11.5 6.49998C11.4011 6.49998 11.3045 6.47066 11.2222 6.41572C11.14 6.36078 11.0759 6.28269 11.0381 6.19132C11.0002 6.09996 10.9903 5.99943 11.0096 5.90244C11.0289 5.80545 11.0765 5.71636 11.1465 5.64643C11.2164 5.5765 11.3055 5.52888 11.4025 5.50959C11.4995 5.4903 11.6 5.5002 11.6914 5.53804C11.7827 5.57589 11.8608 5.63997 11.9157 5.7222C11.9707 5.80442 12 5.90109 12 5.99998C12 6.13259 11.9473 6.25977 11.8536 6.35354C11.7598 6.4473 11.6326 6.49998 11.5 6.49998Z" fill="#161616"/>
</svg>
