<svg width="16" height="16" viewBox="0 0 16 16" fill="none" xmlns="http://www.w3.org/2000/svg">
<path d="M13.48 15L12.5193 11.6374C12.4923 11.5426 12.4938 11.4419 12.5238 11.3481C12.5538 11.2542 12.6108 11.1712 12.6877 11.1097L14.937 9.31L14.26 6.6007L12.8909 8.3124C12.844 8.37094 12.7844 8.41818 12.7168 8.45065C12.6491 8.48312 12.5751 8.49998 12.5 8.5H10V7.5H12.26L14.1097 5.1876C14.1679 5.11486 14.2453 5.05983 14.3331 5.02872C14.4209 4.99761 14.5157 4.99166 14.6067 5.01154C14.6977 5.03142 14.7814 5.07634 14.8483 5.14124C14.9151 5.20613 14.9625 5.28841 14.9851 5.3788L15.9851 9.3788C16.0084 9.47163 16.0046 9.56919 15.974 9.65989C15.9435 9.75059 15.8875 9.8306 15.8128 9.8904L13.5728 11.6827L14.4422 14.7254L13.48 15Z" fill="#161616"/>
<path d="M11.5 2.75C11.5 2.40388 11.6026 2.06554 11.7949 1.77775C11.9872 1.48997 12.2605 1.26566 12.5803 1.13321C12.9001 1.00076 13.252 0.966102 13.5914 1.03363C13.9309 1.10115 14.2427 1.26782 14.4874 1.51256C14.7322 1.75731 14.8989 2.06913 14.9664 2.40859C15.0339 2.74806 14.9993 3.09993 14.8668 3.4197C14.7343 3.73947 14.51 4.01278 14.2223 4.20507C13.9345 4.39737 13.5961 4.5 13.25 4.5C12.7861 4.49944 12.3413 4.31489 12.0132 3.98682C11.6851 3.65876 11.5006 3.21396 11.5 2.75ZM12.5 2.75C12.5 2.89834 12.544 3.04334 12.6264 3.16668C12.7088 3.29002 12.826 3.38614 12.963 3.44291C13.1 3.49968 13.2508 3.51453 13.3963 3.48559C13.5418 3.45665 13.6755 3.38522 13.7803 3.28033C13.8852 3.17544 13.9567 3.0418 13.9856 2.89632C14.0145 2.75083 13.9997 2.60003 13.9429 2.46299C13.8862 2.32594 13.79 2.20881 13.6667 2.1264C13.5434 2.04399 13.3983 2 13.25 2C13.0512 2.00023 12.8605 2.07932 12.7199 2.21992C12.5793 2.36052 12.5002 2.55116 12.5 2.75Z" fill="#161616"/>
<path d="M10.002 9.5C9.87038 9.5 9.74009 9.47408 9.61853 9.42373C9.49697 9.37338 9.38652 9.29958 9.29348 9.20654C9.20044 9.1135 9.12663 9.00304 9.07628 8.88148C9.02593 8.75992 9.00001 8.62963 9.00001 8.49805V7.50195C9.00001 7.37037 9.02593 7.24008 9.07628 7.11852C9.12663 6.99696 9.20044 6.8865 9.29348 6.79347C9.38652 6.70043 9.49697 6.62662 9.61853 6.57627C9.74009 6.52592 9.87038 6.5 10.002 6.5H11V5H5.00001V6.5H5.99806C6.2638 6.5 6.51865 6.60556 6.70655 6.79347C6.89445 6.98137 7.00001 7.23622 7.00001 7.50195V8.49805C7.00001 8.62963 6.9741 8.75992 6.92374 8.88148C6.87339 9.00304 6.79959 9.1135 6.70655 9.20654C6.61351 9.29958 6.50305 9.37338 6.38149 9.42373C6.25993 9.47408 6.12964 9.5 5.99806 9.5H5.00001V11H11V9.5H10.002Z" fill="#161616"/>
<path d="M2.52001 15L3.48076 11.6374C3.50774 11.5426 3.50615 11.4419 3.47618 11.3481C3.44622 11.2542 3.38921 11.1712 3.31231 11.1096L1.06301 9.31L1.74026 6.60075L3.10936 8.31245C3.1563 8.37094 3.21576 8.41816 3.28337 8.45062C3.35098 8.48308 3.42501 8.49995 3.50001 8.5H6.00001V7.5H3.74026L1.89061 5.1876C1.83239 5.11486 1.755 5.05983 1.66718 5.02872C1.57935 4.99761 1.48458 4.99166 1.39356 5.01154C1.30253 5.03142 1.21887 5.07634 1.15201 5.14124C1.08515 5.20613 1.03775 5.28841 1.01516 5.3788L0.0151613 9.3788C-0.00814816 9.47163 -0.00429615 9.56919 0.0262589 9.65989C0.0568139 9.75059 0.112785 9.8306 0.187511 9.8904L2.42776 11.6826L1.55826 14.7254L2.52001 15Z" fill="#161616"/>
<path d="M2.75001 4.5C2.40389 4.5 2.06555 4.39737 1.77776 4.20507C1.48998 4.01278 1.26568 3.73947 1.13322 3.4197C1.00077 3.09993 0.966113 2.74806 1.03364 2.40859C1.10116 2.06913 1.26783 1.75731 1.51257 1.51256C1.75732 1.26782 2.06914 1.10115 2.4086 1.03363C2.74807 0.966102 3.09994 1.00076 3.41971 1.13321C3.73948 1.26566 4.01279 1.48997 4.20508 1.77775C4.39738 2.06554 4.50001 2.40388 4.50001 2.75C4.49946 3.21396 4.3149 3.65876 3.98683 3.98682C3.65877 4.31489 3.21397 4.49944 2.75001 4.5ZM2.75001 2C2.60168 2 2.45667 2.04399 2.33333 2.1264C2.21 2.20881 2.11387 2.32594 2.0571 2.46299C2.00034 2.60003 1.98548 2.75083 2.01442 2.89632C2.04336 3.0418 2.11479 3.17544 2.21968 3.28033C2.32457 3.38522 2.45821 3.45665 2.60369 3.48559C2.74918 3.51453 2.89998 3.49968 3.03702 3.44291C3.17407 3.38614 3.2912 3.29002 3.37361 3.16668C3.45602 3.04334 3.50001 2.89834 3.50001 2.75C3.49979 2.55116 3.4207 2.36052 3.28009 2.21992C3.13949 2.07932 2.94885 2.00023 2.75001 2Z" fill="#161616"/>
</svg>
