<svg width="16" height="16" viewBox="0 0 16 16" fill="none" xmlns="http://www.w3.org/2000/svg">
<path d="M7.99999 12C8.4142 12 8.74999 11.6642 8.74999 11.25C8.74999 10.8358 8.4142 10.5 7.99999 10.5C7.58577 10.5 7.24999 10.8358 7.24999 11.25C7.24999 11.6642 7.58577 12 7.99999 12Z" fill="#161616"/>
<path d="M8.49999 9.49998H7.49999V7.49998H8.49999C8.7652 7.49998 9.01956 7.39462 9.20709 7.20709C9.39463 7.01955 9.49999 6.7652 9.49999 6.49998C9.49999 6.23476 9.39463 5.98041 9.20709 5.79287C9.01956 5.60534 8.7652 5.49998 8.49999 5.49998H7.49999C7.23486 5.50028 6.98069 5.60574 6.79322 5.79321C6.60575 5.98068 6.50029 6.23486 6.49999 6.49998V6.74998H5.49999V6.49998C5.50058 5.96973 5.71149 5.46137 6.08643 5.08642C6.46138 4.71148 6.96974 4.50058 7.49999 4.49998H8.49999C9.03042 4.49998 9.53913 4.71069 9.9142 5.08577C10.2893 5.46084 10.5 5.96955 10.5 6.49998C10.5 7.03041 10.2893 7.53912 9.9142 7.91419C9.53913 8.28927 9.03042 8.49998 8.49999 8.49998V9.49998Z" fill="#161616"/>
<path d="M7.99999 15C7.86319 15.0002 7.72769 14.9734 7.60128 14.9211C7.47487 14.8689 7.36004 14.7921 7.26339 14.6953L1.30469 8.73658C1.10958 8.54109 1.00001 8.27617 1.00001 7.99998C1.00001 7.72379 1.10958 7.45887 1.30469 7.26338L7.26339 1.30468C7.45888 1.10958 7.72379 1 7.99999 1C8.27618 1 8.54109 1.10958 8.73659 1.30468L14.6953 7.26338C14.8904 7.45887 15 7.72379 15 7.99998C15 8.27617 14.8904 8.54109 14.6953 8.73658L8.73659 14.6953C8.63994 14.7921 8.52511 14.8689 8.3987 14.9211C8.27229 14.9734 8.13679 15.0002 7.99999 15ZM7.99999 1.99958C7.98891 1.9996 7.9783 2.00398 7.97044 2.01178L2.01179 7.97043C2.00398 7.97828 1.99959 7.9889 1.99959 7.99998C1.99959 8.01105 2.00398 8.02168 2.01179 8.02953L7.97044 13.9882C7.97831 13.9959 7.98893 14.0003 7.99999 14.0003C8.01105 14.0003 8.02166 13.9959 8.02954 13.9882L13.9882 8.02953C13.996 8.02168 14.0004 8.01105 14.0004 7.99998C14.0004 7.9889 13.996 7.97828 13.9882 7.97043L8.02954 2.01178C8.02168 2.00398 8.01106 1.9996 7.99999 1.99958Z" fill="#161616"/>
</svg>
