<svg width="16" height="16" viewBox="0 0 16 16" fill="none" xmlns="http://www.w3.org/2000/svg">
<path d="M14.7081 7.29531L8.70499 1.29211C8.51805 1.10523 8.26454 1.00024 8.00021 1.00024C7.73588 1.00024 7.48238 1.10523 7.29544 1.29211L1.29184 7.29531C1.10496 7.48227 0.999985 7.73579 0.999985 8.00014C0.999985 8.26448 1.10496 8.518 1.29184 8.70496L7.29529 14.7082C7.48223 14.895 7.73573 15 8.00006 15C8.26439 15 8.5179 14.895 8.70484 14.7082L14.7081 8.70501C14.895 8.51805 15 8.26451 15 8.00016C15 7.73581 14.895 7.48227 14.7081 7.29531ZM7.99999 12C7.85165 12 7.70665 11.956 7.58331 11.8736C7.45997 11.7912 7.36384 11.6741 7.30708 11.537C7.25031 11.4 7.23546 11.2492 7.2644 11.1037C7.29334 10.9582 7.36477 10.8246 7.46966 10.7197C7.57455 10.6148 7.70819 10.5434 7.85367 10.5144C7.99916 10.4855 8.14996 10.5003 8.287 10.5571C8.42405 10.6139 8.54118 10.71 8.62359 10.8333C8.706 10.9567 8.74999 11.1017 8.74999 11.25C8.74999 11.4489 8.67097 11.6397 8.53032 11.7803C8.38967 11.921 8.1989 12 7.99999 12ZM8.56249 8.62406V9.56251H7.43749V7.50001H8.49999C8.74863 7.50001 8.98709 7.40124 9.1629 7.22542C9.33872 7.04961 9.43749 6.81115 9.43749 6.56251C9.43749 6.31387 9.33872 6.07541 9.1629 5.8996C8.98709 5.72378 8.74863 5.62501 8.49999 5.62501H7.49999C7.25143 5.62529 7.01314 5.72415 6.83738 5.8999C6.66163 6.07566 6.56277 6.31396 6.56249 6.56251V6.81251H5.43749V6.56251C5.43815 6.0157 5.65566 5.49148 6.04231 5.10483C6.42896 4.71818 6.95318 4.50067 7.49999 4.50001H8.49999C9.04157 4.50003 9.56141 4.71308 9.94724 5.09313C10.3331 5.47318 10.554 5.98974 10.5622 6.53126C10.5704 7.07277 10.3652 7.59579 9.99111 7.98736C9.61696 8.37893 9.10382 8.60763 8.56249 8.62406Z" fill="#161616"/>
</svg>
