<svg width="16" height="16" viewBox="0 0 16 16" fill="none" xmlns="http://www.w3.org/2000/svg">
<path d="M10.5 12H5.50002C5.2348 12 4.98045 12.1054 4.79291 12.2929C4.60537 12.4804 4.50002 12.7348 4.50002 13V14C4.50002 14.2652 4.60537 14.5196 4.79291 14.7071C4.98045 14.8947 5.2348 15 5.50002 15H10.5C10.7652 15 11.0196 14.8947 11.2071 14.7071C11.3947 14.5196 11.5 14.2652 11.5 14V13C11.5 12.7348 11.3947 12.4804 11.2071 12.2929C11.0196 12.1054 10.7652 12 10.5 12ZM10.5 14H5.50002V13H10.5V14Z" fill="#161616"/>
<path d="M14.3535 7.14652L8.35352 1.14652C8.30711 1.10007 8.252 1.06322 8.19135 1.03808C8.13069 1.01294 8.06568 1 8.00002 1C7.93436 1 7.86934 1.01294 7.80869 1.03808C7.74803 1.06322 7.69292 1.10007 7.64652 1.14652L1.64652 7.14652C1.57661 7.21644 1.52901 7.30553 1.50972 7.4025C1.49044 7.49948 1.50034 7.59999 1.53818 7.69134C1.57601 7.78269 1.64008 7.86078 1.72229 7.91572C1.80449 7.97066 1.90114 8 2.00002 8.00002H4.50002V10C4.50032 10.2651 4.60577 10.5193 4.79325 10.7068C4.98072 10.8943 5.23489 10.9997 5.50002 11H10.5C10.7651 10.9997 11.0193 10.8942 11.2067 10.7067C11.3942 10.5193 11.4997 10.2651 11.5 10V8.00002H14C14.0989 8 14.1955 7.97066 14.2777 7.91572C14.3599 7.86078 14.424 7.78269 14.4619 7.69134C14.4997 7.59999 14.5096 7.49948 14.4903 7.4025C14.471 7.30553 14.4234 7.21644 14.3535 7.14652ZM10.5 7.00002V10H5.50002V7.00002H3.20707L8.00002 2.20707L12.793 7.00002H10.5Z" fill="#161616"/>
</svg>
