<svg width="17" height="16" viewBox="0 0 17 16" fill="none" xmlns="http://www.w3.org/2000/svg">
<path d="M8 15.0001H7V12.5001C6.99956 12.1024 6.84139 11.7211 6.56018 11.4399C6.27897 11.1587 5.89769 11.0005 5.5 11.0001H3.5C3.10231 11.0005 2.72103 11.1587 2.43982 11.4399C2.15861 11.7211 2.00044 12.1024 2 12.5001V15.0001H1V12.5001C1.00078 11.8373 1.26442 11.2018 1.7331 10.7332C2.20177 10.2645 2.8372 10.0009 3.5 10.0001H5.5C6.1628 10.0009 6.79823 10.2645 7.2669 10.7332C7.73558 11.2018 7.99922 11.8373 8 12.5001V15.0001Z" fill="#161616"/>
<path d="M4.5 5.00007C4.79667 5.00007 5.08668 5.08805 5.33336 5.25287C5.58003 5.41769 5.77229 5.65196 5.88582 5.92605C5.99935 6.20014 6.02906 6.50174 5.97118 6.79271C5.9133 7.08368 5.77044 7.35096 5.56066 7.56074C5.35088 7.77051 5.08361 7.91337 4.79264 7.97125C4.50166 8.02913 4.20006 7.99943 3.92597 7.88589C3.65189 7.77236 3.41762 7.5801 3.2528 7.33343C3.08797 7.08676 3 6.79675 3 6.50007C3 6.10225 3.15804 5.72072 3.43934 5.43941C3.72064 5.15811 4.10218 5.00007 4.5 5.00007ZM4.5 4.00007C4.00555 4.00007 3.5222 4.1467 3.11107 4.4214C2.69995 4.6961 2.37952 5.08655 2.1903 5.54337C2.00108 6.00018 1.95157 6.50285 2.04804 6.9878C2.1445 7.47275 2.3826 7.91821 2.73223 8.26784C3.08186 8.61747 3.52732 8.85558 4.01227 8.95204C4.49723 9.0485 4.99989 8.99899 5.45671 8.80977C5.91352 8.62055 6.30397 8.30012 6.57867 7.889C6.85338 7.47788 7 6.99453 7 6.50007C7 6.17177 6.93534 5.84668 6.8097 5.54337C6.68406 5.24005 6.49991 4.96445 6.26777 4.73231C6.03562 4.50016 5.76002 4.31601 5.45671 4.19038C5.15339 4.06474 4.8283 4.00007 4.5 4.00007Z" fill="#161616"/>
<path d="M15 6.00007C14.9135 6.00128 14.8275 6.01375 14.7442 6.03717L14.2165 5.50957C14.4019 5.20548 14.5 4.85622 14.5 4.50007C14.5 4.14393 14.4019 3.79467 14.2165 3.49057L14.7442 2.96297C14.9606 3.02322 15.191 3.01008 15.3992 2.92559C15.6074 2.8411 15.7818 2.69003 15.8951 2.49598C16.0083 2.30192 16.0542 2.0758 16.0254 1.85295C15.9966 1.6301 15.8948 1.42306 15.7359 1.26417C15.577 1.10528 15.37 1.00349 15.1471 0.974693C14.9243 0.9459 14.6982 0.991728 14.5041 1.10502C14.31 1.21831 14.159 1.39268 14.0745 1.60089C13.99 1.80911 13.9769 2.03945 14.0371 2.25592L13.5095 2.78352C13.2054 2.59814 12.8561 2.50008 12.5 2.50008C12.1439 2.50008 11.7946 2.59814 11.4905 2.78352L10.9629 2.25592C11.0231 2.03945 11.01 1.80911 10.9255 1.60089C10.841 1.39268 10.69 1.21831 10.4959 1.10502C10.3018 0.991728 10.0757 0.9459 9.85288 0.974693C9.63002 1.00349 9.42298 1.10528 9.26409 1.26417C9.1052 1.42306 9.00341 1.6301 8.97462 1.85295C8.94583 2.0758 8.99165 2.30192 9.10494 2.49598C9.21823 2.69003 9.3926 2.8411 9.60082 2.92559C9.80904 3.01008 10.0394 3.02322 10.2558 2.96297L10.7835 3.49057C10.5981 3.79467 10.5 4.14393 10.5 4.50007C10.5 4.85622 10.5981 5.20548 10.7835 5.50957L10.2558 6.03717C10.0394 5.97693 9.80904 5.99007 9.60082 6.07456C9.3926 6.15905 9.21823 6.31012 9.10494 6.50417C8.99165 6.69823 8.94583 6.92435 8.97462 7.1472C9.00341 7.37005 9.1052 7.57709 9.26409 7.73598C9.42298 7.89487 9.63002 7.99666 9.85288 8.02546C10.0757 8.05425 10.3018 8.00842 10.4959 7.89513C10.69 7.78184 10.841 7.60747 10.9255 7.39926C11.01 7.19104 11.0231 6.9607 10.9629 6.74423L11.4905 6.21662C11.7946 6.402 12.1439 6.50007 12.5 6.50007C12.8561 6.50007 13.2054 6.402 13.5095 6.21662L14.0371 6.74423C13.9841 6.94576 13.9956 7.15883 14.0698 7.35353C14.1441 7.54823 14.2774 7.7148 14.4512 7.82987C14.6249 7.94493 14.8303 8.00271 15.0386 7.99511C15.2468 7.9875 15.4475 7.9149 15.6123 7.78747C15.7772 7.66004 15.8981 7.48419 15.9579 7.28459C16.0178 7.08499 16.0137 6.87166 15.9462 6.67452C15.8786 6.47739 15.7511 6.30634 15.5814 6.18538C15.4117 6.06442 15.2084 5.99962 15 6.00007ZM11.5 4.50007C11.5 4.30229 11.5586 4.10895 11.6685 3.9445C11.7784 3.78006 11.9346 3.65188 12.1173 3.5762C12.3 3.50051 12.5011 3.4807 12.6951 3.51929C12.8891 3.55787 13.0673 3.65312 13.2071 3.79297C13.347 3.93282 13.4422 4.111 13.4808 4.30498C13.5194 4.49897 13.4996 4.70003 13.4239 4.88276C13.3482 5.06548 13.22 5.22166 13.0556 5.33154C12.8911 5.44143 12.6978 5.50007 12.5 5.50007C12.2349 5.49974 11.9807 5.39428 11.7933 5.20682C11.6058 5.01935 11.5003 4.76519 11.5 4.50007Z" fill="#161616"/>
</svg>
