<svg width="16" height="16" viewBox="0 0 16 16" fill="none" xmlns="http://www.w3.org/2000/svg">
<path d="M15.47 7.83C14.8988 6.33541 13.9029 5.04056 12.605 4.105L15 1.705L14.295 1L0.99997 14.295L1.70497 15L4.25497 12.455C5.39318 13.1184 6.68273 13.4782 7.99997 13.5C9.62971 13.4387 11.2058 12.9012 12.5334 11.954C13.861 11.0067 14.8819 9.69118 15.47 8.17C15.5097 8.06015 15.5097 7.93985 15.47 7.83ZM7.99997 11.25C7.31077 11.2497 6.63974 11.0289 6.08497 10.62L6.99997 9.715C7.37937 9.92288 7.81594 10.0021 8.2442 9.94087C8.67245 9.87961 9.0693 9.68114 9.37521 9.37524C9.68111 9.06933 9.87958 8.67248 9.94084 8.24423C10.0021 7.81597 9.92285 7.3794 9.71497 7L10.62 6.095C10.9722 6.5788 11.1838 7.15058 11.2314 7.74713C11.2789 8.34368 11.1606 8.94176 10.8894 9.47526C10.6183 10.0088 10.2049 10.4569 9.69497 10.7701C9.18503 11.0833 8.59841 11.2494 7.99997 11.25Z" fill="#161616"/>
<path d="M2.26497 10.905L4.76497 8.405C4.75197 8.27041 4.74696 8.13518 4.74997 8C4.75129 7.13845 5.09413 6.31257 5.70333 5.70336C6.31254 5.09416 7.13842 4.75132 7.99997 4.75C8.13201 4.7507 8.2639 4.75905 8.39497 4.775L10.285 2.89C9.54939 2.63735 8.77771 2.50564 7.99997 2.5C6.37023 2.56129 4.79416 3.09878 3.46657 4.04604C2.13898 4.99331 1.11805 6.30882 0.52997 7.83C0.490254 7.93985 0.490254 8.06015 0.52997 8.17C0.913983 9.19132 1.50463 10.1224 2.26497 10.905Z" fill="#161616"/>
</svg>
