<svg width="16" height="16" viewBox="0 0 16 16" fill="none" xmlns="http://www.w3.org/2000/svg">
<path d="M10.5 8.00002H5.49998C5.23486 8.00032 4.98068 8.10578 4.79321 8.29325C4.60574 8.48072 4.50029 8.73489 4.49998 9.00002V12C4.50029 12.2651 4.60574 12.5193 4.79321 12.7068C4.98068 12.8943 5.23486 12.9997 5.49998 13H7.49998V14H5.99998V15H9.99998V14H8.49998V13H10.5C10.7651 12.9997 11.0193 12.8943 11.2068 12.7068C11.3942 12.5193 11.4997 12.2651 11.5 12V9.00002C11.4997 8.73489 11.3942 8.48072 11.2068 8.29325C11.0193 8.10578 10.7651 8.00032 10.5 8.00002ZM5.49998 12V9.00002H10.5L10.5007 12H5.49998Z" fill="#161616"/>
<path d="M12.9109 5.06202C12.6927 3.91936 12.0829 2.88854 11.1866 2.1471C10.2902 1.40565 9.16328 1 7.99998 1C6.83669 1 5.7098 1.40565 4.81341 2.1471C3.91702 2.88854 3.30724 3.91936 3.08908 5.06202C2.18811 5.22247 1.37705 5.70722 0.809018 6.42474C0.240985 7.14226 -0.0447171 8.0429 0.00584785 8.95666C0.0564128 9.87041 0.439746 10.734 1.08348 11.3845C1.72721 12.035 2.58681 12.4273 3.49998 12.4873V11.4873C2.81167 11.4251 2.1721 11.1057 1.70879 10.5929C1.24548 10.0801 0.992488 9.41145 1.00025 8.72038C1.00801 8.0293 1.27595 7.36654 1.75066 6.86424C2.22536 6.36194 2.87195 6.05702 3.56148 6.01027L3.97973 5.98197L4.02473 5.56497C4.13164 4.58531 4.59652 3.67962 5.33018 3.02167C6.06384 2.36371 7.01461 1.99983 8.00008 1.99983C8.98556 1.99983 9.93633 2.36371 10.67 3.02167C11.4036 3.67962 11.8685 4.58531 11.9754 5.56497L12.0204 5.98197L12.4387 6.01027C13.1282 6.05705 13.7748 6.362 14.2495 6.86431C14.7242 7.36663 14.9921 8.0294 14.9998 8.72047C15.0075 9.41154 14.7545 10.0801 14.2912 10.593C13.8279 11.1058 13.1883 11.4251 12.5 11.4873V12.4873C13.4132 12.4273 14.2728 12.035 14.9165 11.3845C15.5602 10.734 15.9436 9.87041 15.9941 8.95666C16.0447 8.0429 15.759 7.14226 15.1909 6.42474C14.6229 5.70722 13.8119 5.22247 12.9109 5.06202Z" fill="#161616"/>
</svg>
