<svg width="16" height="16" viewBox="0 0 16 16" fill="none" xmlns="http://www.w3.org/2000/svg">
<path d="M11.5 6.99999C12.0523 6.99999 12.5 6.55227 12.5 5.99999C12.5 5.4477 12.0523 4.99999 11.5 4.99999C10.9477 4.99999 10.5 5.4477 10.5 5.99999C10.5 6.55227 10.9477 6.99999 11.5 6.99999Z" fill="#161616"/>
<path d="M14 2.49999H8.11999C7.75334 2.03896 7.2894 1.6646 6.76131 1.40365C6.23321 1.14271 5.654 1.00162 5.06506 0.990463C4.47612 0.979309 3.89199 1.09837 3.35439 1.33913C2.8168 1.57989 2.33901 1.93641 1.95517 2.38323C1.57133 2.83004 1.29091 3.35612 1.13395 3.92386C0.976983 4.49161 0.94735 5.08702 1.04716 5.66755C1.14698 6.24808 1.37378 6.79939 1.71135 7.28211C2.04893 7.76483 2.48896 8.16703 2.99999 8.45999V13.5C2.99999 13.7652 3.10535 14.0196 3.29288 14.2071C3.48042 14.3946 3.73477 14.5 3.99999 14.5H14C14.2652 14.5 14.5196 14.3946 14.7071 14.2071C14.8946 14.0196 15 13.7652 15 13.5V3.49999C15 3.23477 14.8946 2.98042 14.7071 2.79288C14.5196 2.60534 14.2652 2.49999 14 2.49999ZM1.99999 4.99999C2.00116 4.34056 2.21956 3.6999 2.62142 3.17707C3.02327 2.65424 3.5862 2.27838 4.22313 2.10762C4.86006 1.93686 5.53551 1.98072 6.14501 2.2324C6.75451 2.48409 7.26411 2.92958 7.59499 3.49999H3.99999V4.49999H7.95499C7.98259 4.66528 7.99763 4.83242 7.99999 4.99999C7.99763 5.16755 7.98259 5.33469 7.95499 5.49999H4.99999V6.49999H7.59499C7.26411 7.07039 6.75451 7.51588 6.14501 7.76757C5.53551 8.01925 4.86006 8.06311 4.22313 7.89235C3.5862 7.72159 3.02327 7.34573 2.62142 6.8229C2.21956 6.30008 2.00116 5.65941 1.99999 4.99999ZM14 13.5H3.99999L6.49999 11L7.29499 11.795C7.48235 11.9812 7.7358 12.0858 7.99999 12.0858C8.26418 12.0858 8.51763 11.9812 8.70499 11.795L11.5 8.99999L14 11.5V13.5ZM14 10.085L12.205 8.28999C12.0176 8.10373 11.7642 7.99919 11.5 7.99919C11.2358 7.99919 10.9824 8.10373 10.795 8.28999L7.99999 11.085L7.20499 10.29C7.01763 10.1037 6.76418 9.99919 6.49999 9.99919C6.2358 9.99919 5.98235 10.1037 5.79499 10.29L3.99999 12.085V8.86999C4.32674 8.9541 4.66259 8.99776 4.99999 8.99999C6.06086 8.99999 7.07827 8.57856 7.82842 7.82841C8.57856 7.07827 8.99999 6.06085 8.99999 4.99999C9.00027 4.48555 8.90006 3.97601 8.70499 3.49999H14V10.085Z" fill="#161616"/>
</svg>
