<svg width="16" height="16" viewBox="0 0 16 16" fill="none" xmlns="http://www.w3.org/2000/svg">
<path d="M12 5C11.4214 5.00117 10.8554 5.16964 10.3704 5.48511C9.88534 5.80058 9.50187 6.24958 9.26619 6.77802C9.0305 7.30646 8.95266 7.89178 9.04205 8.46344C9.13144 9.03511 9.38423 9.56873 9.76997 10H6.22997C6.68808 9.48782 6.95647 8.8339 6.99027 8.14757C7.02407 7.46124 6.82123 6.78411 6.41567 6.2294C6.0101 5.67469 5.4264 5.27601 4.76215 5.10004C4.09791 4.92407 3.39338 4.98147 2.76638 5.26264C2.13938 5.5438 1.6279 6.0317 1.31747 6.64474C1.00705 7.25779 0.916484 7.95882 1.06093 8.63063C1.20537 9.30243 1.57607 9.90429 2.11104 10.3356C2.64601 10.7668 3.31282 11.0014 3.99997 11H12C12.7956 11 13.5587 10.6839 14.1213 10.1213C14.6839 9.55871 15 8.79565 15 8C15 7.20435 14.6839 6.44129 14.1213 5.87868C13.5587 5.31607 12.7956 5 12 5ZM1.99997 8C1.99997 7.60444 2.11727 7.21776 2.33703 6.88886C2.5568 6.55996 2.86915 6.30362 3.23461 6.15224C3.60006 6.00087 4.00219 5.96126 4.39015 6.03843C4.77812 6.1156 5.13448 6.30608 5.41419 6.58579C5.69389 6.86549 5.88437 7.22186 5.96154 7.60982C6.03871 7.99778 5.99911 8.39991 5.84773 8.76537C5.69636 9.13082 5.44001 9.44318 5.11111 9.66294C4.78222 9.8827 4.39554 10 3.99997 10C3.46954 10 2.96083 9.78929 2.58576 9.41421C2.21069 9.03914 1.99997 8.53043 1.99997 8ZM12 10C11.6044 10 11.2177 9.8827 10.8888 9.66294C10.5599 9.44318 10.3036 9.13082 10.1522 8.76537C10.0008 8.39991 9.96123 7.99778 10.0384 7.60982C10.1156 7.22186 10.3061 6.86549 10.5858 6.58579C10.8655 6.30608 11.2218 6.1156 11.6098 6.03843C11.9978 5.96126 12.3999 6.00087 12.7653 6.15224C13.1308 6.30362 13.4432 6.55996 13.6629 6.88886C13.8827 7.21776 14 7.60444 14 8C14 8.53043 13.7893 9.03914 13.4142 9.41421C13.0391 9.78929 12.5304 10 12 10Z" fill="#161616"/>
</svg>
