<svg width="16" height="16" viewBox="0 0 16 16" fill="none" xmlns="http://www.w3.org/2000/svg">
<path d="M13 15H12V13.5H9.99999C9.33717 13.4993 8.70171 13.2356 8.23303 12.767C7.76434 12.2983 7.50072 11.6628 7.49999 11V10.3603L6.34189 9.97435C6.27087 9.95067 6.20607 9.91134 6.15228 9.85927C6.09849 9.80719 6.05708 9.7437 6.0311 9.67349C6.00513 9.60327 5.99526 9.52812 6.00221 9.45357C6.00917 9.37903 6.03277 9.307 6.07129 9.2428L7.49999 6.86145V5.5C7.50131 4.30693 7.97584 3.16311 8.81947 2.31948C9.6631 1.47585 10.8069 1.00132 12 1H14.5V2H12C11.072 2.00103 10.1824 2.37011 9.52625 3.02627C8.8701 3.68242 8.50102 4.57206 8.49999 5.5V7C8.49999 7.09061 8.47534 7.17952 8.42869 7.2572L7.24939 9.2228L8.15809 9.52565C8.25765 9.55883 8.34424 9.6225 8.40561 9.70764C8.46697 9.79277 8.49999 9.89506 8.49999 10V11C8.50043 11.3977 8.6586 11.779 8.93981 12.0602C9.22102 12.3414 9.6023 12.4996 9.99999 12.5H12.5C12.6326 12.5 12.7598 12.5527 12.8535 12.6464C12.9473 12.7402 13 12.8674 13 13V15Z" fill="#161616"/>
<path d="M11.5 6H9.49999V7H11.5V6Z" fill="#161616"/>
<path d="M4.66624 12.6084C4.29932 12.2801 4.00579 11.878 3.80483 11.4286C3.60387 10.9791 3.49999 10.4922 3.49999 9.99988C3.49999 9.50751 3.60387 9.02068 3.80483 8.57119C4.00579 8.12171 4.29932 7.71967 4.66624 7.39135L5.33324 8.13635C5.07105 8.37084 4.86131 8.65803 4.7177 8.97913C4.57409 9.30023 4.49987 9.64802 4.49987 9.99977C4.49987 10.3515 4.57409 10.6993 4.7177 11.0204C4.86131 11.3415 5.07105 11.6287 5.33324 11.8632L4.66624 12.6084Z" fill="#161616"/>
<path d="M3.19969 14.4004C2.51672 13.888 1.96242 13.2236 1.58065 12.4599C1.19887 11.6962 1.00012 10.8541 1.00012 10.0002C1.00012 9.14643 1.19887 8.30432 1.58065 7.54061C1.96242 6.77689 2.51672 6.11252 3.19969 5.6001L3.79999 6.4C3.24105 6.8192 2.7874 7.36279 2.47494 7.9877C2.16249 8.61261 1.99982 9.30168 1.99982 10.0003C1.99982 10.699 2.16249 11.3881 2.47494 12.013C2.7874 12.6379 3.24105 13.1815 3.79999 13.6007L3.19969 14.4004Z" fill="#161616"/>
</svg>
