<svg width="16" height="16" viewBox="0 0 16 16" fill="none" xmlns="http://www.w3.org/2000/svg">
<path d="M15.5 6.20497L14.795 5.49997L13 7.29498L11.205 5.49997L10.5 6.20497L12.295 7.99998L10.5 9.79498L11.205 10.5L13 8.70498L14.795 10.5L15.5 9.79498L13.705 7.99998L15.5 6.20497Z" fill="#161616"/>
<path d="M9 15C8.93385 14.9997 8.86841 14.9863 8.80747 14.9606C8.74653 14.9348 8.69131 14.8972 8.645 14.85L4.835 11H1.5C1.36739 11 1.24021 10.9473 1.14645 10.8535C1.05268 10.7598 1 10.6326 1 10.5V5.49997C1 5.36737 1.05268 5.24019 1.14645 5.14642C1.24021 5.05265 1.36739 4.99997 1.5 4.99997H4.835L8.645 1.14997C8.73868 1.05685 8.86541 1.00458 8.9975 1.00458C9.12959 1.00458 9.25632 1.05685 9.35 1.14997C9.44421 1.24229 9.49812 1.36809 9.5 1.49997V14.5C9.5 14.6326 9.44732 14.7598 9.35355 14.8535C9.25979 14.9473 9.13261 15 9 15Z" fill="#161616"/>
</svg>
