<svg width="16" height="16" viewBox="0 0 16 16" fill="none" xmlns="http://www.w3.org/2000/svg">
<path fill-rule="evenodd" clip-rule="evenodd" d="M14.9275 1.2405C14.972 1.31394 14.9968 1.39758 14.9996 1.48339C15.0025 1.56921 14.9832 1.6543 14.9436 1.7305L8.44359 14.2305C8.40137 14.3117 8.33768 14.3797 8.25947 14.4272C8.18125 14.4747 8.0915 14.4998 7.99999 14.4998C7.90849 14.4998 7.81874 14.4747 7.74052 14.4272C7.6623 14.3797 7.59861 14.3117 7.55639 14.2305L1.05639 1.7305C1.0168 1.65429 0.997509 1.56918 1.00037 1.48335C1.00323 1.39752 1.02815 1.31388 1.07272 1.24048C1.11729 1.16707 1.18002 1.10639 1.25486 1.06427C1.32969 1.02215 1.41412 1.00002 1.49999 1H14.5C14.5859 1.00001 14.6704 1.02215 14.7452 1.06427C14.8201 1.10639 14.8829 1.16708 14.9275 1.2405ZM7.44 3V7.5H8.56V3H7.44ZM8 10.0079C8.41371 10.0079 8.74908 9.67256 8.74908 9.25885C8.74908 8.84514 8.41371 8.50977 8 8.50977C7.58629 8.50977 7.25092 8.84514 7.25092 9.25885C7.25092 9.67256 7.58629 10.0079 8 10.0079Z" fill="#161616"/>
</svg>
