<svg width="16" height="16" viewBox="0 0 16 16" fill="none" xmlns="http://www.w3.org/2000/svg">
<path fill-rule="evenodd" clip-rule="evenodd" d="M1.5 15C1.4141 15 1.32965 14.9779 1.25478 14.9357C1.17992 14.8936 1.11718 14.8329 1.0726 14.7595C1.02802 14.686 1.00311 14.6024 1.00027 14.5165C0.997436 14.4307 1.01677 14.3455 1.0564 14.2693L7.5564 1.76931C7.59862 1.68812 7.66231 1.62008 7.74053 1.5726C7.81875 1.52511 7.9085 1.5 8 1.5C8.09151 1.5 8.18126 1.52511 8.25948 1.5726C8.3377 1.62008 8.40138 1.68812 8.4436 1.76931L14.9436 14.2693C14.9832 14.3455 15.0026 14.4307 14.9997 14.5165C14.9969 14.6024 14.972 14.686 14.9274 14.7595C14.8828 14.8329 14.8201 14.8936 14.7452 14.9357C14.6704 14.9779 14.5859 15 14.5 15H1.5ZM7.4375 6V10.5H8.5625V6H7.4375ZM8 13.0046C8.41462 13.0046 8.75073 12.6685 8.75073 12.2539C8.75073 11.8393 8.41462 11.5032 8 11.5032C7.58538 11.5032 7.24927 11.8393 7.24927 12.2539C7.24927 12.6685 7.58538 13.0046 8 13.0046Z" fill="#161616"/>
</svg>
