<svg width="16" height="16" viewBox="0 0 16 16" fill="none" xmlns="http://www.w3.org/2000/svg">
<path d="M7.99999 8.5C7.85166 8.5 7.70665 8.54399 7.58331 8.6264C7.45998 8.70881 7.36385 8.82594 7.30708 8.96299C7.25032 9.10003 7.23546 9.25083 7.2644 9.39632C7.29334 9.5418 7.36477 9.67544 7.46966 9.78033C7.57455 9.88522 7.70819 9.95665 7.85367 9.98559C7.99916 10.0145 8.14996 9.99967 8.287 9.94291C8.42405 9.88614 8.54118 9.79001 8.62359 9.66668C8.706 9.54334 8.74999 9.39834 8.74999 9.25C8.74999 9.05109 8.67097 8.86032 8.53032 8.71967C8.38967 8.57902 8.1989 8.5 7.99999 8.5Z" fill="#161616"/>
<path d="M8.49999 3H7.49999V7.5H8.49999V3Z" fill="#161616"/>
<path d="M14.9275 1.2405C14.972 1.31394 14.9968 1.39758 14.9996 1.48339C15.0025 1.56921 14.9832 1.6543 14.9436 1.7305L8.44359 14.2305C8.40137 14.3117 8.33768 14.3797 8.25947 14.4272C8.18125 14.4747 8.0915 14.4998 7.99999 14.4998C7.90849 14.4998 7.81874 14.4747 7.74052 14.4272C7.6623 14.3797 7.59861 14.3117 7.55639 14.2305L1.05639 1.7305C1.0168 1.65429 0.997509 1.56918 1.00037 1.48335C1.00323 1.39752 1.02815 1.31388 1.07272 1.24048C1.11729 1.16707 1.18002 1.10639 1.25486 1.06427C1.32969 1.02215 1.41412 1.00002 1.49999 1H14.5C14.5859 1.00001 14.6704 1.02215 14.7452 1.06427C14.8201 1.10639 14.8829 1.16708 14.9275 1.2405ZM2.32434 2.00165L7.99899 12.9143H8.00099L13.6756 2.00165L13.6746 2H2.32534L2.32434 2.00165Z" fill="#161616"/>
</svg>
