<svg width="16" height="16" viewBox="0 0 16 16" fill="none" xmlns="http://www.w3.org/2000/svg">
<path d="M12 12.9999C12.2752 13.001 12.5455 12.9263 12.7811 12.7841C13.0168 12.6419 13.2088 12.4375 13.336 12.1935C13.4633 11.9494 13.521 11.675 13.5027 11.4004C13.4844 11.1257 13.391 10.8614 13.2325 10.6363C13.074 10.4113 12.8567 10.2342 12.6043 10.1244C12.3519 10.0146 12.0741 9.97639 11.8014 10.0139C11.5287 10.0515 11.2717 10.1633 11.0583 10.3372C10.8449 10.5111 10.6836 10.7404 10.5918 10.9999H6.5V11.4999C6.5 11.9944 6.35337 12.4777 6.07867 12.8888C5.80397 13.2999 5.41352 13.6204 4.95671 13.8096C4.49989 13.9988 3.99722 14.0483 3.51227 13.9519C3.02732 13.8554 2.58186 13.6173 2.23223 13.2677C1.8826 12.918 1.6445 12.4726 1.54803 11.9876C1.45157 11.5027 1.50108 11 1.6903 10.5432C1.87952 10.0864 2.19995 9.69593 2.61107 9.42122C3.0222 9.14652 3.50554 8.9999 4 8.9999V7.9999C3.32912 7.99995 2.6724 8.1928 2.10802 8.5555C1.54365 8.9182 1.0954 9.43546 0.816656 10.0457C0.537914 10.6559 0.440423 11.3334 0.535791 11.9974C0.631159 12.6615 0.915369 13.2842 1.35458 13.7913C1.79378 14.2984 2.36948 14.6686 3.01312 14.8578C3.65676 15.047 4.34122 15.0473 4.98499 14.8585C5.62876 14.6698 6.20472 14.3 6.64429 13.7932C7.08386 13.2864 7.36851 12.6639 7.46435 11.9999H10.5918C10.6943 12.2917 10.8848 12.5446 11.137 12.7237C11.3892 12.9028 11.6907 12.9993 12 12.9999Z" fill="#161616"/>
<path d="M12 7.9999C11.5602 7.99994 11.1243 8.08259 10.715 8.24355L9.1322 5.4738C9.36791 5.20157 9.49957 4.85465 9.50383 4.49458C9.50809 4.13452 9.38466 3.78458 9.15545 3.50685C8.92624 3.22913 8.60607 3.04158 8.25173 2.97746C7.89739 2.91335 7.53179 2.97683 7.2198 3.15663C6.90781 3.33643 6.66959 3.62093 6.54741 3.95966C6.42523 4.2984 6.42699 4.66946 6.55236 5.00702C6.67774 5.34458 6.91864 5.62682 7.23232 5.80366C7.546 5.9805 7.91218 6.04051 8.2659 5.97305L10.3253 9.5773L10.7596 9.3285C11.1886 9.08348 11.6806 8.97104 12.1734 9.00537C12.6663 9.03971 13.1379 9.21927 13.5288 9.52141C13.9197 9.82354 14.2123 10.2347 14.3697 10.703C14.5271 11.1713 14.5422 11.6757 14.4132 12.1526C14.2842 12.6295 14.0168 13.0575 13.6448 13.3825C13.2727 13.7076 12.8127 13.9151 12.3228 13.979C11.8329 14.0428 11.3351 13.9601 10.8922 13.7413C10.4493 13.5224 10.0811 13.1773 9.83415 12.7494L8.9685 13.2504C9.27572 13.7825 9.71759 14.2243 10.2497 14.5315C10.7818 14.8387 11.3854 15.0004 11.9998 15.0004C12.6142 15.0004 13.2178 14.8387 13.7498 14.5315C14.2819 14.2243 14.7238 13.7824 15.031 13.2503C15.3382 12.7182 15.5 12.1147 15.5 11.5003C15.5 10.8859 15.3383 10.2823 15.0311 9.75017C14.7239 9.21806 14.2821 8.77619 13.75 8.46895C13.218 8.16172 12.6144 7.99995 12 7.9999Z" fill="#161616"/>
<path d="M4.266 10.0267C3.91436 9.96039 3.55059 10.0206 3.23912 10.1968C2.92766 10.373 2.68862 10.6538 2.56434 10.9893C2.44007 11.3249 2.4386 11.6936 2.56018 12.0302C2.68176 12.3668 2.91854 12.6494 3.22859 12.8281C3.53863 13.0068 3.90191 13.0699 4.25407 13.0064C4.60623 12.9429 4.92452 12.7567 5.15257 12.4809C5.38061 12.2052 5.50368 11.8576 5.49997 11.4998C5.49626 11.1419 5.36601 10.797 5.1323 10.526C5.87 9.2349 6.93 7.38025 6.945 7.3539L7.1938 6.9198L6.75995 6.6713C6.33027 6.4258 5.98311 6.05829 5.76245 5.61534C5.5418 5.17238 5.45757 4.6739 5.52043 4.18304C5.5833 3.69218 5.79043 3.23101 6.11559 2.85796C6.44076 2.48491 6.86932 2.21675 7.34701 2.08746C7.82469 1.95816 8.33 1.97355 8.79894 2.13166C9.26787 2.28977 9.67933 2.5835 9.9812 2.97565C10.2831 3.36779 10.4618 3.8407 10.4946 4.33448C10.5275 4.82825 10.4131 5.32069 10.1659 5.7494L11.0317 6.2504C11.3679 5.66828 11.5294 5.00165 11.4969 4.33019C11.4643 3.65873 11.2391 3.01085 10.8482 2.46398C10.4572 1.9171 9.91705 1.49437 9.29225 1.24631C8.66744 0.998242 7.98443 0.935338 7.32483 1.06511C6.66523 1.19489 6.05694 1.51185 5.57269 1.97812C5.08843 2.44439 4.74868 3.04025 4.59404 3.69446C4.4394 4.34868 4.47642 5.03359 4.70067 5.66733C4.92491 6.30107 5.32691 6.85684 5.8586 7.2682C5.6301 7.63955 5.30755 8.204 4.82175 9.0546L4.266 10.0267Z" fill="#161616"/>
</svg>
