<svg width="16" height="16" viewBox="0 0 16 16" fill="none" xmlns="http://www.w3.org/2000/svg">
<path d="M12 13C12.5523 13 13 12.5523 13 12C13 11.4478 12.5523 11 12 11C11.4477 11 11 11.4478 11 12C11 12.5523 11.4477 13 12 13Z" fill="#161616"/>
<path d="M12 15C11.4067 15 10.8266 14.8241 10.3333 14.4945C9.83994 14.1648 9.45542 13.6963 9.22836 13.1481C9.0013 12.5999 8.94189 11.9967 9.05764 11.4148C9.1734 10.8328 9.45912 10.2983 9.87868 9.87873C10.2982 9.45917 10.8328 9.17345 11.4147 9.05769C11.9967 8.94194 12.5999 9.00135 13.1481 9.22841C13.6962 9.45547 14.1648 9.83999 14.4944 10.3333C14.8241 10.8267 15 11.4067 15 12C14.9991 12.7954 14.6827 13.558 14.1203 14.1204C13.5579 14.6828 12.7954 14.9991 12 15ZM12 10C11.6044 10 11.2178 10.1173 10.8889 10.3371C10.56 10.5569 10.3036 10.8692 10.1522 11.2347C10.0009 11.6001 9.96126 12.0023 10.0384 12.3902C10.1156 12.7782 10.3061 13.1346 10.5858 13.4143C10.8655 13.694 11.2219 13.8844 11.6098 13.9616C11.9978 14.0388 12.3999 13.9992 12.7654 13.8478C13.1308 13.6964 13.4432 13.4401 13.6629 13.1112C13.8827 12.7823 14 12.3956 14 12C13.9994 11.4698 13.7885 10.9614 13.4136 10.5865C13.0386 10.2115 12.5303 10.0006 12 10Z" fill="#161616"/>
<path d="M8 14H4V2.00005H8V5.00005C8.00077 5.26503 8.10637 5.51894 8.29374 5.70631C8.48111 5.89368 8.73502 5.99928 9 6.00005H12V7.50005H13V5.00005C13.0018 4.93433 12.9893 4.86901 12.9634 4.80859C12.9375 4.74816 12.8988 4.69407 12.85 4.65005L9.35 1.15005C9.30599 1.10121 9.2519 1.06251 9.19147 1.03661C9.13104 1.01072 9.06572 0.998242 9 1.00005H4C3.73502 1.00081 3.48111 1.10642 3.29374 1.29379C3.10637 1.48116 3.00077 1.73507 3 2.00005V14C3.00077 14.265 3.10637 14.5189 3.29374 14.7063C3.48111 14.8937 3.73502 14.9993 4 15H8V14ZM9 2.20005L11.8 5.00005H9V2.20005Z" fill="#161616"/>
</svg>
