<svg width="16" height="16" viewBox="0 0 16 16" fill="none" xmlns="http://www.w3.org/2000/svg">
<path d="M9.99999 10H6.99999V8.50003C6.99999 8.23481 7.10535 7.98045 7.29288 7.79292C7.48042 7.60538 7.73477 7.50003 7.99999 7.50003C8.26521 7.50003 8.51956 7.60538 8.7071 7.79292C8.89463 7.98045 8.99999 8.23481 8.99999 8.50003H9.99999C9.99999 7.96959 9.78928 7.46089 9.4142 7.08581C9.03913 6.71074 8.53042 6.50003 7.99999 6.50003C7.46956 6.50003 6.96085 6.71074 6.58578 7.08581C6.2107 7.46089 5.99999 7.96959 5.99999 8.50003V10C5.73488 10.0004 5.48071 10.1058 5.29325 10.2933C5.10578 10.4807 5.00032 10.7349 4.99999 11V14C5.00032 14.2651 5.10578 14.5193 5.29325 14.7068C5.48071 14.8942 5.73488 14.9997 5.99999 15H9.99999C10.2651 14.9997 10.5193 14.8942 10.7067 14.7068C10.8942 14.5193 10.9997 14.2651 11 14V11C10.9997 10.7349 10.8942 10.4807 10.7067 10.2933C10.5193 10.1058 10.2651 10.0004 9.99999 10ZM9.99999 14H5.99999V11H9.99999V14Z" fill="#161616"/>
<path d="M7.99999 4.00003C7.40908 3.99965 6.82392 4.11603 6.27812 4.34249C5.73233 4.56895 5.23666 4.90102 4.81959 5.31963L5.52624 6.02638C5.85083 5.70103 6.2364 5.44291 6.66088 5.2668C7.08537 5.09068 7.54042 5.00003 7.99999 5.00003C8.45956 5.00003 8.91461 5.09068 9.3391 5.2668C9.76358 5.44291 10.1492 5.70103 10.4737 6.02638L11.1805 5.31963C10.7634 4.90103 10.2677 4.56896 9.7219 4.3425C9.17609 4.11604 8.59091 3.99966 7.99999 4.00003Z" fill="#161616"/>
<path d="M3.05249 3.55253L3.75939 4.25933C4.31582 3.70164 4.9768 3.25919 5.70446 2.9573C6.43212 2.65542 7.21219 2.50003 7.99999 2.50003C8.78779 2.50003 9.56786 2.65542 10.2955 2.9573C11.0232 3.25919 11.6842 3.70164 12.2406 4.25933L12.9474 3.55253C12.2982 2.90189 11.5271 2.38569 10.6781 2.03349C9.82916 1.68129 8.91906 1.5 7.99994 1.5C7.08082 1.5 6.17072 1.68129 5.32176 2.03349C4.4728 2.38569 3.70169 2.90189 3.05249 3.55253Z" fill="#161616"/>
</svg>
