<svg width="16" height="16" viewBox="0 0 16 16" fill="none" xmlns="http://www.w3.org/2000/svg">
<path d="M10.842 9.52548L9.58351 9.94548L6.50001 7.74298V3.68448L7.77751 2.83248L7.22251 2.00048L6.00001 2.81548L4.77751 2.00048L4.22251 2.83248L5.50001 3.68448V7.02848L3.00001 5.24298V3.99998H2.00001V5.13948L0.84201 5.52548L1.15801 6.47448L2.41651 6.05498L5.14001 8.00048L2.41651 9.94548L1.15801 9.52548L0.84201 10.4745L2.00001 10.8605V12H3.00001V10.7575L5.50001 8.97198V12.3155L4.22251 13.1675L4.77751 13.9995L6.00001 13.184L7.22251 13.9995L7.77751 13.1675L6.50001 12.3155V8.97148L9.00001 10.7575V12H10V10.8605L11.158 10.4745L10.842 9.52548Z" fill="#161616"/>
<path d="M14.9558 6.96773L11.8142 1.18528C11.7832 1.12915 11.7376 1.08235 11.6824 1.04977C11.6271 1.01719 11.5642 1 11.5 1C11.4359 1 11.3729 1.01719 11.3176 1.04977C11.2624 1.08235 11.2169 1.12915 11.1858 1.18528L8.04426 6.96773C8.0144 7.02253 7.9993 7.08416 8.00044 7.14655C8.00158 7.20895 8.01892 7.26998 8.05076 7.32366C8.0826 7.37733 8.12785 7.42181 8.18207 7.45272C8.23628 7.48363 8.2976 7.49992 8.36001 7.49998H14.64C14.7024 7.49992 14.7637 7.48363 14.818 7.45272C14.8722 7.42181 14.9174 7.37733 14.9493 7.32366C14.9811 7.26998 14.9984 7.20895 14.9996 7.14655C15.0007 7.08416 14.9856 7.02253 14.9558 6.96773ZM11.125 2.99998H11.875V4.99998H11.125V2.99998ZM11.5 6.49998C11.4011 6.49998 11.3045 6.47066 11.2222 6.41572C11.14 6.36078 11.0759 6.28269 11.0381 6.19132C11.0002 6.09996 10.9903 5.99943 11.0096 5.90244C11.0289 5.80545 11.0765 5.71636 11.1465 5.64643C11.2164 5.5765 11.3055 5.52888 11.4025 5.50959C11.4995 5.4903 11.6 5.5002 11.6914 5.53804C11.7827 5.57589 11.8608 5.63997 11.9157 5.7222C11.9707 5.80442 12 5.90109 12 5.99998C12 6.13259 11.9473 6.25977 11.8536 6.35354C11.7598 6.4473 11.6326 6.49998 11.5 6.49998Z" fill="#161616"/>
</svg>
