<svg width="16" height="16" viewBox="0 0 16 16" fill="none" xmlns="http://www.w3.org/2000/svg">
<path d="M8.99999 14V13C9.6566 13 10.3068 12.8707 10.9134 12.6194C11.52 12.3681 12.0712 11.9998 12.5355 11.5355C12.9998 11.0712 13.3681 10.52 13.6194 9.91342C13.8707 9.30679 14 8.65661 14 8H15C15 9.5913 14.3678 11.1174 13.2426 12.2426C12.1174 13.3679 10.5913 14 8.99999 14Z" fill="#161616"/>
<path d="M8.99999 11.5V10.5C9.32829 10.5 9.65338 10.4353 9.95669 10.3097C10.26 10.1841 10.5356 9.99991 10.7678 9.76777C10.9999 9.53562 11.184 9.26002 11.3097 8.95671C11.4353 8.65339 11.5 8.3283 11.5 8H12.5C12.5 8.92826 12.1312 9.8185 11.4749 10.4749C10.8185 11.1313 9.92824 11.5 8.99999 11.5Z" fill="#161616"/>
<path d="M13.5 5.5H10.5V3.5C10.5 3.10218 10.342 2.72064 10.0606 2.43934C9.77934 2.15804 9.39781 2 8.99999 2H5.99999C5.60216 2 5.22063 2.15804 4.93933 2.43934C4.65802 2.72064 4.49999 3.10218 4.49999 3.5V5.5H1.49999C1.42751 5.49918 1.35572 5.51413 1.28959 5.5438C1.22347 5.57348 1.16458 5.61718 1.11702 5.67188C1.06946 5.72657 1.03436 5.79096 1.01415 5.86056C0.993942 5.93017 0.989109 6.00334 0.999986 6.075L1.93999 12.15C1.97615 12.3885 2.09727 12.6058 2.28103 12.762C2.4648 12.9182 2.69882 13.0027 2.93999 13H7.49999V12H2.92999L2.08499 6.5H13.5V5.5ZM5.49999 3.5C5.49999 3.36739 5.55266 3.24021 5.64643 3.14645C5.7402 3.05268 5.86738 3 5.99999 3H8.99999C9.13259 3 9.25977 3.05268 9.35354 3.14645C9.44731 3.24021 9.49999 3.36739 9.49999 3.5V5.5H5.49999V3.5Z" fill="#161616"/>
</svg>
