<svg width="16" height="16" viewBox="0 0 16 16" fill="none" xmlns="http://www.w3.org/2000/svg">
<path d="M11 8H5.00001V9H11V8Z" fill="#161616"/>
<path d="M9.00001 10H5.00001V11H9.00001V10Z" fill="#161616"/>
<path d="M8.00001 3.5C8.93026 3.5013 9.83115 3.82585 10.5485 4.41812C11.2659 5.01039 11.7551 5.83356 11.9325 6.74675L12.062 7.41975L12.7364 7.54175C13.4122 7.66359 14.018 8.03378 14.4348 8.57958C14.8515 9.12537 15.0491 9.8073 14.9886 10.4913C14.9281 11.1754 14.614 11.8121 14.1079 12.2763C13.6019 12.7405 12.9405 12.9986 12.2538 13H3.74771C3.06082 12.9992 2.39909 12.7414 1.89264 12.2774C1.38619 11.8133 1.07166 11.1766 1.01089 10.4924C0.950127 9.80821 1.14753 9.12603 1.56427 8.58001C1.98102 8.03399 2.58696 7.66362 3.26296 7.54175L3.93736 7.41975L4.06691 6.74675C4.2445 5.83355 4.73388 5.01042 5.45132 4.41818C6.16876 3.82593 7.0697 3.50137 8.00001 3.5ZM8.00001 2.5C6.83726 2.50127 5.71112 2.90676 4.81447 3.64703C3.91781 4.3873 3.30642 5.41628 3.08501 6.55775C2.16347 6.72408 1.33749 7.22909 0.769398 7.97351C0.20131 8.71793 -0.0677876 9.64792 0.0150007 10.5807C0.097789 11.5134 0.526475 12.3815 1.21679 13.0142C1.90711 13.6469 2.80914 13.9986 3.74556 14H12.2538C13.1902 13.9986 14.0923 13.647 14.7826 13.0143C15.4729 12.3815 15.9017 11.5135 15.9845 10.5807C16.0673 9.64796 15.7982 8.71796 15.2301 7.97353C14.662 7.2291 13.836 6.72408 12.9145 6.55775C12.693 5.41532 12.0809 4.38557 11.1831 3.64517C10.2853 2.90478 9.15785 2.4999 7.99416 2.5H8.00001Z" fill="#161616"/>
</svg>
