<svg width="16" height="16" viewBox="0 0 16 16" fill="none" xmlns="http://www.w3.org/2000/svg">
<path d="M12.1455 7.99979L13.938 4.74074C13.9799 4.66462 14.0012 4.5789 13.9998 4.49203C13.9985 4.40516 13.9745 4.32015 13.9303 4.24536C13.8861 4.17057 13.8232 4.10859 13.7477 4.06553C13.6722 4.02247 13.5869 3.99981 13.5 3.99979H9.94554L8.43799 1.25884C8.39483 1.18045 8.33142 1.11508 8.25438 1.06955C8.17734 1.02402 8.08948 1 7.99999 1C7.9105 1 7.82265 1.02402 7.74561 1.06955C7.66857 1.11508 7.60516 1.18045 7.56199 1.25884L6.05444 3.99979H2.49999C2.41312 3.99981 2.32774 4.02247 2.25229 4.06553C2.17683 4.10859 2.1139 4.17057 2.06969 4.24536C2.02548 4.32015 2.00152 4.40516 2.00017 4.49203C1.99882 4.5789 2.02013 4.66462 2.06199 4.74074L3.85449 7.99979L2.06199 11.2588C2.02013 11.335 1.99882 11.4207 2.00017 11.5076C2.00152 11.5944 2.02548 11.6794 2.06969 11.7542C2.1139 11.829 2.17683 11.891 2.25229 11.9341C2.32774 11.9771 2.41312 11.9998 2.49999 11.9998H6.05444L7.56199 14.7407C7.60516 14.8191 7.66857 14.8845 7.74561 14.93C7.82265 14.9756 7.9105 14.9996 7.99999 14.9996C8.08948 14.9996 8.17734 14.9756 8.25438 14.93C8.33142 14.8845 8.39483 14.8191 8.43799 14.7407L9.94554 11.9998H13.5C13.5869 11.9998 13.6722 11.9771 13.7477 11.9341C13.8232 11.891 13.8861 11.829 13.9303 11.7542C13.9745 11.6794 13.9985 11.5944 13.9998 11.5076C14.0012 11.4207 13.9799 11.335 13.938 11.2588L12.1455 7.99979ZM9.35434 10.9998L7.99999 13.4622L6.64564 10.9998H3.34564L4.99564 7.99979L3.34564 4.99979H6.64564L7.99999 2.53739L9.35434 4.99979H12.6543L11.0043 7.99979L12.6543 10.9998H9.35434Z" fill="#161616"/>
</svg>
