<svg width="16" height="16" viewBox="0 0 16 16" fill="none" xmlns="http://www.w3.org/2000/svg">
<path d="M11.2239 10.5C12.0489 9.52043 12.5009 8.28068 12.5 7C12.5009 5.89816 12.1706 4.82148 11.5519 3.90974C10.9333 2.998 10.0548 2.29331 9.03052 1.88715C8.00627 1.481 6.88357 1.39215 5.80818 1.63212C4.73279 1.8721 3.75439 2.42983 2.99998 3.2329V1H1.99998V5H5.99998V4H3.66598C4.34047 3.25457 5.24567 2.75716 6.23653 2.58747C7.22739 2.41778 8.24653 2.58564 9.13062 3.06415C10.0147 3.54265 10.7126 4.30411 11.1124 5.22647C11.5122 6.14884 11.5907 7.17872 11.3355 8.15106C11.0802 9.1234 10.506 9.9819 9.70471 10.589C8.90343 11.1961 7.92155 11.5166 6.91642 11.4992C5.91129 11.4818 4.9411 11.1274 4.16134 10.493C3.38158 9.85848 2.83739 8.9806 2.61598 8H1.59558C1.8302 9.26262 2.49881 10.4035 3.48572 11.2253C4.47263 12.047 5.71574 12.4979 6.99998 12.5C8.28066 12.5009 9.52041 12.0489 10.5 11.2239L14.2929 15L15 14.2929L11.2239 10.5Z" fill="#161616"/>
</svg>
