<svg width="16" height="16" viewBox="0 0 16 16" fill="none" xmlns="http://www.w3.org/2000/svg">
<path d="M9 6H3.99999V7H9V6Z" fill="#161616"/>
<path d="M10.7239 10C11.5489 9.0204 12.0009 7.78067 12 6.5C12 5.41221 11.6774 4.34884 11.0731 3.44437C10.4687 2.5399 9.60975 1.83495 8.60475 1.41867C7.59976 1.00238 6.49389 0.893465 5.427 1.10568C4.3601 1.3179 3.3801 1.84173 2.61091 2.61092C1.84172 3.3801 1.31789 4.36011 1.10568 5.42701C0.893457 6.4939 1.00238 7.59977 1.41866 8.60476C1.83494 9.60976 2.53989 10.4687 3.44436 11.0731C4.34883 11.6774 5.4122 12 6.49999 12C7.78066 12.0009 9.02039 11.5489 10 10.724L13.7929 14.5L14.5 13.793L10.7239 10ZM6.49999 11C5.60998 11 4.73995 10.7361 3.99993 10.2416C3.25991 9.74715 2.68313 9.04434 2.34254 8.22208C2.00194 7.39981 1.91283 6.49501 2.08646 5.6221C2.26009 4.74918 2.68868 3.94736 3.31801 3.31802C3.94735 2.68869 4.74917 2.2601 5.62209 2.08647C6.495 1.91284 7.3998 2.00195 8.22207 2.34254C9.04434 2.68314 9.74714 3.25992 10.2416 3.99994C10.7361 4.73996 11 5.60999 11 6.5C10.9987 7.69307 10.5241 8.83689 9.68051 9.68052C8.83689 10.5241 7.69306 10.9987 6.49999 11Z" fill="#161616"/>
</svg>
